<?xml version="1.0" encoding="utf-8"?>
<!-- Generator: Adobe Illustrator 26.3.1, SVG Export Plug-In . SVG Version: 6.00 Build 0)  -->
<svg version="1.1" id="Layer_1" xmlns="http://www.w3.org/2000/svg" xmlns:xlink="http://www.w3.org/1999/xlink" x="0px" y="0px"
	 viewBox="0 0 32.6 17.2" style="enable-background:new 0 0 32.6 17.2;" xml:space="preserve">
<style type="text/css">
	.st0{fill:#5A310A;}
	.st1{fill:#F5D3A0;}
</style>
<g>
	<g>
		<g>
			<path class="st0" d="M32.5,7.2c0-0.1,0-0.2,0.1-0.3c-0.1-0.1-0.3-0.1-0.5-0.2c-0.1,0-0.1-0.1,0-0.1c0.1,0,0.2,0,0.4,0
				c-0.1-0.2-0.1-0.3-0.2-0.5c0,0,0,0,0,0c0,0,0,0,0,0c0,0,0,0,0,0c0-0.1,0-0.2-0.1-0.2c0-0.1-0.1-0.2-0.1-0.3
				c-0.1-0.2-0.2-0.4-0.3-0.7c-0.1-0.2-0.3-0.5-0.4-0.7c-0.2-0.3-0.4-0.6-0.6-0.9c-0.2-0.3-0.4-0.5-0.7-0.7c0,0-0.1-0.1-0.1-0.1
				c0,0-0.1-0.1-0.1-0.1C29.6,2,29.3,1.8,29,1.6c-0.3-0.3-0.7-0.4-1-0.6c-0.1-0.1-0.3-0.1-0.4-0.2c-0.2,0-0.4-0.1-0.6-0.1
				c-0.1,0-0.2,0-0.2,0c0,0-0.1,0-0.1,0c0,0,0,0,0,0c0,0,0,0,0,0c0,0,0-0.4-0.1-0.5c-0.1-0.1-0.2-0.1-0.3-0.2C26.3,0,26.2,0,26.1,0
				c-0.3,0-0.7,0.1-1,0.1c-0.2,0-0.3,0.1-0.5,0.1c-0.5,0.1-1,0.1-1.5,0.2c-0.5,0.1-1.1,0.2-1.6,0.1c-0.4-0.1-0.9-0.1-1.3-0.2
				c-0.2,0-0.3,0-0.4,0c-0.1,0-0.1,0-0.2,0c-0.2,0-0.4,0.1-0.5,0.3c0,0.1,0,0.1-0.1,0.2c0,0.2-0.1,0.6-0.1,0.5
				c-0.1-0.2-0.2-0.5-0.4-0.6c-0.2,0.1-0.3,0.2-0.5,0.2c-0.3,0-0.7,0-1,0c-0.3,0-0.6-0.1-1-0.1c-0.1,0-0.2,0-0.3,0
				c0,0-0.1,0.1-0.1,0.1c-0.1,0.1-0.3,0.2-0.4,0.3c0,0,0,0-0.1,0c0,0,0,0,0-0.1c-0.2-0.2-0.4-0.4-0.6-0.4c-0.2-0.1-0.5,0-0.7,0.1
				c-0.2,0.1-0.4,0.2-0.7,0.2c-0.4,0.1-0.7,0.2-1.1,0.3c-0.5,0.1-1.1,0-1.6-0.1C10.2,1,10,1,9.8,0.9C9.7,0.8,9.6,0.7,9.5,0.7
				c0,0,0,0-0.1,0C9.4,0.8,9.3,0.9,9.2,1C9.1,1,9,1.1,9,1.2C8.9,1.3,8.8,1.4,8.8,1.5c0,0,0,0,0,0c0-0.1,0-0.3-0.1-0.4c0,0,0,0,0,0
				C8.7,0.8,8.6,0.6,8.5,0.4c0,0-0.1-0.1-0.1-0.1c-0.4-0.1-1,0-1.4,0c-0.5,0-0.9,0-1.3,0c-0.1,0-0.2,0-0.3,0.1
				c-0.2,0-0.4,0.1-0.5,0.1c-0.2,0-0.3,0-0.5,0c-0.5-0.1-0.9,0-1.3,0.2C2.7,0.8,2.4,1,2,1.1C1.6,1.3,1.3,1.5,0.9,1.8
				C0.7,1.9,0.5,2.1,0.5,2.4c0,0.2,0,0.5,0,0.7c0,0.1,0,0.2-0.1,0.3c0,0,0,0,0,0c0,0,0.1,0,0.1,0c0.6,0,1.1,0,1.7,0.1
				c-0.5,0-0.9,0.1-1.3,0.1C0.5,3.7-0.2,3.6,0,4c0.4,0.7,0.1,1.5,0.2,2.3c0,0.2-0.1,0.7,0.1,0.9c0,0,0.1,0.1,0.1,0.1
				c0.3,0,0.6,0,0.8,0C0.9,7.3,0.4,7.3,0.1,7.5c0.1,0.3,0.2,0.6,0.2,0.9c0,0.4-0.1,0.8,0,1.2c0.1,0,0.1,0,0.2,0c0.1,0,0.3,0,0.4,0.1
				c0.3,0,0.8,0.1,0.8,0.1C1.6,9.8,1.5,9.8,1.4,9.8C1.2,9.8,1,9.9,0.8,10c-0.1,0-0.3,0.1-0.4,0.2c0.1,0.3,0.1,0.8,0,1.1
				c-0.1,0.4-0.1,0.9-0.1,1.3c0.3,0.4,0.7,0.8,1,1.2c0.4,0.5,0.9,0.9,1.3,1.3c0.4,0.4,0.8,0.8,1.3,1.2c0.1,0.1,0.3,0.2,0.4,0.3
				c0.3,0.1,0.5,0.2,0.8,0.2c0.3,0.1,0.6,0.1,0.9,0.1c0.4,0,0.9-0.1,1.3-0.1c0,0,0.1,0,0.1,0c0.4,0,1,0.1,1.4-0.1c0.1,0,0.1,0,0.2,0
				c0,0,0.1,0,0.1,0c0.1-0.1,0.1-0.2,0.2-0.3c0,0,0,0,0-0.1c0,0,0.1-0.1,0.1-0.1c0,0,0,0,0,0c0.1,0.2,0.2,0.5,0.3,0.7
				c0.1-0.2,0.4-0.1,0.6-0.1c0.4,0,0.8,0,1.1,0c0.4,0,0.7-0.1,1.1-0.1c0.2,0,0.3,0,0.5,0c0.2,0,0.4,0,0.6,0c0.8,0,1.6,0,2.3,0
				c0,0,0,0,0,0c0.2,0,0.4,0,0.6,0.1c0.6,0,1.1,0.1,1.7,0.1c0.4,0,0.8,0.1,1.1-0.2c0.1,0,0.2-0.1,0.3-0.2c0.1,0,0.2-0.1,0.2-0.1
				c0,0,0,0.1,0,0.1c0,0.1,0.1,0,0.1,0c0-0.1,0.1-0.2,0.2-0.3c0,0,0,0,0,0c0,0,0,0,0,0c0,0.3,0.1,0.5,0.1,0.8c0.1,0,0.2,0.1,0.5,0
				c0.1,0,0.1,0,0.1,0c0.4,0,0.8,0.1,1.2,0.2c0.5,0.1,1,0.1,1.6,0c0.7,0,1.5,0,2.2,0c0.1-0.2,0.2-0.4,0.3-0.6c0,0,0.1,0,0.1,0
				c0.1,0.1,0.1,0.3,0.1,0.4c0,0.1,0,0.2,0,0.3c0.1,0,0.3,0,0.5,0c0.4,0,0.8-0.1,1.2,0c0.5,0,0.8-0.2,1.3-0.2c0.1,0,0.3,0,0.4,0.1
				c0,0,0,0,0,0c0,0,0,0,0.1,0c0.1,0,0.1,0.1,0.2,0.1c0,0,0,0,0.1,0c0.2-0.2,0.5-0.3,0.7-0.4c0,0,0,0,0.1,0c0,0,0.1,0,0.1-0.1
				c0.2-0.1,0.4-0.3,0.5-0.4c0.3-0.2,0.5-0.5,0.7-0.8c0.1-0.2,0.2-0.3,0.3-0.5c0-0.1,0.1-0.2,0.1-0.3c0,0,0-0.1,0-0.1
				c0,0-0.1-0.1-0.2-0.1c0.1,0,0.2-0.1,0.2-0.1c-0.1-0.4-0.1-0.7-0.1-1.1c0-0.3,0-0.5,0-0.8c0-0.2,0-0.4,0-0.5c-0.1,0-0.2,0-0.3-0.1
				c-0.2,0-0.3-0.1-0.5-0.1c0,0-0.1-0.1,0-0.1c0.2-0.1,0.4-0.1,0.6-0.2c0.1,0,0.2-0.1,0.3-0.1c0-0.3,0-0.7,0.1-1
				c0-0.2,0-0.5,0.1-0.7c0-0.7,0-1.4,0-2.2C32.6,7.4,32.5,7.3,32.5,7.2z"/>
			<path class="st1" d="M28.4,1.6c0-0.1,0-0.2-0.1-0.3c0,0,0,0,0,0c0.1,0,0.1,0.1,0.2,0.1c0,0,0,0,0,0c0.1,0.2,0.2,0.5,0.2,0.7
				c0,0.3-0.2,0.5-0.5,0.7c0,0,0,0,0,0c0.3-0.1,0.5-0.3,0.6-0.6c0-0.2,0-0.4,0-0.6c0.1,0.1,0.2,0.2,0.3,0.3c0,0.1,0.1,0.2,0.1,0.2
				c0.1,0.2,0,0.4-0.2,0.6c0,0,0,0,0,0c0.1-0.1,0.2-0.3,0.2-0.5c0-0.1,0-0.2,0-0.2c0,0,0,0,0,0c0,0,0.1,0.1,0.1,0.1
				c0,0.2,0,0.4,0,0.6c0,0.2-0.4,0.4-0.5,0.6c0,0,0,0,0,0c0.2-0.1,0.5-0.2,0.6-0.5c0.1-0.1,0.1-0.3,0-0.5c0.1,0.1,0.3,0.3,0.4,0.4
				c0,0.1,0,0.2,0,0.2c0,0.2-0.1,0.4-0.2,0.5c0,0,0,0,0,0C29.8,3.3,29.9,3.2,30,3c0-0.1,0-0.2,0-0.3c0,0,0.1,0.1,0.1,0.1
				c0,0.1,0,0.3,0,0.4c0,0.2-0.1,0.3-0.2,0.4c0,0-0.1,0.1-0.1,0.1c0,0,0,0,0,0c0.1,0,0.1,0,0.1-0.1c0.1-0.1,0.2-0.1,0.3-0.2
				c0.1-0.1,0.2-0.4,0.1-0.5c0.1,0.1,0.2,0.2,0.3,0.3c0,0,0.1,0.1,0.1,0.1c0,0.1,0,0.2-0.1,0.3c0,0.2-0.2,0.4-0.3,0.5c0,0,0,0,0,0
				c0.2,0,0.3-0.2,0.4-0.4c0-0.1,0.1-0.2,0.1-0.4c0.1,0.1,0.2,0.2,0.2,0.3c0,0.1,0,0.2-0.1,0.3c-0.1,0.1-0.1,0.1-0.2,0.2
				c-0.1,0.1-0.1,0.1-0.3,0.2c0,0,0,0,0,0c0.1,0,0.2,0,0.2-0.1c0.1-0.1,0.2-0.1,0.3-0.2C30.9,4.2,31,4.1,31,4
				c0.1,0.1,0.2,0.3,0.3,0.4c0,0.1,0,0.1-0.1,0.2c0,0.1-0.1,0.2-0.2,0.2c0,0,0,0,0,0c0.1,0,0.2-0.1,0.2-0.2c0,0,0.1-0.1,0.1-0.1
				c0.1,0.1,0.2,0.3,0.2,0.5c0,0,0,0.1-0.1,0.1c0,0-0.1,0.1-0.1,0.1c0,0-0.1,0.1-0.1,0.1c0,0,0,0,0,0c0,0,0.1,0,0.1,0
				c0,0,0.1,0,0.1-0.1c0.1,0,0.1-0.1,0.1-0.1c0,0.1,0.1,0.2,0.1,0.2c0,0,0,0,0,0c0,0-0.1,0.1-0.1,0.1c0,0,0,0,0,0c0,0,0.1,0,0.1,0
				c0,0,0,0,0.1,0c0,0.1,0,0.1,0,0.2c0.1,0.1,0.1,0.2,0.2,0.3c-0.1-0.1-0.2-0.1-0.3-0.1c-0.1-0.1-0.2-0.2-0.3-0.2
				c-0.5-0.4-1-0.8-1.5-1.2c-0.5-0.3-1-0.6-1.4-1c0,0-0.1,0-0.1-0.1c0.1,0,0.1-0.1,0.2-0.1c0.1-0.1,0.2-0.2,0.2-0.3c0,0,0,0,0,0
				c-0.1,0.1-0.2,0.1-0.2,0.2c-0.1,0.1-0.2,0.1-0.2,0.2c-0.1-0.1-0.2-0.1-0.3-0.2c0,0,0,0,0,0C27.9,3.1,28,3,28,3c0,0,0,0,0,0
				c0,0-0.1,0-0.1,0c0,0,0,0-0.1,0c0,0-0.1,0-0.1-0.1l0,0c-0.1-0.1-0.2-0.1-0.3-0.2c0,0,0,0,0,0c0.1,0,0.2-0.1,0.3-0.1
				c0.2-0.1,0.4-0.1,0.5-0.3c0.2-0.1,0.2-0.3,0.2-0.5C28.5,1.8,28.4,1.7,28.4,1.6z"/>
			<path class="st1" d="M20,0.5c0,0.1,0.1,0.1,0.1,0.2c0.1,0.1,0.1,0.3,0.1,0.5c0,0,0,0,0,0c0-0.2,0.1-0.3,0-0.5
				c0-0.1-0.1-0.1-0.1-0.1c0.1,0,0.2,0,0.3,0c0,0.1,0.1,0.1,0.1,0.2c0,0.1,0,0.4-0.1,0.5c0,0,0,0,0,0c0.1-0.2,0.2-0.4,0.1-0.7
				c0.2,0,0.4,0.1,0.6,0.1c0.2,0,0.4,0,0.6,0c0,0,0,0,0,0c0,0,0,0.1,0,0.1c0,0,0,0,0,0.1c0,0,0,0,0,0c0-0.1,0-0.1,0-0.2c0,0,0,0,0,0
				c0.1,0,0.2,0,0.3,0c0,0,0,0.1,0,0.1c0,0.1,0,0.1,0,0.2c0,0,0,0,0,0c0-0.1,0-0.2,0-0.3c0,0,0,0,0,0c0,0,0,0.1,0.1,0.1
				c0,0.1,0,0.1,0,0.2c0,0,0,0,0,0c0-0.1,0-0.2,0-0.2c0,0,0-0.1,0-0.1c0.3,0,0.5-0.1,0.8-0.1c0.3-0.1,0.7-0.1,1-0.1
				c0.1,0.2,0.2,0.3,0.2,0.5c0,0,0,0,0,0c0-0.1,0-0.2-0.1-0.3c0-0.1,0-0.1-0.1-0.2c0.2,0,0.4-0.1,0.6-0.1c0.1,0,0.2,0,0.2-0.1
				c0,0,0.1,0.1,0.1,0.1c0.1,0.1,0.1,0.2,0.2,0.3c0,0,0,0,0,0c0-0.1,0-0.2-0.1-0.4c0,0-0.1-0.1-0.1-0.1c0.1,0,0.1,0,0.2,0
				c0,0,0.1,0,0.2,0c0,0,0.1,0.1,0.1,0.1c0.1,0.1,0.1,0.2,0.1,0.4c0,0,0,0,0,0c0-0.1,0-0.2-0.1-0.4c0-0.1-0.1-0.1-0.1-0.1h0
				c0,0,0,0,0,0c0,0,0,0,0,0c0,0,0,0.1,0.1,0.1c0,0,0.1,0.1,0.1,0.2c0,0,0,0,0,0c0-0.1-0.1-0.1-0.1-0.2c0,0,0-0.1,0-0.1
				c0.1,0,0.3,0,0.4,0.1c0,0,0,0,0,0c0.1,0.2,0.1,0.4,0.1,0.6c0,0,0,0,0,0c0-0.1,0.1-0.4,0-0.5c0,0,0.1,0,0.1,0
				c0.1,0.2,0.1,0.5,0,0.7C26.1,0.8,25.3,1,25,1c0,0-0.1-0.1-0.1-0.1c-0.1-0.1-0.1-0.2-0.2-0.2c0,0-0.1,0-0.1,0.1c0,0,0,0.1,0,0.1
				c0,0,0,0.1,0,0.1c0,0,0,0,0,0.1c-0.3,0-0.6,0.1-0.8,0.1c-0.1,0-0.3,0.1-0.4,0.1c-0.1,0-0.2,0-0.3,0.1c-0.3,0.1-0.5,0.2-0.8,0.2
				c-0.1,0-0.2,0.1-0.3,0.1c-0.1,0-0.2,0-0.2,0c-0.2,0-0.1-0.4-0.1-0.5c0-0.1-0.1,0-0.1,0c-0.1,0.1-0.1,0.3-0.2,0.4
				c0,0,0,0.1-0.1,0.1c-0.1,0-0.2,0-0.2,0c0,0,0,0,0,0c-0.3,0-0.7-0.2-1-0.1c0-0.1,0-0.2,0.1-0.2c0-0.1,0-0.1,0-0.2
				c0-0.1,0-0.2,0-0.3c0-0.1-0.1-0.2-0.2-0.3C19.9,0.5,20,0.5,20,0.5z"/>
			<path class="st1" d="M10.2,1.2C10.2,1.2,10.2,1.2,10.2,1.2C10.2,1.2,10.2,1.2,10.2,1.2c0-0.1,0-0.1,0-0.1c0,0,0,0,0-0.1
				c0.1,0,0.2,0.1,0.3,0.1c0.1,0.2,0.2,0.4,0.1,0.6c0,0,0,0,0,0c0.1-0.2,0.1-0.4,0-0.6c0.1,0,0.2,0.1,0.4,0.1c0,0.1,0.1,0.2,0.1,0.3
				c0,0.1,0.1,0.3,0,0.4c0,0,0,0,0,0c0.1-0.1,0.1-0.2,0.1-0.3c0-0.1,0-0.2-0.1-0.3c0,0,0.1,0,0.1,0c0,0,0,0.1,0.1,0.1
				c0,0.1,0.1,0.2,0.1,0.3c0,0,0,0,0,0c0-0.1,0-0.2,0-0.3c0,0,0,0,0-0.1c0.2,0,0.4,0,0.6,0c0.3,0,0.5-0.1,0.8-0.2c0,0,0,0,0,0
				c0,0.1,0,0.1,0.1,0.2c0,0.1,0,0.2,0,0.2c0,0,0,0,0,0c0-0.1,0-0.2,0-0.3c0,0,0-0.1,0-0.1c0.1,0,0.1,0,0.2-0.1c0,0,0,0.1,0.1,0.1
				C13,1.2,13,1.3,13,1.4c0,0,0,0,0,0c0-0.1,0-0.1,0-0.2c0,0,0-0.1-0.1-0.1C13,1,13.1,1,13.2,1c0.3-0.1,0.5-0.2,0.8-0.3
				c0,0,0.1,0,0.1,0c0,0,0,0,0,0c0.1,0,0.2,0.2,0.2,0.3c0,0.1,0,0.2,0,0.3c0,0,0,0,0,0c0,0,0,0,0,0c0,0,0,0,0,0c0,0,0-0.1,0-0.2
				c0-0.1,0-0.2,0-0.2c0-0.1,0-0.2-0.1-0.3c0.1,0,0.2,0,0.3,0.1c0,0.1,0.1,0.1,0.1,0.2c0,0.1,0,0.2,0.1,0.3c0,0,0,0,0,0
				c0-0.1,0-0.1,0-0.2c0,0,0,0,0-0.1c0,0,0,0,0,0c0.1,0.1,0.1,0.2,0.2,0.3c0,0.1,0.1,0.2,0.1,0.4c-0.2-0.1-0.4-0.2-0.6-0.1
				c-0.4,0.1-0.9,0.1-1.3,0.2c-0.2,0.1-0.4,0.1-0.5,0.2c-0.3,0.2-0.3-0.2-0.4-0.3c-0.1,0-0.1,0-0.1,0.1c0,0.1-0.1,0.2-0.1,0.2
				c-0.2,0-0.4,0.1-0.6,0.1c-0.4,0.1-0.8,0.1-1.2,0.1c0,0,0,0,0-0.1C10.2,1.8,10.3,1.5,10.2,1.2z"/>
			<path class="st1" d="M1.4,1.7C1.4,1.7,1.4,1.7,1.4,1.7c0.2,0,0.3,0,0.5,0C2,1.7,2.2,1.8,2.2,2c0,0,0,0,0,0
				c0.1-0.3-0.3-0.4-0.6-0.5c0,0,0.1,0,0.1-0.1c0.1,0,0.2,0,0.3,0c0.2,0,0.3,0.1,0.5,0.1c0,0,0,0,0,0C2.4,1.5,2.3,1.5,2.1,1.4
				c0,0-0.1,0-0.1,0c0.1,0,0.2-0.1,0.3-0.1c0,0,0.1,0,0.1-0.1c0,0,0,0,0.1,0c0,0,0.1,0,0.1,0.1c0.1,0,0.2,0,0.3,0.1c0,0,0,0,0,0
				C2.9,1.3,2.8,1.2,2.7,1.2c0,0,0,0-0.1,0c0.1,0,0.1-0.1,0.2-0.1c0,0,0.1,0,0.1,0c0,0,0.1,0,0.1,0c0,0,0.1,0,0.1,0c0,0,0,0,0,0
				c0,0,0,0-0.1,0C3.1,1,3,1,3,1c0,0,0,0-0.1,0c0.1,0,0.1-0.1,0.2-0.1c0,0,0,0,0,0c0,0,0,0,0,0c0,0,0.1,0,0.1,0c0.1,0,0.1,0,0.2,0
				c0,0,0,0,0,0c-0.1,0-0.1,0-0.1-0.1c0,0,0,0,0,0c0.1,0,0.2-0.1,0.2-0.1c0,0,0,0,0.1,0c0.1,0,0.2,0,0.3,0c0,0,0,0,0,0
				c-0.1,0-0.1,0-0.2,0c0,0,0,0,0.1,0c0,0,0,0,0,0c0,0,0,0,0,0c0,0,0,0,0,0c0,0,0,0,0,0c0.1,0,0.1,0,0.2,0C3.9,0.7,3.8,0.7,3.8,0.8
				C3.5,1,3.3,1.2,3.1,1.5C2.9,1.7,2.8,1.9,2.6,2.1C2.5,2.2,2.4,2.7,2.3,2.4C2.2,2.2,1.9,2,1.8,2C1.6,1.9,1.4,1.8,1.1,1.9
				c0,0,0,0-0.1,0C1.2,1.8,1.2,1.8,1.4,1.7z"/>
			<path class="st1" d="M6.1,16.7c-0.2,0-0.4,0-0.6,0c0,0,0,0,0-0.1c0,0,0,0-0.1,0c0,0,0,0,0,0.1c-0.1,0-0.1,0-0.2,0c0,0,0,0,0,0
				c0,0,0-0.1,0-0.1c0,0,0-0.1,0-0.1c0,0,0,0,0,0c0,0.1-0.1,0.1-0.1,0.2c0,0,0,0,0,0c-0.1,0-0.1,0-0.2,0c0,0,0,0,0-0.1
				c0-0.1,0.1-0.1,0.1-0.2c0,0,0,0,0,0c0,0-0.1,0.1-0.1,0.1c0,0-0.1,0.1-0.1,0.1c0,0,0,0,0,0c-0.2,0-0.3-0.1-0.5-0.2
				c0,0,0.1,0,0.1-0.1c0,0,0.1-0.1,0.1-0.1c0.1-0.1,0.1-0.2,0.1-0.2c0,0,0,0,0,0c0,0.1-0.1,0.2-0.2,0.3c-0.1,0.1-0.1,0.1-0.2,0.1
				c0,0,0,0-0.1,0c0,0,0,0,0.1-0.1c0,0,0.1-0.1,0.1-0.1c0,0,0,0,0,0c0,0-0.1,0.1-0.1,0.1c0,0-0.1,0-0.1,0.1C4,16.1,3.8,16,3.7,15.8
				c0.1,0,0.2-0.1,0.2-0.1C4,15.6,4,15.6,4,15.5c0.1-0.1,0.1-0.1,0.2-0.2c0,0,0,0,0,0c-0.1,0.1-0.2,0.2-0.3,0.3
				c-0.1,0.1-0.2,0.1-0.3,0.2c0,0-0.1-0.1-0.1-0.1c0.1,0,0.2-0.1,0.2-0.1c0.1-0.1,0.2-0.2,0.3-0.3c0,0,0,0,0,0
				c-0.1,0.1-0.2,0.1-0.2,0.2c-0.1,0.1-0.2,0.1-0.3,0.2c0,0,0,0,0,0c0,0,0,0,0,0c0,0,0.1,0,0.1-0.1c0.1-0.1,0.2-0.1,0.2-0.2
				c0,0,0,0,0,0c-0.1,0.1-0.1,0.1-0.2,0.2c0,0-0.1,0-0.2,0.1c-0.1-0.1-0.2-0.2-0.3-0.3c0.1,0,0.2-0.2,0.3-0.2
				c0.1-0.1,0.3-0.3,0.4-0.5c0,0,0,0,0,0c-0.1,0.2-0.3,0.3-0.4,0.4c-0.1,0-0.2,0.1-0.3,0.2c0,0-0.1-0.1-0.1-0.1c0,0,0.1-0.1,0.1-0.1
				C2.9,14.8,3,14.8,3,14.7c0,0,0,0,0,0c-0.1,0.1-0.2,0.1-0.3,0.2c-0.1-0.1-0.3-0.3-0.4-0.4c0.1,0,0.2,0,0.2-0.1
				C2.7,14.3,2.9,14.2,3,14c0,0,0,0,0,0c-0.2,0.2-0.5,0.3-0.7,0.4c0,0-0.1-0.1-0.1-0.1c0,0,0.1,0,0.1-0.1c0.1,0,0.1-0.1,0.2-0.1
				c0.1,0,0.1-0.1,0.1-0.1c0,0,0,0,0,0c-0.2,0.1-0.3,0.2-0.5,0.2C2,14.2,2,14.2,1.9,14.1c0.1,0,0.2-0.1,0.2-0.2c0,0,0,0,0,0
				C2.1,14,2,14,2,14c0,0-0.1,0-0.1,0c-0.1-0.1-0.2-0.2-0.3-0.3c0.2,0,0.5-0.1,0.7-0.2c0.3-0.2,0.5-0.5,0.6-0.9c0,0,0,0,0,0
				c-0.1,0.3-0.3,0.5-0.5,0.7c-0.1,0.1-0.3,0.1-0.5,0.1c-0.1,0-0.2,0-0.3,0c0,0-0.1-0.1-0.1-0.1c0,0,0,0,0,0c0.1,0,0.2,0,0.3,0
				c0.2,0,0.4-0.2,0.5-0.3c0,0,0,0,0,0c-0.3,0.1-0.6,0.2-0.9,0.3c-0.1-0.1-0.1-0.2-0.2-0.3c0.6,0.1,1.2-0.3,1.3-0.9c0,0,0,0,0,0
				C2.1,12.8,1.6,12.9,1,13c0,0-0.1-0.1-0.1-0.1c0.2,0,0.4,0,0.6-0.1c0.2-0.1,0.4-0.2,0.5-0.4c0,0,0,0,0,0c-0.1,0.2-0.4,0.2-0.6,0.3
				c-0.1,0-0.2,0-0.3,0c-0.1,0-0.2,0-0.3,0c0,0-0.1-0.1-0.1-0.1c0,0,0,0,0,0c0.2,0,0.5,0,0.6-0.1c0.4-0.2,0.6-0.4,0.8-0.8
				c0.1-0.2,0.3-0.4,0.3-0.6C2.6,11.7,3,12.9,3,13c0.1,0.3,0.1,0.6,0.2,0.9c0.1,0.1,0.3,0.2,0.4,0.3c0.2,0.1,0.3,0.3,0.5,0.4
				c0.3,0.3,0.4,0.7,0.6,1c0.2,0.3,0.5,0.5,0.7,0.7c0.3,0.2,0.5,0.2,0.8,0.3C6.2,16.7,6.2,16.7,6.1,16.7L6.1,16.7z"/>
			<path class="st1" d="M19.8,15.8c0,0.2-0.1,0.3-0.2,0.5c0,0,0,0,0,0c0.2-0.3,0.1-0.7-0.1-0.9c0,0,0,0,0,0c0.1,0.2,0.1,0.4,0.1,0.6
				c0,0.2-0.2,0.3-0.2,0.5c-0.2,0.1-0.3,0.1-0.5,0.1c0,0,0,0,0-0.1c0-0.1,0.1-0.2,0.1-0.3c0,0,0,0,0,0c0,0.1-0.1,0.2-0.1,0.2
				c0,0-0.1,0.1-0.1,0.1c0,0,0,0,0,0c-0.1,0-0.1,0-0.2,0c0.1-0.1,0.1-0.2,0.2-0.4c0.1-0.2-0.1-0.5-0.2-0.6c0,0,0,0,0,0
				c0.1,0.2,0.1,0.4,0.1,0.6c0,0.1-0.1,0.2-0.2,0.4c-0.3,0-0.6,0-0.8-0.1c0,0,0-0.1,0-0.1c0-0.1,0-0.2,0-0.3c0,0,0,0,0,0
				c0,0.1,0,0.2-0.1,0.3c0,0,0,0.1,0,0.1c0,0-0.1,0-0.1,0c0,0,0.1,0,0.1,0c-0.1,0-0.2,0-0.3,0c0,0,0,0,0,0c0-0.1,0-0.1,0-0.2
				c0-0.2-0.1-0.3-0.2-0.5c0,0,0,0,0,0c0,0.1,0,0.2,0,0.3c0,0.1,0,0.2,0,0.3c0,0,0,0,0,0c-0.2,0-0.5,0-0.7,0c0.1-0.1,0.1-0.3,0-0.4
				c0,0,0,0,0,0c0,0.1,0,0.2-0.1,0.3c0,0,0,0.1,0,0.1c-0.1,0-0.2,0-0.2,0c0.1-0.3,0.1-0.6-0.1-0.9c0,0,0,0,0,0
				c0.1,0.3,0.1,0.6,0,0.9c-0.2,0-0.4,0-0.6,0h0c0,0,0.1-0.1,0.1-0.1c0-0.2,0-0.3,0-0.5c0,0,0,0,0,0c0,0.1,0,0.3,0,0.4
				c0,0.1-0.1,0.1-0.1,0.2c-0.1,0-0.2,0-0.3,0c0.2-0.2,0.2-0.6,0-0.8c0,0,0,0,0,0c0.1,0.2,0.1,0.4,0,0.5c0,0.1-0.1,0.2-0.1,0.3
				c0,0-0.1,0-0.1,0c0,0,0,0,0,0c0,0,0-0.1,0-0.1c0-0.1,0-0.2,0-0.2c0,0,0,0,0,0c0,0.1-0.1,0.2-0.1,0.3c0,0,0,0,0,0
				c-0.1,0-0.2,0-0.3,0c0.1-0.1,0.1-0.2,0.1-0.3c0-0.2-0.1-0.3-0.2-0.5c0,0,0,0,0,0c0,0.1,0.1,0.3,0.1,0.5c0,0.1-0.1,0.2-0.1,0.4
				c-0.1,0-0.1,0-0.2,0c0,0,0-0.1,0.1-0.1c0-0.1,0-0.2,0-0.2c0,0,0,0,0,0c0,0.1-0.1,0.2-0.1,0.3c0,0,0,0.1-0.1,0.1
				c-0.1,0-0.3,0-0.4,0c0,0,0.1-0.1,0.1-0.2c0.1-0.2,0-0.5-0.1-0.6c0,0,0,0,0,0c0.1,0.2,0.1,0.4,0,0.6c0,0.1-0.1,0.1-0.1,0.2
				c0,0,0,0,0,0c0,0-0.1,0-0.1,0c0,0,0,0,0-0.1c0-0.1,0.1-0.2,0.1-0.3c0,0,0,0,0,0c0,0.1-0.1,0.2-0.1,0.3c0,0,0,0-0.1,0.1
				c-0.1,0-0.2,0-0.2,0c0.2-0.2,0.3-0.4,0.3-0.6c0-0.2-0.1-0.4-0.3-0.4c0.2-0.1,0.6,0,0.8,0c0.3,0,0.7,0.1,1,0
				c0.8,0,1.5,0.1,2.2,0.1c0,0,0.1,0,0.1,0c0.1,0,0.1,0.1,0.2,0.1c0,0,0,0,0,0c0,0,0,0,0,0c0,0.1,0.1,0.1,0.1,0.2c0,0.1,0.1,0,0.1,0
				c0-0.1,0-0.4,0.1-0.4c0.2,0,0.5,0,0.7-0.1c0.1,0,0.1,0,0.2,0c0.1,0,0.2,0,0.2,0c0.1,0,0.2,0,0.3-0.1c0,0,0,0,0.1,0
				c0,0,0.1,0,0.1,0c0.1,0,0.2,0,0.3,0c0,0,0.1,0,0.1-0.1c0,0,0.1,0,0.1,0c0,0,0,0,0.1,0c0,0,0,0,0,0c0,0,0,0,0,0c0,0,0,0.1,0.1,0.2
				c0,0.1,0.1,0.2,0.1,0.2c0,0,0,0.1,0,0.1C19.8,15.6,19.8,15.7,19.8,15.8z"/>
			<path class="st1" d="M32.3,14.9c-0.1,0.2-0.2,0.4-0.4,0.6c0,0,0,0,0,0c0,0,0,0,0,0c0,0,0,0-0.1-0.1c0,0,0,0,0,0c0,0,0,0,0,0.1
				c0,0,0,0,0,0.1c0,0,0,0,0,0c-0.1,0.1-0.1,0.1-0.2,0.2c0,0,0-0.1,0-0.1c0-0.1-0.1-0.1-0.2-0.1c0,0,0,0,0,0c0,0.1,0.1,0.1,0.1,0.2
				c0,0,0,0.1,0,0.1c-0.1,0.1-0.1,0.1-0.2,0.2c0,0,0,0,0-0.1c0-0.1-0.1-0.1-0.1-0.1c0,0,0,0,0,0c0,0.1,0.1,0.1,0.1,0.2
				c0,0,0,0.1,0,0.1c0,0,0,0-0.1,0.1c0,0-0.1,0.1-0.1,0.1c0-0.1,0-0.1,0-0.1C31.1,16,31,16,30.9,15.9c0,0,0,0,0,0
				C31,16,31,16.1,31,16.2c0,0,0,0.1,0,0.1c-0.1,0-0.1,0.1-0.2,0.1c0,0,0,0-0.1,0c0-0.1,0-0.1,0-0.2c0-0.1-0.1-0.2-0.1-0.2
				c0,0,0,0,0,0c0,0.1,0.1,0.2,0.1,0.3c0,0.1,0,0.1,0,0.2c0,0,0,0-0.1,0c0,0-0.1,0-0.1,0.1c0-0.1,0.1-0.2,0-0.3
				c0-0.2-0.2-0.2-0.3-0.3c0,0,0,0,0,0c0.1,0.1,0.2,0.2,0.2,0.3c0,0.1,0,0.2,0,0.4c-0.1,0-0.1,0.1-0.2,0.1c0-0.2,0-0.3-0.1-0.5
				c-0.1-0.1-0.4-0.4-0.5-0.4c0.3-0.1,0.7-0.1,1-0.1c0.3,0,0.5-0.2,0.7-0.3C31.7,15.3,32,15.2,32.3,14.9
				C32.3,14.9,32.3,14.9,32.3,14.9C32.3,14.9,32.3,14.9,32.3,14.9z"/>
			<path class="st1" d="M32.3,7.8c0,0.1,0,0.3,0,0.4c0,0.6,0,1.2,0,1.9c0,0.4,0,0.9,0,1.3c-0.2,0.1-0.5,0.2-0.7,0.3
				c-0.1,0-0.3,0-0.4,0.1c0,0-0.1,0.1,0,0.1c0.3,0.1,0.6,0.1,0.9,0.1c0.1,0,0.2,0,0.2,0.2c0,0.4,0,0.8,0.1,1.2c0,0.2,0,0.5,0,0.7
				c0,0,0,0,0,0.1c0,0,0,0,0,0c0,0,0,0,0,0c0,0,0,0,0,0c0,0,0,0,0,0c-0.1,0.1-0.2,0.1-0.3,0.1c0,0-0.1,0-0.1,0.1c0,0,0,0.1,0.1,0
				c0,0,0,0,0,0c0,0,0,0,0.1,0c0.1,0,0.1,0.2,0.2,0.1c-0.1,0.2-0.3,0.3-0.4,0.4c-0.3,0.2-0.6,0.4-1,0.6c-0.2,0.1-0.4,0.1-0.6,0.1
				c-0.2,0-0.3,0.1-0.5,0.1c-0.1,0-0.2,0-0.2,0.1c0,0,0,0,0,0c0.1,0.1,0.3,0.1,0.4,0.3c0.1,0.2,0.2,0.3,0.2,0.6c0,0-0.1,0-0.1,0
				c0,0-0.1,0-0.1,0c-0.1,0-0.2-0.1-0.4-0.1c-0.2,0-0.5,0-0.7,0.1C28.5,17,28.1,17,27.7,17c-0.2,0-0.5,0-0.7,0c-0.1,0-0.3,0-0.4,0
				c0,0-0.1-0.1-0.1-0.2c0-0.1,0-0.1,0-0.2c0-0.1-0.1-0.3-0.1-0.4c0,0,0,0,0,0c-0.1,0.1-0.2,0.3-0.3,0.5c0,0.1-0.1,0.1-0.1,0.2
				c-0.8,0-1.6-0.1-2.4,0c-0.9,0-1.6-0.2-2.5-0.2c-0.1,0-0.2,0-0.2,0c-0.3-0.1-0.3-0.3-0.3-0.4c0-0.1,0-0.2,0-0.3
				c0-0.1-0.1-0.2-0.1-0.3c0,0,0-0.1,0-0.1c0-0.1-0.1,0-0.1,0c-0.1,0.1-0.1,0.2-0.2,0.3c0,0.1-0.1,0.1-0.1,0.2c0,0,0,0,0,0
				c0-0.1,0-0.1,0-0.2c0-0.1,0-0.1,0-0.2c0,0,0,0,0,0c0-0.1,0-0.2,0-0.2c0-0.1-0.1-0.1-0.1-0.2c0,0,0,0,0-0.1c0-0.1,0-0.2-0.1-0.3
				c0,0,0,0,0,0c-0.1,0-0.2,0.1-0.3,0.1c0,0,0,0,0,0c-0.2,0-0.5,0.1-0.7,0.1c0,0-0.1,0-0.1,0c-0.2,0-0.3,0.1-0.5,0.1
				c-0.1,0-0.2,0-0.3,0c-0.2,0-0.4,0-0.5,0.1c0,0.1-0.1,0.2-0.1,0.3c0,0,0,0,0,0c-0.1-0.1-0.1-0.2-0.2-0.3c0-0.1-0.2,0-0.3,0
				c-0.2,0-0.3,0-0.5,0c-0.8,0-1.6-0.1-2.3-0.2c-0.4,0-0.8-0.1-1.1,0c0,0-0.1,0-0.1,0c0,0-0.1,0.1-0.1,0.1c-0.1,0.1-0.2,0.2-0.2,0.3
				c-0.1,0.1,0,0.2,0,0.4c0,0,0,0,0,0c0.1-0.1,0.3-0.1,0.5-0.1c0,0.1,0,0.2-0.1,0.3c-0.1,0.2-0.4,0.2-0.5,0.3c-0.3,0.1-0.6,0-0.9,0
				c-0.3,0-0.7,0-1,0c-0.1,0-0.2,0-0.4,0c0,0,0,0,0,0c0,0,0,0,0-0.1c-0.1-0.2-0.1-0.5-0.1-0.7c0-0.1-0.1,0-0.1,0
				c0,0.3-0.2,0.5-0.3,0.7c0,0.1-0.1,0.1-0.1,0.1c-0.2,0-0.4,0.1-0.6,0.1c-0.1,0-0.2,0-0.3,0c-0.4,0-0.8,0-1.2,0
				c-0.6,0-1.3-0.2-1.8-0.6c-0.6-0.5-0.7-1.2-1.2-1.7c-0.1-0.1-0.2-0.2-0.3-0.2c0,0-0.1,0-0.1-0.1c-0.3-0.2-0.4-0.6-0.5-0.9
				C3,12.4,2.9,11.6,2.5,11c0,0,0,0,0-0.1c0,0,0,0,0,0c0,0,0,0,0-0.1c-0.2,0-0.5,0.1-0.7,0.2c-0.3,0.1-0.4,0.3-0.7,0.5
				c0,0-0.1,0.1,0,0.1c0.1,0,0.5,0,0.5,0.1c0,0.2,0.1,0.3,0.2,0.4c-0.1,0.1-0.2,0.2-0.4,0.3c-0.3,0.1-0.7,0.2-0.9,0c0,0,0,0,0-0.1
				c0-0.2,0-0.4,0-0.6c0-0.4,0.1-0.7,0.1-1.1c0-0.1,0.2-0.3,0-0.4c0,0,0,0,0,0c0.1,0,0.3-0.1,0.5-0.1c0.2-0.1,0.7-0.1,0.8-0.3
				c0,0,0-0.1,0-0.1c-0.2,0-1.3,0-1.3-0.2c0-0.1,0-0.2,0-0.3c0-0.2-0.1-0.5-0.1-0.7c0-0.3,0-0.6-0.2-0.8c0,0,0-0.1,0-0.1
				c0.2-0.1,0.5,0,0.8-0.1c0.2-0.1,0.4-0.1,0.5-0.2c0,0,0,0,0,0C1.4,7.1,1.3,7,1,7C0.5,7,0.6,6.9,0.5,6.7c-0.1-0.3,0-0.6-0.1-0.8
				c0-0.3,0.1-0.5,0.1-0.8c0-0.1-0.1-1.2-0.2-1.2c0.4,0,0.9-0.2,1.3-0.2c0.3,0,0.6-0.1,0.9-0.1c0,0,0.1-0.1,0-0.1
				C2,3.4,1.4,3.3,0.8,3.3c0,0,0-0.2,0-0.3c0-0.2,0.1-0.4,0.1-0.6C1,2.1,1.2,1.9,1.6,2.1C1.7,2.1,1.9,2.3,2,2.3
				c0.2,0.1,0.2,0.2,0.3,0.4c0,0,0,0,0,0c0.1-0.1,0.2-0.2,0.2-0.3C2.7,2.1,3,1.9,3.2,1.6c0.2-0.2,0.3-0.4,0.5-0.6
				C3.8,0.9,4,0.8,4.2,0.6c0.2,0,0.3,0,0.5,0c0.5,0,0.9-0.2,1.5-0.2c0.2,0,2.2,0.1,2.2,0C8.4,0.7,8.5,1,8.6,1.2
				c0.1,0.2,0,0.4,0.2,0.5c0,0,0.1,0,0.1,0C9,1.4,9.2,1.2,9.4,0.9c0.1,0,0.1,0,0.2,0.1c0,0,0.1,0.1,0.1,0.1C9.9,1.2,10,1.3,10,1.3
				C10,1.4,10,1.4,10,1.5c0,0-0.1,0-0.1,0c-0.1,0-0.2,0-0.2,0.1c-0.1,0.1,0,0.2,0,0.3c0,0.1,0.1,0.3,0.2,0.3c0,0,0,0,0,0
				c0,0,0,0,0,0c0,0,0,0,0,0c0,0,0,0,0,0c0.1,0,0.1,0,0.2,0c0.2,0,0.5,0,0.7,0c0,0,0,0,0,0c0.2,0,0.3,0,0.5-0.1
				c0.1,0,0.2-0.1,0.3-0.1c0.1,0,0.2,0,0.2,0C12,2,12,1.9,12.1,1.8c0,0,0.1,0,0.1,0c0,0.1,0.1,0.2,0.1,0.3c0.2,0.1,0.4,0,0.6-0.1
				c0.3-0.1,0.7-0.2,1.1-0.3c0.4,0,0.8-0.2,1.1,0.2l0,0c0.1,0,0.1-0.1,0.2-0.2c0.1-0.2,0.2-0.4,0-0.6c0,0,0,0,0,0
				c0.1,0,0.1-0.1,0.2-0.1c0,0,0,0,0,0c0,0,0,0,0,0c0,0,0,0,0.1,0c0,0,0.1-0.1,0.1-0.1c0,0,0,0,0,0C15.9,1,17.2,1,17.4,1.1
				c0.4,0,0.8,0.1,1.2,0.1c0.1,0.2,0.2,0.4,0.3,0.6c0,0,0,0,0,0.1c0.2-0.2,0.2-0.6,0.2-0.9c0.1-0.2,0.2-0.3,0.4-0.2
				c0.6,0,0.4,0.6,0.3,1c0.3,0,0.6,0,0.9,0c0.2,0,0.4,0.1,0.5,0.1c0,0,0,0,0,0c0-0.1,0.1-0.2,0.1-0.3c0,0,0.1,0,0.1,0
				c0,0.1,0.1,0.2,0.1,0.2c0.2,0,0.3,0,0.5-0.1c0.2,0,0.3-0.1,0.5-0.1c0.3-0.1,0.7-0.2,1-0.2c0.3-0.1,0.6-0.1,1-0.1c0,0,0.1,0,0.1,0
				c0,0,0-0.1,0-0.1c0,0,0,0,0,0c0,0,0,0,0,0c0-0.1,0-0.1,0-0.2c0,0,0.1,0,0.1,0c0.1,0.1,0.1,0.2,0.2,0.3c0,0,0.1,0,0.1,0
				c0.1,0,0.3,0,0.4-0.1c0.2,0,0.5,0,0.7,0c0.1,0,0.2,0.1,0.3,0.1c0,0,0,0,0,0c0,0,0,0,0,0c0,0,0,0,0,0c0,0,0,0,0.1,0.1
				c0-0.1,0-0.1,0.1-0.2c0-0.1,0-0.1,0-0.2c0,0,0,0,0,0c0.1,0,0.2,0,0.2,0c0.2,0,0.3,0,0.5,0.1c0.2,0,0.4,0,0.6,0.2
				c0.1,0,0.1,0.1,0.1,0.1c0,0,0,0,0,0c0,0,0,0,0,0c0,0,0,0,0,0c0,0.1,0.1,0.2,0.1,0.3c0.1,0.2,0,0.4,0,0.6c0,0,0,0-0.1,0
				C28,2,27.9,1.9,27.8,1.8c-0.2,0.1-0.4,0.3-0.5,0.6c-0.1,0.2-0.1,0.5,0,0.6c0,0,0.1,0.1,0.1,0.1c0.1,0,0.2,0.1,0.3,0.1
				c0.1,0.1,0.2,0.2,0.3,0.2c0.4,0.2,0.7,0.5,1.1,0.7c0.6,0.4,1.2,0.9,1.8,1.3c0,0,0,0,0,0c0.1,0,0.1,0.1,0.2,0.1
				c0.2,0.1,0.4,0.3,0.7,0.5c0.2,0.1,0.3,0.3,0.5,0.4c0,0,0,0,0,0c0,0,0,0,0,0c0,0,0,0.1,0,0.1c-0.4,0.1-0.9,0.1-1.4,0.2
				c0.2,0,0.3,0,0.5,0.1c0.3,0,0.7,0,1,0.1c0,0,0,0,0,0.1c0,0-0.2,0.1-0.3,0.2c0,0,0.1,0.1,0.1,0.1c0.1,0.1,0.1,0.1,0.1,0.2
				C32.4,7.7,32.3,7.8,32.3,7.8z"/>
		</g>
		<g>
			<path class="st0" d="M32.5,7.2c0-0.1,0-0.2,0.1-0.3c-0.1-0.1-0.3-0.1-0.5-0.2c-0.1,0-0.1-0.1,0-0.1c0.1,0,0.2,0,0.4,0
				c-0.1-0.2-0.1-0.3-0.2-0.5c0,0,0,0,0,0c0,0,0,0,0,0c0,0,0,0,0,0c0-0.1,0-0.2-0.1-0.2c0-0.1-0.1-0.2-0.1-0.3
				c-0.1-0.2-0.2-0.4-0.3-0.7c-0.1-0.2-0.3-0.5-0.4-0.7c-0.2-0.3-0.4-0.6-0.6-0.9c-0.2-0.3-0.4-0.5-0.7-0.7c0,0-0.1-0.1-0.1-0.1
				c0,0-0.1-0.1-0.1-0.1C29.6,2,29.3,1.8,29,1.6c-0.3-0.3-0.7-0.4-1-0.6c-0.1-0.1-0.3-0.1-0.4-0.2c-0.2,0-0.4-0.1-0.6-0.1
				c-0.1,0-0.2,0-0.2,0c0,0-0.1,0-0.1,0c0,0,0,0,0,0c0,0,0,0,0,0c0,0,0-0.4-0.1-0.5c-0.1-0.1-0.2-0.1-0.3-0.2C26.3,0,26.2,0,26.1,0
				c-0.3,0-0.7,0.1-1,0.1c-0.2,0-0.3,0.1-0.5,0.1c-0.5,0.1-1,0.1-1.5,0.2c-0.5,0.1-1.1,0.2-1.6,0.1c-0.4-0.1-0.9-0.1-1.3-0.2
				c-0.2,0-0.3,0-0.4,0c-0.1,0-0.1,0-0.2,0c-0.2,0-0.4,0.1-0.5,0.3c0,0.1,0,0.1-0.1,0.2c0,0.2-0.1,0.6-0.1,0.5
				c-0.1-0.2-0.2-0.5-0.4-0.6c-0.2,0.1-0.3,0.2-0.5,0.2c-0.3,0-0.7,0-1,0c-0.3,0-0.6-0.1-1-0.1c-0.1,0-0.2,0-0.3,0
				c0,0-0.1,0.1-0.1,0.1c-0.1,0.1-0.3,0.2-0.4,0.3c0,0,0,0-0.1,0c0,0,0,0,0-0.1c-0.2-0.2-0.4-0.4-0.6-0.4c-0.2-0.1-0.5,0-0.7,0.1
				c-0.2,0.1-0.4,0.2-0.7,0.2c-0.4,0.1-0.7,0.2-1.1,0.3c-0.5,0.1-1.1,0-1.6-0.1C10.2,1,10,1,9.8,0.9C9.7,0.8,9.6,0.7,9.5,0.7
				c0,0,0,0-0.1,0C9.4,0.8,9.3,0.9,9.2,1C9.1,1,9,1.1,9,1.2C8.9,1.3,8.8,1.4,8.8,1.5c0,0,0,0,0,0c0-0.1,0-0.3-0.1-0.4c0,0,0,0,0,0
				C8.7,0.8,8.6,0.6,8.5,0.4c0,0-0.1-0.1-0.1-0.1c-0.4-0.1-1,0-1.4,0c-0.5,0-0.9,0-1.3,0c-0.1,0-0.2,0-0.3,0.1
				c-0.2,0-0.4,0.1-0.5,0.1c-0.2,0-0.3,0-0.5,0c-0.5-0.1-0.9,0-1.3,0.2C2.7,0.8,2.4,1,2,1.1C1.6,1.3,1.3,1.5,0.9,1.8
				C0.7,1.9,0.5,2.1,0.5,2.4c0,0.2,0,0.5,0,0.7c0,0.1,0,0.2-0.1,0.3c0,0,0,0,0,0c0,0,0.1,0,0.1,0c0.6,0,1.1,0,1.7,0.1
				c-0.5,0-0.9,0.1-1.3,0.1C0.5,3.7-0.2,3.6,0,4c0.4,0.7,0.1,1.5,0.2,2.3c0,0.2-0.1,0.7,0.1,0.9c0,0,0.1,0.1,0.1,0.1
				c0.3,0,0.6,0,0.8,0C0.9,7.3,0.4,7.3,0.1,7.5c0.1,0.3,0.2,0.6,0.2,0.9c0,0.4-0.1,0.8,0,1.2c0.1,0,0.1,0,0.2,0c0.1,0,0.3,0,0.4,0.1
				c0.3,0,0.8,0.1,0.8,0.1C1.6,9.8,1.5,9.8,1.4,9.8C1.2,9.8,1,9.9,0.8,10c-0.1,0-0.3,0.1-0.4,0.2c0.1,0.3,0.1,0.8,0,1.1
				c-0.1,0.4-0.1,0.9-0.1,1.3c0.3,0.4,0.7,0.8,1,1.2c0.4,0.5,0.9,0.9,1.3,1.3c0.4,0.4,0.8,0.8,1.3,1.2c0.1,0.1,0.3,0.2,0.4,0.3
				c0.3,0.1,0.5,0.2,0.8,0.2c0.3,0.1,0.6,0.1,0.9,0.1c0.4,0,0.9-0.1,1.3-0.1c0,0,0.1,0,0.1,0c0.4,0,1,0.1,1.4-0.1c0.1,0,0.1,0,0.2,0
				c0,0,0.1,0,0.1,0c0.1-0.1,0.1-0.2,0.2-0.3c0,0,0,0,0-0.1c0,0,0.1-0.1,0.1-0.1c0,0,0,0,0,0c0.1,0.2,0.2,0.5,0.3,0.7
				c0.1-0.2,0.4-0.1,0.6-0.1c0.4,0,0.8,0,1.1,0c0.4,0,0.7-0.1,1.1-0.1c0.2,0,0.3,0,0.5,0c0.2,0,0.4,0,0.6,0c0.8,0,1.6,0,2.3,0
				c0,0,0,0,0,0c0.2,0,0.4,0,0.6,0.1c0.6,0,1.1,0.1,1.7,0.1c0.4,0,0.8,0.1,1.1-0.2c0.1,0,0.2-0.1,0.3-0.2c0.1,0,0.2-0.1,0.2-0.1
				c0,0,0,0.1,0,0.1c0,0.1,0.1,0,0.1,0c0-0.1,0.1-0.2,0.2-0.3c0,0,0,0,0,0c0,0,0,0,0,0c0,0.3,0.1,0.5,0.1,0.8c0.1,0,0.2,0.1,0.5,0
				c0.1,0,0.1,0,0.1,0c0.4,0,0.8,0.1,1.2,0.2c0.5,0.1,1,0.1,1.6,0c0.7,0,1.5,0,2.2,0c0.1-0.2,0.2-0.4,0.3-0.6c0,0,0.1,0,0.1,0
				c0.1,0.1,0.1,0.3,0.1,0.4c0,0.1,0,0.2,0,0.3c0.1,0,0.3,0,0.5,0c0.4,0,0.8-0.1,1.2,0c0.5,0,0.8-0.2,1.3-0.2c0.1,0,0.3,0,0.4,0.1
				c0,0,0,0,0,0c0,0,0,0,0.1,0c0.1,0,0.1,0.1,0.2,0.1c0,0,0,0,0.1,0c0.2-0.2,0.5-0.3,0.7-0.4c0,0,0,0,0.1,0c0,0,0.1,0,0.1-0.1
				c0.2-0.1,0.4-0.3,0.5-0.4c0.3-0.2,0.5-0.5,0.7-0.8c0.1-0.2,0.2-0.3,0.3-0.5c0-0.1,0.1-0.2,0.1-0.3c0,0,0-0.1,0-0.1
				c0,0-0.1-0.1-0.2-0.1c0.1,0,0.2-0.1,0.2-0.1c-0.1-0.4-0.1-0.7-0.1-1.1c0-0.3,0-0.5,0-0.8c0-0.2,0-0.4,0-0.5c-0.1,0-0.2,0-0.3-0.1
				c-0.2,0-0.3-0.1-0.5-0.1c0,0-0.1-0.1,0-0.1c0.2-0.1,0.4-0.1,0.6-0.2c0.1,0,0.2-0.1,0.3-0.1c0-0.3,0-0.7,0.1-1
				c0-0.2,0-0.5,0.1-0.7c0-0.7,0-1.4,0-2.2C32.6,7.4,32.5,7.3,32.5,7.2z"/>
			<path class="st1" d="M28.4,1.6c0-0.1,0-0.2-0.1-0.3c0,0,0,0,0,0c0.1,0,0.1,0.1,0.2,0.1c0,0,0,0,0,0c0.1,0.2,0.2,0.5,0.2,0.7
				c0,0.3-0.2,0.5-0.5,0.7c0,0,0,0,0,0c0.3-0.1,0.5-0.3,0.6-0.6c0-0.2,0-0.4,0-0.6c0.1,0.1,0.2,0.2,0.3,0.3c0,0.1,0.1,0.2,0.1,0.2
				c0.1,0.2,0,0.4-0.2,0.6c0,0,0,0,0,0c0.1-0.1,0.2-0.3,0.2-0.5c0-0.1,0-0.2,0-0.2c0,0,0,0,0,0c0,0,0.1,0.1,0.1,0.1
				c0,0.2,0,0.4,0,0.6c0,0.2-0.4,0.4-0.5,0.6c0,0,0,0,0,0c0.2-0.1,0.5-0.2,0.6-0.5c0.1-0.1,0.1-0.3,0-0.5c0.1,0.1,0.3,0.3,0.4,0.4
				c0,0.1,0,0.2,0,0.2c0,0.2-0.1,0.4-0.2,0.5c0,0,0,0,0,0C29.8,3.3,29.9,3.2,30,3c0-0.1,0-0.2,0-0.3c0,0,0.1,0.1,0.1,0.1
				c0,0.1,0,0.3,0,0.4c0,0.2-0.1,0.3-0.2,0.4c0,0-0.1,0.1-0.1,0.1c0,0,0,0,0,0c0.1,0,0.1,0,0.1-0.1c0.1-0.1,0.2-0.1,0.3-0.2
				c0.1-0.1,0.2-0.4,0.1-0.5c0.1,0.1,0.2,0.2,0.3,0.3c0,0,0.1,0.1,0.1,0.1c0,0.1,0,0.2-0.1,0.3c0,0.2-0.2,0.4-0.3,0.5c0,0,0,0,0,0
				c0.2,0,0.3-0.2,0.4-0.4c0-0.1,0.1-0.2,0.1-0.4c0.1,0.1,0.2,0.2,0.2,0.3c0,0.1,0,0.2-0.1,0.3c-0.1,0.1-0.1,0.1-0.2,0.2
				c-0.1,0.1-0.1,0.1-0.3,0.2c0,0,0,0,0,0c0.1,0,0.2,0,0.2-0.1c0.1-0.1,0.2-0.1,0.3-0.2C30.9,4.2,31,4.1,31,4
				c0.1,0.1,0.2,0.3,0.3,0.4c0,0.1,0,0.1-0.1,0.2c0,0.1-0.1,0.2-0.2,0.2c0,0,0,0,0,0c0.1,0,0.2-0.1,0.2-0.2c0,0,0.1-0.1,0.1-0.1
				c0.1,0.1,0.2,0.3,0.2,0.5c0,0,0,0.1-0.1,0.1c0,0-0.1,0.1-0.1,0.1c0,0-0.1,0.1-0.1,0.1c0,0,0,0,0,0c0,0,0.1,0,0.1,0
				c0,0,0.1,0,0.1-0.1c0.1,0,0.1-0.1,0.1-0.1c0,0.1,0.1,0.2,0.1,0.2c0,0,0,0,0,0c0,0-0.1,0.1-0.1,0.1c0,0,0,0,0,0c0,0,0.1,0,0.1,0
				c0,0,0,0,0.1,0c0,0.1,0,0.1,0,0.2c0.1,0.1,0.1,0.2,0.2,0.3c-0.1-0.1-0.2-0.1-0.3-0.1c-0.1-0.1-0.2-0.2-0.3-0.2
				c-0.5-0.4-1-0.8-1.5-1.2c-0.5-0.3-1-0.6-1.4-1c0,0-0.1,0-0.1-0.1c0.1,0,0.1-0.1,0.2-0.1c0.1-0.1,0.2-0.2,0.2-0.3c0,0,0,0,0,0
				c-0.1,0.1-0.2,0.1-0.2,0.2c-0.1,0.1-0.2,0.1-0.2,0.2c-0.1-0.1-0.2-0.1-0.3-0.2c0,0,0,0,0,0C27.9,3.1,28,3,28,3c0,0,0,0,0,0
				c0,0-0.1,0-0.1,0c0,0,0,0-0.1,0c0,0-0.1,0-0.1-0.1l0,0c-0.1-0.1-0.2-0.1-0.3-0.2c0,0,0,0,0,0c0.1,0,0.2-0.1,0.3-0.1
				c0.2-0.1,0.4-0.1,0.5-0.3c0.2-0.1,0.2-0.3,0.2-0.5C28.5,1.8,28.4,1.7,28.4,1.6z"/>
			<path class="st1" d="M20,0.5c0,0.1,0.1,0.1,0.1,0.2c0.1,0.1,0.1,0.3,0.1,0.5c0,0,0,0,0,0c0-0.2,0.1-0.3,0-0.5
				c0-0.1-0.1-0.1-0.1-0.1c0.1,0,0.2,0,0.3,0c0,0.1,0.1,0.1,0.1,0.2c0,0.1,0,0.4-0.1,0.5c0,0,0,0,0,0c0.1-0.2,0.2-0.4,0.1-0.7
				c0.2,0,0.4,0.1,0.6,0.1c0.2,0,0.4,0,0.6,0c0,0,0,0,0,0c0,0,0,0.1,0,0.1c0,0,0,0,0,0.1c0,0,0,0,0,0c0-0.1,0-0.1,0-0.2c0,0,0,0,0,0
				c0.1,0,0.2,0,0.3,0c0,0,0,0.1,0,0.1c0,0.1,0,0.1,0,0.2c0,0,0,0,0,0c0-0.1,0-0.2,0-0.3c0,0,0,0,0,0c0,0,0,0.1,0.1,0.1
				c0,0.1,0,0.1,0,0.2c0,0,0,0,0,0c0-0.1,0-0.2,0-0.2c0,0,0-0.1,0-0.1c0.3,0,0.5-0.1,0.8-0.1c0.3-0.1,0.7-0.1,1-0.1
				c0.1,0.2,0.2,0.3,0.2,0.5c0,0,0,0,0,0c0-0.1,0-0.2-0.1-0.3c0-0.1,0-0.1-0.1-0.2c0.2,0,0.4-0.1,0.6-0.1c0.1,0,0.2,0,0.2-0.1
				c0,0,0.1,0.1,0.1,0.1c0.1,0.1,0.1,0.2,0.2,0.3c0,0,0,0,0,0c0-0.1,0-0.2-0.1-0.4c0,0-0.1-0.1-0.1-0.1c0.1,0,0.1,0,0.2,0
				c0,0,0.1,0,0.2,0c0,0,0.1,0.1,0.1,0.1c0.1,0.1,0.1,0.2,0.1,0.4c0,0,0,0,0,0c0-0.1,0-0.2-0.1-0.4c0-0.1-0.1-0.1-0.1-0.1h0
				c0,0,0,0,0,0c0,0,0,0,0,0c0,0,0,0.1,0.1,0.1c0,0,0.1,0.1,0.1,0.2c0,0,0,0,0,0c0-0.1-0.1-0.1-0.1-0.2c0,0,0-0.1,0-0.1
				c0.1,0,0.3,0,0.4,0.1c0,0,0,0,0,0c0.1,0.2,0.1,0.4,0.1,0.6c0,0,0,0,0,0c0-0.1,0.1-0.4,0-0.5c0,0,0.1,0,0.1,0
				c0.1,0.2,0.1,0.5,0,0.7C26.1,0.8,25.3,1,25,1c0,0-0.1-0.1-0.1-0.1c-0.1-0.1-0.1-0.2-0.2-0.2c0,0-0.1,0-0.1,0.1c0,0,0,0.1,0,0.1
				c0,0,0,0.1,0,0.1c0,0,0,0,0,0.1c-0.3,0-0.6,0.1-0.8,0.1c-0.1,0-0.3,0.1-0.4,0.1c-0.1,0-0.2,0-0.3,0.1c-0.3,0.1-0.5,0.2-0.8,0.2
				c-0.1,0-0.2,0.1-0.3,0.1c-0.1,0-0.2,0-0.2,0c-0.2,0-0.1-0.4-0.1-0.5c0-0.1-0.1,0-0.1,0c-0.1,0.1-0.1,0.3-0.2,0.4
				c0,0,0,0.1-0.1,0.1c-0.1,0-0.2,0-0.2,0c0,0,0,0,0,0c-0.3,0-0.7-0.2-1-0.1c0-0.1,0-0.2,0.1-0.2c0-0.1,0-0.1,0-0.2
				c0-0.1,0-0.2,0-0.3c0-0.1-0.1-0.2-0.2-0.3C19.9,0.5,20,0.5,20,0.5z"/>
			<path class="st1" d="M10.2,1.2C10.2,1.2,10.2,1.2,10.2,1.2C10.2,1.2,10.2,1.2,10.2,1.2c0-0.1,0-0.1,0-0.1c0,0,0,0,0-0.1
				c0.1,0,0.2,0.1,0.3,0.1c0.1,0.2,0.2,0.4,0.1,0.6c0,0,0,0,0,0c0.1-0.2,0.1-0.4,0-0.6c0.1,0,0.2,0.1,0.4,0.1c0,0.1,0.1,0.2,0.1,0.3
				c0,0.1,0.1,0.3,0,0.4c0,0,0,0,0,0c0.1-0.1,0.1-0.2,0.1-0.3c0-0.1,0-0.2-0.1-0.3c0,0,0.1,0,0.1,0c0,0,0,0.1,0.1,0.1
				c0,0.1,0.1,0.2,0.1,0.3c0,0,0,0,0,0c0-0.1,0-0.2,0-0.3c0,0,0,0,0-0.1c0.2,0,0.4,0,0.6,0c0.3,0,0.5-0.1,0.8-0.2c0,0,0,0,0,0
				c0,0.1,0,0.1,0.1,0.2c0,0.1,0,0.2,0,0.2c0,0,0,0,0,0c0-0.1,0-0.2,0-0.3c0,0,0-0.1,0-0.1c0.1,0,0.1,0,0.2-0.1c0,0,0,0.1,0.1,0.1
				C13,1.2,13,1.3,13,1.4c0,0,0,0,0,0c0-0.1,0-0.1,0-0.2c0,0,0-0.1-0.1-0.1C13,1,13.1,1,13.2,1c0.3-0.1,0.5-0.2,0.8-0.3
				c0,0,0.1,0,0.1,0c0,0,0,0,0,0c0.1,0,0.2,0.2,0.2,0.3c0,0.1,0,0.2,0,0.3c0,0,0,0,0,0c0,0,0,0,0,0c0,0,0,0,0,0c0,0,0-0.1,0-0.2
				c0-0.1,0-0.2,0-0.2c0-0.1,0-0.2-0.1-0.3c0.1,0,0.2,0,0.3,0.1c0,0.1,0.1,0.1,0.1,0.2c0,0.1,0,0.2,0.1,0.3c0,0,0,0,0,0
				c0-0.1,0-0.1,0-0.2c0,0,0,0,0-0.1c0,0,0,0,0,0c0.1,0.1,0.1,0.2,0.2,0.3c0,0.1,0.1,0.2,0.1,0.4c-0.2-0.1-0.4-0.2-0.6-0.1
				c-0.4,0.1-0.9,0.1-1.3,0.2c-0.2,0.1-0.4,0.1-0.5,0.2c-0.3,0.2-0.3-0.2-0.4-0.3c-0.1,0-0.1,0-0.1,0.1c0,0.1-0.1,0.2-0.1,0.2
				c-0.2,0-0.4,0.1-0.6,0.1c-0.4,0.1-0.8,0.1-1.2,0.1c0,0,0,0,0-0.1C10.2,1.8,10.3,1.5,10.2,1.2z"/>
			<path class="st1" d="M1.4,1.7C1.4,1.7,1.4,1.7,1.4,1.7c0.2,0,0.3,0,0.5,0C2,1.7,2.2,1.8,2.2,2c0,0,0,0,0,0
				c0.1-0.3-0.3-0.4-0.6-0.5c0,0,0.1,0,0.1-0.1c0.1,0,0.2,0,0.3,0c0.2,0,0.3,0.1,0.5,0.1c0,0,0,0,0,0C2.4,1.5,2.3,1.5,2.1,1.4
				c0,0-0.1,0-0.1,0c0.1,0,0.2-0.1,0.3-0.1c0,0,0.1,0,0.1-0.1c0,0,0,0,0.1,0c0,0,0.1,0,0.1,0.1c0.1,0,0.2,0,0.3,0.1c0,0,0,0,0,0
				C2.9,1.3,2.8,1.2,2.7,1.2c0,0,0,0-0.1,0c0.1,0,0.1-0.1,0.2-0.1c0,0,0.1,0,0.1,0c0,0,0.1,0,0.1,0c0,0,0.1,0,0.1,0c0,0,0,0,0,0
				c0,0,0,0-0.1,0C3.1,1,3,1,3,1c0,0,0,0-0.1,0c0.1,0,0.1-0.1,0.2-0.1c0,0,0,0,0,0c0,0,0,0,0,0c0,0,0.1,0,0.1,0c0.1,0,0.1,0,0.2,0
				c0,0,0,0,0,0c-0.1,0-0.1,0-0.1-0.1c0,0,0,0,0,0c0.1,0,0.2-0.1,0.2-0.1c0,0,0,0,0.1,0c0.1,0,0.2,0,0.3,0c0,0,0,0,0,0
				c-0.1,0-0.1,0-0.2,0c0,0,0,0,0.1,0c0,0,0,0,0,0c0,0,0,0,0,0c0,0,0,0,0,0c0,0,0,0,0,0c0.1,0,0.1,0,0.2,0C3.9,0.7,3.8,0.7,3.8,0.8
				C3.5,1,3.3,1.2,3.1,1.5C2.9,1.7,2.8,1.9,2.6,2.1C2.5,2.2,2.4,2.7,2.3,2.4C2.2,2.2,1.9,2,1.8,2C1.6,1.9,1.4,1.8,1.1,1.9
				c0,0,0,0-0.1,0C1.2,1.8,1.2,1.8,1.4,1.7z"/>
			<path class="st1" d="M6.1,16.7c-0.2,0-0.4,0-0.6,0c0,0,0,0,0-0.1c0,0,0,0-0.1,0c0,0,0,0,0,0.1c-0.1,0-0.1,0-0.2,0c0,0,0,0,0,0
				c0,0,0-0.1,0-0.1c0,0,0-0.1,0-0.1c0,0,0,0,0,0c0,0.1-0.1,0.1-0.1,0.2c0,0,0,0,0,0c-0.1,0-0.1,0-0.2,0c0,0,0,0,0-0.1
				c0-0.1,0.1-0.1,0.1-0.2c0,0,0,0,0,0c0,0-0.1,0.1-0.1,0.1c0,0-0.1,0.1-0.1,0.1c0,0,0,0,0,0c-0.2,0-0.3-0.1-0.5-0.2
				c0,0,0.1,0,0.1-0.1c0,0,0.1-0.1,0.1-0.1c0.1-0.1,0.1-0.2,0.1-0.2c0,0,0,0,0,0c0,0.1-0.1,0.2-0.2,0.3c-0.1,0.1-0.1,0.1-0.2,0.1
				c0,0,0,0-0.1,0c0,0,0,0,0.1-0.1c0,0,0.1-0.1,0.1-0.1c0,0,0,0,0,0c0,0-0.1,0.1-0.1,0.1c0,0-0.1,0-0.1,0.1C4,16.1,3.8,16,3.7,15.8
				c0.1,0,0.2-0.1,0.2-0.1C4,15.6,4,15.6,4,15.5c0.1-0.1,0.1-0.1,0.2-0.2c0,0,0,0,0,0c-0.1,0.1-0.2,0.2-0.3,0.3
				c-0.1,0.1-0.2,0.1-0.3,0.2c0,0-0.1-0.1-0.1-0.1c0.1,0,0.2-0.1,0.2-0.1c0.1-0.1,0.2-0.2,0.3-0.3c0,0,0,0,0,0
				c-0.1,0.1-0.2,0.1-0.2,0.2c-0.1,0.1-0.2,0.1-0.3,0.2c0,0,0,0,0,0c0,0,0,0,0,0c0,0,0.1,0,0.1-0.1c0.1-0.1,0.2-0.1,0.2-0.2
				c0,0,0,0,0,0c-0.1,0.1-0.1,0.1-0.2,0.2c0,0-0.1,0-0.2,0.1c-0.1-0.1-0.2-0.2-0.3-0.3c0.1,0,0.2-0.2,0.3-0.2
				c0.1-0.1,0.3-0.3,0.4-0.5c0,0,0,0,0,0c-0.1,0.2-0.3,0.3-0.4,0.4c-0.1,0-0.2,0.1-0.3,0.2c0,0-0.1-0.1-0.1-0.1c0,0,0.1-0.1,0.1-0.1
				C2.9,14.8,3,14.8,3,14.7c0,0,0,0,0,0c-0.1,0.1-0.2,0.1-0.3,0.2c-0.1-0.1-0.3-0.3-0.4-0.4c0.1,0,0.2,0,0.2-0.1
				C2.7,14.3,2.9,14.2,3,14c0,0,0,0,0,0c-0.2,0.2-0.5,0.3-0.7,0.4c0,0-0.1-0.1-0.1-0.1c0,0,0.1,0,0.1-0.1c0.1,0,0.1-0.1,0.2-0.1
				c0.1,0,0.1-0.1,0.1-0.1c0,0,0,0,0,0c-0.2,0.1-0.3,0.2-0.5,0.2C2,14.2,2,14.2,1.9,14.1c0.1,0,0.2-0.1,0.2-0.2c0,0,0,0,0,0
				C2.1,14,2,14,2,14c0,0-0.1,0-0.1,0c-0.1-0.1-0.2-0.2-0.3-0.3c0.2,0,0.5-0.1,0.7-0.2c0.3-0.2,0.5-0.5,0.6-0.9c0,0,0,0,0,0
				c-0.1,0.3-0.3,0.5-0.5,0.7c-0.1,0.1-0.3,0.1-0.5,0.1c-0.1,0-0.2,0-0.3,0c0,0-0.1-0.1-0.1-0.1c0,0,0,0,0,0c0.1,0,0.2,0,0.3,0
				c0.2,0,0.4-0.2,0.5-0.3c0,0,0,0,0,0c-0.3,0.1-0.6,0.2-0.9,0.3c-0.1-0.1-0.1-0.2-0.2-0.3c0.6,0.1,1.2-0.3,1.3-0.9c0,0,0,0,0,0
				C2.1,12.8,1.6,12.9,1,13c0,0-0.1-0.1-0.1-0.1c0.2,0,0.4,0,0.6-0.1c0.2-0.1,0.4-0.2,0.5-0.4c0,0,0,0,0,0c-0.1,0.2-0.4,0.2-0.6,0.3
				c-0.1,0-0.2,0-0.3,0c-0.1,0-0.2,0-0.3,0c0,0-0.1-0.1-0.1-0.1c0,0,0,0,0,0c0.2,0,0.5,0,0.6-0.1c0.4-0.2,0.6-0.4,0.8-0.8
				c0.1-0.2,0.3-0.4,0.3-0.6C2.6,11.7,3,12.9,3,13c0.1,0.3,0.1,0.6,0.2,0.9c0.1,0.1,0.3,0.2,0.4,0.3c0.2,0.1,0.3,0.3,0.5,0.4
				c0.3,0.3,0.4,0.7,0.6,1c0.2,0.3,0.5,0.5,0.7,0.7c0.3,0.2,0.5,0.2,0.8,0.3C6.2,16.7,6.2,16.7,6.1,16.7L6.1,16.7z"/>
			<path class="st1" d="M19.8,15.8c0,0.2-0.1,0.3-0.2,0.5c0,0,0,0,0,0c0.2-0.3,0.1-0.7-0.1-0.9c0,0,0,0,0,0c0.1,0.2,0.1,0.4,0.1,0.6
				c0,0.2-0.2,0.3-0.2,0.5c-0.2,0.1-0.3,0.1-0.5,0.1c0,0,0,0,0-0.1c0-0.1,0.1-0.2,0.1-0.3c0,0,0,0,0,0c0,0.1-0.1,0.2-0.1,0.2
				c0,0-0.1,0.1-0.1,0.1c0,0,0,0,0,0c-0.1,0-0.1,0-0.2,0c0.1-0.1,0.1-0.2,0.2-0.4c0.1-0.2-0.1-0.5-0.2-0.6c0,0,0,0,0,0
				c0.1,0.2,0.1,0.4,0.1,0.6c0,0.1-0.1,0.2-0.2,0.4c-0.3,0-0.6,0-0.8-0.1c0,0,0-0.1,0-0.1c0-0.1,0-0.2,0-0.3c0,0,0,0,0,0
				c0,0.1,0,0.2-0.1,0.3c0,0,0,0.1,0,0.1c0,0-0.1,0-0.1,0c0,0,0.1,0,0.1,0c-0.1,0-0.2,0-0.3,0c0,0,0,0,0,0c0-0.1,0-0.1,0-0.2
				c0-0.2-0.1-0.3-0.2-0.5c0,0,0,0,0,0c0,0.1,0,0.2,0,0.3c0,0.1,0,0.2,0,0.3c0,0,0,0,0,0c-0.2,0-0.5,0-0.7,0c0.1-0.1,0.1-0.3,0-0.4
				c0,0,0,0,0,0c0,0.1,0,0.2-0.1,0.3c0,0,0,0.1,0,0.1c-0.1,0-0.2,0-0.2,0c0.1-0.3,0.1-0.6-0.1-0.9c0,0,0,0,0,0
				c0.1,0.3,0.1,0.6,0,0.9c-0.2,0-0.4,0-0.6,0h0c0,0,0.1-0.1,0.1-0.1c0-0.2,0-0.3,0-0.5c0,0,0,0,0,0c0,0.1,0,0.3,0,0.4
				c0,0.1-0.1,0.1-0.1,0.2c-0.1,0-0.2,0-0.3,0c0.2-0.2,0.2-0.6,0-0.8c0,0,0,0,0,0c0.1,0.2,0.1,0.4,0,0.5c0,0.1-0.1,0.2-0.1,0.3
				c0,0-0.1,0-0.1,0c0,0,0,0,0,0c0,0,0-0.1,0-0.1c0-0.1,0-0.2,0-0.2c0,0,0,0,0,0c0,0.1-0.1,0.2-0.1,0.3c0,0,0,0,0,0
				c-0.1,0-0.2,0-0.3,0c0.1-0.1,0.1-0.2,0.1-0.3c0-0.2-0.1-0.3-0.2-0.5c0,0,0,0,0,0c0,0.1,0.1,0.3,0.1,0.5c0,0.1-0.1,0.2-0.1,0.4
				c-0.1,0-0.1,0-0.2,0c0,0,0-0.1,0.1-0.1c0-0.1,0-0.2,0-0.2c0,0,0,0,0,0c0,0.1-0.1,0.2-0.1,0.3c0,0,0,0.1-0.1,0.1
				c-0.1,0-0.3,0-0.4,0c0,0,0.1-0.1,0.1-0.2c0.1-0.2,0-0.5-0.1-0.6c0,0,0,0,0,0c0.1,0.2,0.1,0.4,0,0.6c0,0.1-0.1,0.1-0.1,0.2
				c0,0,0,0,0,0c0,0-0.1,0-0.1,0c0,0,0,0,0-0.1c0-0.1,0.1-0.2,0.1-0.3c0,0,0,0,0,0c0,0.1-0.1,0.2-0.1,0.3c0,0,0,0-0.1,0.1
				c-0.1,0-0.2,0-0.2,0c0.2-0.2,0.3-0.4,0.3-0.6c0-0.2-0.1-0.4-0.3-0.4c0.2-0.1,0.6,0,0.8,0c0.3,0,0.7,0.1,1,0
				c0.8,0,1.5,0.1,2.2,0.1c0,0,0.1,0,0.1,0c0.1,0,0.1,0.1,0.2,0.1c0,0,0,0,0,0c0,0,0,0,0,0c0,0.1,0.1,0.1,0.1,0.2c0,0.1,0.1,0,0.1,0
				c0-0.1,0-0.4,0.1-0.4c0.2,0,0.5,0,0.7-0.1c0.1,0,0.1,0,0.2,0c0.1,0,0.2,0,0.2,0c0.1,0,0.2,0,0.3-0.1c0,0,0,0,0.1,0
				c0,0,0.1,0,0.1,0c0.1,0,0.2,0,0.3,0c0,0,0.1,0,0.1-0.1c0,0,0.1,0,0.1,0c0,0,0,0,0.1,0c0,0,0,0,0,0c0,0,0,0,0,0c0,0,0,0.1,0.1,0.2
				c0,0.1,0.1,0.2,0.1,0.2c0,0,0,0.1,0,0.1C19.8,15.6,19.8,15.7,19.8,15.8z"/>
			<path class="st1" d="M32.3,14.9c-0.1,0.2-0.2,0.4-0.4,0.6c0,0,0,0,0,0c0,0,0,0,0,0c0,0,0,0-0.1-0.1c0,0,0,0,0,0c0,0,0,0,0,0.1
				c0,0,0,0,0,0.1c0,0,0,0,0,0c-0.1,0.1-0.1,0.1-0.2,0.2c0,0,0-0.1,0-0.1c0-0.1-0.1-0.1-0.2-0.1c0,0,0,0,0,0c0,0.1,0.1,0.1,0.1,0.2
				c0,0,0,0.1,0,0.1c-0.1,0.1-0.1,0.1-0.2,0.2c0,0,0,0,0-0.1c0-0.1-0.1-0.1-0.1-0.1c0,0,0,0,0,0c0,0.1,0.1,0.1,0.1,0.2
				c0,0,0,0.1,0,0.1c0,0,0,0-0.1,0.1c0,0-0.1,0.1-0.1,0.1c0-0.1,0-0.1,0-0.1C31.1,16,31,16,30.9,15.9c0,0,0,0,0,0
				C31,16,31,16.1,31,16.2c0,0,0,0.1,0,0.1c-0.1,0-0.1,0.1-0.2,0.1c0,0,0,0-0.1,0c0-0.1,0-0.1,0-0.2c0-0.1-0.1-0.2-0.1-0.2
				c0,0,0,0,0,0c0,0.1,0.1,0.2,0.1,0.3c0,0.1,0,0.1,0,0.2c0,0,0,0-0.1,0c0,0-0.1,0-0.1,0.1c0-0.1,0.1-0.2,0-0.3
				c0-0.2-0.2-0.2-0.3-0.3c0,0,0,0,0,0c0.1,0.1,0.2,0.2,0.2,0.3c0,0.1,0,0.2,0,0.4c-0.1,0-0.1,0.1-0.2,0.1c0-0.2,0-0.3-0.1-0.5
				c-0.1-0.1-0.4-0.4-0.5-0.4c0.3-0.1,0.7-0.1,1-0.1c0.3,0,0.5-0.2,0.7-0.3C31.7,15.3,32,15.2,32.3,14.9
				C32.3,14.9,32.3,14.9,32.3,14.9C32.3,14.9,32.3,14.9,32.3,14.9z"/>
			<path class="st1" d="M32.3,7.8c0,0.1,0,0.3,0,0.4c0,0.6,0,1.2,0,1.9c0,0.4,0,0.9,0,1.3c-0.2,0.1-0.5,0.2-0.7,0.3
				c-0.1,0-0.3,0-0.4,0.1c0,0-0.1,0.1,0,0.1c0.3,0.1,0.6,0.1,0.9,0.1c0.1,0,0.2,0,0.2,0.2c0,0.4,0,0.8,0.1,1.2c0,0.2,0,0.5,0,0.7
				c0,0,0,0,0,0.1c0,0,0,0,0,0c0,0,0,0,0,0c0,0,0,0,0,0c0,0,0,0,0,0c-0.1,0.1-0.2,0.1-0.3,0.1c0,0-0.1,0-0.1,0.1c0,0,0,0.1,0.1,0
				c0,0,0,0,0,0c0,0,0,0,0.1,0c0.1,0,0.1,0.2,0.2,0.1c-0.1,0.2-0.3,0.3-0.4,0.4c-0.3,0.2-0.6,0.4-1,0.6c-0.2,0.1-0.4,0.1-0.6,0.1
				c-0.2,0-0.3,0.1-0.5,0.1c-0.1,0-0.2,0-0.2,0.1c0,0,0,0,0,0c0.1,0.1,0.3,0.1,0.4,0.3c0.1,0.2,0.2,0.3,0.2,0.6c0,0-0.1,0-0.1,0
				c0,0-0.1,0-0.1,0c-0.1,0-0.2-0.1-0.4-0.1c-0.2,0-0.5,0-0.7,0.1C28.5,17,28.1,17,27.7,17c-0.2,0-0.5,0-0.7,0c-0.1,0-0.3,0-0.4,0
				c0,0-0.1-0.1-0.1-0.2c0-0.1,0-0.1,0-0.2c0-0.1-0.1-0.3-0.1-0.4c0,0,0,0,0,0c-0.1,0.1-0.2,0.3-0.3,0.5c0,0.1-0.1,0.1-0.1,0.2
				c-0.8,0-1.6-0.1-2.4,0c-0.9,0-1.6-0.2-2.5-0.2c-0.1,0-0.2,0-0.2,0c-0.3-0.1-0.3-0.3-0.3-0.4c0-0.1,0-0.2,0-0.3
				c0-0.1-0.1-0.2-0.1-0.3c0,0,0-0.1,0-0.1c0-0.1-0.1,0-0.1,0c-0.1,0.1-0.1,0.2-0.2,0.3c0,0.1-0.1,0.1-0.1,0.2c0,0,0,0,0,0
				c0-0.1,0-0.1,0-0.2c0-0.1,0-0.1,0-0.2c0,0,0,0,0,0c0-0.1,0-0.2,0-0.2c0-0.1-0.1-0.1-0.1-0.2c0,0,0,0,0-0.1c0-0.1,0-0.2-0.1-0.3
				c0,0,0,0,0,0c-0.1,0-0.2,0.1-0.3,0.1c0,0,0,0,0,0c-0.2,0-0.5,0.1-0.7,0.1c0,0-0.1,0-0.1,0c-0.2,0-0.3,0.1-0.5,0.1
				c-0.1,0-0.2,0-0.3,0c-0.2,0-0.4,0-0.5,0.1c0,0.1-0.1,0.2-0.1,0.3c0,0,0,0,0,0c-0.1-0.1-0.1-0.2-0.2-0.3c0-0.1-0.2,0-0.3,0
				c-0.2,0-0.3,0-0.5,0c-0.8,0-1.6-0.1-2.3-0.2c-0.4,0-0.8-0.1-1.1,0c0,0-0.1,0-0.1,0c0,0-0.1,0.1-0.1,0.1c-0.1,0.1-0.2,0.2-0.2,0.3
				c-0.1,0.1,0,0.2,0,0.4c0,0,0,0,0,0c0.1-0.1,0.3-0.1,0.5-0.1c0,0.1,0,0.2-0.1,0.3c-0.1,0.2-0.4,0.2-0.5,0.3c-0.3,0.1-0.6,0-0.9,0
				c-0.3,0-0.7,0-1,0c-0.1,0-0.2,0-0.4,0c0,0,0,0,0,0c0,0,0,0,0-0.1c-0.1-0.2-0.1-0.5-0.1-0.7c0-0.1-0.1,0-0.1,0
				c0,0.3-0.2,0.5-0.3,0.7c0,0.1-0.1,0.1-0.1,0.1c-0.2,0-0.4,0.1-0.6,0.1c-0.1,0-0.2,0-0.3,0c-0.4,0-0.8,0-1.2,0
				c-0.6,0-1.3-0.2-1.8-0.6c-0.6-0.5-0.7-1.2-1.2-1.7c-0.1-0.1-0.2-0.2-0.3-0.2c0,0-0.1,0-0.1-0.1c-0.3-0.2-0.4-0.6-0.5-0.9
				C3,12.4,2.9,11.6,2.5,11c0,0,0,0,0-0.1c0,0,0,0,0,0c0,0,0,0,0-0.1c-0.2,0-0.5,0.1-0.7,0.2c-0.3,0.1-0.4,0.3-0.7,0.5
				c0,0-0.1,0.1,0,0.1c0.1,0,0.5,0,0.5,0.1c0,0.2,0.1,0.3,0.2,0.4c-0.1,0.1-0.2,0.2-0.4,0.3c-0.3,0.1-0.7,0.2-0.9,0c0,0,0,0,0-0.1
				c0-0.2,0-0.4,0-0.6c0-0.4,0.1-0.7,0.1-1.1c0-0.1,0.2-0.3,0-0.4c0,0,0,0,0,0c0.1,0,0.3-0.1,0.5-0.1c0.2-0.1,0.7-0.1,0.8-0.3
				c0,0,0-0.1,0-0.1c-0.2,0-1.3,0-1.3-0.2c0-0.1,0-0.2,0-0.3c0-0.2-0.1-0.5-0.1-0.7c0-0.3,0-0.6-0.2-0.8c0,0,0-0.1,0-0.1
				c0.2-0.1,0.5,0,0.8-0.1c0.2-0.1,0.4-0.1,0.5-0.2c0,0,0,0,0,0C1.4,7.1,1.3,7,1,7C0.5,7,0.6,6.9,0.5,6.7c-0.1-0.3,0-0.6-0.1-0.8
				c0-0.3,0.1-0.5,0.1-0.8c0-0.1-0.1-1.2-0.2-1.2c0.4,0,0.9-0.2,1.3-0.2c0.3,0,0.6-0.1,0.9-0.1c0,0,0.1-0.1,0-0.1
				C2,3.4,1.4,3.3,0.8,3.3c0,0,0-0.2,0-0.3c0-0.2,0.1-0.4,0.1-0.6C1,2.1,1.2,1.9,1.6,2.1C1.7,2.1,1.9,2.3,2,2.3
				c0.2,0.1,0.2,0.2,0.3,0.4c0,0,0,0,0,0c0.1-0.1,0.2-0.2,0.2-0.3C2.7,2.1,3,1.9,3.2,1.6c0.2-0.2,0.3-0.4,0.5-0.6
				C3.8,0.9,4,0.8,4.2,0.6c0.2,0,0.3,0,0.5,0c0.5,0,0.9-0.2,1.5-0.2c0.2,0,2.2,0.1,2.2,0C8.4,0.7,8.5,1,8.6,1.2
				c0.1,0.2,0,0.4,0.2,0.5c0,0,0.1,0,0.1,0C9,1.4,9.2,1.2,9.4,0.9c0.1,0,0.1,0,0.2,0.1c0,0,0.1,0.1,0.1,0.1C9.9,1.2,10,1.3,10,1.3
				C10,1.4,10,1.4,10,1.5c0,0-0.1,0-0.1,0c-0.1,0-0.2,0-0.2,0.1c-0.1,0.1,0,0.2,0,0.3c0,0.1,0.1,0.3,0.2,0.3c0,0,0,0,0,0
				c0,0,0,0,0,0c0,0,0,0,0,0c0,0,0,0,0,0c0.1,0,0.1,0,0.2,0c0.2,0,0.5,0,0.7,0c0,0,0,0,0,0c0.2,0,0.3,0,0.5-0.1
				c0.1,0,0.2-0.1,0.3-0.1c0.1,0,0.2,0,0.2,0C12,2,12,1.9,12.1,1.8c0,0,0.1,0,0.1,0c0,0.1,0.1,0.2,0.1,0.3c0.2,0.1,0.4,0,0.6-0.1
				c0.3-0.1,0.7-0.2,1.1-0.3c0.4,0,0.8-0.2,1.1,0.2l0,0c0.1,0,0.1-0.1,0.2-0.2c0.1-0.2,0.2-0.4,0-0.6c0,0,0,0,0,0
				c0.1,0,0.1-0.1,0.2-0.1c0,0,0,0,0,0c0,0,0,0,0,0c0,0,0,0,0.1,0c0,0,0.1-0.1,0.1-0.1c0,0,0,0,0,0C15.9,1,17.2,1,17.4,1.1
				c0.4,0,0.8,0.1,1.2,0.1c0.1,0.2,0.2,0.4,0.3,0.6c0,0,0,0,0,0.1c0.2-0.2,0.2-0.6,0.2-0.9c0.1-0.2,0.2-0.3,0.4-0.2
				c0.6,0,0.4,0.6,0.3,1c0.3,0,0.6,0,0.9,0c0.2,0,0.4,0.1,0.5,0.1c0,0,0,0,0,0c0-0.1,0.1-0.2,0.1-0.3c0,0,0.1,0,0.1,0
				c0,0.1,0.1,0.2,0.1,0.2c0.2,0,0.3,0,0.5-0.1c0.2,0,0.3-0.1,0.5-0.1c0.3-0.1,0.7-0.2,1-0.2c0.3-0.1,0.6-0.1,1-0.1c0,0,0.1,0,0.1,0
				c0,0,0-0.1,0-0.1c0,0,0,0,0,0c0,0,0,0,0,0c0-0.1,0-0.1,0-0.2c0,0,0.1,0,0.1,0c0.1,0.1,0.1,0.2,0.2,0.3c0,0,0.1,0,0.1,0
				c0.1,0,0.3,0,0.4-0.1c0.2,0,0.5,0,0.7,0c0.1,0,0.2,0.1,0.3,0.1c0,0,0,0,0,0c0,0,0,0,0,0c0,0,0,0,0,0c0,0,0,0,0.1,0.1
				c0-0.1,0-0.1,0.1-0.2c0-0.1,0-0.1,0-0.2c0,0,0,0,0,0c0.1,0,0.2,0,0.2,0c0.2,0,0.3,0,0.5,0.1c0.2,0,0.4,0,0.6,0.2
				c0.1,0,0.1,0.1,0.1,0.1c0,0,0,0,0,0c0,0,0,0,0,0c0,0,0,0,0,0c0,0.1,0.1,0.2,0.1,0.3c0.1,0.2,0,0.4,0,0.6c0,0,0,0-0.1,0
				C28,2,27.9,1.9,27.8,1.8c-0.2,0.1-0.4,0.3-0.5,0.6c-0.1,0.2-0.1,0.5,0,0.6c0,0,0.1,0.1,0.1,0.1c0.1,0,0.2,0.1,0.3,0.1
				c0.1,0.1,0.2,0.2,0.3,0.2c0.4,0.2,0.7,0.5,1.1,0.7c0.6,0.4,1.2,0.9,1.8,1.3c0,0,0,0,0,0c0.1,0,0.1,0.1,0.2,0.1
				c0.2,0.1,0.4,0.3,0.7,0.5c0.2,0.1,0.3,0.3,0.5,0.4c0,0,0,0,0,0c0,0,0,0,0,0c0,0,0,0.1,0,0.1c-0.4,0.1-0.9,0.1-1.4,0.2
				c0.2,0,0.3,0,0.5,0.1c0.3,0,0.7,0,1,0.1c0,0,0,0,0,0.1c0,0-0.2,0.1-0.3,0.2c0,0,0.1,0.1,0.1,0.1c0.1,0.1,0.1,0.1,0.1,0.2
				C32.4,7.7,32.3,7.8,32.3,7.8z"/>
		</g>
	</g>
</g>
</svg>
