<?xml version="1.0" encoding="utf-8"?>
<!-- Generator: Adobe Illustrator 26.3.1, SVG Export Plug-In . SVG Version: 6.00 Build 0)  -->
<svg version="1.1" xmlns="http://www.w3.org/2000/svg" xmlns:xlink="http://www.w3.org/1999/xlink" x="0px" y="0px"
	 viewBox="0 0 308.3 327.9" style="enable-background:new 0 0 308.3 327.9;" xml:space="preserve">
<style type="text/css">
	.st0{fill:#CFD0D2;}
	.st1{fill:#EFDAC7;}
	.st2{fill:#F2D2B5;}
	.st3{fill:#DEC959;}
</style>
<g id="BG">
</g>
<g id="Objects">
	<g>
		<polygon class="st0" points="15.6,22.9 5,275 5,275 5,275 46.1,317.4 295.9,327.9 308.3,35.3 		"/>
		<g>
			<polygon class="st1" points="303.3,30.3 10.6,17.9 0,270 41.1,312.4 290.9,322.9 			"/>
		</g>
		<polygon class="st2" points="41.1,312.4 0,270 42.8,271.8 		"/>
		<g>
			<path class="st3" d="M261.8,7.3L116.3,0c-0.4,2.2-1.1,4.6-1.3,5.8c-1,8.1-1.3,16.2-1.1,24.4l147.7,7.4c0-6.7,0-13.5,0.1-20.2
				C261.9,14.3,261.5,10.6,261.8,7.3z"/>
		</g>
	</g>
</g>
</svg>
