<?xml version="1.0" encoding="utf-8"?>
<!-- Generator: Adobe Illustrator 26.3.1, SVG Export Plug-In . SVG Version: 6.00 Build 0)  -->
<svg version="1.1" xmlns="http://www.w3.org/2000/svg" xmlns:xlink="http://www.w3.org/1999/xlink" x="0px" y="0px"
	 viewBox="0 0 313.4 339" style="enable-background:new 0 0 313.4 339;" xml:space="preserve">
<style type="text/css">
	.st0{fill:#CFD0D2;}
	.st1{fill:#D3A769;}
	.st2{fill:#E2D7A8;}
	.st3{fill:#C49B62;}
	.st4{opacity:0.8;fill:#EED0B1;}
</style>
<g id="BG">
</g>
<g id="Objects">
	<g>
		<polygon class="st0" points="313.4,285.8 313.4,285.8 297.3,28.4 5,46.7 23.3,339 280.7,322.9 313.4,285.8 313.4,285.8 		"/>
		<g>
			<g>
				<polygon class="st1" points="292.3,23.4 0,41.7 18.3,334 275.7,317.9 308.4,280.8 				"/>
			</g>
			<g>
				<path class="st2" d="M25.2,79.1c0-0.6,0.3-1,0.9-1.1c0.6,0,1,0.4,1,0.9c0,0.6-0.3,1-0.9,1.1C25.7,80.1,25.3,79.6,25.2,79.1z"/>
				<path class="st2" d="M30.1,78.8c0-0.6,0.3-1,0.9-1.1c0.6,0,1,0.4,1,0.9c0,0.6-0.3,1-0.9,1.1C30.6,79.7,30.2,79.3,30.1,78.8z"/>
				<path class="st2" d="M35,78.5c0-0.6,0.3-1,0.9-1.1c0.6,0,1,0.4,1,0.9c0,0.6-0.3,1-0.9,1.1C35.5,79.4,35.1,79,35,78.5z"/>
				<path class="st2" d="M39.9,78.2c0-0.6,0.3-1,0.9-1.1c0.6,0,1,0.4,1,0.9c0,0.6-0.3,1-0.9,1.1C40.4,79.1,40,78.7,39.9,78.2z"/>
				<path class="st2" d="M44.8,77.8c0-0.6,0.3-1,0.9-1.1c0.6,0,1,0.4,1,0.9c0,0.6-0.3,1-0.9,1.1C45.3,78.8,44.9,78.4,44.8,77.8z"/>
				<path class="st2" d="M49.7,77.5c0-0.6,0.3-1,0.9-1.1c0.6,0,1,0.4,1,0.9c0,0.6-0.3,1-0.9,1.1C50.2,78.5,49.8,78.1,49.7,77.5z"/>
				<path class="st2" d="M54.6,77.2c0-0.6,0.3-1,0.9-1.1c0.6,0,1,0.4,1,0.9c0,0.6-0.3,1-0.9,1.1C55.1,78.2,54.7,77.8,54.6,77.2z"/>
				<path class="st2" d="M59.5,76.9c0-0.6,0.3-1,0.9-1.1c0.6,0,1,0.4,1,0.9c0,0.6-0.3,1-0.9,1.1C60,77.9,59.6,77.5,59.5,76.9z"/>
				<path class="st2" d="M64.4,76.6c0-0.6,0.3-1,0.9-1.1c0.6,0,1,0.4,1,0.9c0,0.6-0.3,1-0.9,1.1C64.9,77.6,64.5,77.2,64.4,76.6z"/>
				<path class="st2" d="M69.3,76.3c0-0.6,0.3-1,0.9-1.1c0.6,0,1,0.4,1,0.9c0,0.6-0.3,1-0.9,1.1C69.8,77.3,69.4,76.9,69.3,76.3z"/>
				<path class="st2" d="M74.2,76c0-0.6,0.3-1,0.9-1.1c0.6,0,1,0.4,1,0.9c0,0.6-0.3,1-0.9,1.1C74.7,77,74.3,76.6,74.2,76z"/>
				<path class="st2" d="M79.1,75.7c0-0.6,0.3-1,0.9-1.1c0.6,0,1,0.4,1,0.9c0,0.6-0.3,1-0.9,1.1C79.6,76.7,79.2,76.3,79.1,75.7z"/>
				<path class="st2" d="M84,75.4c0-0.6,0.3-1,0.9-1.1c0.6,0,1,0.4,1,0.9c0,0.6-0.3,1-0.9,1.1C84.5,76.4,84.1,76,84,75.4z"/>
				<path class="st2" d="M88.9,75.1c0-0.6,0.3-1,0.9-1.1c0.6,0,1,0.4,1,0.9c0,0.6-0.3,1-0.9,1.1C89.4,76.1,89,75.7,88.9,75.1z"/>
				<path class="st2" d="M93.8,74.8c0-0.6,0.3-1,0.9-1.1c0.6,0,1,0.4,1,0.9c0,0.6-0.3,1-0.9,1.1C94.3,75.8,93.9,75.4,93.8,74.8z"/>
				<path class="st2" d="M98.7,74.5c0-0.6,0.3-1,0.9-1.1c0.6,0,1,0.4,1,0.9c0,0.6-0.3,1-0.9,1.1C99.2,75.5,98.8,75,98.7,74.5z"/>
				<path class="st2" d="M103.6,74.2c0-0.6,0.3-1,0.9-1.1c0.6,0,1,0.4,1,0.9c0,0.6-0.3,1-0.9,1.1C104.1,75.2,103.7,74.7,103.6,74.2z
					"/>
				<path class="st2" d="M108.6,73.9c0-0.6,0.3-1,0.9-1.1c0.6,0,1,0.4,1,0.9c0,0.6-0.3,1-0.9,1.1C109,74.8,108.6,74.4,108.6,73.9z"
					/>
				<path class="st2" d="M113.5,73.6c0-0.6,0.3-1,0.9-1.1c0.6,0,1,0.4,1,0.9c0,0.6-0.3,1-0.9,1.1C113.9,74.5,113.5,74.1,113.5,73.6z
					"/>
				<path class="st2" d="M118.4,73.2c0-0.6,0.3-1,0.9-1.1c0.6,0,1,0.4,1,0.9c0,0.6-0.3,1-0.9,1.1C118.8,74.2,118.4,73.8,118.4,73.2z
					"/>
				<path class="st2" d="M123.3,72.9c0-0.6,0.3-1,0.9-1.1c0.6,0,1,0.4,1,0.9c0,0.6-0.3,1-0.9,1.1C123.7,73.9,123.3,73.5,123.3,72.9z
					"/>
				<path class="st2" d="M128.2,72.6c0-0.6,0.3-1,0.9-1.1c0.6,0,1,0.4,1,0.9c0,0.6-0.3,1-0.9,1.1C128.6,73.6,128.2,73.2,128.2,72.6z
					"/>
				<path class="st2" d="M133.1,72.3c0-0.6,0.3-1,0.9-1.1c0.6,0,1,0.4,1,0.9c0,0.6-0.3,1-0.9,1.1C133.5,73.3,133.1,72.9,133.1,72.3z
					"/>
				<path class="st2" d="M138,72c0-0.6,0.3-1,0.9-1.1c0.6,0,1,0.4,1,0.9c0,0.6-0.3,1-0.9,1.1C138.4,73,138,72.6,138,72z"/>
				<path class="st2" d="M142.9,71.7c0-0.6,0.3-1,0.9-1.1c0.6,0,1,0.4,1,0.9c0,0.6-0.3,1-0.9,1.1C143.3,72.7,142.9,72.3,142.9,71.7z
					"/>
				<path class="st2" d="M147.8,71.4c0-0.6,0.3-1,0.9-1.1c0.6,0,1,0.4,1,0.9c0,0.6-0.3,1-0.9,1.1C148.2,72.4,147.8,72,147.8,71.4z"
					/>
				<path class="st2" d="M152.7,71.1c0-0.6,0.3-1,0.9-1.1c0.6,0,1,0.4,1,0.9c0,0.6-0.3,1-0.9,1.1C153.1,72.1,152.7,71.7,152.7,71.1z
					"/>
				<path class="st2" d="M157.6,70.8c0-0.6,0.3-1,0.9-1.1c0.6,0,1,0.4,1,0.9c0,0.6-0.3,1-0.9,1.1C158,71.8,157.6,71.4,157.6,70.8z"
					/>
				<path class="st2" d="M162.5,70.5c0-0.6,0.3-1,0.9-1.1c0.6,0,1,0.4,1,0.9c0,0.6-0.3,1-0.9,1.1C162.9,71.5,162.5,71.1,162.5,70.5z
					"/>
				<path class="st2" d="M167.4,70.2c0-0.6,0.3-1,0.9-1.1c0.6,0,1,0.4,1,0.9c0,0.6-0.3,1-0.9,1.1C167.8,71.2,167.4,70.8,167.4,70.2z
					"/>
				<path class="st2" d="M172.3,69.9c0-0.6,0.3-1,0.9-1.1c0.6,0,1,0.4,1,0.9c0,0.6-0.3,1-0.9,1.1C172.7,70.9,172.3,70.4,172.3,69.9z
					"/>
				<path class="st2" d="M177.2,69.6c0-0.6,0.3-1,0.9-1.1c0.6,0,1,0.4,1,0.9c0,0.6-0.3,1-0.9,1.1C177.6,70.6,177.2,70.1,177.2,69.6z
					"/>
				<path class="st2" d="M182.1,69.3c0-0.6,0.3-1,0.9-1.1c0.6,0,1,0.4,1,0.9c0,0.6-0.3,1-0.9,1.1C182.5,70.2,182.1,69.8,182.1,69.3z
					"/>
				<path class="st2" d="M187,69c0-0.6,0.3-1,0.9-1.1c0.6,0,1,0.4,1,0.9c0,0.6-0.3,1-0.9,1.1C187.4,69.9,187,69.5,187,69z"/>
				<path class="st2" d="M191.9,68.6c0-0.6,0.3-1,0.9-1.1c0.6,0,1,0.4,1,0.9c0,0.6-0.3,1-0.9,1.1C192.3,69.6,191.9,69.2,191.9,68.6z
					"/>
				<path class="st2" d="M196.8,68.3c0-0.6,0.3-1,0.9-1.1c0.6,0,1,0.4,1,0.9c0,0.6-0.3,1-0.9,1.1C197.2,69.3,196.8,68.9,196.8,68.3z
					"/>
				<path class="st2" d="M201.7,68c0-0.6,0.3-1,0.9-1.1c0.6,0,1,0.4,1,0.9c0,0.6-0.3,1-0.9,1.1C202.1,69,201.7,68.6,201.7,68z"/>
				<path class="st2" d="M206.6,67.7c0-0.6,0.3-1,0.9-1.1c0.6,0,1,0.4,1,0.9c0,0.6-0.3,1-0.9,1.1C207,68.7,206.6,68.3,206.6,67.7z"
					/>
				<path class="st2" d="M211.5,67.4c0-0.6,0.3-1,0.9-1.1c0.6,0,1,0.4,1,0.9c0,0.6-0.3,1-0.9,1.1C211.9,68.4,211.5,68,211.5,67.4z"
					/>
				<path class="st2" d="M216.4,67.1c0-0.6,0.3-1,0.9-1.1c0.6,0,1,0.4,1,0.9c0,0.6-0.3,1-0.9,1.1C216.8,68.1,216.4,67.7,216.4,67.1z
					"/>
				<path class="st2" d="M221.3,66.8c0-0.6,0.3-1,0.9-1.1c0.6,0,1,0.4,1,0.9c0,0.6-0.3,1-0.9,1.1C221.7,67.8,221.3,67.4,221.3,66.8z
					"/>
				<path class="st2" d="M226.2,66.5c0-0.6,0.3-1,0.9-1.1c0.6,0,1,0.4,1,0.9c0,0.6-0.3,1-0.9,1.1C226.7,67.5,226.2,67.1,226.2,66.5z
					"/>
				<path class="st2" d="M231.1,66.2c0-0.6,0.3-1,0.9-1.1c0.6,0,1,0.4,1,0.9c0,0.6-0.3,1-0.9,1.1C231.6,67.2,231.1,66.8,231.1,66.2z
					"/>
				<path class="st2" d="M236,65.9c0-0.6,0.3-1,0.9-1.1c0.6,0,1,0.4,1,0.9c0,0.6-0.3,1-0.9,1.1C236.5,66.9,236,66.5,236,65.9z"/>
				<path class="st2" d="M240.9,65.6c0-0.6,0.3-1,0.9-1.1c0.6,0,1,0.4,1,0.9c0,0.6-0.3,1-0.9,1.1C241.4,66.6,240.9,66.2,240.9,65.6z
					"/>
				<path class="st2" d="M245.8,65.3c0-0.6,0.3-1,0.9-1.1c0.6,0,1,0.4,1,0.9c0,0.6-0.3,1-0.9,1.1C246.3,66.3,245.8,65.9,245.8,65.3z
					"/>
				<path class="st2" d="M250.7,65c0-0.6,0.3-1,0.9-1.1c0.6,0,1,0.4,1,0.9c0,0.6-0.3,1-0.9,1.1C251.2,66,250.8,65.5,250.7,65z"/>
				<path class="st2" d="M255.6,64.7c0-0.6,0.3-1,0.9-1.1c0.6,0,1,0.4,1,0.9c0,0.6-0.3,1-0.9,1.1C256.1,65.6,255.7,65.2,255.6,64.7z
					"/>
				<path class="st2" d="M260.5,64.4c0-0.6,0.3-1,0.9-1.1c0.6,0,1,0.4,1,0.9c0,0.6-0.3,1-0.9,1.1C261,65.3,260.6,64.9,260.5,64.4z"
					/>
				<path class="st2" d="M265.4,64c0-0.6,0.3-1,0.9-1.1c0.6,0,1,0.4,1,0.9c0,0.6-0.3,1-0.9,1.1C265.9,65,265.5,64.6,265.4,64z"/>
				<path class="st2" d="M270.3,63.7c0-0.6,0.3-1,0.9-1.1c0.6,0,1,0.4,1,0.9c0,0.6-0.3,1-0.9,1.1C270.8,64.7,270.4,64.3,270.3,63.7z
					"/>
				<path class="st2" d="M26.5,100c0-0.6,0.3-1,0.9-1.1c0.6,0,1,0.4,1,0.9c0,0.6-0.3,1-0.9,1.1C27,101,26.6,100.6,26.5,100z"/>
				<path class="st2" d="M31.4,99.7c0-0.6,0.3-1,0.9-1.1c0.6,0,1,0.4,1,0.9c0,0.6-0.3,1-0.9,1.1C31.9,100.7,31.5,100.3,31.4,99.7z"
					/>
				<path class="st2" d="M36.3,99.4c0-0.6,0.3-1,0.9-1.1c0.6,0,1,0.4,1,0.9c0,0.6-0.3,1-0.9,1.1C36.8,100.4,36.4,100,36.3,99.4z"/>
				<path class="st2" d="M41.2,99.1c0-0.6,0.3-1,0.9-1.1c0.6,0,1,0.4,1,0.9c0,0.6-0.3,1-0.9,1.1C41.7,100.1,41.3,99.7,41.2,99.1z"/>
				<path class="st2" d="M46.1,98.8c0-0.6,0.3-1,0.9-1.1c0.6,0,1,0.4,1,0.9c0,0.6-0.3,1-0.9,1.1C46.6,99.8,46.2,99.4,46.1,98.8z"/>
				<path class="st2" d="M51,98.5c0-0.6,0.3-1,0.9-1.1c0.6,0,1,0.4,1,0.9c0,0.6-0.3,1-0.9,1.1C51.5,99.5,51.1,99.1,51,98.5z"/>
				<path class="st2" d="M55.9,98.2c0-0.6,0.3-1,0.9-1.1c0.6,0,1,0.4,1,0.9c0,0.6-0.3,1-0.9,1.1C56.4,99.2,56,98.8,55.9,98.2z"/>
				<path class="st2" d="M60.8,97.9c0-0.6,0.3-1,0.9-1.1c0.6,0,1,0.4,1,0.9c0,0.6-0.3,1-0.9,1.1C61.3,98.9,60.9,98.5,60.8,97.9z"/>
				<path class="st2" d="M65.7,97.6c0-0.6,0.3-1,0.9-1.1c0.6,0,1,0.4,1,0.9c0,0.6-0.3,1-0.9,1.1C66.2,98.6,65.8,98.2,65.7,97.6z"/>
				<path class="st2" d="M70.6,97.3c0-0.6,0.3-1,0.9-1.1c0.6,0,1,0.4,1,0.9c0,0.6-0.3,1-0.9,1.1C71.1,98.3,70.7,97.8,70.6,97.3z"/>
				<path class="st2" d="M75.5,97c0-0.6,0.3-1,0.9-1.1c0.6,0,1,0.4,1,0.9c0,0.6-0.3,1-0.9,1.1C76,97.9,75.6,97.5,75.5,97z"/>
				<path class="st2" d="M80.4,96.7c0-0.6,0.3-1,0.9-1.1c0.6,0,1,0.4,1,0.9c0,0.6-0.3,1-0.9,1.1C80.9,97.6,80.5,97.2,80.4,96.7z"/>
				<path class="st2" d="M85.4,96.4c0-0.6,0.3-1,0.9-1.1c0.6,0,1,0.4,1,0.9c0,0.6-0.3,1-0.9,1.1C85.8,97.3,85.4,96.9,85.4,96.4z"/>
				<path class="st2" d="M90.3,96c0-0.6,0.3-1,0.9-1.1c0.6,0,1,0.4,1,0.9c0,0.6-0.3,1-0.9,1.1C90.7,97,90.3,96.6,90.3,96z"/>
				<path class="st2" d="M95.2,95.7c0-0.6,0.3-1,0.9-1.1c0.6,0,1,0.4,1,0.9c0,0.6-0.3,1-0.9,1.1C95.6,96.7,95.2,96.3,95.2,95.7z"/>
				<path class="st2" d="M100.1,95.4c0-0.6,0.3-1,0.9-1.1c0.6,0,1,0.4,1,0.9c0,0.6-0.3,1-0.9,1.1C100.5,96.4,100.1,96,100.1,95.4z"
					/>
				<path class="st2" d="M105,95.1c0-0.6,0.3-1,0.9-1.1c0.6,0,1,0.4,1,0.9c0,0.6-0.3,1-0.9,1.1C105.4,96.1,105,95.7,105,95.1z"/>
				<path class="st2" d="M109.9,94.8c0-0.6,0.3-1,0.9-1.1c0.6,0,1,0.4,1,0.9c0,0.6-0.3,1-0.9,1.1C110.3,95.8,109.9,95.4,109.9,94.8z
					"/>
				<path class="st2" d="M114.8,94.5c0-0.6,0.3-1,0.9-1.1c0.6,0,1,0.4,1,0.9c0,0.6-0.3,1-0.9,1.1C115.2,95.5,114.8,95.1,114.8,94.5z
					"/>
				<path class="st2" d="M119.7,94.2c0-0.6,0.3-1,0.9-1.1c0.6,0,1,0.4,1,0.9c0,0.6-0.3,1-0.9,1.1C120.1,95.2,119.7,94.8,119.7,94.2z
					"/>
				<path class="st2" d="M124.6,93.9c0-0.6,0.3-1,0.9-1.1c0.6,0,1,0.4,1,0.9c0,0.6-0.3,1-0.9,1.1C125,94.9,124.6,94.5,124.6,93.9z"
					/>
				<path class="st2" d="M129.5,93.6c0-0.6,0.3-1,0.9-1.1c0.6,0,1,0.4,1,0.9c0,0.6-0.3,1-0.9,1.1C129.9,94.6,129.5,94.2,129.5,93.6z
					"/>
				<path class="st2" d="M134.4,93.3c0-0.6,0.3-1,0.9-1.1c0.6,0,1,0.4,1,0.9c0,0.6-0.3,1-0.9,1.1C134.8,94.3,134.4,93.9,134.4,93.3z
					"/>
				<path class="st2" d="M139.3,93c0-0.6,0.3-1,0.9-1.1c0.6,0,1,0.4,1,0.9c0,0.6-0.3,1-0.9,1.1C139.7,94,139.3,93.6,139.3,93z"/>
				<path class="st2" d="M144.2,92.7c0-0.6,0.3-1,0.9-1.1c0.6,0,1,0.4,1,0.9c0,0.6-0.3,1-0.9,1.1C144.6,93.7,144.2,93.2,144.2,92.7z
					"/>
				<path class="st2" d="M149.1,92.4c0-0.6,0.3-1,0.9-1.1c0.6,0,1,0.4,1,0.9c0,0.6-0.3,1-0.9,1.1C149.5,93.3,149.1,92.9,149.1,92.4z
					"/>
				<path class="st2" d="M154,92.1c0-0.6,0.3-1,0.9-1.1c0.6,0,1,0.4,1,0.9c0,0.6-0.3,1-0.9,1.1C154.4,93,154,92.6,154,92.1z"/>
				<path class="st2" d="M158.9,91.8c0-0.6,0.3-1,0.9-1.1c0.6,0,1,0.4,1,0.9c0,0.6-0.3,1-0.9,1.1C159.3,92.7,158.9,92.3,158.9,91.8z
					"/>
				<path class="st2" d="M163.8,91.4c0-0.6,0.3-1,0.9-1.1c0.6,0,1,0.4,1,0.9c0,0.6-0.3,1-0.9,1.1C164.2,92.4,163.8,92,163.8,91.4z"
					/>
				<path class="st2" d="M168.7,91.1c0-0.6,0.3-1,0.9-1.1c0.6,0,1,0.4,1,0.9c0,0.6-0.3,1-0.9,1.1C169.1,92.1,168.7,91.7,168.7,91.1z
					"/>
				<path class="st2" d="M173.6,90.8c0-0.6,0.3-1,0.9-1.1c0.6,0,1,0.4,1,0.9c0,0.6-0.3,1-0.9,1.1C174,91.8,173.6,91.4,173.6,90.8z"
					/>
				<path class="st2" d="M178.5,90.5c0-0.6,0.3-1,0.9-1.1c0.6,0,1,0.4,1,0.9c0,0.6-0.3,1-0.9,1.1C178.9,91.5,178.5,91.1,178.5,90.5z
					"/>
				<path class="st2" d="M183.4,90.2c0-0.6,0.3-1,0.9-1.1c0.6,0,1,0.4,1,0.9c0,0.6-0.3,1-0.9,1.1C183.8,91.2,183.4,90.8,183.4,90.2z
					"/>
				<path class="st2" d="M188.3,89.9c0-0.6,0.3-1,0.9-1.1c0.6,0,1,0.4,1,0.9c0,0.6-0.3,1-0.9,1.1C188.7,90.9,188.3,90.5,188.3,89.9z
					"/>
				<path class="st2" d="M193.2,89.6c0-0.6,0.3-1,0.9-1.1c0.6,0,1,0.4,1,0.9c0,0.6-0.3,1-0.9,1.1C193.6,90.6,193.2,90.2,193.2,89.6z
					"/>
				<path class="st2" d="M198.1,89.3c0-0.6,0.3-1,0.9-1.1c0.6,0,1,0.4,1,0.9c0,0.6-0.3,1-0.9,1.1C198.5,90.3,198.1,89.9,198.1,89.3z
					"/>
				<path class="st2" d="M203,89c0-0.6,0.3-1,0.9-1.1c0.6,0,1,0.4,1,0.9c0,0.6-0.3,1-0.9,1.1C203.5,90,203,89.6,203,89z"/>
				<path class="st2" d="M207.9,88.7c0-0.6,0.3-1,0.9-1.1c0.6,0,1,0.4,1,0.9c0,0.6-0.3,1-0.9,1.1C208.4,89.7,207.9,89.3,207.9,88.7z
					"/>
				<path class="st2" d="M212.8,88.4c0-0.6,0.3-1,0.9-1.1c0.6,0,1,0.4,1,0.9c0,0.6-0.3,1-0.9,1.1C213.3,89.4,212.8,89,212.8,88.4z"
					/>
				<path class="st2" d="M217.7,88.1c0-0.6,0.3-1,0.9-1.1c0.6,0,1,0.4,1,0.9c0,0.6-0.3,1-0.9,1.1C218.2,89.1,217.7,88.6,217.7,88.1z
					"/>
				<path class="st2" d="M222.6,87.8c0-0.6,0.3-1,0.9-1.1c0.6,0,1,0.4,1,0.9c0,0.6-0.3,1-0.9,1.1C223.1,88.8,222.6,88.3,222.6,87.8z
					"/>
				<path class="st2" d="M227.5,87.5c0-0.6,0.3-1,0.9-1.1c0.6,0,1,0.4,1,0.9c0,0.6-0.3,1-0.9,1.1C228,88.4,227.6,88,227.5,87.5z"/>
				<path class="st2" d="M232.4,87.2c0-0.6,0.3-1,0.9-1.1c0.6,0,1,0.4,1,0.9c0,0.6-0.3,1-0.9,1.1C232.9,88.1,232.5,87.7,232.4,87.2z
					"/>
				<path class="st2" d="M237.3,86.8c0-0.6,0.3-1,0.9-1.1c0.6,0,1,0.4,1,0.9c0,0.6-0.3,1-0.9,1.1C237.8,87.8,237.4,87.4,237.3,86.8z
					"/>
				<path class="st2" d="M242.2,86.5c0-0.6,0.3-1,0.9-1.1c0.6,0,1,0.4,1,0.9c0,0.6-0.3,1-0.9,1.1C242.7,87.5,242.3,87.1,242.2,86.5z
					"/>
				<path class="st2" d="M247.1,86.2c0-0.6,0.3-1,0.9-1.1c0.6,0,1,0.4,1,0.9c0,0.6-0.3,1-0.9,1.1C247.6,87.2,247.2,86.8,247.1,86.2z
					"/>
				<path class="st2" d="M252,85.9c0-0.6,0.3-1,0.9-1.1c0.6,0,1,0.4,1,0.9c0,0.6-0.3,1-0.9,1.1C252.5,86.9,252.1,86.5,252,85.9z"/>
				<path class="st2" d="M256.9,85.6c0-0.6,0.3-1,0.9-1.1c0.6,0,1,0.4,1,0.9c0,0.6-0.3,1-0.9,1.1C257.4,86.6,257,86.2,256.9,85.6z"
					/>
				<path class="st2" d="M261.8,85.3c0-0.6,0.3-1,0.9-1.1c0.6,0,1,0.4,1,0.9c0,0.6-0.3,1-0.9,1.1C262.3,86.3,261.9,85.9,261.8,85.3z
					"/>
				<path class="st2" d="M266.7,85c0-0.6,0.3-1,0.9-1.1c0.6,0,1,0.4,1,0.9c0,0.6-0.3,1-0.9,1.1C267.2,86,266.8,85.6,266.7,85z"/>
				<path class="st2" d="M271.6,84.7c0-0.6,0.3-1,0.9-1.1c0.6,0,1,0.4,1,0.9c0,0.6-0.3,1-0.9,1.1C272.1,85.7,271.7,85.3,271.6,84.7z
					"/>
				<path class="st2" d="M27.8,121c0-0.6,0.3-1,0.9-1.1c0.6,0,1,0.4,1,0.9c0,0.6-0.3,1-0.9,1.1C28.3,122,27.9,121.6,27.8,121z"/>
				<path class="st2" d="M32.7,120.7c0-0.6,0.3-1,0.9-1.1c0.6,0,1,0.4,1,0.9c0,0.6-0.3,1-0.9,1.1C33.2,121.7,32.8,121.3,32.7,120.7z
					"/>
				<path class="st2" d="M37.6,120.4c0-0.6,0.3-1,0.9-1.1c0.6,0,1,0.4,1,0.9c0,0.6-0.3,1-0.9,1.1C38.1,121.4,37.7,121,37.6,120.4z"
					/>
				<path class="st2" d="M42.5,120.1c0-0.6,0.3-1,0.9-1.1c0.6,0,1,0.4,1,0.9c0,0.6-0.3,1-0.9,1.1C43,121.1,42.6,120.6,42.5,120.1z"
					/>
				<path class="st2" d="M47.4,119.8c0-0.6,0.3-1,0.9-1.1c0.6,0,1,0.4,1,0.9c0,0.6-0.3,1-0.9,1.1C47.9,120.7,47.5,120.3,47.4,119.8z
					"/>
				<path class="st2" d="M52.3,119.5c0-0.6,0.3-1,0.9-1.1c0.6,0,1,0.4,1,0.9c0,0.6-0.3,1-0.9,1.1C52.8,120.4,52.4,120,52.3,119.5z"
					/>
				<path class="st2" d="M57.3,119.2c0-0.6,0.3-1,0.9-1.1c0.6,0,1,0.4,1,0.9c0,0.6-0.3,1-0.9,1.1C57.7,120.1,57.3,119.7,57.3,119.2z
					"/>
				<path class="st2" d="M62.2,118.8c0-0.6,0.3-1,0.9-1.1c0.6,0,1,0.4,1,0.9c0,0.6-0.3,1-0.9,1.1C62.6,119.8,62.2,119.4,62.2,118.8z
					"/>
				<path class="st2" d="M67.1,118.5c0-0.6,0.3-1,0.9-1.1c0.6,0,1,0.4,1,0.9c0,0.6-0.3,1-0.9,1.1C67.5,119.5,67.1,119.1,67.1,118.5z
					"/>
				<path class="st2" d="M72,118.2c0-0.6,0.3-1,0.9-1.1c0.6,0,1,0.4,1,0.9c0,0.6-0.3,1-0.9,1.1C72.4,119.2,72,118.8,72,118.2z"/>
				<path class="st2" d="M76.9,117.9c0-0.6,0.3-1,0.9-1.1c0.6,0,1,0.4,1,0.9c0,0.6-0.3,1-0.9,1.1C77.3,118.9,76.9,118.5,76.9,117.9z
					"/>
				<path class="st2" d="M81.8,117.6c0-0.6,0.3-1,0.9-1.1c0.6,0,1,0.4,1,0.9c0,0.6-0.3,1-0.9,1.1C82.2,118.6,81.8,118.2,81.8,117.6z
					"/>
				<path class="st2" d="M86.7,117.3c0-0.6,0.3-1,0.9-1.1c0.6,0,1,0.4,1,0.9c0,0.6-0.3,1-0.9,1.1C87.1,118.3,86.7,117.9,86.7,117.3z
					"/>
				<path class="st2" d="M91.6,117c0-0.6,0.3-1,0.9-1.1c0.6,0,1,0.4,1,0.9c0,0.6-0.3,1-0.9,1.1C92,118,91.6,117.6,91.6,117z"/>
				<path class="st2" d="M96.5,116.7c0-0.6,0.3-1,0.9-1.1c0.6,0,1,0.4,1,0.9c0,0.6-0.3,1-0.9,1.1C96.9,117.7,96.5,117.3,96.5,116.7z
					"/>
				<path class="st2" d="M101.4,116.4c0-0.6,0.3-1,0.9-1.1c0.6,0,1,0.4,1,0.9c0,0.6-0.3,1-0.9,1.1
					C101.8,117.4,101.4,117,101.4,116.4z"/>
				<path class="st2" d="M106.3,116.1c0-0.6,0.3-1,0.9-1.1c0.6,0,1,0.4,1,0.9c0,0.6-0.3,1-0.9,1.1
					C106.7,117.1,106.3,116.7,106.3,116.1z"/>
				<path class="st2" d="M111.2,115.8c0-0.6,0.3-1,0.9-1.1c0.6,0,1,0.4,1,0.9c0,0.6-0.3,1-0.9,1.1
					C111.6,116.8,111.2,116.4,111.2,115.8z"/>
				<path class="st2" d="M116.1,115.5c0-0.6,0.3-1,0.9-1.1c0.6,0,1,0.4,1,0.9c0,0.6-0.3,1-0.9,1.1
					C116.5,116.5,116.1,116,116.1,115.5z"/>
				<path class="st2" d="M121,115.2c0-0.6,0.3-1,0.9-1.1c0.6,0,1,0.4,1,0.9c0,0.6-0.3,1-0.9,1.1C121.4,116.1,121,115.7,121,115.2z"
					/>
				<path class="st2" d="M125.9,114.9c0-0.6,0.3-1,0.9-1.1c0.6,0,1,0.4,1,0.9c0,0.6-0.3,1-0.9,1.1
					C126.3,115.8,125.9,115.4,125.9,114.9z"/>
				<path class="st2" d="M130.8,114.6c0-0.6,0.3-1,0.9-1.1c0.6,0,1,0.4,1,0.9c0,0.6-0.3,1-0.9,1.1
					C131.2,115.5,130.8,115.1,130.8,114.6z"/>
				<path class="st2" d="M135.7,114.2c0-0.6,0.3-1,0.9-1.1c0.6,0,1,0.4,1,0.9c0,0.6-0.3,1-0.9,1.1
					C136.1,115.2,135.7,114.8,135.7,114.2z"/>
				<path class="st2" d="M140.6,113.9c0-0.6,0.3-1,0.9-1.1c0.6,0,1,0.4,1,0.9c0,0.6-0.3,1-0.9,1.1
					C141,114.9,140.6,114.5,140.6,113.9z"/>
				<path class="st2" d="M145.5,113.6c0-0.6,0.3-1,0.9-1.1c0.6,0,1,0.4,1,0.9c0,0.6-0.3,1-0.9,1.1
					C145.9,114.6,145.5,114.2,145.5,113.6z"/>
				<path class="st2" d="M150.4,113.3c0-0.6,0.3-1,0.9-1.1c0.6,0,1,0.4,1,0.9c0,0.6-0.3,1-0.9,1.1
					C150.8,114.3,150.4,113.9,150.4,113.3z"/>
				<path class="st2" d="M155.3,113c0-0.6,0.3-1,0.9-1.1c0.6,0,1,0.4,1,0.9c0,0.6-0.3,1-0.9,1.1C155.7,114,155.3,113.6,155.3,113z"
					/>
				<path class="st2" d="M160.2,112.7c0-0.6,0.3-1,0.9-1.1c0.6,0,1,0.4,1,0.9c0,0.6-0.3,1-0.9,1.1
					C160.6,113.7,160.2,113.3,160.2,112.7z"/>
				<path class="st2" d="M165.1,112.4c0-0.6,0.3-1,0.9-1.1c0.6,0,1,0.4,1,0.9c0,0.6-0.3,1-0.9,1.1
					C165.5,113.4,165.1,113,165.1,112.4z"/>
				<path class="st2" d="M170,112.1c0-0.6,0.3-1,0.9-1.1c0.6,0,1,0.4,1,0.9c0,0.6-0.3,1-0.9,1.1C170.4,113.1,170,112.7,170,112.1z"
					/>
				<path class="st2" d="M174.9,111.8c0-0.6,0.3-1,0.9-1.1c0.6,0,1,0.4,1,0.9c0,0.6-0.3,1-0.9,1.1
					C175.3,112.8,174.9,112.4,174.9,111.8z"/>
				<path class="st2" d="M179.8,111.5c0-0.6,0.3-1,0.9-1.1c0.6,0,1,0.4,1,0.9c0,0.6-0.3,1-0.9,1.1
					C180.3,112.5,179.8,112.1,179.8,111.5z"/>
				<path class="st2" d="M184.7,111.2c0-0.6,0.3-1,0.9-1.1c0.6,0,1,0.4,1,0.9c0,0.6-0.3,1-0.9,1.1
					C185.2,112.2,184.7,111.8,184.7,111.2z"/>
				<path class="st2" d="M189.6,110.9c0-0.6,0.3-1,0.9-1.1c0.6,0,1,0.4,1,0.9c0,0.6-0.3,1-0.9,1.1
					C190.1,111.9,189.6,111.4,189.6,110.9z"/>
				<path class="st2" d="M194.5,110.6c0-0.6,0.3-1,0.9-1.1c0.6,0,1,0.4,1,0.9c0,0.6-0.3,1-0.9,1.1
					C195,111.5,194.5,111.1,194.5,110.6z"/>
				<path class="st2" d="M199.4,110.3c0-0.6,0.3-1,0.9-1.1c0.6,0,1,0.4,1,0.9c0,0.6-0.3,1-0.9,1.1
					C199.9,111.2,199.4,110.8,199.4,110.3z"/>
				<path class="st2" d="M204.3,110c0-0.6,0.3-1,0.9-1.1c0.6,0,1,0.4,1,0.9c0,0.6-0.3,1-0.9,1.1C204.8,110.9,204.4,110.5,204.3,110z
					"/>
				<path class="st2" d="M209.2,109.6c0-0.6,0.3-1,0.9-1.1c0.6,0,1,0.4,1,0.9c0,0.6-0.3,1-0.9,1.1
					C209.7,110.6,209.3,110.2,209.2,109.6z"/>
				<path class="st2" d="M214.1,109.3c0-0.6,0.3-1,0.9-1.1c0.6,0,1,0.4,1,0.9c0,0.6-0.3,1-0.9,1.1
					C214.6,110.3,214.2,109.9,214.1,109.3z"/>
				<path class="st2" d="M219,109c0-0.6,0.3-1,0.9-1.1c0.6,0,1,0.4,1,0.9c0,0.6-0.3,1-0.9,1.1C219.5,110,219.1,109.6,219,109z"/>
				<path class="st2" d="M223.9,108.7c0-0.6,0.3-1,0.9-1.1c0.6,0,1,0.4,1,0.9c0,0.6-0.3,1-0.9,1.1
					C224.4,109.7,224,109.3,223.9,108.7z"/>
				<path class="st2" d="M228.8,108.4c0-0.6,0.3-1,0.9-1.1c0.6,0,1,0.4,1,0.9c0,0.6-0.3,1-0.9,1.1
					C229.3,109.4,228.9,109,228.8,108.4z"/>
				<path class="st2" d="M233.7,108.1c0-0.6,0.3-1,0.9-1.1c0.6,0,1,0.4,1,0.9c0,0.6-0.3,1-0.9,1.1
					C234.2,109.1,233.8,108.7,233.7,108.1z"/>
				<path class="st2" d="M238.6,107.8c0-0.6,0.3-1,0.9-1.1c0.6,0,1,0.4,1,0.9c0,0.6-0.3,1-0.9,1.1
					C239.1,108.8,238.7,108.4,238.6,107.8z"/>
				<path class="st2" d="M243.5,107.5c0-0.6,0.3-1,0.9-1.1c0.6,0,1,0.4,1,0.9c0,0.6-0.3,1-0.9,1.1
					C244,108.5,243.6,108.1,243.5,107.5z"/>
				<path class="st2" d="M248.4,107.2c0-0.6,0.3-1,0.9-1.1c0.6,0,1,0.4,1,0.9c0,0.6-0.3,1-0.9,1.1
					C248.9,108.2,248.5,107.8,248.4,107.2z"/>
				<path class="st2" d="M253.3,106.9c0-0.6,0.3-1,0.9-1.1c0.6,0,1,0.4,1,0.9c0,0.6-0.3,1-0.9,1.1
					C253.8,107.9,253.4,107.5,253.3,106.9z"/>
				<path class="st2" d="M258.2,106.6c0-0.6,0.3-1,0.9-1.1c0.6,0,1,0.4,1,0.9c0,0.6-0.3,1-0.9,1.1
					C258.7,107.6,258.3,107.2,258.2,106.6z"/>
				<path class="st2" d="M263.1,106.3c0-0.6,0.3-1,0.9-1.1c0.6,0,1,0.4,1,0.9c0,0.6-0.3,1-0.9,1.1
					C263.6,107.3,263.2,106.8,263.1,106.3z"/>
				<path class="st2" d="M268,106c0-0.6,0.3-1,0.9-1.1c0.6,0,1,0.4,1,0.9c0,0.6-0.3,1-0.9,1.1C268.5,106.9,268.1,106.5,268,106z"/>
				<path class="st2" d="M272.9,105.7c0-0.6,0.3-1,0.9-1.1c0.6,0,1,0.4,1,0.9c0,0.6-0.3,1-0.9,1.1
					C273.4,106.6,273,106.2,272.9,105.7z"/>
				<path class="st2" d="M29.1,142c0-0.6,0.3-1,0.9-1.1c0.6,0,1,0.4,1,0.9c0,0.6-0.3,1-0.9,1.1C29.6,142.9,29.2,142.5,29.1,142z"/>
				<path class="st2" d="M34.1,141.6c0-0.6,0.3-1,0.9-1.1c0.6,0,1,0.4,1,0.9c0,0.6-0.3,1-0.9,1.1C34.5,142.6,34.1,142.2,34.1,141.6z
					"/>
				<path class="st2" d="M39,141.3c0-0.6,0.3-1,0.9-1.1c0.6,0,1,0.4,1,0.9c0,0.6-0.3,1-0.9,1.1C39.4,142.3,39,141.9,39,141.3z"/>
				<path class="st2" d="M43.9,141c0-0.6,0.3-1,0.9-1.1c0.6,0,1,0.4,1,0.9c0,0.6-0.3,1-0.9,1.1C44.3,142,43.9,141.6,43.9,141z"/>
				<path class="st2" d="M48.8,140.7c0-0.6,0.3-1,0.9-1.1c0.6,0,1,0.4,1,0.9c0,0.6-0.3,1-0.9,1.1C49.2,141.7,48.8,141.3,48.8,140.7z
					"/>
				<path class="st2" d="M53.7,140.4c0-0.6,0.3-1,0.9-1.1c0.6,0,1,0.4,1,0.9c0,0.6-0.3,1-0.9,1.1C54.1,141.4,53.7,141,53.7,140.4z"
					/>
				<path class="st2" d="M58.6,140.1c0-0.6,0.3-1,0.9-1.1c0.6,0,1,0.4,1,0.9c0,0.6-0.3,1-0.9,1.1C59,141.1,58.6,140.7,58.6,140.1z"
					/>
				<path class="st2" d="M63.5,139.8c0-0.6,0.3-1,0.9-1.1c0.6,0,1,0.4,1,0.9c0,0.6-0.3,1-0.9,1.1C63.9,140.8,63.5,140.4,63.5,139.8z
					"/>
				<path class="st2" d="M68.4,139.5c0-0.6,0.3-1,0.9-1.1c0.6,0,1,0.4,1,0.9c0,0.6-0.3,1-0.9,1.1C68.8,140.5,68.4,140.1,68.4,139.5z
					"/>
				<path class="st2" d="M73.3,139.2c0-0.6,0.3-1,0.9-1.1c0.6,0,1,0.4,1,0.9c0,0.6-0.3,1-0.9,1.1C73.7,140.2,73.3,139.8,73.3,139.2z
					"/>
				<path class="st2" d="M78.2,138.9c0-0.6,0.3-1,0.9-1.1c0.6,0,1,0.4,1,0.9c0,0.6-0.3,1-0.9,1.1C78.6,139.9,78.2,139.5,78.2,138.9z
					"/>
				<path class="st2" d="M83.1,138.6c0-0.6,0.3-1,0.9-1.1c0.6,0,1,0.4,1,0.9c0,0.6-0.3,1-0.9,1.1C83.5,139.6,83.1,139.2,83.1,138.6z
					"/>
				<path class="st2" d="M88,138.3c0-0.6,0.3-1,0.9-1.1c0.6,0,1,0.4,1,0.9c0,0.6-0.3,1-0.9,1.1C88.4,139.3,88,138.8,88,138.3z"/>
				<path class="st2" d="M92.9,138c0-0.6,0.3-1,0.9-1.1c0.6,0,1,0.4,1,0.9c0,0.6-0.3,1-0.9,1.1C93.3,138.9,92.9,138.5,92.9,138z"/>
				<path class="st2" d="M97.8,137.7c0-0.6,0.3-1,0.9-1.1c0.6,0,1,0.4,1,0.9c0,0.6-0.3,1-0.9,1.1C98.2,138.6,97.8,138.2,97.8,137.7z
					"/>
				<path class="st2" d="M102.7,137.4c0-0.6,0.3-1,0.9-1.1c0.6,0,1,0.4,1,0.9c0,0.6-0.3,1-0.9,1.1
					C103.1,138.3,102.7,137.9,102.7,137.4z"/>
				<path class="st2" d="M107.6,137c0-0.6,0.3-1,0.9-1.1c0.6,0,1,0.4,1,0.9c0,0.6-0.3,1-0.9,1.1C108,138,107.6,137.6,107.6,137z"/>
				<path class="st2" d="M112.5,136.7c0-0.6,0.3-1,0.9-1.1c0.6,0,1,0.4,1,0.9c0,0.6-0.3,1-0.9,1.1
					C112.9,137.7,112.5,137.3,112.5,136.7z"/>
				<path class="st2" d="M117.4,136.4c0-0.6,0.3-1,0.9-1.1c0.6,0,1,0.4,1,0.9c0,0.6-0.3,1-0.9,1.1
					C117.8,137.4,117.4,137,117.4,136.4z"/>
				<path class="st2" d="M122.3,136.1c0-0.6,0.3-1,0.9-1.1c0.6,0,1,0.4,1,0.9c0,0.6-0.3,1-0.9,1.1
					C122.7,137.1,122.3,136.7,122.3,136.1z"/>
				<path class="st2" d="M127.2,135.8c0-0.6,0.3-1,0.9-1.1c0.6,0,1,0.4,1,0.9c0,0.6-0.3,1-0.9,1.1
					C127.6,136.8,127.2,136.4,127.2,135.8z"/>
				<path class="st2" d="M132.1,135.5c0-0.6,0.3-1,0.9-1.1c0.6,0,1,0.4,1,0.9c0,0.6-0.3,1-0.9,1.1
					C132.5,136.5,132.1,136.1,132.1,135.5z"/>
				<path class="st2" d="M137,135.2c0-0.6,0.3-1,0.9-1.1c0.6,0,1,0.4,1,0.9c0,0.6-0.3,1-0.9,1.1C137.4,136.2,137,135.8,137,135.2z"
					/>
				<path class="st2" d="M141.9,134.9c0-0.6,0.3-1,0.9-1.1c0.6,0,1,0.4,1,0.9c0,0.6-0.3,1-0.9,1.1
					C142.3,135.9,141.9,135.5,141.9,134.9z"/>
				<path class="st2" d="M146.8,134.6c0-0.6,0.3-1,0.9-1.1c0.6,0,1,0.4,1,0.9c0,0.6-0.3,1-0.9,1.1
					C147.2,135.6,146.8,135.2,146.8,134.6z"/>
				<path class="st2" d="M151.7,134.3c0-0.6,0.3-1,0.9-1.1c0.6,0,1,0.4,1,0.9c0,0.6-0.3,1-0.9,1.1
					C152.1,135.3,151.7,134.9,151.7,134.3z"/>
				<path class="st2" d="M156.6,134c0-0.6,0.3-1,0.9-1.1c0.6,0,1,0.4,1,0.9c0,0.6-0.3,1-0.9,1.1C157.1,135,156.6,134.6,156.6,134z"
					/>
				<path class="st2" d="M161.5,133.7c0-0.6,0.3-1,0.9-1.1c0.6,0,1,0.4,1,0.9c0,0.6-0.3,1-0.9,1.1
					C162,134.7,161.5,134.2,161.5,133.7z"/>
				<path class="st2" d="M166.4,133.4c0-0.6,0.3-1,0.9-1.1c0.6,0,1,0.4,1,0.9c0,0.6-0.3,1-0.9,1.1
					C166.9,134.3,166.4,133.9,166.4,133.4z"/>
				<path class="st2" d="M171.3,133.1c0-0.6,0.3-1,0.9-1.1c0.6,0,1,0.4,1,0.9c0,0.6-0.3,1-0.9,1.1
					C171.8,134,171.3,133.6,171.3,133.1z"/>
				<path class="st2" d="M176.2,132.8c0-0.6,0.3-1,0.9-1.1c0.6,0,1,0.4,1,0.9c0,0.6-0.3,1-0.9,1.1
					C176.7,133.7,176.2,133.3,176.2,132.8z"/>
				<path class="st2" d="M181.1,132.4c0-0.6,0.3-1,0.9-1.1c0.6,0,1,0.4,1,0.9c0,0.6-0.3,1-0.9,1.1
					C181.6,133.4,181.2,133,181.1,132.4z"/>
				<path class="st2" d="M186,132.1c0-0.6,0.3-1,0.9-1.1c0.6,0,1,0.4,1,0.9c0,0.6-0.3,1-0.9,1.1C186.5,133.1,186.1,132.7,186,132.1z
					"/>
				<path class="st2" d="M190.9,131.8c0-0.6,0.3-1,0.9-1.1c0.6,0,1,0.4,1,0.9c0,0.6-0.3,1-0.9,1.1
					C191.4,132.8,191,132.4,190.9,131.8z"/>
				<path class="st2" d="M195.8,131.5c0-0.6,0.3-1,0.9-1.1c0.6,0,1,0.4,1,0.9c0,0.6-0.3,1-0.9,1.1
					C196.3,132.5,195.9,132.1,195.8,131.5z"/>
				<path class="st2" d="M200.7,131.2c0-0.6,0.3-1,0.9-1.1c0.6,0,1,0.4,1,0.9c0,0.6-0.3,1-0.9,1.1
					C201.2,132.2,200.8,131.8,200.7,131.2z"/>
				<path class="st2" d="M205.6,130.9c0-0.6,0.3-1,0.9-1.1c0.6,0,1,0.4,1,0.9c0,0.6-0.3,1-0.9,1.1
					C206.1,131.9,205.7,131.5,205.6,130.9z"/>
				<path class="st2" d="M210.5,130.6c0-0.6,0.3-1,0.9-1.1c0.6,0,1,0.4,1,0.9c0,0.6-0.3,1-0.9,1.1
					C211,131.6,210.6,131.2,210.5,130.6z"/>
				<path class="st2" d="M215.4,130.3c0-0.6,0.3-1,0.9-1.1c0.6,0,1,0.4,1,0.9c0,0.6-0.3,1-0.9,1.1
					C215.9,131.3,215.5,130.9,215.4,130.3z"/>
				<path class="st2" d="M220.3,130c0-0.6,0.3-1,0.9-1.1c0.6,0,1,0.4,1,0.9c0,0.6-0.3,1-0.9,1.1C220.8,131,220.4,130.6,220.3,130z"
					/>
				<path class="st2" d="M225.2,129.7c0-0.6,0.3-1,0.9-1.1c0.6,0,1,0.4,1,0.9c0,0.6-0.3,1-0.9,1.1
					C225.7,130.7,225.3,130.3,225.2,129.7z"/>
				<path class="st2" d="M230.1,129.4c0-0.6,0.3-1,0.9-1.1c0.6,0,1,0.4,1,0.9c0,0.6-0.3,1-0.9,1.1
					C230.6,130.4,230.2,130,230.1,129.4z"/>
				<path class="st2" d="M235,129.1c0-0.6,0.3-1,0.9-1.1c0.6,0,1,0.4,1,0.9c0,0.6-0.3,1-0.9,1.1C235.5,130.1,235.1,129.6,235,129.1z
					"/>
				<path class="st2" d="M239.9,128.8c0-0.6,0.3-1,0.9-1.1c0.6,0,1,0.4,1,0.9c0,0.6-0.3,1-0.9,1.1
					C240.4,129.7,240,129.3,239.9,128.8z"/>
				<path class="st2" d="M244.8,128.5c0-0.6,0.3-1,0.9-1.1c0.6,0,1,0.4,1,0.9c0,0.6-0.3,1-0.9,1.1
					C245.3,129.4,244.9,129,244.8,128.5z"/>
				<path class="st2" d="M249.7,128.2c0-0.6,0.3-1,0.9-1.1c0.6,0,1,0.4,1,0.9c0,0.6-0.3,1-0.9,1.1
					C250.2,129.1,249.8,128.7,249.7,128.2z"/>
				<path class="st2" d="M254.6,127.8c0-0.6,0.3-1,0.9-1.1c0.6,0,1,0.4,1,0.9c0,0.6-0.3,1-0.9,1.1
					C255.1,128.8,254.7,128.4,254.6,127.8z"/>
				<path class="st2" d="M259.6,127.5c0-0.6,0.3-1,0.9-1.1c0.6,0,1,0.4,1,0.9c0,0.6-0.3,1-0.9,1.1
					C260,128.5,259.6,128.1,259.6,127.5z"/>
				<path class="st2" d="M264.5,127.2c0-0.6,0.3-1,0.9-1.1c0.6,0,1,0.4,1,0.9c0,0.6-0.3,1-0.9,1.1
					C264.9,128.2,264.5,127.8,264.5,127.2z"/>
				<path class="st2" d="M269.4,126.9c0-0.6,0.3-1,0.9-1.1c0.6,0,1,0.4,1,0.9c0,0.6-0.3,1-0.9,1.1
					C269.8,127.9,269.4,127.5,269.4,126.9z"/>
				<path class="st2" d="M274.3,126.6c0-0.6,0.3-1,0.9-1.1c0.6,0,1,0.4,1,0.9c0,0.6-0.3,1-0.9,1.1
					C274.7,127.6,274.3,127.2,274.3,126.6z"/>
				<path class="st2" d="M30.5,162.9c0-0.6,0.3-1,0.9-1.1c0.6,0,1,0.4,1,0.9c0,0.6-0.3,1-0.9,1.1C30.9,163.9,30.5,163.5,30.5,162.9z
					"/>
				<path class="st2" d="M35.4,162.6c0-0.6,0.3-1,0.9-1.1c0.6,0,1,0.4,1,0.9c0,0.6-0.3,1-0.9,1.1C35.8,163.6,35.4,163.2,35.4,162.6z
					"/>
				<path class="st2" d="M40.3,162.3c0-0.6,0.3-1,0.9-1.1c0.6,0,1,0.4,1,0.9c0,0.6-0.3,1-0.9,1.1C40.7,163.3,40.3,162.9,40.3,162.3z
					"/>
				<path class="st2" d="M45.2,162c0-0.6,0.3-1,0.9-1.1c0.6,0,1,0.4,1,0.9c0,0.6-0.3,1-0.9,1.1C45.6,163,45.2,162.6,45.2,162z"/>
				<path class="st2" d="M50.1,161.7c0-0.6,0.3-1,0.9-1.1c0.6,0,1,0.4,1,0.9c0,0.6-0.3,1-0.9,1.1C50.5,162.7,50.1,162.3,50.1,161.7z
					"/>
				<path class="st2" d="M55,161.4c0-0.6,0.3-1,0.9-1.1c0.6,0,1,0.4,1,0.9c0,0.6-0.3,1-0.9,1.1C55.4,162.4,55,162,55,161.4z"/>
				<path class="st2" d="M59.9,161.1c0-0.6,0.3-1,0.9-1.1c0.6,0,1,0.4,1,0.9c0,0.6-0.3,1-0.9,1.1C60.3,162.1,59.9,161.6,59.9,161.1z
					"/>
				<path class="st2" d="M64.8,160.8c0-0.6,0.3-1,0.9-1.1c0.6,0,1,0.4,1,0.9c0,0.6-0.3,1-0.9,1.1C65.2,161.7,64.8,161.3,64.8,160.8z
					"/>
				<path class="st2" d="M69.7,160.5c0-0.6,0.3-1,0.9-1.1c0.6,0,1,0.4,1,0.9c0,0.6-0.3,1-0.9,1.1C70.1,161.4,69.7,161,69.7,160.5z"
					/>
				<path class="st2" d="M74.6,160.1c0-0.6,0.3-1,0.9-1.1c0.6,0,1,0.4,1,0.9c0,0.6-0.3,1-0.9,1.1C75,161.1,74.6,160.7,74.6,160.1z"
					/>
				<path class="st2" d="M79.5,159.8c0-0.6,0.3-1,0.9-1.1c0.6,0,1,0.4,1,0.9c0,0.6-0.3,1-0.9,1.1C79.9,160.8,79.5,160.4,79.5,159.8z
					"/>
				<path class="st2" d="M84.4,159.5c0-0.6,0.3-1,0.9-1.1c0.6,0,1,0.4,1,0.9c0,0.6-0.3,1-0.9,1.1C84.8,160.5,84.4,160.1,84.4,159.5z
					"/>
				<path class="st2" d="M89.3,159.2c0-0.6,0.3-1,0.9-1.1c0.6,0,1,0.4,1,0.9c0,0.6-0.3,1-0.9,1.1C89.7,160.2,89.3,159.8,89.3,159.2z
					"/>
				<path class="st2" d="M94.2,158.9c0-0.6,0.3-1,0.9-1.1c0.6,0,1,0.4,1,0.9c0,0.6-0.3,1-0.9,1.1C94.6,159.9,94.2,159.5,94.2,158.9z
					"/>
				<path class="st2" d="M99.1,158.6c0-0.6,0.3-1,0.9-1.1c0.6,0,1,0.4,1,0.9c0,0.6-0.3,1-0.9,1.1C99.5,159.6,99.1,159.2,99.1,158.6z
					"/>
				<path class="st2" d="M104,158.3c0-0.6,0.3-1,0.9-1.1c0.6,0,1,0.4,1,0.9c0,0.6-0.3,1-0.9,1.1C104.4,159.3,104,158.9,104,158.3z"
					/>
				<path class="st2" d="M108.9,158c0-0.6,0.3-1,0.9-1.1c0.6,0,1,0.4,1,0.9c0,0.6-0.3,1-0.9,1.1C109.3,159,108.9,158.6,108.9,158z"
					/>
				<path class="st2" d="M113.8,157.7c0-0.6,0.3-1,0.9-1.1c0.6,0,1,0.4,1,0.9c0,0.6-0.3,1-0.9,1.1
					C114.2,158.7,113.8,158.3,113.8,157.7z"/>
				<path class="st2" d="M118.7,157.4c0-0.6,0.3-1,0.9-1.1c0.6,0,1,0.4,1,0.9c0,0.6-0.3,1-0.9,1.1
					C119.1,158.4,118.7,158,118.7,157.4z"/>
				<path class="st2" d="M123.6,157.1c0-0.6,0.3-1,0.9-1.1c0.6,0,1,0.4,1,0.9c0,0.6-0.3,1-0.9,1.1
					C124,158.1,123.6,157.7,123.6,157.1z"/>
				<path class="st2" d="M128.5,156.8c0-0.6,0.3-1,0.9-1.1c0.6,0,1,0.4,1,0.9c0,0.6-0.3,1-0.9,1.1
					C128.9,157.8,128.5,157.4,128.5,156.8z"/>
				<path class="st2" d="M133.4,156.5c0-0.6,0.3-1,0.9-1.1c0.6,0,1,0.4,1,0.9c0,0.6-0.3,1-0.9,1.1
					C133.9,157.5,133.4,157,133.4,156.5z"/>
				<path class="st2" d="M138.3,156.2c0-0.6,0.3-1,0.9-1.1c0.6,0,1,0.4,1,0.9c0,0.6-0.3,1-0.9,1.1
					C138.8,157.1,138.3,156.7,138.3,156.2z"/>
				<path class="st2" d="M143.2,155.9c0-0.6,0.3-1,0.9-1.1c0.6,0,1,0.4,1,0.9c0,0.6-0.3,1-0.9,1.1
					C143.7,156.8,143.2,156.4,143.2,155.9z"/>
				<path class="st2" d="M148.1,155.6c0-0.6,0.3-1,0.9-1.1c0.6,0,1,0.4,1,0.9c0,0.6-0.3,1-0.9,1.1
					C148.6,156.5,148.1,156.1,148.1,155.6z"/>
				<path class="st2" d="M153,155.2c0-0.6,0.3-1,0.9-1.1c0.6,0,1,0.4,1,0.9c0,0.6-0.3,1-0.9,1.1C153.5,156.2,153,155.8,153,155.2z"
					/>
				<path class="st2" d="M157.9,154.9c0-0.6,0.3-1,0.9-1.1c0.6,0,1,0.4,1,0.9c0,0.6-0.3,1-0.9,1.1
					C158.4,155.9,158,155.5,157.9,154.9z"/>
				<path class="st2" d="M162.8,154.6c0-0.6,0.3-1,0.9-1.1c0.6,0,1,0.4,1,0.9c0,0.6-0.3,1-0.9,1.1
					C163.3,155.6,162.9,155.2,162.8,154.6z"/>
				<path class="st2" d="M167.7,154.3c0-0.6,0.3-1,0.9-1.1c0.6,0,1,0.4,1,0.9c0,0.6-0.3,1-0.9,1.1
					C168.2,155.3,167.8,154.9,167.7,154.3z"/>
				<path class="st2" d="M172.6,154c0-0.6,0.3-1,0.9-1.1c0.6,0,1,0.4,1,0.9c0,0.6-0.3,1-0.9,1.1C173.1,155,172.7,154.6,172.6,154z"
					/>
				<path class="st2" d="M177.5,153.7c0-0.6,0.3-1,0.9-1.1c0.6,0,1,0.4,1,0.9c0,0.6-0.3,1-0.9,1.1
					C178,154.7,177.6,154.3,177.5,153.7z"/>
				<path class="st2" d="M182.4,153.4c0-0.6,0.3-1,0.9-1.1c0.6,0,1,0.4,1,0.9c0,0.6-0.3,1-0.9,1.1
					C182.9,154.4,182.5,154,182.4,153.4z"/>
				<path class="st2" d="M187.3,153.1c0-0.6,0.3-1,0.9-1.1c0.6,0,1,0.4,1,0.9c0,0.6-0.3,1-0.9,1.1
					C187.8,154.1,187.4,153.7,187.3,153.1z"/>
				<path class="st2" d="M192.2,152.8c0-0.6,0.3-1,0.9-1.1c0.6,0,1,0.4,1,0.9c0,0.6-0.3,1-0.9,1.1
					C192.7,153.8,192.3,153.4,192.2,152.8z"/>
				<path class="st2" d="M197.1,152.5c0-0.6,0.3-1,0.9-1.1c0.6,0,1,0.4,1,0.9c0,0.6-0.3,1-0.9,1.1
					C197.6,153.5,197.2,153.1,197.1,152.5z"/>
				<path class="st2" d="M202,152.2c0-0.6,0.3-1,0.9-1.1c0.6,0,1,0.4,1,0.9c0,0.6-0.3,1-0.9,1.1C202.5,153.2,202.1,152.8,202,152.2z
					"/>
				<path class="st2" d="M206.9,151.9c0-0.6,0.3-1,0.9-1.1c0.6,0,1,0.4,1,0.9c0,0.6-0.3,1-0.9,1.1
					C207.4,152.9,207,152.4,206.9,151.9z"/>
				<path class="st2" d="M211.8,151.6c0-0.6,0.3-1,0.9-1.1c0.6,0,1,0.4,1,0.9c0,0.6-0.3,1-0.9,1.1
					C212.3,152.5,211.9,152.1,211.8,151.6z"/>
				<path class="st2" d="M216.7,151.3c0-0.6,0.3-1,0.9-1.1c0.6,0,1,0.4,1,0.9c0,0.6-0.3,1-0.9,1.1
					C217.2,152.2,216.8,151.8,216.7,151.3z"/>
				<path class="st2" d="M221.6,151c0-0.6,0.3-1,0.9-1.1c0.6,0,1,0.4,1,0.9c0,0.6-0.3,1-0.9,1.1C222.1,151.9,221.7,151.5,221.6,151z
					"/>
				<path class="st2" d="M226.5,150.6c0-0.6,0.3-1,0.9-1.1c0.6,0,1,0.4,1,0.9c0,0.6-0.3,1-0.9,1.1
					C227,151.6,226.6,151.2,226.5,150.6z"/>
				<path class="st2" d="M231.4,150.3c0-0.6,0.3-1,0.9-1.1c0.6,0,1,0.4,1,0.9c0,0.6-0.3,1-0.9,1.1
					C231.9,151.3,231.5,150.9,231.4,150.3z"/>
				<path class="st2" d="M236.4,150c0-0.6,0.3-1,0.9-1.1c0.6,0,1,0.4,1,0.9c0,0.6-0.3,1-0.9,1.1C236.8,151,236.4,150.6,236.4,150z"
					/>
				<path class="st2" d="M241.3,149.7c0-0.6,0.3-1,0.9-1.1c0.6,0,1,0.4,1,0.9c0,0.6-0.3,1-0.9,1.1
					C241.7,150.7,241.3,150.3,241.3,149.7z"/>
				<path class="st2" d="M246.2,149.4c0-0.6,0.3-1,0.9-1.1c0.6,0,1,0.4,1,0.9c0,0.6-0.3,1-0.9,1.1
					C246.6,150.4,246.2,150,246.2,149.4z"/>
				<path class="st2" d="M251.1,149.1c0-0.6,0.3-1,0.9-1.1c0.6,0,1,0.4,1,0.9c0,0.6-0.3,1-0.9,1.1
					C251.5,150.1,251.1,149.7,251.1,149.1z"/>
				<path class="st2" d="M256,148.8c0-0.6,0.3-1,0.9-1.1c0.6,0,1,0.4,1,0.9c0,0.6-0.3,1-0.9,1.1C256.4,149.8,256,149.4,256,148.8z"
					/>
				<path class="st2" d="M260.9,148.5c0-0.6,0.3-1,0.9-1.1c0.6,0,1,0.4,1,0.9c0,0.6-0.3,1-0.9,1.1
					C261.3,149.5,260.9,149.1,260.9,148.5z"/>
				<path class="st2" d="M265.8,148.2c0-0.6,0.3-1,0.9-1.1c0.6,0,1,0.4,1,0.9c0,0.6-0.3,1-0.9,1.1
					C266.2,149.2,265.8,148.8,265.8,148.2z"/>
				<path class="st2" d="M270.7,147.9c0-0.6,0.3-1,0.9-1.1c0.6,0,1,0.4,1,0.9c0,0.6-0.3,1-0.9,1.1
					C271.1,148.9,270.7,148.5,270.7,147.9z"/>
				<path class="st2" d="M275.6,147.6c0-0.6,0.3-1,0.9-1.1c0.6,0,1,0.4,1,0.9c0,0.6-0.3,1-0.9,1.1
					C276,148.6,275.6,148.2,275.6,147.6z"/>
				<path class="st2" d="M31.8,183.9c0-0.6,0.3-1,0.9-1.1c0.6,0,1,0.4,1,0.9c0,0.6-0.3,1-0.9,1.1C32.2,184.9,31.8,184.4,31.8,183.9z
					"/>
				<path class="st2" d="M36.7,183.6c0-0.6,0.3-1,0.9-1.1c0.6,0,1,0.4,1,0.9c0,0.6-0.3,1-0.9,1.1C37.1,184.5,36.7,184.1,36.7,183.6z
					"/>
				<path class="st2" d="M41.6,183.3c0-0.6,0.3-1,0.9-1.1c0.6,0,1,0.4,1,0.9c0,0.6-0.3,1-0.9,1.1C42,184.2,41.6,183.8,41.6,183.3z"
					/>
				<path class="st2" d="M46.5,182.9c0-0.6,0.3-1,0.9-1.1c0.6,0,1,0.4,1,0.9c0,0.6-0.3,1-0.9,1.1C46.9,183.9,46.5,183.5,46.5,182.9z
					"/>
				<path class="st2" d="M51.4,182.6c0-0.6,0.3-1,0.9-1.1c0.6,0,1,0.4,1,0.9c0,0.6-0.3,1-0.9,1.1C51.8,183.6,51.4,183.2,51.4,182.6z
					"/>
				<path class="st2" d="M56.3,182.3c0-0.6,0.3-1,0.9-1.1c0.6,0,1,0.4,1,0.9c0,0.6-0.3,1-0.9,1.1C56.7,183.3,56.3,182.9,56.3,182.3z
					"/>
				<path class="st2" d="M61.2,182c0-0.6,0.3-1,0.9-1.1c0.6,0,1,0.4,1,0.9c0,0.6-0.3,1-0.9,1.1C61.6,183,61.2,182.6,61.2,182z"/>
				<path class="st2" d="M66.1,181.7c0-0.6,0.3-1,0.9-1.1c0.6,0,1,0.4,1,0.9c0,0.6-0.3,1-0.9,1.1C66.5,182.7,66.1,182.3,66.1,181.7z
					"/>
				<path class="st2" d="M71,181.4c0-0.6,0.3-1,0.9-1.1c0.6,0,1,0.4,1,0.9c0,0.6-0.3,1-0.9,1.1C71.4,182.4,71,182,71,181.4z"/>
				<path class="st2" d="M75.9,181.1c0-0.6,0.3-1,0.9-1.1c0.6,0,1,0.4,1,0.9c0,0.6-0.3,1-0.9,1.1C76.3,182.1,75.9,181.7,75.9,181.1z
					"/>
				<path class="st2" d="M80.8,180.8c0-0.6,0.3-1,0.9-1.1c0.6,0,1,0.4,1,0.9c0,0.6-0.3,1-0.9,1.1C81.2,181.8,80.8,181.4,80.8,180.8z
					"/>
				<path class="st2" d="M85.7,180.5c0-0.6,0.3-1,0.9-1.1c0.6,0,1,0.4,1,0.9c0,0.6-0.3,1-0.9,1.1C86.1,181.5,85.7,181.1,85.7,180.5z
					"/>
				<path class="st2" d="M90.6,180.2c0-0.6,0.3-1,0.9-1.1c0.6,0,1,0.4,1,0.9c0,0.6-0.3,1-0.9,1.1C91,181.2,90.6,180.8,90.6,180.2z"
					/>
				<path class="st2" d="M95.5,179.9c0-0.6,0.3-1,0.9-1.1c0.6,0,1,0.4,1,0.9c0,0.6-0.3,1-0.9,1.1C95.9,180.9,95.5,180.5,95.5,179.9z
					"/>
				<path class="st2" d="M100.4,179.6c0-0.6,0.3-1,0.9-1.1c0.6,0,1,0.4,1,0.9c0,0.6-0.3,1-0.9,1.1
					C100.8,180.6,100.4,180.2,100.4,179.6z"/>
				<path class="st2" d="M105.3,179.3c0-0.6,0.3-1,0.9-1.1c0.6,0,1,0.4,1,0.9c0,0.6-0.3,1-0.9,1.1
					C105.7,180.3,105.3,179.8,105.3,179.3z"/>
				<path class="st2" d="M110.2,179c0-0.6,0.3-1,0.9-1.1c0.6,0,1,0.4,1,0.9c0,0.6-0.3,1-0.9,1.1C110.7,179.9,110.2,179.5,110.2,179z
					"/>
				<path class="st2" d="M115.1,178.7c0-0.6,0.3-1,0.9-1.1c0.6,0,1,0.4,1,0.9c0,0.6-0.3,1-0.9,1.1
					C115.6,179.6,115.1,179.2,115.1,178.7z"/>
				<path class="st2" d="M120,178.3c0-0.6,0.3-1,0.9-1.1c0.6,0,1,0.4,1,0.9c0,0.6-0.3,1-0.9,1.1C120.5,179.3,120,178.9,120,178.3z"
					/>
				<path class="st2" d="M124.9,178c0-0.6,0.3-1,0.9-1.1c0.6,0,1,0.4,1,0.9c0,0.6-0.3,1-0.9,1.1C125.4,179,124.9,178.6,124.9,178z"
					/>
				<path class="st2" d="M129.8,177.7c0-0.6,0.3-1,0.9-1.1c0.6,0,1,0.4,1,0.9c0,0.6-0.3,1-0.9,1.1
					C130.3,178.7,129.8,178.3,129.8,177.7z"/>
				<path class="st2" d="M134.7,177.4c0-0.6,0.3-1,0.9-1.1c0.6,0,1,0.4,1,0.9c0,0.6-0.3,1-0.9,1.1
					C135.2,178.4,134.8,178,134.7,177.4z"/>
				<path class="st2" d="M139.6,177.1c0-0.6,0.3-1,0.9-1.1c0.6,0,1,0.4,1,0.9c0,0.6-0.3,1-0.9,1.1
					C140.1,178.1,139.7,177.7,139.6,177.1z"/>
				<path class="st2" d="M144.5,176.8c0-0.6,0.3-1,0.9-1.1c0.6,0,1,0.4,1,0.9c0,0.6-0.3,1-0.9,1.1
					C145,177.8,144.6,177.4,144.5,176.8z"/>
				<path class="st2" d="M149.4,176.5c0-0.6,0.3-1,0.9-1.1c0.6,0,1,0.4,1,0.9c0,0.6-0.3,1-0.9,1.1
					C149.9,177.5,149.5,177.1,149.4,176.5z"/>
				<path class="st2" d="M154.3,176.2c0-0.6,0.3-1,0.9-1.1c0.6,0,1,0.4,1,0.9c0,0.6-0.3,1-0.9,1.1
					C154.8,177.2,154.4,176.8,154.3,176.2z"/>
				<path class="st2" d="M159.2,175.9c0-0.6,0.3-1,0.9-1.1c0.6,0,1,0.4,1,0.9c0,0.6-0.3,1-0.9,1.1
					C159.7,176.9,159.3,176.5,159.2,175.9z"/>
				<path class="st2" d="M164.1,175.6c0-0.6,0.3-1,0.9-1.1c0.6,0,1,0.4,1,0.9c0,0.6-0.3,1-0.9,1.1
					C164.6,176.6,164.2,176.2,164.1,175.6z"/>
				<path class="st2" d="M169,175.3c0-0.6,0.3-1,0.9-1.1c0.6,0,1,0.4,1,0.9c0,0.6-0.3,1-0.9,1.1C169.5,176.3,169.1,175.9,169,175.3z
					"/>
				<path class="st2" d="M173.9,175c0-0.6,0.3-1,0.9-1.1c0.6,0,1,0.4,1,0.9c0,0.6-0.3,1-0.9,1.1C174.4,176,174,175.6,173.9,175z"/>
				<path class="st2" d="M178.8,174.7c0-0.6,0.3-1,0.9-1.1c0.6,0,1,0.4,1,0.9c0,0.6-0.3,1-0.9,1.1
					C179.3,175.7,178.9,175.2,178.8,174.7z"/>
				<path class="st2" d="M183.7,174.4c0-0.6,0.3-1,0.9-1.1c0.6,0,1,0.4,1,0.9c0,0.6-0.3,1-0.9,1.1
					C184.2,175.3,183.8,174.9,183.7,174.4z"/>
				<path class="st2" d="M188.6,174.1c0-0.6,0.3-1,0.9-1.1c0.6,0,1,0.4,1,0.9c0,0.6-0.3,1-0.9,1.1
					C189.1,175,188.7,174.6,188.6,174.1z"/>
				<path class="st2" d="M193.5,173.7c0-0.6,0.3-1,0.9-1.1c0.6,0,1,0.4,1,0.9c0,0.6-0.3,1-0.9,1.1
					C194,174.7,193.6,174.3,193.5,173.7z"/>
				<path class="st2" d="M198.4,173.4c0-0.6,0.3-1,0.9-1.1c0.6,0,1,0.4,1,0.9c0,0.6-0.3,1-0.9,1.1
					C198.9,174.4,198.5,174,198.4,173.4z"/>
				<path class="st2" d="M203.3,173.1c0-0.6,0.3-1,0.9-1.1c0.6,0,1,0.4,1,0.9c0,0.6-0.3,1-0.9,1.1
					C203.8,174.1,203.4,173.7,203.3,173.1z"/>
				<path class="st2" d="M208.2,172.8c0-0.6,0.3-1,0.9-1.1c0.6,0,1,0.4,1,0.9c0,0.6-0.3,1-0.9,1.1
					C208.7,173.8,208.3,173.4,208.2,172.8z"/>
				<path class="st2" d="M213.2,172.5c0-0.6,0.3-1,0.9-1.1c0.6,0,1,0.4,1,0.9c0,0.6-0.3,1-0.9,1.1
					C213.6,173.5,213.2,173.1,213.2,172.5z"/>
				<path class="st2" d="M218.1,172.2c0-0.6,0.3-1,0.9-1.1c0.6,0,1,0.4,1,0.9c0,0.6-0.3,1-0.9,1.1
					C218.5,173.2,218.1,172.8,218.1,172.2z"/>
				<path class="st2" d="M223,171.9c0-0.6,0.3-1,0.9-1.1c0.6,0,1,0.4,1,0.9c0,0.6-0.3,1-0.9,1.1C223.4,172.9,223,172.5,223,171.9z"
					/>
				<path class="st2" d="M227.9,171.6c0-0.6,0.3-1,0.9-1.1c0.6,0,1,0.4,1,0.9c0,0.6-0.3,1-0.9,1.1
					C228.3,172.6,227.9,172.2,227.9,171.6z"/>
				<path class="st2" d="M232.8,171.3c0-0.6,0.3-1,0.9-1.1c0.6,0,1,0.4,1,0.9c0,0.6-0.3,1-0.9,1.1
					C233.2,172.3,232.8,171.9,232.8,171.3z"/>
				<path class="st2" d="M237.7,171c0-0.6,0.3-1,0.9-1.1c0.6,0,1,0.4,1,0.9c0,0.6-0.3,1-0.9,1.1C238.1,172,237.7,171.6,237.7,171z"
					/>
				<path class="st2" d="M242.6,170.7c0-0.6,0.3-1,0.9-1.1c0.6,0,1,0.4,1,0.9c0,0.6-0.3,1-0.9,1.1
					C243,171.7,242.6,171.3,242.6,170.7z"/>
				<path class="st2" d="M247.5,170.4c0-0.6,0.3-1,0.9-1.1c0.6,0,1,0.4,1,0.9c0,0.6-0.3,1-0.9,1.1
					C247.9,171.4,247.5,171,247.5,170.4z"/>
				<path class="st2" d="M252.4,170.1c0-0.6,0.3-1,0.9-1.1c0.6,0,1,0.4,1,0.9c0,0.6-0.3,1-0.9,1.1
					C252.8,171.1,252.4,170.6,252.4,170.1z"/>
				<path class="st2" d="M257.3,169.8c0-0.6,0.3-1,0.9-1.1c0.6,0,1,0.4,1,0.9c0,0.6-0.3,1-0.9,1.1
					C257.7,170.7,257.3,170.3,257.3,169.8z"/>
				<path class="st2" d="M262.2,169.5c0-0.6,0.3-1,0.9-1.1c0.6,0,1,0.4,1,0.9c0,0.6-0.3,1-0.9,1.1
					C262.6,170.4,262.2,170,262.2,169.5z"/>
				<path class="st2" d="M267.1,169.2c0-0.6,0.3-1,0.9-1.1c0.6,0,1,0.4,1,0.9c0,0.6-0.3,1-0.9,1.1
					C267.5,170.1,267.1,169.7,267.1,169.2z"/>
				<path class="st2" d="M272,168.8c0-0.6,0.3-1,0.9-1.1c0.6,0,1,0.4,1,0.9c0,0.6-0.3,1-0.9,1.1C272.4,169.8,272,169.4,272,168.8z"
					/>
				<path class="st2" d="M276.9,168.5c0-0.6,0.3-1,0.9-1.1c0.6,0,1,0.4,1,0.9c0,0.6-0.3,1-0.9,1.1
					C277.3,169.5,276.9,169.1,276.9,168.5z"/>
				<path class="st2" d="M33.1,204.8c0-0.6,0.3-1,0.9-1.1c0.6,0,1,0.4,1,0.9c0,0.6-0.3,1-0.9,1.1C33.5,205.8,33.1,205.4,33.1,204.8z
					"/>
				<path class="st2" d="M38,204.5c0-0.6,0.3-1,0.9-1.1c0.6,0,1,0.4,1,0.9c0,0.6-0.3,1-0.9,1.1C38.4,205.5,38,205.1,38,204.5z"/>
				<path class="st2" d="M42.9,204.2c0-0.6,0.3-1,0.9-1.1c0.6,0,1,0.4,1,0.9c0,0.6-0.3,1-0.9,1.1C43.3,205.2,42.9,204.8,42.9,204.2z
					"/>
				<path class="st2" d="M47.8,203.9c0-0.6,0.3-1,0.9-1.1c0.6,0,1,0.4,1,0.9c0,0.6-0.3,1-0.9,1.1C48.2,204.9,47.8,204.5,47.8,203.9z
					"/>
				<path class="st2" d="M52.7,203.6c0-0.6,0.3-1,0.9-1.1c0.6,0,1,0.4,1,0.9c0,0.6-0.3,1-0.9,1.1C53.1,204.6,52.7,204.2,52.7,203.6z
					"/>
				<path class="st2" d="M57.6,203.3c0-0.6,0.3-1,0.9-1.1c0.6,0,1,0.4,1,0.9c0,0.6-0.3,1-0.9,1.1C58,204.3,57.6,203.9,57.6,203.3z"
					/>
				<path class="st2" d="M62.5,203c0-0.6,0.3-1,0.9-1.1c0.6,0,1,0.4,1,0.9c0,0.6-0.3,1-0.9,1.1C62.9,204,62.5,203.6,62.5,203z"/>
				<path class="st2" d="M67.4,202.7c0-0.6,0.3-1,0.9-1.1c0.6,0,1,0.4,1,0.9c0,0.6-0.3,1-0.9,1.1C67.8,203.7,67.4,203.3,67.4,202.7z
					"/>
				<path class="st2" d="M72.3,202.4c0-0.6,0.3-1,0.9-1.1c0.6,0,1,0.4,1,0.9c0,0.6-0.3,1-0.9,1.1C72.7,203.4,72.3,202.9,72.3,202.4z
					"/>
				<path class="st2" d="M77.2,202.1c0-0.6,0.3-1,0.9-1.1c0.6,0,1,0.4,1,0.9c0,0.6-0.3,1-0.9,1.1C77.6,203.1,77.2,202.6,77.2,202.1z
					"/>
				<path class="st2" d="M82.1,201.8c0-0.6,0.3-1,0.9-1.1c0.6,0,1,0.4,1,0.9c0,0.6-0.3,1-0.9,1.1C82.6,202.7,82.1,202.3,82.1,201.8z
					"/>
				<path class="st2" d="M87,201.5c0-0.6,0.3-1,0.9-1.1c0.6,0,1,0.4,1,0.9c0,0.6-0.3,1-0.9,1.1C87.5,202.4,87,202,87,201.5z"/>
				<path class="st2" d="M91.9,201.1c0-0.6,0.3-1,0.9-1.1c0.6,0,1,0.4,1,0.9c0,0.6-0.3,1-0.9,1.1C92.4,202.1,91.9,201.7,91.9,201.1z
					"/>
				<path class="st2" d="M96.8,200.8c0-0.6,0.3-1,0.9-1.1c0.6,0,1,0.4,1,0.9c0,0.6-0.3,1-0.9,1.1C97.3,201.8,96.8,201.4,96.8,200.8z
					"/>
				<path class="st2" d="M101.7,200.5c0-0.6,0.3-1,0.9-1.1c0.6,0,1,0.4,1,0.9c0,0.6-0.3,1-0.9,1.1
					C102.2,201.5,101.7,201.1,101.7,200.5z"/>
				<path class="st2" d="M106.6,200.2c0-0.6,0.3-1,0.9-1.1c0.6,0,1,0.4,1,0.9c0,0.6-0.3,1-0.9,1.1
					C107.1,201.2,106.6,200.8,106.6,200.2z"/>
				<path class="st2" d="M111.5,199.9c0-0.6,0.3-1,0.9-1.1c0.6,0,1,0.4,1,0.9c0,0.6-0.3,1-0.9,1.1
					C112,200.9,111.6,200.5,111.5,199.9z"/>
				<path class="st2" d="M116.4,199.6c0-0.6,0.3-1,0.9-1.1c0.6,0,1,0.4,1,0.9c0,0.6-0.3,1-0.9,1.1
					C116.9,200.6,116.5,200.2,116.4,199.6z"/>
				<path class="st2" d="M121.3,199.3c0-0.6,0.3-1,0.9-1.1c0.6,0,1,0.4,1,0.9c0,0.6-0.3,1-0.9,1.1
					C121.8,200.3,121.4,199.9,121.3,199.3z"/>
				<path class="st2" d="M126.2,199c0-0.6,0.3-1,0.9-1.1c0.6,0,1,0.4,1,0.9c0,0.6-0.3,1-0.9,1.1C126.7,200,126.3,199.6,126.2,199z"
					/>
				<path class="st2" d="M131.1,198.7c0-0.6,0.3-1,0.9-1.1c0.6,0,1,0.4,1,0.9c0,0.6-0.3,1-0.9,1.1
					C131.6,199.7,131.2,199.3,131.1,198.7z"/>
				<path class="st2" d="M136,198.4c0-0.6,0.3-1,0.9-1.1c0.6,0,1,0.4,1,0.9c0,0.6-0.3,1-0.9,1.1C136.5,199.4,136.1,199,136,198.4z"
					/>
				<path class="st2" d="M140.9,198.1c0-0.6,0.3-1,0.9-1.1c0.6,0,1,0.4,1,0.9c0,0.6-0.3,1-0.9,1.1
					C141.4,199.1,141,198.7,140.9,198.1z"/>
				<path class="st2" d="M145.8,197.8c0-0.6,0.3-1,0.9-1.1c0.6,0,1,0.4,1,0.9c0,0.6-0.3,1-0.9,1.1
					C146.3,198.8,145.9,198.4,145.8,197.8z"/>
				<path class="st2" d="M150.7,197.5c0-0.6,0.3-1,0.9-1.1c0.6,0,1,0.4,1,0.9c0,0.6-0.3,1-0.9,1.1
					C151.2,198.5,150.8,198,150.7,197.5z"/>
				<path class="st2" d="M155.6,197.2c0-0.6,0.3-1,0.9-1.1c0.6,0,1,0.4,1,0.9c0,0.6-0.3,1-0.9,1.1
					C156.1,198.1,155.7,197.7,155.6,197.2z"/>
				<path class="st2" d="M160.5,196.9c0-0.6,0.3-1,0.9-1.1c0.6,0,1,0.4,1,0.9c0,0.6-0.3,1-0.9,1.1
					C161,197.8,160.6,197.4,160.5,196.9z"/>
				<path class="st2" d="M165.4,196.5c0-0.6,0.3-1,0.9-1.1c0.6,0,1,0.4,1,0.9c0,0.6-0.3,1-0.9,1.1
					C165.9,197.5,165.5,197.1,165.4,196.5z"/>
				<path class="st2" d="M170.3,196.2c0-0.6,0.3-1,0.9-1.1c0.6,0,1,0.4,1,0.9c0,0.6-0.3,1-0.9,1.1
					C170.8,197.2,170.4,196.8,170.3,196.2z"/>
				<path class="st2" d="M175.2,195.9c0-0.6,0.3-1,0.9-1.1c0.6,0,1,0.4,1,0.9c0,0.6-0.3,1-0.9,1.1
					C175.7,196.9,175.3,196.5,175.2,195.9z"/>
				<path class="st2" d="M180.1,195.6c0-0.6,0.3-1,0.9-1.1c0.6,0,1,0.4,1,0.9c0,0.6-0.3,1-0.9,1.1
					C180.6,196.6,180.2,196.2,180.1,195.6z"/>
				<path class="st2" d="M185,195.3c0-0.6,0.3-1,0.9-1.1c0.6,0,1,0.4,1,0.9c0,0.6-0.3,1-0.9,1.1C185.5,196.3,185.1,195.9,185,195.3z
					"/>
				<path class="st2" d="M190,195c0-0.6,0.3-1,0.9-1.1c0.6,0,1,0.4,1,0.9c0,0.6-0.3,1-0.9,1.1C190.4,196,190,195.6,190,195z"/>
				<path class="st2" d="M194.9,194.7c0-0.6,0.3-1,0.9-1.1c0.6,0,1,0.4,1,0.9c0,0.6-0.3,1-0.9,1.1
					C195.3,195.7,194.9,195.3,194.9,194.7z"/>
				<path class="st2" d="M199.8,194.4c0-0.6,0.3-1,0.9-1.1c0.6,0,1,0.4,1,0.9c0,0.6-0.3,1-0.9,1.1
					C200.2,195.4,199.8,195,199.8,194.4z"/>
				<path class="st2" d="M204.7,194.1c0-0.6,0.3-1,0.9-1.1c0.6,0,1,0.4,1,0.9c0,0.6-0.3,1-0.9,1.1
					C205.1,195.1,204.7,194.7,204.7,194.1z"/>
				<path class="st2" d="M209.6,193.8c0-0.6,0.3-1,0.9-1.1c0.6,0,1,0.4,1,0.9c0,0.6-0.3,1-0.9,1.1
					C210,194.8,209.6,194.4,209.6,193.8z"/>
				<path class="st2" d="M214.5,193.5c0-0.6,0.3-1,0.9-1.1c0.6,0,1,0.4,1,0.9c0,0.6-0.3,1-0.9,1.1
					C214.9,194.5,214.5,194.1,214.5,193.5z"/>
				<path class="st2" d="M219.4,193.2c0-0.6,0.3-1,0.9-1.1c0.6,0,1,0.4,1,0.9c0,0.6-0.3,1-0.9,1.1
					C219.8,194.2,219.4,193.8,219.4,193.2z"/>
				<path class="st2" d="M224.3,192.9c0-0.6,0.3-1,0.9-1.1c0.6,0,1,0.4,1,0.9c0,0.6-0.3,1-0.9,1.1
					C224.7,193.9,224.3,193.4,224.3,192.9z"/>
				<path class="st2" d="M229.2,192.6c0-0.6,0.3-1,0.9-1.1c0.6,0,1,0.4,1,0.9c0,0.6-0.3,1-0.9,1.1
					C229.6,193.5,229.2,193.1,229.2,192.6z"/>
				<path class="st2" d="M234.1,192.3c0-0.6,0.3-1,0.9-1.1c0.6,0,1,0.4,1,0.9c0,0.6-0.3,1-0.9,1.1
					C234.5,193.2,234.1,192.8,234.1,192.3z"/>
				<path class="st2" d="M239,191.9c0-0.6,0.3-1,0.9-1.1c0.6,0,1,0.4,1,0.9c0,0.6-0.3,1-0.9,1.1C239.4,192.9,239,192.5,239,191.9z"
					/>
				<path class="st2" d="M243.9,191.6c0-0.6,0.3-1,0.9-1.1c0.6,0,1,0.4,1,0.9c0,0.6-0.3,1-0.9,1.1
					C244.3,192.6,243.9,192.2,243.9,191.6z"/>
				<path class="st2" d="M248.8,191.3c0-0.6,0.3-1,0.9-1.1c0.6,0,1,0.4,1,0.9c0,0.6-0.3,1-0.9,1.1
					C249.2,192.3,248.8,191.9,248.8,191.3z"/>
				<path class="st2" d="M253.7,191c0-0.6,0.3-1,0.9-1.1c0.6,0,1,0.4,1,0.9c0,0.6-0.3,1-0.9,1.1C254.1,192,253.7,191.6,253.7,191z"
					/>
				<path class="st2" d="M258.6,190.7c0-0.6,0.3-1,0.9-1.1c0.6,0,1,0.4,1,0.9c0,0.6-0.3,1-0.9,1.1
					C259,191.7,258.6,191.3,258.6,190.7z"/>
				<path class="st2" d="M263.5,190.4c0-0.6,0.3-1,0.9-1.1c0.6,0,1,0.4,1,0.9c0,0.6-0.3,1-0.9,1.1
					C263.9,191.4,263.5,191,263.5,190.4z"/>
				<path class="st2" d="M268.4,190.1c0-0.6,0.3-1,0.9-1.1c0.6,0,1,0.4,1,0.9c0,0.6-0.3,1-0.9,1.1
					C268.8,191.1,268.4,190.7,268.4,190.1z"/>
				<path class="st2" d="M273.3,189.8c0-0.6,0.3-1,0.9-1.1c0.6,0,1,0.4,1,0.9c0,0.6-0.3,1-0.9,1.1
					C273.7,190.8,273.3,190.4,273.3,189.8z"/>
				<path class="st2" d="M278.2,189.5c0-0.6,0.3-1,0.9-1.1c0.6,0,1,0.4,1,0.9c0,0.6-0.3,1-0.9,1.1
					C278.6,190.5,278.2,190.1,278.2,189.5z"/>
				<path class="st2" d="M34.4,225.8c0-0.6,0.3-1,0.9-1.1c0.6,0,1,0.4,1,0.9c0,0.6-0.3,1-0.9,1.1C34.8,226.8,34.4,226.4,34.4,225.8z
					"/>
				<path class="st2" d="M39.3,225.5c0-0.6,0.3-1,0.9-1.1c0.6,0,1,0.4,1,0.9c0,0.6-0.3,1-0.9,1.1C39.7,226.5,39.3,226.1,39.3,225.5z
					"/>
				<path class="st2" d="M44.2,225.2c0-0.6,0.3-1,0.9-1.1c0.6,0,1,0.4,1,0.9c0,0.6-0.3,1-0.9,1.1C44.6,226.2,44.2,225.7,44.2,225.2z
					"/>
				<path class="st2" d="M49.1,224.9c0-0.6,0.3-1,0.9-1.1c0.6,0,1,0.4,1,0.9c0,0.6-0.3,1-0.9,1.1C49.5,225.8,49.1,225.4,49.1,224.9z
					"/>
				<path class="st2" d="M54,224.6c0-0.6,0.3-1,0.9-1.1c0.6,0,1,0.4,1,0.9c0,0.6-0.3,1-0.9,1.1C54.4,225.5,54,225.1,54,224.6z"/>
				<path class="st2" d="M58.9,224.3c0-0.6,0.3-1,0.9-1.1c0.6,0,1,0.4,1,0.9c0,0.6-0.3,1-0.9,1.1C59.3,225.2,58.9,224.8,58.9,224.3z
					"/>
				<path class="st2" d="M63.8,223.9c0-0.6,0.3-1,0.9-1.1c0.6,0,1,0.4,1,0.9c0,0.6-0.3,1-0.9,1.1C64.3,224.9,63.8,224.5,63.8,223.9z
					"/>
				<path class="st2" d="M68.7,223.6c0-0.6,0.3-1,0.9-1.1c0.6,0,1,0.4,1,0.9c0,0.6-0.3,1-0.9,1.1C69.2,224.6,68.7,224.2,68.7,223.6z
					"/>
				<path class="st2" d="M73.6,223.3c0-0.6,0.3-1,0.9-1.1c0.6,0,1,0.4,1,0.9c0,0.6-0.3,1-0.9,1.1C74.1,224.3,73.6,223.9,73.6,223.3z
					"/>
				<path class="st2" d="M78.5,223c0-0.6,0.3-1,0.9-1.1c0.6,0,1,0.4,1,0.9c0,0.6-0.3,1-0.9,1.1C79,224,78.5,223.6,78.5,223z"/>
				<path class="st2" d="M83.4,222.7c0-0.6,0.3-1,0.9-1.1c0.6,0,1,0.4,1,0.9c0,0.6-0.3,1-0.9,1.1C83.9,223.7,83.5,223.3,83.4,222.7z
					"/>
				<path class="st2" d="M88.3,222.4c0-0.6,0.3-1,0.9-1.1c0.6,0,1,0.4,1,0.9c0,0.6-0.3,1-0.9,1.1C88.8,223.4,88.4,223,88.3,222.4z"
					/>
				<path class="st2" d="M93.2,222.1c0-0.6,0.3-1,0.9-1.1c0.6,0,1,0.4,1,0.9c0,0.6-0.3,1-0.9,1.1C93.7,223.1,93.3,222.7,93.2,222.1z
					"/>
				<path class="st2" d="M98.1,221.8c0-0.6,0.3-1,0.9-1.1c0.6,0,1,0.4,1,0.9c0,0.6-0.3,1-0.9,1.1C98.6,222.8,98.2,222.4,98.1,221.8z
					"/>
				<path class="st2" d="M103,221.5c0-0.6,0.3-1,0.9-1.1c0.6,0,1,0.4,1,0.9c0,0.6-0.3,1-0.9,1.1C103.5,222.5,103.1,222.1,103,221.5z
					"/>
				<path class="st2" d="M107.9,221.2c0-0.6,0.3-1,0.9-1.1c0.6,0,1,0.4,1,0.9c0,0.6-0.3,1-0.9,1.1
					C108.4,222.2,108,221.8,107.9,221.2z"/>
				<path class="st2" d="M112.8,220.9c0-0.6,0.3-1,0.9-1.1c0.6,0,1,0.4,1,0.9c0,0.6-0.3,1-0.9,1.1
					C113.3,221.9,112.9,221.5,112.8,220.9z"/>
				<path class="st2" d="M117.7,220.6c0-0.6,0.3-1,0.9-1.1c0.6,0,1,0.4,1,0.9c0,0.6-0.3,1-0.9,1.1
					C118.2,221.6,117.8,221.1,117.7,220.6z"/>
				<path class="st2" d="M122.6,220.3c0-0.6,0.3-1,0.9-1.1c0.6,0,1,0.4,1,0.9c0,0.6-0.3,1-0.9,1.1
					C123.1,221.3,122.7,220.8,122.6,220.3z"/>
				<path class="st2" d="M127.5,220c0-0.6,0.3-1,0.9-1.1c0.6,0,1,0.4,1,0.9c0,0.6-0.3,1-0.9,1.1C128,220.9,127.6,220.5,127.5,220z"
					/>
				<path class="st2" d="M132.4,219.7c0-0.6,0.3-1,0.9-1.1c0.6,0,1,0.4,1,0.9c0,0.6-0.3,1-0.9,1.1
					C132.9,220.6,132.5,220.2,132.4,219.7z"/>
				<path class="st2" d="M137.3,219.3c0-0.6,0.3-1,0.9-1.1c0.6,0,1,0.4,1,0.9c0,0.6-0.3,1-0.9,1.1
					C137.8,220.3,137.4,219.9,137.3,219.3z"/>
				<path class="st2" d="M142.2,219c0-0.6,0.3-1,0.9-1.1c0.6,0,1,0.4,1,0.9c0,0.6-0.3,1-0.9,1.1C142.7,220,142.3,219.6,142.2,219z"
					/>
				<path class="st2" d="M147.1,218.7c0-0.6,0.3-1,0.9-1.1c0.6,0,1,0.4,1,0.9c0,0.6-0.3,1-0.9,1.1
					C147.6,219.7,147.2,219.3,147.1,218.7z"/>
				<path class="st2" d="M152,218.4c0-0.6,0.3-1,0.9-1.1c0.6,0,1,0.4,1,0.9c0,0.6-0.3,1-0.9,1.1C152.5,219.4,152.1,219,152,218.4z"
					/>
				<path class="st2" d="M156.9,218.1c0-0.6,0.3-1,0.9-1.1c0.6,0,1,0.4,1,0.9c0,0.6-0.3,1-0.9,1.1
					C157.4,219.1,157,218.7,156.9,218.1z"/>
				<path class="st2" d="M161.8,217.8c0-0.6,0.3-1,0.9-1.1c0.6,0,1,0.4,1,0.9c0,0.6-0.3,1-0.9,1.1
					C162.3,218.8,161.9,218.4,161.8,217.8z"/>
				<path class="st2" d="M166.8,217.5c0-0.6,0.3-1,0.9-1.1c0.6,0,1,0.4,1,0.9c0,0.6-0.3,1-0.9,1.1
					C167.2,218.5,166.8,218.1,166.8,217.5z"/>
				<path class="st2" d="M171.7,217.2c0-0.6,0.3-1,0.9-1.1c0.6,0,1,0.4,1,0.9c0,0.6-0.3,1-0.9,1.1
					C172.1,218.2,171.7,217.8,171.7,217.2z"/>
				<path class="st2" d="M176.6,216.9c0-0.6,0.3-1,0.9-1.1c0.6,0,1,0.4,1,0.9c0,0.6-0.3,1-0.9,1.1
					C177,217.9,176.6,217.5,176.6,216.9z"/>
				<path class="st2" d="M181.5,216.6c0-0.6,0.3-1,0.9-1.1c0.6,0,1,0.4,1,0.9c0,0.6-0.3,1-0.9,1.1
					C181.9,217.6,181.5,217.2,181.5,216.6z"/>
				<path class="st2" d="M186.4,216.3c0-0.6,0.3-1,0.9-1.1c0.6,0,1,0.4,1,0.9c0,0.6-0.3,1-0.9,1.1
					C186.8,217.3,186.4,216.9,186.4,216.3z"/>
				<path class="st2" d="M191.3,216c0-0.6,0.3-1,0.9-1.1c0.6,0,1,0.4,1,0.9c0,0.6-0.3,1-0.9,1.1C191.7,217,191.3,216.5,191.3,216z"
					/>
				<path class="st2" d="M196.2,215.7c0-0.6,0.3-1,0.9-1.1c0.6,0,1,0.4,1,0.9c0,0.6-0.3,1-0.9,1.1
					C196.6,216.7,196.2,216.2,196.2,215.7z"/>
				<path class="st2" d="M201.1,215.4c0-0.6,0.3-1,0.9-1.1c0.6,0,1,0.4,1,0.9c0,0.6-0.3,1-0.9,1.1
					C201.5,216.3,201.1,215.9,201.1,215.4z"/>
				<path class="st2" d="M206,215.1c0-0.6,0.3-1,0.9-1.1c0.6,0,1,0.4,1,0.9c0,0.6-0.3,1-0.9,1.1C206.4,216,206,215.6,206,215.1z"/>
				<path class="st2" d="M210.9,214.7c0-0.6,0.3-1,0.9-1.1c0.6,0,1,0.4,1,0.9c0,0.6-0.3,1-0.9,1.1
					C211.3,215.7,210.9,215.3,210.9,214.7z"/>
				<path class="st2" d="M215.8,214.4c0-0.6,0.3-1,0.9-1.1c0.6,0,1,0.4,1,0.9c0,0.6-0.3,1-0.9,1.1
					C216.2,215.4,215.8,215,215.8,214.4z"/>
				<path class="st2" d="M220.7,214.1c0-0.6,0.3-1,0.9-1.1c0.6,0,1,0.4,1,0.9c0,0.6-0.3,1-0.9,1.1
					C221.1,215.1,220.7,214.7,220.7,214.1z"/>
				<path class="st2" d="M225.6,213.8c0-0.6,0.3-1,0.9-1.1c0.6,0,1,0.4,1,0.9c0,0.6-0.3,1-0.9,1.1
					C226,214.8,225.6,214.4,225.6,213.8z"/>
				<path class="st2" d="M230.5,213.5c0-0.6,0.3-1,0.9-1.1c0.6,0,1,0.4,1,0.9c0,0.6-0.3,1-0.9,1.1
					C230.9,214.5,230.5,214.1,230.5,213.5z"/>
				<path class="st2" d="M235.4,213.2c0-0.6,0.3-1,0.9-1.1c0.6,0,1,0.4,1,0.9c0,0.6-0.3,1-0.9,1.1
					C235.8,214.2,235.4,213.8,235.4,213.2z"/>
				<path class="st2" d="M240.3,212.9c0-0.6,0.3-1,0.9-1.1c0.6,0,1,0.4,1,0.9c0,0.6-0.3,1-0.9,1.1
					C240.7,213.9,240.3,213.5,240.3,212.9z"/>
				<path class="st2" d="M245.2,212.6c0-0.6,0.3-1,0.9-1.1c0.6,0,1,0.4,1,0.9c0,0.6-0.3,1-0.9,1.1
					C245.6,213.6,245.2,213.2,245.2,212.6z"/>
				<path class="st2" d="M250.1,212.3c0-0.6,0.3-1,0.9-1.1c0.6,0,1,0.4,1,0.9c0,0.6-0.3,1-0.9,1.1
					C250.5,213.3,250.1,212.9,250.1,212.3z"/>
				<path class="st2" d="M255,212c0-0.6,0.3-1,0.9-1.1c0.6,0,1,0.4,1,0.9c0,0.6-0.3,1-0.9,1.1C255.4,213,255,212.6,255,212z"/>
				<path class="st2" d="M259.9,211.7c0-0.6,0.3-1,0.9-1.1c0.6,0,1,0.4,1,0.9c0,0.6-0.3,1-0.9,1.1
					C260.3,212.7,259.9,212.3,259.9,211.7z"/>
				<path class="st2" d="M264.8,211.4c0-0.6,0.3-1,0.9-1.1c0.6,0,1,0.4,1,0.9c0,0.6-0.3,1-0.9,1.1
					C265.2,212.4,264.8,212,264.8,211.4z"/>
				<path class="st2" d="M269.7,211.1c0-0.6,0.3-1,0.9-1.1c0.6,0,1,0.4,1,0.9c0,0.6-0.3,1-0.9,1.1
					C270.1,212.1,269.7,211.6,269.7,211.1z"/>
				<path class="st2" d="M274.6,210.8c0-0.6,0.3-1,0.9-1.1c0.6,0,1,0.4,1,0.9c0,0.6-0.3,1-0.9,1.1
					C275,211.7,274.6,211.3,274.6,210.8z"/>
				<path class="st2" d="M279.5,210.5c0-0.6,0.3-1,0.9-1.1c0.6,0,1,0.4,1,0.9c0,0.6-0.3,1-0.9,1.1
					C279.9,211.4,279.5,211,279.5,210.5z"/>
				<path class="st2" d="M35.7,246.7c0-0.6,0.3-1,0.9-1.1c0.6,0,1,0.4,1,0.9c0,0.6-0.3,1-0.9,1.1C36.1,247.7,35.7,247.3,35.7,246.7z
					"/>
				<path class="st2" d="M40.6,246.4c0-0.6,0.3-1,0.9-1.1c0.6,0,1,0.4,1,0.9c0,0.6-0.3,1-0.9,1.1C41.1,247.4,40.6,247,40.6,246.4z"
					/>
				<path class="st2" d="M45.5,246.1c0-0.6,0.3-1,0.9-1.1c0.6,0,1,0.4,1,0.9c0,0.6-0.3,1-0.9,1.1C46,247.1,45.5,246.7,45.5,246.1z"
					/>
				<path class="st2" d="M50.4,245.8c0-0.6,0.3-1,0.9-1.1c0.6,0,1,0.4,1,0.9c0,0.6-0.3,1-0.9,1.1C50.9,246.8,50.4,246.4,50.4,245.8z
					"/>
				<path class="st2" d="M55.3,245.5c0-0.6,0.3-1,0.9-1.1c0.6,0,1,0.4,1,0.9c0,0.6-0.3,1-0.9,1.1C55.8,246.5,55.3,246.1,55.3,245.5z
					"/>
				<path class="st2" d="M60.2,245.2c0-0.6,0.3-1,0.9-1.1c0.6,0,1,0.4,1,0.9c0,0.6-0.3,1-0.9,1.1C60.7,246.2,60.2,245.8,60.2,245.2z
					"/>
				<path class="st2" d="M65.1,244.9c0-0.6,0.3-1,0.9-1.1c0.6,0,1,0.4,1,0.9c0,0.6-0.3,1-0.9,1.1C65.6,245.9,65.2,245.5,65.1,244.9z
					"/>
				<path class="st2" d="M70,244.6c0-0.6,0.3-1,0.9-1.1c0.6,0,1,0.4,1,0.9c0,0.6-0.3,1-0.9,1.1C70.5,245.6,70.1,245.2,70,244.6z"/>
				<path class="st2" d="M74.9,244.3c0-0.6,0.3-1,0.9-1.1c0.6,0,1,0.4,1,0.9c0,0.6-0.3,1-0.9,1.1C75.4,245.3,75,244.9,74.9,244.3z"
					/>
				<path class="st2" d="M79.8,244c0-0.6,0.3-1,0.9-1.1c0.6,0,1,0.4,1,0.9c0,0.6-0.3,1-0.9,1.1C80.3,245,79.9,244.6,79.8,244z"/>
				<path class="st2" d="M84.7,243.7c0-0.6,0.3-1,0.9-1.1c0.6,0,1,0.4,1,0.9c0,0.6-0.3,1-0.9,1.1C85.2,244.7,84.8,244.3,84.7,243.7z
					"/>
				<path class="st2" d="M89.6,243.4c0-0.6,0.3-1,0.9-1.1c0.6,0,1,0.4,1,0.9c0,0.6-0.3,1-0.9,1.1C90.1,244.4,89.7,243.9,89.6,243.4z
					"/>
				<path class="st2" d="M94.5,243.1c0-0.6,0.3-1,0.9-1.1c0.6,0,1,0.4,1,0.9c0,0.6-0.3,1-0.9,1.1C95,244,94.6,243.6,94.5,243.1z"/>
				<path class="st2" d="M99.4,242.8c0-0.6,0.3-1,0.9-1.1c0.6,0,1,0.4,1,0.9c0,0.6-0.3,1-0.9,1.1C99.9,243.7,99.5,243.3,99.4,242.8z
					"/>
				<path class="st2" d="M104.3,242.5c0-0.6,0.3-1,0.9-1.1c0.6,0,1,0.4,1,0.9c0,0.6-0.3,1-0.9,1.1
					C104.8,243.4,104.4,243,104.3,242.5z"/>
				<path class="st2" d="M109.2,242.1c0-0.6,0.3-1,0.9-1.1c0.6,0,1,0.4,1,0.9c0,0.6-0.3,1-0.9,1.1
					C109.7,243.1,109.3,242.7,109.2,242.1z"/>
				<path class="st2" d="M114.1,241.8c0-0.6,0.3-1,0.9-1.1c0.6,0,1,0.4,1,0.9c0,0.6-0.3,1-0.9,1.1
					C114.6,242.8,114.2,242.4,114.1,241.8z"/>
				<path class="st2" d="M119,241.5c0-0.6,0.3-1,0.9-1.1c0.6,0,1,0.4,1,0.9c0,0.6-0.3,1-0.9,1.1C119.5,242.5,119.1,242.1,119,241.5z
					"/>
				<path class="st2" d="M123.9,241.2c0-0.6,0.3-1,0.9-1.1c0.6,0,1,0.4,1,0.9c0,0.6-0.3,1-0.9,1.1
					C124.4,242.2,124,241.8,123.9,241.2z"/>
				<path class="st2" d="M128.8,240.9c0-0.6,0.3-1,0.9-1.1c0.6,0,1,0.4,1,0.9c0,0.6-0.3,1-0.9,1.1
					C129.3,241.9,128.9,241.5,128.8,240.9z"/>
				<path class="st2" d="M133.7,240.6c0-0.6,0.3-1,0.9-1.1c0.6,0,1,0.4,1,0.9c0,0.6-0.3,1-0.9,1.1
					C134.2,241.6,133.8,241.2,133.7,240.6z"/>
				<path class="st2" d="M138.6,240.3c0-0.6,0.3-1,0.9-1.1c0.6,0,1,0.4,1,0.9c0,0.6-0.3,1-0.9,1.1
					C139.1,241.3,138.7,240.9,138.6,240.3z"/>
				<path class="st2" d="M143.6,240c0-0.6,0.3-1,0.9-1.1c0.6,0,1,0.4,1,0.9c0,0.6-0.3,1-0.9,1.1C144,241,143.6,240.6,143.6,240z"/>
				<path class="st2" d="M148.5,239.7c0-0.6,0.3-1,0.9-1.1c0.6,0,1,0.4,1,0.9c0,0.6-0.3,1-0.9,1.1
					C148.9,240.7,148.5,240.3,148.5,239.7z"/>
				<path class="st2" d="M153.4,239.4c0-0.6,0.3-1,0.9-1.1c0.6,0,1,0.4,1,0.9c0,0.6-0.3,1-0.9,1.1
					C153.8,240.4,153.4,240,153.4,239.4z"/>
				<path class="st2" d="M158.3,239.1c0-0.6,0.3-1,0.9-1.1c0.6,0,1,0.4,1,0.9c0,0.6-0.3,1-0.9,1.1
					C158.7,240.1,158.3,239.7,158.3,239.1z"/>
				<path class="st2" d="M163.2,238.8c0-0.6,0.3-1,0.9-1.1c0.6,0,1,0.4,1,0.9c0,0.6-0.3,1-0.9,1.1
					C163.6,239.8,163.2,239.3,163.2,238.8z"/>
				<path class="st2" d="M168.1,238.5c0-0.6,0.3-1,0.9-1.1c0.6,0,1,0.4,1,0.9c0,0.6-0.3,1-0.9,1.1
					C168.5,239.4,168.1,239,168.1,238.5z"/>
				<path class="st2" d="M173,238.2c0-0.6,0.3-1,0.9-1.1c0.6,0,1,0.4,1,0.9c0,0.6-0.3,1-0.9,1.1C173.4,239.1,173,238.7,173,238.2z"
					/>
				<path class="st2" d="M177.9,237.9c0-0.6,0.3-1,0.9-1.1c0.6,0,1,0.4,1,0.9c0,0.6-0.3,1-0.9,1.1
					C178.3,238.8,177.9,238.4,177.9,237.9z"/>
				<path class="st2" d="M182.8,237.5c0-0.6,0.3-1,0.9-1.1c0.6,0,1,0.4,1,0.9c0,0.6-0.3,1-0.9,1.1
					C183.2,238.5,182.8,238.1,182.8,237.5z"/>
				<path class="st2" d="M187.7,237.2c0-0.6,0.3-1,0.9-1.1c0.6,0,1,0.4,1,0.9c0,0.6-0.3,1-0.9,1.1
					C188.1,238.2,187.7,237.8,187.7,237.2z"/>
				<path class="st2" d="M192.6,236.9c0-0.6,0.3-1,0.9-1.1c0.6,0,1,0.4,1,0.9c0,0.6-0.3,1-0.9,1.1
					C193,237.9,192.6,237.5,192.6,236.9z"/>
				<path class="st2" d="M197.5,236.6c0-0.6,0.3-1,0.9-1.1c0.6,0,1,0.4,1,0.9c0,0.6-0.3,1-0.9,1.1
					C197.9,237.6,197.5,237.2,197.5,236.6z"/>
				<path class="st2" d="M202.4,236.3c0-0.6,0.3-1,0.9-1.1c0.6,0,1,0.4,1,0.9c0,0.6-0.3,1-0.9,1.1
					C202.8,237.3,202.4,236.9,202.4,236.3z"/>
				<path class="st2" d="M207.3,236c0-0.6,0.3-1,0.9-1.1c0.6,0,1,0.4,1,0.9c0,0.6-0.3,1-0.9,1.1C207.7,237,207.3,236.6,207.3,236z"
					/>
				<path class="st2" d="M212.2,235.7c0-0.6,0.3-1,0.9-1.1c0.6,0,1,0.4,1,0.9c0,0.6-0.3,1-0.9,1.1
					C212.6,236.7,212.2,236.3,212.2,235.7z"/>
				<path class="st2" d="M217.1,235.4c0-0.6,0.3-1,0.9-1.1c0.6,0,1,0.4,1,0.9c0,0.6-0.3,1-0.9,1.1
					C217.5,236.4,217.1,236,217.1,235.4z"/>
				<path class="st2" d="M222,235.1c0-0.6,0.3-1,0.9-1.1c0.6,0,1,0.4,1,0.9c0,0.6-0.3,1-0.9,1.1C222.4,236.1,222,235.7,222,235.1z"
					/>
				<path class="st2" d="M226.9,234.8c0-0.6,0.3-1,0.9-1.1c0.6,0,1,0.4,1,0.9c0,0.6-0.3,1-0.9,1.1
					C227.3,235.8,226.9,235.4,226.9,234.8z"/>
				<path class="st2" d="M231.8,234.5c0-0.6,0.3-1,0.9-1.1c0.6,0,1,0.4,1,0.9c0,0.6-0.3,1-0.9,1.1
					C232.2,235.5,231.8,235.1,231.8,234.5z"/>
				<path class="st2" d="M236.7,234.2c0-0.6,0.3-1,0.9-1.1c0.6,0,1,0.4,1,0.9c0,0.6-0.3,1-0.9,1.1
					C237.1,235.2,236.7,234.7,236.7,234.2z"/>
				<path class="st2" d="M241.6,233.9c0-0.6,0.3-1,0.9-1.1c0.6,0,1,0.4,1,0.9c0,0.6-0.3,1-0.9,1.1
					C242,234.9,241.6,234.4,241.6,233.9z"/>
				<path class="st2" d="M246.5,233.6c0-0.6,0.3-1,0.9-1.1c0.6,0,1,0.4,1,0.9c0,0.6-0.3,1-0.9,1.1
					C246.9,234.5,246.5,234.1,246.5,233.6z"/>
				<path class="st2" d="M251.4,233.3c0-0.6,0.3-1,0.9-1.1c0.6,0,1,0.4,1,0.9c0,0.6-0.3,1-0.9,1.1
					C251.8,234.2,251.4,233.8,251.4,233.3z"/>
				<path class="st2" d="M256.3,232.9c0-0.6,0.3-1,0.9-1.1c0.6,0,1,0.4,1,0.9c0,0.6-0.3,1-0.9,1.1
					C256.7,233.9,256.3,233.5,256.3,232.9z"/>
				<path class="st2" d="M261.2,232.6c0-0.6,0.3-1,0.9-1.1c0.6,0,1,0.4,1,0.9c0,0.6-0.3,1-0.9,1.1
					C261.7,233.6,261.2,233.2,261.2,232.6z"/>
				<path class="st2" d="M266.1,232.3c0-0.6,0.3-1,0.9-1.1c0.6,0,1,0.4,1,0.9c0,0.6-0.3,1-0.9,1.1
					C266.6,233.3,266.1,232.9,266.1,232.3z"/>
				<path class="st2" d="M271,232c0-0.6,0.3-1,0.9-1.1c0.6,0,1,0.4,1,0.9c0,0.6-0.3,1-0.9,1.1C271.5,233,271,232.6,271,232z"/>
				<path class="st2" d="M275.9,231.7c0-0.6,0.3-1,0.9-1.1c0.6,0,1,0.4,1,0.9c0,0.6-0.3,1-0.9,1.1
					C276.4,232.7,275.9,232.3,275.9,231.7z"/>
				<path class="st2" d="M280.8,231.4c0-0.6,0.3-1,0.9-1.1c0.6,0,1,0.4,1,0.9c0,0.6-0.3,1-0.9,1.1
					C281.3,232.4,280.8,232,280.8,231.4z"/>
				<path class="st2" d="M37,267.7c0-0.6,0.3-1,0.9-1.1c0.6,0,1,0.4,1,0.9c0,0.6-0.3,1-0.9,1.1C37.5,268.7,37,268.3,37,267.7z"/>
				<path class="st2" d="M41.9,267.4c0-0.6,0.3-1,0.9-1.1c0.6,0,1,0.4,1,0.9c0,0.6-0.3,1-0.9,1.1C42.4,268.4,42,268,41.9,267.4z"/>
				<path class="st2" d="M46.8,267.1c0-0.6,0.3-1,0.9-1.1c0.6,0,1,0.4,1,0.9c0,0.6-0.3,1-0.9,1.1C47.3,268.1,46.9,267.7,46.8,267.1z
					"/>
				<path class="st2" d="M51.7,266.8c0-0.6,0.3-1,0.9-1.1c0.6,0,1,0.4,1,0.9c0,0.6-0.3,1-0.9,1.1C52.2,267.8,51.8,267.4,51.7,266.8z
					"/>
				<path class="st2" d="M56.6,266.5c0-0.6,0.3-1,0.9-1.1c0.6,0,1,0.4,1,0.9c0,0.6-0.3,1-0.9,1.1C57.1,267.5,56.7,267.1,56.6,266.5z
					"/>
				<path class="st2" d="M61.5,266.2c0-0.6,0.3-1,0.9-1.1c0.6,0,1,0.4,1,0.9c0,0.6-0.3,1-0.9,1.1C62,267.2,61.6,266.7,61.5,266.2z"
					/>
				<path class="st2" d="M66.4,265.9c0-0.6,0.3-1,0.9-1.1c0.6,0,1,0.4,1,0.9c0,0.6-0.3,1-0.9,1.1C66.9,266.8,66.5,266.4,66.4,265.9z
					"/>
				<path class="st2" d="M71.3,265.6c0-0.6,0.3-1,0.9-1.1c0.6,0,1,0.4,1,0.9c0,0.6-0.3,1-0.9,1.1C71.8,266.5,71.4,266.1,71.3,265.6z
					"/>
				<path class="st2" d="M76.2,265.3c0-0.6,0.3-1,0.9-1.1c0.6,0,1,0.4,1,0.9c0,0.6-0.3,1-0.9,1.1C76.7,266.2,76.3,265.8,76.2,265.3z
					"/>
				<path class="st2" d="M81.1,264.9c0-0.6,0.3-1,0.9-1.1c0.6,0,1,0.4,1,0.9c0,0.6-0.3,1-0.9,1.1C81.6,265.9,81.2,265.5,81.1,264.9z
					"/>
				<path class="st2" d="M86,264.6c0-0.6,0.3-1,0.9-1.1c0.6,0,1,0.4,1,0.9c0,0.6-0.3,1-0.9,1.1C86.5,265.6,86.1,265.2,86,264.6z"/>
				<path class="st2" d="M90.9,264.3c0-0.6,0.3-1,0.9-1.1c0.6,0,1,0.4,1,0.9c0,0.6-0.3,1-0.9,1.1C91.4,265.3,91,264.9,90.9,264.3z"
					/>
				<path class="st2" d="M95.8,264c0-0.6,0.3-1,0.9-1.1c0.6,0,1,0.4,1,0.9c0,0.6-0.3,1-0.9,1.1C96.3,265,95.9,264.6,95.8,264z"/>
				<path class="st2" d="M100.7,263.7c0-0.6,0.3-1,0.9-1.1c0.6,0,1,0.4,1,0.9c0,0.6-0.3,1-0.9,1.1
					C101.2,264.7,100.8,264.3,100.7,263.7z"/>
				<path class="st2" d="M105.6,263.4c0-0.6,0.3-1,0.9-1.1c0.6,0,1,0.4,1,0.9c0,0.6-0.3,1-0.9,1.1
					C106.1,264.4,105.7,264,105.6,263.4z"/>
				<path class="st2" d="M110.5,263.1c0-0.6,0.3-1,0.9-1.1c0.6,0,1,0.4,1,0.9c0,0.6-0.3,1-0.9,1.1
					C111,264.1,110.6,263.7,110.5,263.1z"/>
				<path class="st2" d="M115.4,262.8c0-0.6,0.3-1,0.9-1.1c0.6,0,1,0.4,1,0.9c0,0.6-0.3,1-0.9,1.1
					C115.9,263.8,115.5,263.4,115.4,262.8z"/>
				<path class="st2" d="M120.4,262.5c0-0.6,0.3-1,0.9-1.1c0.6,0,1,0.4,1,0.9c0,0.6-0.3,1-0.9,1.1
					C120.8,263.5,120.4,263.1,120.4,262.5z"/>
				<path class="st2" d="M125.3,262.2c0-0.6,0.3-1,0.9-1.1c0.6,0,1,0.4,1,0.9c0,0.6-0.3,1-0.9,1.1
					C125.7,263.2,125.3,262.8,125.3,262.2z"/>
				<path class="st2" d="M130.2,261.9c0-0.6,0.3-1,0.9-1.1c0.6,0,1,0.4,1,0.9c0,0.6-0.3,1-0.9,1.1
					C130.6,262.9,130.2,262.5,130.2,261.9z"/>
				<path class="st2" d="M135.1,261.6c0-0.6,0.3-1,0.9-1.1c0.6,0,1,0.4,1,0.9c0,0.6-0.3,1-0.9,1.1
					C135.5,262.6,135.1,262.1,135.1,261.6z"/>
				<path class="st2" d="M140,261.3c0-0.6,0.3-1,0.9-1.1c0.6,0,1,0.4,1,0.9c0,0.6-0.3,1-0.9,1.1C140.4,262.2,140,261.8,140,261.3z"
					/>
				<path class="st2" d="M144.9,261c0-0.6,0.3-1,0.9-1.1c0.6,0,1,0.4,1,0.9c0,0.6-0.3,1-0.9,1.1C145.3,261.9,144.9,261.5,144.9,261z
					"/>
				<path class="st2" d="M149.8,260.7c0-0.6,0.3-1,0.9-1.1c0.6,0,1,0.4,1,0.9c0,0.6-0.3,1-0.9,1.1
					C150.2,261.6,149.8,261.2,149.8,260.7z"/>
				<path class="st2" d="M154.7,260.3c0-0.6,0.3-1,0.9-1.1c0.6,0,1,0.4,1,0.9c0,0.6-0.3,1-0.9,1.1
					C155.1,261.3,154.7,260.9,154.7,260.3z"/>
				<path class="st2" d="M159.6,260c0-0.6,0.3-1,0.9-1.1c0.6,0,1,0.4,1,0.9c0,0.6-0.3,1-0.9,1.1C160,261,159.6,260.6,159.6,260z"/>
				<path class="st2" d="M164.5,259.7c0-0.6,0.3-1,0.9-1.1c0.6,0,1,0.4,1,0.9c0,0.6-0.3,1-0.9,1.1
					C164.9,260.7,164.5,260.3,164.5,259.7z"/>
				<path class="st2" d="M169.4,259.4c0-0.6,0.3-1,0.9-1.1c0.6,0,1,0.4,1,0.9c0,0.6-0.3,1-0.9,1.1
					C169.8,260.4,169.4,260,169.4,259.4z"/>
				<path class="st2" d="M174.3,259.1c0-0.6,0.3-1,0.9-1.1c0.6,0,1,0.4,1,0.9c0,0.6-0.3,1-0.9,1.1
					C174.7,260.1,174.3,259.7,174.3,259.1z"/>
				<path class="st2" d="M179.2,258.8c0-0.6,0.3-1,0.9-1.1c0.6,0,1,0.4,1,0.9c0,0.6-0.3,1-0.9,1.1
					C179.6,259.8,179.2,259.4,179.2,258.8z"/>
				<path class="st2" d="M184.1,258.5c0-0.6,0.3-1,0.9-1.1c0.6,0,1,0.4,1,0.9c0,0.6-0.3,1-0.9,1.1
					C184.5,259.5,184.1,259.1,184.1,258.5z"/>
				<path class="st2" d="M189,258.2c0-0.6,0.3-1,0.9-1.1c0.6,0,1,0.4,1,0.9c0,0.6-0.3,1-0.9,1.1C189.4,259.2,189,258.8,189,258.2z"
					/>
				<path class="st2" d="M193.9,257.9c0-0.6,0.3-1,0.9-1.1c0.6,0,1,0.4,1,0.9c0,0.6-0.3,1-0.9,1.1
					C194.3,258.9,193.9,258.5,193.9,257.9z"/>
				<path class="st2" d="M198.8,257.6c0-0.6,0.3-1,0.9-1.1c0.6,0,1,0.4,1,0.9c0,0.6-0.3,1-0.9,1.1
					C199.2,258.6,198.8,258.2,198.8,257.6z"/>
				<path class="st2" d="M203.7,257.3c0-0.6,0.3-1,0.9-1.1c0.6,0,1,0.4,1,0.9c0,0.6-0.3,1-0.9,1.1
					C204.1,258.3,203.7,257.9,203.7,257.3z"/>
				<path class="st2" d="M208.6,257c0-0.6,0.3-1,0.9-1.1c0.6,0,1,0.4,1,0.9c0,0.6-0.3,1-0.9,1.1C209,258,208.6,257.5,208.6,257z"/>
				<path class="st2" d="M213.5,256.7c0-0.6,0.3-1,0.9-1.1c0.6,0,1,0.4,1,0.9c0,0.6-0.3,1-0.9,1.1
					C213.9,257.6,213.5,257.2,213.5,256.7z"/>
				<path class="st2" d="M218.4,256.4c0-0.6,0.3-1,0.9-1.1c0.6,0,1,0.4,1,0.9c0,0.6-0.3,1-0.9,1.1
					C218.8,257.3,218.4,256.9,218.4,256.4z"/>
				<path class="st2" d="M223.3,256.1c0-0.6,0.3-1,0.9-1.1c0.6,0,1,0.4,1,0.9c0,0.6-0.3,1-0.9,1.1
					C223.7,257,223.3,256.6,223.3,256.1z"/>
				<path class="st2" d="M228.2,255.7c0-0.6,0.3-1,0.9-1.1c0.6,0,1,0.4,1,0.9c0,0.6-0.3,1-0.9,1.1
					C228.6,256.7,228.2,256.3,228.2,255.7z"/>
				<path class="st2" d="M233.1,255.4c0-0.6,0.3-1,0.9-1.1c0.6,0,1,0.4,1,0.9c0,0.6-0.3,1-0.9,1.1
					C233.5,256.4,233.1,256,233.1,255.4z"/>
				<path class="st2" d="M238,255.1c0-0.6,0.3-1,0.9-1.1c0.6,0,1,0.4,1,0.9c0,0.6-0.3,1-0.9,1.1C238.5,256.1,238,255.7,238,255.1z"
					/>
				<path class="st2" d="M242.9,254.8c0-0.6,0.3-1,0.9-1.1c0.6,0,1,0.4,1,0.9c0,0.6-0.3,1-0.9,1.1
					C243.4,255.8,242.9,255.4,242.9,254.8z"/>
				<path class="st2" d="M247.8,254.5c0-0.6,0.3-1,0.9-1.1c0.6,0,1,0.4,1,0.9c0,0.6-0.3,1-0.9,1.1
					C248.3,255.5,247.8,255.1,247.8,254.5z"/>
				<path class="st2" d="M252.7,254.2c0-0.6,0.3-1,0.9-1.1c0.6,0,1,0.4,1,0.9c0,0.6-0.3,1-0.9,1.1
					C253.2,255.2,252.7,254.8,252.7,254.2z"/>
				<path class="st2" d="M257.6,253.9c0-0.6,0.3-1,0.9-1.1c0.6,0,1,0.4,1,0.9c0,0.6-0.3,1-0.9,1.1
					C258.1,254.9,257.6,254.5,257.6,253.9z"/>
				<path class="st2" d="M262.5,253.6c0-0.6,0.3-1,0.9-1.1c0.6,0,1,0.4,1,0.9c0,0.6-0.3,1-0.9,1.1
					C263,254.6,262.6,254.2,262.5,253.6z"/>
				<path class="st2" d="M267.4,253.3c0-0.6,0.3-1,0.9-1.1c0.6,0,1,0.4,1,0.9c0,0.6-0.3,1-0.9,1.1
					C267.9,254.3,267.5,253.9,267.4,253.3z"/>
				<path class="st2" d="M272.3,253c0-0.6,0.3-1,0.9-1.1c0.6,0,1,0.4,1,0.9c0,0.6-0.3,1-0.9,1.1C272.8,254,272.4,253.6,272.3,253z"
					/>
				<path class="st2" d="M277.2,252.7c0-0.6,0.3-1,0.9-1.1c0.6,0,1,0.4,1,0.9c0,0.6-0.3,1-0.9,1.1
					C277.7,253.7,277.3,253.3,277.2,252.7z"/>
				<path class="st2" d="M282.1,252.4c0-0.6,0.3-1,0.9-1.1c0.6,0,1,0.4,1,0.9c0,0.6-0.3,1-0.9,1.1
					C282.6,253.4,282.2,252.9,282.1,252.4z"/>
				<path class="st2" d="M38.3,288.7c0-0.6,0.3-1,0.9-1.1c0.6,0,1,0.4,1,0.9c0,0.6-0.3,1-0.9,1.1C38.8,289.6,38.4,289.2,38.3,288.7z
					"/>
				<path class="st2" d="M43.2,288.4c0-0.6,0.3-1,0.9-1.1c0.6,0,1,0.4,1,0.9c0,0.6-0.3,1-0.9,1.1C43.7,289.3,43.3,288.9,43.2,288.4z
					"/>
				<path class="st2" d="M48.1,288.1c0-0.6,0.3-1,0.9-1.1c0.6,0,1,0.4,1,0.9c0,0.6-0.3,1-0.9,1.1C48.6,289,48.2,288.6,48.1,288.1z"
					/>
				<path class="st2" d="M53,287.7c0-0.6,0.3-1,0.9-1.1c0.6,0,1,0.4,1,0.9c0,0.6-0.3,1-0.9,1.1C53.5,288.7,53.1,288.3,53,287.7z"/>
				<path class="st2" d="M57.9,287.4c0-0.6,0.3-1,0.9-1.1c0.6,0,1,0.4,1,0.9c0,0.6-0.3,1-0.9,1.1C58.4,288.4,58,288,57.9,287.4z"/>
				<path class="st2" d="M62.8,287.1c0-0.6,0.3-1,0.9-1.1c0.6,0,1,0.4,1,0.9c0,0.6-0.3,1-0.9,1.1C63.3,288.1,62.9,287.7,62.8,287.1z
					"/>
				<path class="st2" d="M67.7,286.8c0-0.6,0.3-1,0.9-1.1c0.6,0,1,0.4,1,0.9c0,0.6-0.3,1-0.9,1.1C68.2,287.8,67.8,287.4,67.7,286.8z
					"/>
				<path class="st2" d="M72.6,286.5c0-0.6,0.3-1,0.9-1.1c0.6,0,1,0.4,1,0.9c0,0.6-0.3,1-0.9,1.1C73.1,287.5,72.7,287.1,72.6,286.5z
					"/>
				<path class="st2" d="M77.5,286.2c0-0.6,0.3-1,0.9-1.1c0.6,0,1,0.4,1,0.9c0,0.6-0.3,1-0.9,1.1C78,287.2,77.6,286.8,77.5,286.2z"
					/>
				<path class="st2" d="M82.4,285.9c0-0.6,0.3-1,0.9-1.1c0.6,0,1,0.4,1,0.9c0,0.6-0.3,1-0.9,1.1C82.9,286.9,82.5,286.5,82.4,285.9z
					"/>
				<path class="st2" d="M87.3,285.6c0-0.6,0.3-1,0.9-1.1c0.6,0,1,0.4,1,0.9c0,0.6-0.3,1-0.9,1.1C87.8,286.6,87.4,286.2,87.3,285.6z
					"/>
				<path class="st2" d="M92.2,285.3c0-0.6,0.3-1,0.9-1.1c0.6,0,1,0.4,1,0.9c0,0.6-0.3,1-0.9,1.1C92.7,286.3,92.3,285.9,92.2,285.3z
					"/>
				<path class="st2" d="M97.2,285c0-0.6,0.3-1,0.9-1.1c0.6,0,1,0.4,1,0.9c0,0.6-0.3,1-0.9,1.1C97.6,286,97.2,285.6,97.2,285z"/>
				<path class="st2" d="M102.1,284.7c0-0.6,0.3-1,0.9-1.1c0.6,0,1,0.4,1,0.9c0,0.6-0.3,1-0.9,1.1
					C102.5,285.7,102.1,285.3,102.1,284.7z"/>
				<path class="st2" d="M107,284.4c0-0.6,0.3-1,0.9-1.1c0.6,0,1,0.4,1,0.9c0,0.6-0.3,1-0.9,1.1C107.4,285.4,107,284.9,107,284.4z"
					/>
				<path class="st2" d="M111.9,284.1c0-0.6,0.3-1,0.9-1.1c0.6,0,1,0.4,1,0.9c0,0.6-0.3,1-0.9,1.1
					C112.3,285,111.9,284.6,111.9,284.1z"/>
				<path class="st2" d="M116.8,283.8c0-0.6,0.3-1,0.9-1.1c0.6,0,1,0.4,1,0.9c0,0.6-0.3,1-0.9,1.1
					C117.2,284.7,116.8,284.3,116.8,283.8z"/>
				<path class="st2" d="M121.7,283.5c0-0.6,0.3-1,0.9-1.1c0.6,0,1,0.4,1,0.9c0,0.6-0.3,1-0.9,1.1
					C122.1,284.4,121.7,284,121.7,283.5z"/>
				<path class="st2" d="M126.6,283.1c0-0.6,0.3-1,0.9-1.1c0.6,0,1,0.4,1,0.9c0,0.6-0.3,1-0.9,1.1
					C127,284.1,126.6,283.7,126.6,283.1z"/>
				<path class="st2" d="M131.5,282.8c0-0.6,0.3-1,0.9-1.1c0.6,0,1,0.4,1,0.9c0,0.6-0.3,1-0.9,1.1
					C131.9,283.8,131.5,283.4,131.5,282.8z"/>
				<path class="st2" d="M136.4,282.5c0-0.6,0.3-1,0.9-1.1c0.6,0,1,0.4,1,0.9c0,0.6-0.3,1-0.9,1.1
					C136.8,283.5,136.4,283.1,136.4,282.5z"/>
				<path class="st2" d="M141.3,282.2c0-0.6,0.3-1,0.9-1.1c0.6,0,1,0.4,1,0.9c0,0.6-0.3,1-0.9,1.1
					C141.7,283.2,141.3,282.8,141.3,282.2z"/>
				<path class="st2" d="M146.2,281.9c0-0.6,0.3-1,0.9-1.1c0.6,0,1,0.4,1,0.9c0,0.6-0.3,1-0.9,1.1
					C146.6,282.9,146.2,282.5,146.2,281.9z"/>
				<path class="st2" d="M151.1,281.6c0-0.6,0.3-1,0.9-1.1c0.6,0,1,0.4,1,0.9c0,0.6-0.3,1-0.9,1.1
					C151.5,282.6,151.1,282.2,151.1,281.6z"/>
				<path class="st2" d="M156,281.3c0-0.6,0.3-1,0.9-1.1c0.6,0,1,0.4,1,0.9c0,0.6-0.3,1-0.9,1.1C156.4,282.3,156,281.9,156,281.3z"
					/>
				<path class="st2" d="M160.9,281c0-0.6,0.3-1,0.9-1.1c0.6,0,1,0.4,1,0.9c0,0.6-0.3,1-0.9,1.1C161.3,282,160.9,281.6,160.9,281z"
					/>
				<path class="st2" d="M165.8,280.7c0-0.6,0.3-1,0.9-1.1c0.6,0,1,0.4,1,0.9c0,0.6-0.3,1-0.9,1.1
					C166.2,281.7,165.8,281.3,165.8,280.7z"/>
				<path class="st2" d="M170.7,280.4c0-0.6,0.3-1,0.9-1.1c0.6,0,1,0.4,1,0.9c0,0.6-0.3,1-0.9,1.1
					C171.1,281.4,170.7,281,170.7,280.4z"/>
				<path class="st2" d="M175.6,280.1c0-0.6,0.3-1,0.9-1.1c0.6,0,1,0.4,1,0.9c0,0.6-0.3,1-0.9,1.1
					C176,281.1,175.6,280.7,175.6,280.1z"/>
				<path class="st2" d="M180.5,279.8c0-0.6,0.3-1,0.9-1.1c0.6,0,1,0.4,1,0.9c0,0.6-0.3,1-0.9,1.1
					C180.9,280.8,180.5,280.3,180.5,279.8z"/>
				<path class="st2" d="M185.4,279.5c0-0.6,0.3-1,0.9-1.1c0.6,0,1,0.4,1,0.9c0,0.6-0.3,1-0.9,1.1
					C185.8,280.4,185.4,280,185.4,279.5z"/>
				<path class="st2" d="M190.3,279.2c0-0.6,0.3-1,0.9-1.1c0.6,0,1,0.4,1,0.9c0,0.6-0.3,1-0.9,1.1
					C190.7,280.1,190.3,279.7,190.3,279.2z"/>
				<path class="st2" d="M195.2,278.9c0-0.6,0.3-1,0.9-1.1c0.6,0,1,0.4,1,0.9c0,0.6-0.3,1-0.9,1.1
					C195.6,279.8,195.2,279.4,195.2,278.9z"/>
				<path class="st2" d="M200.1,278.5c0-0.6,0.3-1,0.9-1.1c0.6,0,1,0.4,1,0.9c0,0.6-0.3,1-0.9,1.1
					C200.5,279.5,200.1,279.1,200.1,278.5z"/>
				<path class="st2" d="M205,278.2c0-0.6,0.3-1,0.9-1.1c0.6,0,1,0.4,1,0.9c0,0.6-0.3,1-0.9,1.1C205.4,279.2,205,278.8,205,278.2z"
					/>
				<path class="st2" d="M209.9,277.9c0-0.6,0.3-1,0.9-1.1c0.6,0,1,0.4,1,0.9c0,0.6-0.3,1-0.9,1.1
					C210.3,278.9,209.9,278.5,209.9,277.9z"/>
				<path class="st2" d="M214.8,277.6c0-0.6,0.3-1,0.9-1.1c0.6,0,1,0.4,1,0.9c0,0.6-0.3,1-0.9,1.1
					C215.2,278.6,214.8,278.2,214.8,277.6z"/>
				<path class="st2" d="M219.7,277.3c0-0.6,0.3-1,0.9-1.1c0.6,0,1,0.4,1,0.9c0,0.6-0.3,1-0.9,1.1
					C220.2,278.3,219.7,277.9,219.7,277.3z"/>
				<path class="st2" d="M224.6,277c0-0.6,0.3-1,0.9-1.1c0.6,0,1,0.4,1,0.9c0,0.6-0.3,1-0.9,1.1C225.1,278,224.6,277.6,224.6,277z"
					/>
				<path class="st2" d="M229.5,276.7c0-0.6,0.3-1,0.9-1.1c0.6,0,1,0.4,1,0.9c0,0.6-0.3,1-0.9,1.1
					C230,277.7,229.5,277.3,229.5,276.7z"/>
				<path class="st2" d="M234.4,276.4c0-0.6,0.3-1,0.9-1.1c0.6,0,1,0.4,1,0.9c0,0.6-0.3,1-0.9,1.1
					C234.9,277.4,234.4,277,234.4,276.4z"/>
				<path class="st2" d="M239.3,276.1c0-0.6,0.3-1,0.9-1.1c0.6,0,1,0.4,1,0.9c0,0.6-0.3,1-0.9,1.1
					C239.8,277.1,239.4,276.7,239.3,276.1z"/>
				<path class="st2" d="M244.2,275.8c0-0.6,0.3-1,0.9-1.1c0.6,0,1,0.4,1,0.9c0,0.6-0.3,1-0.9,1.1
					C244.7,276.8,244.3,276.4,244.2,275.8z"/>
				<path class="st2" d="M249.1,275.5c0-0.6,0.3-1,0.9-1.1c0.6,0,1,0.4,1,0.9c0,0.6-0.3,1-0.9,1.1
					C249.6,276.5,249.2,276.1,249.1,275.5z"/>
				<path class="st2" d="M254,275.2c0-0.6,0.3-1,0.9-1.1c0.6,0,1,0.4,1,0.9c0,0.6-0.3,1-0.9,1.1C254.5,276.2,254.1,275.7,254,275.2z
					"/>
				<path class="st2" d="M258.9,274.9c0-0.6,0.3-1,0.9-1.1c0.6,0,1,0.4,1,0.9c0,0.6-0.3,1-0.9,1.1
					C259.4,275.8,259,275.4,258.9,274.9z"/>
				<path class="st2" d="M263.8,274.6c0-0.6,0.3-1,0.9-1.1c0.6,0,1,0.4,1,0.9c0,0.6-0.3,1-0.9,1.1
					C264.3,275.5,263.9,275.1,263.8,274.6z"/>
				<path class="st2" d="M268.7,274.3c0-0.6,0.3-1,0.9-1.1c0.6,0,1,0.4,1,0.9c0,0.6-0.3,1-0.9,1.1
					C269.2,275.2,268.8,274.8,268.7,274.3z"/>
				<path class="st2" d="M273.6,273.9c0-0.6,0.3-1,0.9-1.1c0.6,0,1,0.4,1,0.9c0,0.6-0.3,1-0.9,1.1
					C274.1,274.9,273.7,274.5,273.6,273.9z"/>
				<path class="st2" d="M278.5,273.6c0-0.6,0.3-1,0.9-1.1c0.6,0,1,0.4,1,0.9c0,0.6-0.3,1-0.9,1.1
					C279,274.6,278.6,274.2,278.5,273.6z"/>
				<path class="st2" d="M283.4,273.3c0-0.6,0.3-1,0.9-1.1c0.6,0,1,0.4,1,0.9c0,0.6-0.3,1-0.9,1.1
					C283.9,274.3,283.5,273.9,283.4,273.3z"/>
				<path class="st2" d="M39.6,309.6c0-0.6,0.3-1,0.9-1.1c0.6,0,1,0.4,1,0.9c0,0.6-0.3,1-0.9,1.1C40.1,310.6,39.7,310.2,39.6,309.6z
					"/>
				<path class="st2" d="M44.5,309.3c0-0.6,0.3-1,0.9-1.1c0.6,0,1,0.4,1,0.9c0,0.6-0.3,1-0.9,1.1C45,310.3,44.6,309.9,44.5,309.3z"
					/>
				<path class="st2" d="M49.4,309c0-0.6,0.3-1,0.9-1.1c0.6,0,1,0.4,1,0.9c0,0.6-0.3,1-0.9,1.1C49.9,310,49.5,309.6,49.4,309z"/>
				<path class="st2" d="M54.3,308.7c0-0.6,0.3-1,0.9-1.1c0.6,0,1,0.4,1,0.9c0,0.6-0.3,1-0.9,1.1C54.8,309.7,54.4,309.3,54.3,308.7z
					"/>
				<path class="st2" d="M59.2,308.4c0-0.6,0.3-1,0.9-1.1c0.6,0,1,0.4,1,0.9c0,0.6-0.3,1-0.9,1.1C59.7,309.4,59.3,309,59.2,308.4z"
					/>
				<path class="st2" d="M64.1,308.1c0-0.6,0.3-1,0.9-1.1c0.6,0,1,0.4,1,0.9c0,0.6-0.3,1-0.9,1.1C64.6,309.1,64.2,308.7,64.1,308.1z
					"/>
				<path class="st2" d="M69,307.8c0-0.6,0.3-1,0.9-1.1c0.6,0,1,0.4,1,0.9c0,0.6-0.3,1-0.9,1.1C69.5,308.8,69.1,308.4,69,307.8z"/>
				<path class="st2" d="M74,307.5c0-0.6,0.3-1,0.9-1.1c0.6,0,1,0.4,1,0.9c0,0.6-0.3,1-0.9,1.1C74.4,308.5,74,308.1,74,307.5z"/>
				<path class="st2" d="M78.9,307.2c0-0.6,0.3-1,0.9-1.1c0.6,0,1,0.4,1,0.9c0,0.6-0.3,1-0.9,1.1C79.3,308.2,78.9,307.7,78.9,307.2z
					"/>
				<path class="st2" d="M83.8,306.9c0-0.6,0.3-1,0.9-1.1c0.6,0,1,0.4,1,0.9c0,0.6-0.3,1-0.9,1.1C84.2,307.8,83.8,307.4,83.8,306.9z
					"/>
				<path class="st2" d="M88.7,306.6c0-0.6,0.3-1,0.9-1.1c0.6,0,1,0.4,1,0.9c0,0.6-0.3,1-0.9,1.1C89.1,307.5,88.7,307.1,88.7,306.6z
					"/>
				<path class="st2" d="M93.6,306.2c0-0.6,0.3-1,0.9-1.1c0.6,0,1,0.4,1,0.9c0,0.6-0.3,1-0.9,1.1C94,307.2,93.6,306.8,93.6,306.2z"
					/>
				<path class="st2" d="M98.5,305.9c0-0.6,0.3-1,0.9-1.1c0.6,0,1,0.4,1,0.9c0,0.6-0.3,1-0.9,1.1C98.9,306.9,98.5,306.5,98.5,305.9z
					"/>
				<path class="st2" d="M103.4,305.6c0-0.6,0.3-1,0.9-1.1c0.6,0,1,0.4,1,0.9c0,0.6-0.3,1-0.9,1.1
					C103.8,306.6,103.4,306.2,103.4,305.6z"/>
				<path class="st2" d="M108.3,305.3c0-0.6,0.3-1,0.9-1.1c0.6,0,1,0.4,1,0.9c0,0.6-0.3,1-0.9,1.1
					C108.7,306.3,108.3,305.9,108.3,305.3z"/>
				<path class="st2" d="M113.2,305c0-0.6,0.3-1,0.9-1.1c0.6,0,1,0.4,1,0.9c0,0.6-0.3,1-0.9,1.1C113.6,306,113.2,305.6,113.2,305z"
					/>
				<path class="st2" d="M118.1,304.7c0-0.6,0.3-1,0.9-1.1c0.6,0,1,0.4,1,0.9c0,0.6-0.3,1-0.9,1.1
					C118.5,305.7,118.1,305.3,118.1,304.7z"/>
				<path class="st2" d="M123,304.4c0-0.6,0.3-1,0.9-1.1c0.6,0,1,0.4,1,0.9c0,0.6-0.3,1-0.9,1.1C123.4,305.4,123,305,123,304.4z"/>
				<path class="st2" d="M127.9,304.1c0-0.6,0.3-1,0.9-1.1c0.6,0,1,0.4,1,0.9c0,0.6-0.3,1-0.9,1.1
					C128.3,305.1,127.9,304.7,127.9,304.1z"/>
				<path class="st2" d="M132.8,303.8c0-0.6,0.3-1,0.9-1.1c0.6,0,1,0.4,1,0.9c0,0.6-0.3,1-0.9,1.1
					C133.2,304.8,132.8,304.4,132.8,303.8z"/>
				<path class="st2" d="M137.7,303.5c0-0.6,0.3-1,0.9-1.1c0.6,0,1,0.4,1,0.9c0,0.6-0.3,1-0.9,1.1
					C138.1,304.5,137.7,304.1,137.7,303.5z"/>
				<path class="st2" d="M142.6,303.2c0-0.6,0.3-1,0.9-1.1c0.6,0,1,0.4,1,0.9c0,0.6-0.3,1-0.9,1.1
					C143,304.2,142.6,303.8,142.6,303.2z"/>
				<path class="st2" d="M147.5,302.9c0-0.6,0.3-1,0.9-1.1c0.6,0,1,0.4,1,0.9c0,0.6-0.3,1-0.9,1.1
					C147.9,303.9,147.5,303.5,147.5,302.9z"/>
				<path class="st2" d="M152.4,302.6c0-0.6,0.3-1,0.9-1.1c0.6,0,1,0.4,1,0.9c0,0.6-0.3,1-0.9,1.1
					C152.8,303.6,152.4,303.1,152.4,302.6z"/>
				<path class="st2" d="M157.3,302.3c0-0.6,0.3-1,0.9-1.1c0.6,0,1,0.4,1,0.9c0,0.6-0.3,1-0.9,1.1
					C157.7,303.2,157.3,302.8,157.3,302.3z"/>
				<path class="st2" d="M162.2,302c0-0.6,0.3-1,0.9-1.1c0.6,0,1,0.4,1,0.9c0,0.6-0.3,1-0.9,1.1C162.6,302.9,162.2,302.5,162.2,302z
					"/>
				<path class="st2" d="M167.1,301.7c0-0.6,0.3-1,0.9-1.1c0.6,0,1,0.4,1,0.9c0,0.6-0.3,1-0.9,1.1
					C167.5,302.6,167.1,302.2,167.1,301.7z"/>
				<path class="st2" d="M172,301.3c0-0.6,0.3-1,0.9-1.1c0.6,0,1,0.4,1,0.9c0,0.6-0.3,1-0.9,1.1C172.4,302.3,172,301.9,172,301.3z"
					/>
				<path class="st2" d="M176.9,301c0-0.6,0.3-1,0.9-1.1c0.6,0,1,0.4,1,0.9c0,0.6-0.3,1-0.9,1.1C177.3,302,176.9,301.6,176.9,301z"
					/>
				<path class="st2" d="M181.8,300.7c0-0.6,0.3-1,0.9-1.1c0.6,0,1,0.4,1,0.9c0,0.6-0.3,1-0.9,1.1
					C182.2,301.7,181.8,301.3,181.8,300.7z"/>
				<path class="st2" d="M186.7,300.4c0-0.6,0.3-1,0.9-1.1c0.6,0,1,0.4,1,0.9c0,0.6-0.3,1-0.9,1.1
					C187.1,301.4,186.7,301,186.7,300.4z"/>
				<path class="st2" d="M191.6,300.1c0-0.6,0.3-1,0.9-1.1c0.6,0,1,0.4,1,0.9c0,0.6-0.3,1-0.9,1.1
					C192.1,301.1,191.6,300.7,191.6,300.1z"/>
				<path class="st2" d="M196.5,299.8c0-0.6,0.3-1,0.9-1.1c0.6,0,1,0.4,1,0.9c0,0.6-0.3,1-0.9,1.1
					C197,300.8,196.5,300.4,196.5,299.8z"/>
				<path class="st2" d="M201.4,299.5c0-0.6,0.3-1,0.9-1.1c0.6,0,1,0.4,1,0.9c0,0.6-0.3,1-0.9,1.1
					C201.9,300.5,201.4,300.1,201.4,299.5z"/>
				<path class="st2" d="M206.3,299.2c0-0.6,0.3-1,0.9-1.1c0.6,0,1,0.4,1,0.9c0,0.6-0.3,1-0.9,1.1
					C206.8,300.2,206.3,299.8,206.3,299.2z"/>
				<path class="st2" d="M211.2,298.9c0-0.6,0.3-1,0.9-1.1c0.6,0,1,0.4,1,0.9c0,0.6-0.3,1-0.9,1.1
					C211.7,299.9,211.2,299.5,211.2,298.9z"/>
				<path class="st2" d="M216.1,298.6c0-0.6,0.3-1,0.9-1.1c0.6,0,1,0.4,1,0.9c0,0.6-0.3,1-0.9,1.1
					C216.6,299.6,216.1,299.2,216.1,298.6z"/>
				<path class="st2" d="M221,298.3c0-0.6,0.3-1,0.9-1.1c0.6,0,1,0.4,1,0.9c0,0.6-0.3,1-0.9,1.1C221.5,299.3,221.1,298.9,221,298.3z
					"/>
				<path class="st2" d="M225.9,298c0-0.6,0.3-1,0.9-1.1c0.6,0,1,0.4,1,0.9c0,0.6-0.3,1-0.9,1.1C226.4,299,226,298.5,225.9,298z"/>
				<path class="st2" d="M230.8,297.7c0-0.6,0.3-1,0.9-1.1c0.6,0,1,0.4,1,0.9c0,0.6-0.3,1-0.9,1.1
					C231.3,298.6,230.9,298.2,230.8,297.7z"/>
				<path class="st2" d="M235.7,297.4c0-0.6,0.3-1,0.9-1.1c0.6,0,1,0.4,1,0.9c0,0.6-0.3,1-0.9,1.1
					C236.2,298.3,235.8,297.9,235.7,297.4z"/>
				<path class="st2" d="M240.6,297.1c0-0.6,0.3-1,0.9-1.1c0.6,0,1,0.4,1,0.9c0,0.6-0.3,1-0.9,1.1
					C241.1,298,240.7,297.6,240.6,297.1z"/>
				<path class="st2" d="M245.5,296.7c0-0.6,0.3-1,0.9-1.1c0.6,0,1,0.4,1,0.9c0,0.6-0.3,1-0.9,1.1
					C246,297.7,245.6,297.3,245.5,296.7z"/>
				<path class="st2" d="M250.4,296.4c0-0.6,0.3-1,0.9-1.1c0.6,0,1,0.4,1,0.9c0,0.6-0.3,1-0.9,1.1
					C250.9,297.4,250.5,297,250.4,296.4z"/>
				<path class="st2" d="M255.3,296.1c0-0.6,0.3-1,0.9-1.1c0.6,0,1,0.4,1,0.9c0,0.6-0.3,1-0.9,1.1
					C255.8,297.1,255.4,296.7,255.3,296.1z"/>
				<path class="st2" d="M260.2,295.8c0-0.6,0.3-1,0.9-1.1c0.6,0,1,0.4,1,0.9c0,0.6-0.3,1-0.9,1.1
					C260.7,296.8,260.3,296.4,260.2,295.8z"/>
				<path class="st2" d="M265.1,295.5c0-0.6,0.3-1,0.9-1.1c0.6,0,1,0.4,1,0.9c0,0.6-0.3,1-0.9,1.1
					C265.6,296.5,265.2,296.1,265.1,295.5z"/>
				<path class="st2" d="M270,295.2c0-0.6,0.3-1,0.9-1.1c0.6,0,1,0.4,1,0.9c0,0.6-0.3,1-0.9,1.1C270.5,296.2,270.1,295.8,270,295.2z
					"/>
				<path class="st2" d="M274.9,294.9c0-0.6,0.3-1,0.9-1.1c0.6,0,1,0.4,1,0.9c0,0.6-0.3,1-0.9,1.1
					C275.4,295.9,275,295.5,274.9,294.9z"/>
				<path class="st2" d="M279.8,294.6c0-0.6,0.3-1,0.9-1.1c0.6,0,1,0.4,1,0.9c0,0.6-0.3,1-0.9,1.1
					C280.3,295.6,279.9,295.2,279.8,294.6z"/>
				<path class="st2" d="M284.7,294.3c0-0.6,0.3-1,0.9-1.1c0.6,0,1,0.4,1,0.9c0,0.6-0.3,1-0.9,1.1
					C285.2,295.3,284.8,294.9,284.7,294.3z"/>
			</g>
			<polygon class="st3" points="273.5,283 275.7,317.9 308.4,280.8 			"/>
		</g>
		<g>
			<path class="st4" d="M32.4,127c3.7-0.2,7.3-0.9,11-1.1c1.3-0.1,3.1-0.3,4.5,0L42.4,0c-2.7,1-7.2,0.6-9.4,0.8
				c-6.9,0.4-13.8,0.9-20.7,1l5.5,125.6C22.5,126.4,27.5,127.2,32.4,127z"/>
		</g>
	</g>
</g>
</svg>
