<?xml version="1.0" encoding="utf-8"?>
<!-- Generator: Adobe Illustrator 26.3.1, SVG Export Plug-In . SVG Version: 6.00 Build 0)  -->
<svg version="1.1" xmlns="http://www.w3.org/2000/svg" xmlns:xlink="http://www.w3.org/1999/xlink" x="0px" y="0px"
	 viewBox="0 0 319.9 345.8" style="enable-background:new 0 0 319.9 345.8;" xml:space="preserve">
<style type="text/css">
	.st0{fill:#CFD0D2;}
	.st1{fill:#E9B760;}
	.st2{fill:#A5A7A9;}
	.st3{fill:#A22430;}
	.st4{opacity:0.8;fill:#DEDED3;}
	.st5{fill:#DEDED3;}
</style>
<g id="BG">
</g>
<g id="Objects">
	<g>
		
			<rect x="16" y="41.8" transform="matrix(0.9969 -7.834032e-02 7.834032e-02 0.9969 -14.2513 13.3068)" class="st0" width="292.9" height="292.9"/>
		<g>
			
				<rect x="11" y="36.8" transform="matrix(0.9969 -7.834032e-02 7.834032e-02 0.9969 -13.875 12.8997)" class="st1" width="292.9" height="292.9"/>
			<g>
				<polygon class="st2" points="289.8,48.3 288.8,48.3 285.8,48.6 284.8,48.7 281.8,48.9 280.8,49 277.8,49.2 276.8,49.3 
					273.8,49.5 272.8,49.6 269.8,49.8 268.8,49.9 265.8,50.2 264.8,50.2 261.8,50.5 260.9,50.5 257.9,50.8 256.9,50.9 253.9,51.1 
					252.9,51.2 249.9,51.4 248.9,51.5 245.9,51.7 244.9,51.8 241.9,52 240.9,52.1 237.9,52.3 236.9,52.4 233.9,52.7 232.9,52.7 
					230,53 229,53 226,53.3 225,53.4 222,53.6 221,53.7 218,53.9 217,54 214,54.2 213,54.3 210,54.5 209,54.6 206,54.8 205,54.9 
					202.1,55.2 201.1,55.2 198.1,55.5 197.1,55.6 194.1,55.8 193.1,55.9 190.1,56.1 189.1,56.2 186.1,56.4 185.1,56.5 182.1,56.7 
					181.1,56.8 178.1,57 177.1,57.1 174.1,57.4 173.2,57.4 170.2,57.7 169.2,57.7 166.2,58 165.2,58.1 162.2,58.3 161.2,58.4 
					158.2,58.6 157.2,58.7 154.2,58.9 153.2,59 150.2,59.2 149.2,59.3 146.2,59.5 145.2,59.6 142.3,59.9 141.3,59.9 138.3,60.2 
					137.3,60.3 134.3,60.5 133.3,60.6 130.3,60.8 129.3,60.9 126.3,61.1 125.3,61.2 122.3,61.4 121.3,61.5 118.3,61.7 117.3,61.8 
					114.4,62.1 113.4,62.1 110.4,62.4 109.4,62.4 106.4,62.7 105.4,62.8 102.4,63 101.4,63.1 98.4,63.3 97.4,63.4 94.4,63.6 
					93.4,63.7 90.4,63.9 89.4,64 86.4,64.2 85.5,64.3 82.5,64.6 81.5,64.6 78.5,64.9 77.5,65 74.5,65.2 73.5,65.3 70.5,65.5 
					69.5,65.6 66.5,65.8 65.5,65.9 62.5,66.1 61.5,66.2 58.5,66.4 57.5,66.5 54.6,66.8 53.6,66.8 50.6,67.1 49.6,67.1 46.6,67.4 
					45.6,67.5 42.6,67.7 41.6,67.8 38.6,68 37.6,68.1 34.6,68.3 33.6,68.4 30.6,68.6 29.6,68.7 26.7,68.9 25.7,69 22.7,69.3 
					21.7,69.3 18.7,69.6 17.7,69.7 14.7,69.9 13.7,70 10.7,70.2 9.7,70.3 6.7,70.5 5.7,70.6 1.7,70.9 1.8,71.4 5.8,71.1 6.8,71 
					9.8,70.8 10.7,70.7 13.7,70.5 14.7,70.4 17.7,70.1 18.7,70.1 21.7,69.8 22.7,69.8 25.7,69.5 26.7,69.4 29.7,69.2 30.7,69.1 
					33.7,68.9 34.7,68.8 37.7,68.6 38.7,68.5 41.6,68.3 42.6,68.2 45.6,68 46.6,67.9 49.6,67.6 50.6,67.6 53.6,67.3 54.6,67.3 
					57.6,67 58.6,66.9 61.6,66.7 62.6,66.6 65.6,66.4 66.6,66.3 69.5,66.1 70.5,66 73.5,65.8 74.5,65.7 77.5,65.4 78.5,65.4 
					81.5,65.1 82.5,65.1 85.5,64.8 86.5,64.7 89.5,64.5 90.5,64.4 93.5,64.2 94.5,64.1 97.5,63.9 98.4,63.8 101.4,63.6 102.4,63.5 
					105.4,63.3 106.4,63.2 109.4,62.9 110.4,62.9 113.4,62.6 114.4,62.6 117.4,62.3 118.4,62.2 121.4,62 122.4,61.9 125.4,61.7 
					126.4,61.6 129.3,61.4 130.3,61.3 133.3,61.1 134.3,61 137.3,60.8 138.3,60.7 141.3,60.4 142.3,60.4 145.3,60.1 146.3,60 
					149.3,59.8 150.3,59.7 153.3,59.5 154.3,59.4 157.2,59.2 158.2,59.1 161.2,58.9 162.2,58.8 165.2,58.6 166.2,58.5 169.2,58.2 
					170.2,58.2 173.2,57.9 174.2,57.9 177.2,57.6 178.2,57.5 181.2,57.3 182.2,57.2 185.1,57 186.1,56.9 189.1,56.7 190.1,56.6 
					193.1,56.4 194.1,56.3 197.1,56.1 198.1,56 201.1,55.7 202.1,55.7 205.1,55.4 206.1,55.3 209.1,55.1 210.1,55 213.1,54.8 
					214,54.7 217,54.5 218,54.4 221,54.2 222,54.1 225,53.9 226,53.8 229,53.5 230,53.5 233,53.2 234,53.2 237,52.9 238,52.8 
					241,52.6 242,52.5 244.9,52.3 245.9,52.2 248.9,52 249.9,51.9 252.9,51.7 253.9,51.6 256.9,51.4 257.9,51.3 260.9,51 261.9,51 
					264.9,50.7 265.9,50.6 268.9,50.4 269.9,50.3 272.8,50.1 273.8,50 276.8,49.8 277.8,49.7 280.8,49.5 281.8,49.4 284.8,49.2 
					285.8,49.1 288.8,48.8 289.8,48.8 293.8,48.5 293.7,48 				"/>
				<polygon class="st2" points="290.5,70.3 287.5,70.5 286.5,70.6 283.5,70.8 282.5,70.9 279.5,71.1 278.5,71.2 275.5,71.5 
					274.5,71.5 271.5,71.8 270.5,71.9 267.6,72.1 266.6,72.2 263.6,72.4 262.6,72.5 259.6,72.7 258.6,72.8 255.6,73 254.6,73.1 
					251.6,73.3 250.6,73.4 247.6,73.7 246.6,73.7 243.6,74 242.6,74 239.7,74.3 238.7,74.4 235.7,74.6 234.7,74.7 231.7,74.9 
					230.7,75 227.7,75.2 226.7,75.3 223.7,75.5 222.7,75.6 219.7,75.8 218.7,75.9 215.7,76.2 214.7,76.2 211.7,76.5 210.8,76.5 
					207.8,76.8 206.8,76.9 203.8,77.1 202.8,77.2 199.8,77.4 198.8,77.5 195.8,77.7 194.8,77.8 191.8,78 190.8,78.1 187.8,78.4 
					186.8,78.4 183.8,78.7 182.8,78.7 179.9,79 178.9,79.1 175.9,79.3 174.9,79.4 171.9,79.6 170.9,79.7 167.9,79.9 166.9,80 
					163.9,80.2 162.9,80.3 159.9,80.5 158.9,80.6 155.9,80.9 154.9,80.9 152,81.2 151,81.2 148,81.5 147,81.6 144,81.8 143,81.9 
					140,82.1 139,82.2 136,82.4 135,82.5 132,82.7 131,82.8 128,83.1 127,83.1 124,83.4 123.1,83.4 120.1,83.7 119.1,83.8 116.1,84 
					115.1,84.1 112.1,84.3 111.1,84.4 108.1,84.6 107.1,84.7 104.1,84.9 103.1,85 100.1,85.2 99.1,85.3 96.1,85.6 95.1,85.6 
					92.2,85.9 91.2,85.9 88.2,86.2 87.2,86.3 84.2,86.5 83.2,86.6 80.2,86.8 79.2,86.9 76.2,87.1 75.2,87.2 72.2,87.4 71.2,87.5 
					68.2,87.7 67.2,87.8 64.3,88.1 63.3,88.1 60.3,88.4 59.3,88.5 56.3,88.7 55.3,88.8 52.3,89 51.3,89.1 48.3,89.3 47.3,89.4 
					44.3,89.6 43.3,89.7 40.3,89.9 39.3,90 36.3,90.3 35.4,90.3 32.4,90.6 31.4,90.6 28.4,90.9 27.4,91 24.4,91.2 23.4,91.3 
					20.4,91.5 19.4,91.6 16.4,91.8 15.4,91.9 12.4,92.1 11.4,92.2 8.4,92.4 7.5,92.5 3.5,92.8 3.5,93.3 7.5,93 8.5,92.9 11.5,92.7 
					12.5,92.6 15.5,92.4 16.5,92.3 19.4,92.1 20.4,92 23.4,91.8 24.4,91.7 27.4,91.5 28.4,91.4 31.4,91.1 32.4,91.1 35.4,90.8 
					36.4,90.8 39.4,90.5 40.4,90.4 43.4,90.2 44.4,90.1 47.4,89.9 48.3,89.8 51.3,89.6 52.3,89.5 55.3,89.3 56.3,89.2 59.3,89 
					60.3,88.9 63.3,88.6 64.3,88.6 67.3,88.3 68.3,88.2 71.3,88 72.3,87.9 75.3,87.7 76.3,87.6 79.2,87.4 80.2,87.3 83.2,87.1 
					84.2,87 87.2,86.8 88.2,86.7 91.2,86.4 92.2,86.4 95.2,86.1 96.2,86.1 99.2,85.8 100.2,85.7 103.2,85.5 104.2,85.4 107.1,85.2 
					108.1,85.1 111.1,84.9 112.1,84.8 115.1,84.6 116.1,84.5 119.1,84.3 120.1,84.2 123.1,83.9 124.1,83.9 127.1,83.6 128.1,83.5 
					131.1,83.3 132.1,83.2 135.1,83 136,82.9 139,82.7 140,82.6 143,82.4 144,82.3 147,82.1 148,82 151,81.7 152,81.7 155,81.4 
					156,81.4 159,81.1 160,81 163,80.8 164,80.7 166.9,80.5 167.9,80.4 170.9,80.2 171.9,80.1 174.9,79.9 175.9,79.8 178.9,79.6 
					179.9,79.5 182.9,79.2 183.9,79.2 186.9,78.9 187.9,78.8 190.9,78.6 191.9,78.5 194.8,78.3 195.8,78.2 198.8,78 199.8,77.9 
					202.8,77.7 203.8,77.6 206.8,77.4 207.8,77.3 210.8,77 211.8,77 214.8,76.7 215.8,76.7 218.8,76.4 219.8,76.3 222.8,76.1 
					223.7,76 226.7,75.8 227.7,75.7 230.7,75.5 231.7,75.4 234.7,75.2 235.7,75.1 238.7,74.9 239.7,74.8 242.7,74.5 243.7,74.5 
					246.7,74.2 247.7,74.2 250.7,73.9 251.7,73.8 254.6,73.6 255.6,73.5 258.6,73.3 259.6,73.2 262.6,73 263.6,72.9 266.6,72.7 
					267.6,72.6 270.6,72.3 271.6,72.3 274.6,72 275.6,72 278.6,71.7 279.6,71.6 282.5,71.4 283.5,71.3 286.5,71.1 287.5,71 
					290.5,70.8 291.5,70.7 295.5,70.4 295.5,69.9 291.5,70.2 				"/>
				<polygon class="st2" points="292.2,92.2 289.2,92.5 288.2,92.5 285.2,92.8 284.2,92.8 281.2,93.1 280.2,93.2 277.3,93.4 
					276.3,93.5 273.3,93.7 272.3,93.8 269.3,94 268.3,94.1 265.3,94.3 264.3,94.4 261.3,94.6 260.3,94.7 257.3,95 256.3,95 
					253.3,95.3 252.3,95.4 249.3,95.6 248.4,95.7 245.4,95.9 244.4,96 241.4,96.2 240.4,96.3 237.4,96.5 236.4,96.6 233.4,96.8 
					232.4,96.9 229.4,97.2 228.4,97.2 225.4,97.5 224.4,97.5 221.4,97.8 220.4,97.9 217.5,98.1 216.5,98.2 213.5,98.4 212.5,98.5 
					209.5,98.7 208.5,98.8 205.5,99 204.5,99.1 201.5,99.3 200.5,99.4 197.5,99.7 196.5,99.7 193.5,100 192.5,100.1 189.6,100.3 
					188.6,100.4 185.6,100.6 184.6,100.7 181.6,100.9 180.6,101 177.6,101.2 176.6,101.3 173.6,101.5 172.6,101.6 169.6,101.9 
					168.6,101.9 165.6,102.2 164.6,102.2 161.6,102.5 160.7,102.6 157.7,102.8 156.7,102.9 153.7,103.1 152.7,103.2 149.7,103.4 
					148.7,103.5 145.7,103.7 144.7,103.8 141.7,104 140.7,104.1 137.7,104.4 136.7,104.4 133.7,104.7 132.7,104.8 129.8,105 
					128.8,105.1 125.8,105.3 124.8,105.4 121.8,105.6 120.8,105.7 117.8,105.9 116.8,106 113.8,106.2 112.8,106.3 109.8,106.6 
					108.8,106.6 105.8,106.9 104.8,106.9 101.9,107.2 100.9,107.3 97.9,107.5 96.9,107.6 93.9,107.8 92.9,107.9 89.9,108.1 
					88.9,108.2 85.9,108.4 84.9,108.5 81.9,108.7 80.9,108.8 77.9,109.1 76.9,109.1 74,109.4 73,109.4 70,109.7 69,109.8 66,110 
					65,110.1 62,110.3 61,110.4 58,110.6 57,110.7 54,110.9 53,111 50,111.3 49,111.3 46,111.6 45.1,111.6 42.1,111.9 41.1,112 
					38.1,112.2 37.1,112.3 34.1,112.5 33.1,112.6 30.1,112.8 29.1,112.9 26.1,113.1 25.1,113.2 22.1,113.4 21.1,113.5 18.1,113.8 
					17.1,113.8 14.2,114.1 13.2,114.1 10.2,114.4 9.2,114.5 5.2,114.8 5.2,115.3 9.2,115 10.2,114.9 13.2,114.6 14.2,114.6 
					17.2,114.3 18.2,114.3 21.2,114 22.2,113.9 25.2,113.7 26.2,113.6 29.1,113.4 30.1,113.3 33.1,113.1 34.1,113 37.1,112.8 
					38.1,112.7 41.1,112.5 42.1,112.4 45.1,112.1 46.1,112.1 49.1,111.8 50.1,111.7 53.1,111.5 54.1,111.4 57,111.2 58,111.1 
					61,110.9 62,110.8 65,110.6 66,110.5 69,110.3 70,110.2 73,109.9 74,109.9 77,109.6 78,109.6 81,109.3 82,109.2 85,109 
					85.9,108.9 88.9,108.7 89.9,108.6 92.9,108.4 93.9,108.3 96.9,108.1 97.9,108 100.9,107.8 101.9,107.7 104.9,107.4 105.9,107.4 
					108.9,107.1 109.9,107.1 112.9,106.8 113.9,106.7 116.8,106.5 117.8,106.4 120.8,106.2 121.8,106.1 124.8,105.9 125.8,105.8 
					128.8,105.6 129.8,105.5 132.8,105.2 133.8,105.2 136.8,104.9 137.8,104.9 140.8,104.6 141.8,104.5 144.7,104.3 145.7,104.2 
					148.7,104 149.7,103.9 152.7,103.7 153.7,103.6 156.7,103.4 157.7,103.3 160.7,103.1 161.7,103 164.7,102.7 165.7,102.7 
					168.7,102.4 169.7,102.4 172.7,102.1 173.6,102 176.6,101.8 177.6,101.7 180.6,101.5 181.6,101.4 184.6,101.2 185.6,101.1 
					188.6,100.9 189.6,100.8 192.6,100.6 193.6,100.5 196.6,100.2 197.6,100.2 200.6,99.9 201.6,99.8 204.5,99.6 205.5,99.5 
					208.5,99.3 209.5,99.2 212.5,99 213.5,98.9 216.5,98.7 217.5,98.6 220.5,98.4 221.5,98.3 224.5,98 225.5,98 228.5,97.7 
					229.5,97.7 232.4,97.4 233.4,97.3 236.4,97.1 237.4,97 240.4,96.8 241.4,96.7 244.4,96.5 245.4,96.4 248.4,96.2 249.4,96.1 
					252.4,95.9 253.4,95.8 256.4,95.5 257.4,95.5 260.4,95.2 261.3,95.1 264.3,94.9 265.3,94.8 268.3,94.6 269.3,94.5 272.3,94.3 
					273.3,94.2 276.3,94 277.3,93.9 280.3,93.7 281.3,93.6 284.3,93.3 285.3,93.3 288.3,93 289.3,93 292.2,92.7 293.2,92.6 
					297.2,92.3 297.2,91.8 293.2,92.1 				"/>
				<polygon class="st2" points="293.9,114.2 290.9,114.4 289.9,114.5 286.9,114.7 286,114.8 283,115 282,115.1 279,115.3 
					278,115.4 275,115.6 274,115.7 271,116 270,116 267,116.3 266,116.3 263,116.6 262,116.7 259,116.9 258,117 255.1,117.2 
					254.1,117.3 251.1,117.5 250.1,117.6 247.1,117.8 246.1,117.9 243.1,118.2 242.1,118.2 239.1,118.5 238.1,118.5 235.1,118.8 
					234.1,118.9 231.1,119.1 230.1,119.2 227.2,119.4 226.2,119.5 223.2,119.7 222.2,119.8 219.2,120 218.2,120.1 215.2,120.3 
					214.2,120.4 211.2,120.7 210.2,120.7 207.2,121 206.2,121 203.2,121.3 202.2,121.4 199.3,121.6 198.3,121.7 195.3,121.9 
					194.3,122 191.3,122.2 190.3,122.3 187.3,122.5 186.3,122.6 183.3,122.8 182.3,122.9 179.3,123.2 178.3,123.2 175.3,123.5 
					174.3,123.6 171.3,123.8 170.4,123.9 167.4,124.1 166.4,124.2 163.4,124.4 162.4,124.5 159.4,124.7 158.4,124.8 155.4,125 
					154.4,125.1 151.4,125.4 150.4,125.4 147.4,125.7 146.4,125.7 143.4,126 142.4,126.1 139.5,126.3 138.5,126.4 135.5,126.6 
					134.5,126.7 131.5,126.9 130.5,127 127.5,127.2 126.5,127.3 123.5,127.5 122.5,127.6 119.5,127.9 118.5,127.9 115.5,128.2 
					114.5,128.3 111.6,128.5 110.6,128.6 107.6,128.8 106.6,128.9 103.6,129.1 102.6,129.2 99.6,129.4 98.6,129.5 95.6,129.7 
					94.6,129.8 91.6,130.1 90.6,130.1 87.6,130.4 86.6,130.4 83.6,130.7 82.7,130.8 79.7,131 78.7,131.1 75.7,131.3 74.7,131.4 
					71.7,131.6 70.7,131.7 67.7,131.9 66.7,132 63.7,132.2 62.7,132.3 59.7,132.6 58.7,132.6 55.7,132.9 54.7,133 51.8,133.2 
					50.8,133.3 47.8,133.5 46.8,133.6 43.8,133.8 42.8,133.9 39.8,134.1 38.8,134.2 35.8,134.4 34.8,134.5 31.8,134.8 30.8,134.8 
					27.8,135.1 26.8,135.1 23.9,135.4 22.9,135.5 19.9,135.7 18.9,135.8 15.9,136 14.9,136.1 11.9,136.3 10.9,136.4 6.9,136.7 
					7,137.2 10.9,136.9 11.9,136.8 14.9,136.6 15.9,136.5 18.9,136.3 19.9,136.2 22.9,136 23.9,135.9 26.9,135.6 27.9,135.6 
					30.9,135.3 31.9,135.3 34.9,135 35.8,134.9 38.8,134.7 39.8,134.6 42.8,134.4 43.8,134.3 46.8,134.1 47.8,134 50.8,133.8 
					51.8,133.7 54.8,133.4 55.8,133.4 58.8,133.1 59.8,133.1 62.8,132.8 63.8,132.7 66.7,132.5 67.7,132.4 70.7,132.2 71.7,132.1 
					74.7,131.9 75.7,131.8 78.7,131.6 79.7,131.5 82.7,131.3 83.7,131.2 86.7,130.9 87.7,130.9 90.7,130.6 91.7,130.6 94.6,130.3 
					95.6,130.2 98.6,130 99.6,129.9 102.6,129.7 103.6,129.6 106.6,129.4 107.6,129.3 110.6,129.1 111.6,129 114.6,128.8 
					115.6,128.7 118.6,128.4 119.6,128.4 122.6,128.1 123.5,128 126.5,127.8 127.5,127.7 130.5,127.5 131.5,127.4 134.5,127.2 
					135.5,127.1 138.5,126.9 139.5,126.8 142.5,126.6 143.5,126.5 146.5,126.2 147.5,126.2 150.5,125.9 151.5,125.9 154.4,125.6 
					155.4,125.5 158.4,125.3 159.4,125.2 162.4,125 163.4,124.9 166.4,124.7 167.4,124.6 170.4,124.4 171.4,124.3 174.4,124.1 
					175.4,124 178.4,123.7 179.4,123.7 182.3,123.4 183.3,123.3 186.3,123.1 187.3,123 190.3,122.8 191.3,122.7 194.3,122.5 
					195.3,122.4 198.3,122.2 199.3,122.1 202.3,121.9 203.3,121.8 206.3,121.5 207.3,121.5 210.3,121.2 211.2,121.2 214.2,120.9 
					215.2,120.8 218.2,120.6 219.2,120.5 222.2,120.3 223.2,120.2 226.2,120 227.2,119.9 230.2,119.7 231.2,119.6 234.2,119.4 
					235.2,119.3 238.2,119 239.2,119 242.1,118.7 243.1,118.6 246.1,118.4 247.1,118.3 250.1,118.1 251.1,118 254.1,117.8 
					255.1,117.7 258.1,117.5 259.1,117.4 262.1,117.2 263.1,117.1 266.1,116.8 267.1,116.8 270,116.5 271,116.5 274,116.2 
					275,116.1 278,115.9 279,115.8 282,115.6 283,115.5 286,115.3 287,115.2 290,115 291,114.9 294,114.7 295,114.6 298.9,114.3 
					298.9,113.8 294.9,114.1 				"/>
				<polygon class="st2" points="295.6,136.1 292.7,136.3 291.7,136.4 288.7,136.6 287.7,136.7 284.7,137 283.7,137 280.7,137.3 
					279.7,137.3 276.7,137.6 275.7,137.7 272.7,137.9 271.7,138 268.7,138.2 267.7,138.3 264.8,138.5 263.8,138.6 260.8,138.8 
					259.8,138.9 256.8,139.1 255.8,139.2 252.8,139.5 251.8,139.5 248.8,139.8 247.8,139.9 244.8,140.1 243.8,140.2 240.8,140.4 
					239.8,140.5 236.9,140.7 235.9,140.8 232.9,141 231.9,141.1 228.9,141.3 227.9,141.4 224.9,141.7 223.9,141.7 220.9,142 
					219.9,142 216.9,142.3 215.9,142.4 212.9,142.6 211.9,142.7 208.9,142.9 208,143 205,143.2 204,143.3 201,143.5 200,143.6 
					197,143.8 196,143.9 193,144.2 192,144.2 189,144.5 188,144.6 185,144.8 184,144.9 181,145.1 180,145.2 177.1,145.4 
					176.1,145.5 173.1,145.7 172.1,145.8 169.1,146 168.1,146.1 165.1,146.4 164.1,146.4 161.1,146.7 160.1,146.7 157.1,147 
					156.1,147.1 153.1,147.3 152.1,147.4 149.2,147.6 148.2,147.7 145.2,147.9 144.2,148 141.2,148.2 140.2,148.3 137.2,148.5 
					136.2,148.6 133.2,148.9 132.2,148.9 129.2,149.2 128.2,149.2 125.2,149.5 124.2,149.6 121.2,149.8 120.3,149.9 117.3,150.1 
					116.3,150.2 113.3,150.4 112.3,150.5 109.3,150.7 108.3,150.8 105.3,151.1 104.3,151.1 101.3,151.4 100.3,151.4 97.3,151.7 
					96.3,151.8 93.3,152 92.3,152.1 89.4,152.3 88.4,152.4 85.4,152.6 84.4,152.7 81.4,152.9 80.4,153 77.4,153.2 76.4,153.3 
					73.4,153.6 72.4,153.6 69.4,153.9 68.4,153.9 65.4,154.2 64.4,154.3 61.5,154.5 60.5,154.6 57.5,154.8 56.5,154.9 53.5,155.1 
					52.5,155.2 49.5,155.4 48.5,155.5 45.5,155.7 44.5,155.8 41.5,156.1 40.5,156.1 37.5,156.4 36.5,156.5 33.5,156.7 32.6,156.8 
					29.6,157 28.6,157.1 25.6,157.3 24.6,157.4 21.6,157.6 20.6,157.7 17.6,157.9 16.6,158 13.6,158.3 12.6,158.3 8.6,158.6 
					8.7,159.1 12.7,158.8 13.7,158.8 16.6,158.5 17.6,158.4 20.6,158.2 21.6,158.1 24.6,157.9 25.6,157.8 28.6,157.6 29.6,157.5 
					32.6,157.3 33.6,157.2 36.6,157 37.6,156.9 40.6,156.6 41.6,156.6 44.6,156.3 45.5,156.2 48.5,156 49.5,155.9 52.5,155.7 
					53.5,155.6 56.5,155.4 57.5,155.3 60.5,155.1 61.5,155 64.5,154.8 65.5,154.7 68.5,154.4 69.5,154.4 72.5,154.1 73.5,154.1 
					76.4,153.8 77.4,153.7 80.4,153.5 81.4,153.4 84.4,153.2 85.4,153.1 88.4,152.9 89.4,152.8 92.4,152.6 93.4,152.5 96.4,152.3 
					97.4,152.2 100.4,151.9 101.4,151.9 104.3,151.6 105.3,151.5 108.3,151.3 109.3,151.2 112.3,151 113.3,150.9 116.3,150.7 
					117.3,150.6 120.3,150.4 121.3,150.3 124.3,150.1 125.3,150 128.3,149.7 129.3,149.7 132.3,149.4 133.2,149.4 136.2,149.1 
					137.2,149 140.2,148.8 141.2,148.7 144.2,148.5 145.2,148.4 148.2,148.2 149.2,148.1 152.2,147.9 153.2,147.8 156.2,147.6 
					157.2,147.5 160.2,147.2 161.1,147.2 164.1,146.9 165.1,146.8 168.1,146.6 169.1,146.5 172.1,146.3 173.1,146.2 176.1,146 
					177.1,145.9 180.1,145.7 181.1,145.6 184.1,145.4 185.1,145.3 188.1,145 189.1,145 192,144.7 193,144.7 196,144.4 197,144.3 
					200,144.1 201,144 204,143.8 205,143.7 208,143.5 209,143.4 212,143.2 213,143.1 216,142.9 217,142.8 219.9,142.5 220.9,142.5 
					223.9,142.2 224.9,142.2 227.9,141.9 228.9,141.8 231.9,141.6 232.9,141.5 235.9,141.3 236.9,141.2 239.9,141 240.9,140.9 
					243.9,140.7 244.9,140.6 247.9,140.3 248.8,140.3 251.8,140 252.8,140 255.8,139.7 256.8,139.6 259.8,139.4 260.8,139.3 
					263.8,139.1 264.8,139 267.8,138.8 268.8,138.7 271.8,138.5 272.8,138.4 275.8,138.2 276.8,138.1 279.7,137.8 280.7,137.8 
					283.7,137.5 284.7,137.5 287.7,137.2 288.7,137.1 291.7,136.9 292.7,136.8 295.7,136.6 296.7,136.5 300.7,136.2 300.6,135.7 
					296.6,136 				"/>
				<polygon class="st2" points="297.4,158 294.4,158.3 293.4,158.3 290.4,158.6 289.4,158.7 286.4,158.9 285.4,159 282.4,159.2 
					281.4,159.3 278.4,159.5 277.4,159.6 274.5,159.8 273.5,159.9 270.5,160.1 269.5,160.2 266.5,160.5 265.5,160.5 262.5,160.8 
					261.5,160.8 258.5,161.1 257.5,161.2 254.5,161.4 253.5,161.5 250.5,161.7 249.5,161.8 246.5,162 245.6,162.1 242.6,162.3 
					241.6,162.4 238.6,162.6 237.6,162.7 234.6,163 233.6,163 230.6,163.3 229.6,163.4 226.6,163.6 225.6,163.7 222.6,163.9 
					221.6,164 218.6,164.2 217.6,164.3 214.7,164.5 213.7,164.6 210.7,164.8 209.7,164.9 206.7,165.2 205.7,165.2 202.7,165.5 
					201.7,165.5 198.7,165.8 197.7,165.9 194.7,166.1 193.7,166.2 190.7,166.4 189.7,166.5 186.8,166.7 185.8,166.8 182.8,167 
					181.8,167.1 178.8,167.3 177.8,167.4 174.8,167.7 173.8,167.7 170.8,168 169.8,168.1 166.8,168.3 165.8,168.4 162.8,168.6 
					161.8,168.7 158.8,168.9 157.9,169 154.9,169.2 153.9,169.3 150.9,169.5 149.9,169.6 146.9,169.9 145.9,169.9 142.9,170.2 
					141.9,170.2 138.9,170.5 137.9,170.6 134.9,170.8 133.9,170.9 130.9,171.1 129.9,171.2 127,171.4 126,171.5 123,171.7 
					122,171.8 119,172 118,172.1 115,172.4 114,172.4 111,172.7 110,172.8 107,173 106,173.1 103,173.3 102,173.4 99.1,173.6 
					98.1,173.7 95.1,173.9 94.1,174 91.1,174.2 90.1,174.3 87.1,174.6 86.1,174.6 83.1,174.9 82.1,174.9 79.1,175.2 78.1,175.3 
					75.1,175.5 74.1,175.6 71.1,175.8 70.2,175.9 67.2,176.1 66.2,176.2 63.2,176.4 62.2,176.5 59.2,176.7 58.2,176.8 55.2,177.1 
					54.2,177.1 51.2,177.4 50.2,177.5 47.2,177.7 46.2,177.8 43.2,178 42.2,178.1 39.3,178.3 38.3,178.4 35.3,178.6 34.3,178.7 
					31.3,178.9 30.3,179 27.3,179.3 26.3,179.3 23.3,179.6 22.3,179.6 19.3,179.9 18.3,180 15.3,180.2 14.3,180.3 10.4,180.6 
					10.4,181.1 14.4,180.8 15.4,180.7 18.4,180.5 19.4,180.4 22.4,180.1 23.4,180.1 26.3,179.8 27.3,179.7 30.3,179.5 31.3,179.4 
					34.3,179.2 35.3,179.1 38.3,178.9 39.3,178.8 42.3,178.6 43.3,178.5 46.3,178.3 47.3,178.2 50.3,177.9 51.3,177.9 54.2,177.6 
					55.2,177.6 58.2,177.3 59.2,177.2 62.2,177 63.2,176.9 66.2,176.7 67.2,176.6 70.2,176.4 71.2,176.3 74.2,176.1 75.2,176 
					78.2,175.8 79.2,175.7 82.2,175.4 83.1,175.4 86.1,175.1 87.1,175.1 90.1,174.8 91.1,174.7 94.1,174.5 95.1,174.4 98.1,174.2 
					99.1,174.1 102.1,173.9 103.1,173.8 106.1,173.6 107.1,173.5 110.1,173.2 111.1,173.2 114,172.9 115,172.9 118,172.6 119,172.5 
					122,172.3 123,172.2 126,172 127,171.9 130,171.7 131,171.6 134,171.4 135,171.3 138,171.1 139,171 141.9,170.7 142.9,170.7 
					145.9,170.4 146.9,170.4 149.9,170.1 150.9,170 153.9,169.8 154.9,169.7 157.9,169.5 158.9,169.4 161.9,169.2 162.9,169.1 
					165.9,168.9 166.9,168.8 169.9,168.6 170.8,168.5 173.8,168.2 174.8,168.2 177.8,167.9 178.8,167.8 181.8,167.6 182.8,167.5 
					185.8,167.3 186.8,167.2 189.8,167 190.8,166.9 193.8,166.7 194.8,166.6 197.8,166.4 198.8,166.3 201.7,166 202.7,166 
					205.7,165.7 206.7,165.7 209.7,165.4 210.7,165.3 213.7,165.1 214.7,165 217.7,164.8 218.7,164.7 221.7,164.5 222.7,164.4 
					225.7,164.2 226.7,164.1 229.6,163.9 230.6,163.8 233.6,163.5 234.6,163.5 237.6,163.2 238.6,163.1 241.6,162.9 242.6,162.8 
					245.6,162.6 246.6,162.5 249.6,162.3 250.6,162.2 253.6,162 254.6,161.9 257.6,161.7 258.5,161.6 261.5,161.3 262.5,161.3 
					265.5,161 266.5,161 269.5,160.7 270.5,160.6 273.5,160.4 274.5,160.3 277.5,160.1 278.5,160 281.5,159.8 282.5,159.7 
					285.5,159.5 286.4,159.4 289.4,159.2 290.4,159.1 293.4,158.8 294.4,158.8 297.4,158.5 298.4,158.4 302.4,158.1 302.4,157.6 
					298.4,158 				"/>
				<polygon class="st2" points="299.1,180 296.1,180.2 295.1,180.3 292.1,180.5 291.1,180.6 288.1,180.8 287.1,180.9 284.1,181.1 
					283.2,181.2 280.2,181.5 279.2,181.5 276.2,181.8 275.2,181.8 272.2,182.1 271.2,182.2 268.2,182.4 267.2,182.5 264.2,182.7 
					263.2,182.8 260.2,183 259.2,183.1 256.2,183.3 255.2,183.4 252.3,183.6 251.3,183.7 248.3,184 247.3,184 244.3,184.3 
					243.3,184.4 240.3,184.6 239.3,184.7 236.3,184.9 235.3,185 232.3,185.2 231.3,185.3 228.3,185.5 227.3,185.6 224.4,185.8 
					223.4,185.9 220.4,186.2 219.4,186.2 216.4,186.5 215.4,186.5 212.4,186.8 211.4,186.9 208.4,187.1 207.4,187.2 204.4,187.4 
					203.4,187.5 200.4,187.7 199.4,187.8 196.4,188 195.5,188.1 192.5,188.3 191.5,188.4 188.5,188.7 187.5,188.7 184.5,189 
					183.5,189 180.5,189.3 179.5,189.4 176.5,189.6 175.5,189.7 172.5,189.9 171.5,190 168.5,190.2 167.5,190.3 164.6,190.5 
					163.6,190.6 160.6,190.9 159.6,190.9 156.6,191.2 155.6,191.2 152.6,191.5 151.6,191.6 148.6,191.8 147.6,191.9 144.6,192.1 
					143.6,192.2 140.6,192.4 139.6,192.5 136.7,192.7 135.7,192.8 132.7,193 131.7,193.1 128.7,193.4 127.7,193.4 124.7,193.7 
					123.7,193.7 120.7,194 119.7,194.1 116.7,194.3 115.7,194.4 112.7,194.6 111.7,194.7 108.7,194.9 107.8,195 104.8,195.2 
					103.8,195.3 100.8,195.5 99.8,195.6 96.8,195.9 95.8,195.9 92.8,196.2 91.8,196.3 88.8,196.5 87.8,196.6 84.8,196.8 83.8,196.9 
					80.8,197.1 79.9,197.2 76.9,197.4 75.9,197.5 72.9,197.7 71.9,197.8 68.9,198.1 67.9,198.1 64.9,198.4 63.9,198.4 60.9,198.7 
					59.9,198.8 56.9,199 55.9,199.1 52.9,199.3 51.9,199.4 49,199.6 48,199.7 45,199.9 44,200 41,200.2 40,200.3 37,200.6 36,200.6 
					33,200.9 32,201 29,201.2 28,201.3 25,201.5 24,201.6 21.1,201.8 20.1,201.9 17.1,202.1 16.1,202.2 12.1,202.5 12.1,203 
					16.1,202.7 17.1,202.6 20.1,202.4 21.1,202.3 24.1,202.1 25.1,202 28.1,201.8 29.1,201.7 32.1,201.5 33,201.4 36,201.1 
					37,201.1 40,200.8 41,200.7 44,200.5 45,200.4 48,200.2 49,200.1 52,199.9 53,199.8 56,199.6 57,199.5 60,199.3 61,199.2 
					63.9,198.9 64.9,198.9 67.9,198.6 68.9,198.6 71.9,198.3 72.9,198.2 75.9,198 76.9,197.9 79.9,197.7 80.9,197.6 83.9,197.4 
					84.9,197.3 87.9,197.1 88.9,197 91.8,196.8 92.8,196.7 95.8,196.4 96.8,196.4 99.8,196.1 100.8,196 103.8,195.8 104.8,195.7 
					107.8,195.5 108.8,195.4 111.8,195.2 112.8,195.1 115.8,194.9 116.8,194.8 119.8,194.6 120.7,194.5 123.7,194.2 124.7,194.2 
					127.7,193.9 128.7,193.9 131.7,193.6 132.7,193.5 135.7,193.3 136.7,193.2 139.7,193 140.7,192.9 143.7,192.7 144.7,192.6 
					147.7,192.4 148.7,192.3 151.6,192.1 152.6,192 155.6,191.7 156.6,191.7 159.6,191.4 160.6,191.3 163.6,191.1 164.6,191 
					167.6,190.8 168.6,190.7 171.6,190.5 172.6,190.4 175.6,190.2 176.6,190.1 179.5,189.9 180.5,189.8 183.5,189.5 184.5,189.5 
					187.5,189.2 188.5,189.2 191.5,188.9 192.5,188.8 195.5,188.6 196.5,188.5 199.5,188.3 200.5,188.2 203.5,188 204.5,187.9 
					207.5,187.7 208.4,187.6 211.4,187.4 212.4,187.3 215.4,187 216.4,187 219.4,186.7 220.4,186.6 223.4,186.4 224.4,186.3 
					227.4,186.1 228.4,186 231.4,185.8 232.4,185.7 235.4,185.5 236.4,185.4 239.3,185.2 240.3,185.1 243.3,184.8 244.3,184.8 
					247.3,184.5 248.3,184.5 251.3,184.2 252.3,184.1 255.3,183.9 256.3,183.8 259.3,183.6 260.3,183.5 263.3,183.3 264.3,183.2 
					267.2,183 268.2,182.9 271.2,182.7 272.2,182.6 275.2,182.3 276.2,182.3 279.2,182 280.2,182 283.2,181.7 284.2,181.6 
					287.2,181.4 288.2,181.3 291.2,181.1 292.2,181 295.2,180.8 296.1,180.7 299.1,180.5 300.1,180.4 304.1,180.1 304.1,179.6 
					300.1,179.9 				"/>
				<polygon class="st2" points="300.8,201.9 297.8,202.1 296.8,202.2 293.8,202.4 292.8,202.5 289.9,202.8 288.9,202.8 
					285.9,203.1 284.9,203.2 281.9,203.4 280.9,203.5 277.9,203.7 276.9,203.8 273.9,204 272.9,204.1 269.9,204.3 268.9,204.4 
					265.9,204.6 264.9,204.7 262,205 261,205 258,205.3 257,205.3 254,205.6 253,205.7 250,205.9 249,206 246,206.2 245,206.3 
					242,206.5 241,206.6 238,206.8 237,206.9 234,207.1 233.1,207.2 230.1,207.5 229.1,207.5 226.1,207.8 225.1,207.9 222.1,208.1 
					221.1,208.2 218.1,208.4 217.1,208.5 214.1,208.7 213.1,208.8 210.1,209 209.1,209.1 206.1,209.3 205.2,209.4 202.2,209.7 
					201.2,209.7 198.2,210 197.2,210 194.2,210.3 193.2,210.4 190.2,210.6 189.2,210.7 186.2,210.9 185.2,211 182.2,211.2 
					181.2,211.3 178.2,211.5 177.2,211.6 174.3,211.8 173.3,211.9 170.3,212.2 169.3,212.2 166.3,212.5 165.3,212.6 162.3,212.8 
					161.3,212.9 158.3,213.1 157.3,213.2 154.3,213.4 153.3,213.5 150.3,213.7 149.3,213.8 146.4,214 145.4,214.1 142.4,214.4 
					141.4,214.4 138.4,214.7 137.4,214.7 134.4,215 133.4,215.1 130.4,215.3 129.4,215.4 126.4,215.6 125.4,215.7 122.4,215.9 
					121.4,216 118.4,216.2 117.5,216.3 114.5,216.5 113.5,216.6 110.5,216.9 109.5,216.9 106.5,217.2 105.5,217.2 102.5,217.5 
					101.5,217.6 98.5,217.8 97.5,217.9 94.5,218.1 93.5,218.2 90.5,218.4 89.5,218.5 86.6,218.7 85.6,218.8 82.6,219.1 81.6,219.1 
					78.6,219.4 77.6,219.4 74.6,219.7 73.6,219.8 70.6,220 69.6,220.1 66.6,220.3 65.6,220.4 62.6,220.6 61.6,220.7 58.7,220.9 
					57.7,221 54.7,221.2 53.7,221.3 50.7,221.6 49.7,221.6 46.7,221.9 45.7,221.9 42.7,222.2 41.7,222.3 38.7,222.5 37.7,222.6 
					34.7,222.8 33.7,222.9 30.7,223.1 29.8,223.2 26.8,223.4 25.8,223.5 22.8,223.7 21.8,223.8 18.8,224.1 17.8,224.1 13.8,224.5 
					13.8,225 17.8,224.6 18.8,224.6 21.8,224.3 22.8,224.2 25.8,224 26.8,223.9 29.8,223.7 30.8,223.6 33.8,223.4 34.8,223.3 
					37.8,223.1 38.8,223 41.7,222.8 42.7,222.7 45.7,222.4 46.7,222.4 49.7,222.1 50.7,222.1 53.7,221.8 54.7,221.7 57.7,221.5 
					58.7,221.4 61.7,221.2 62.7,221.1 65.7,220.9 66.7,220.8 69.7,220.6 70.6,220.5 73.6,220.3 74.6,220.2 77.6,219.9 78.6,219.9 
					81.6,219.6 82.6,219.5 85.6,219.3 86.6,219.2 89.6,219 90.6,218.9 93.6,218.7 94.6,218.6 97.6,218.4 98.6,218.3 101.5,218.1 
					102.5,218 105.5,217.7 106.5,217.7 109.5,217.4 110.5,217.4 113.5,217.1 114.5,217 117.5,216.8 118.5,216.7 121.5,216.5 
					122.5,216.4 125.5,216.2 126.5,216.1 129.4,215.9 130.4,215.8 133.4,215.6 134.4,215.5 137.4,215.2 138.4,215.2 141.4,214.9 
					142.4,214.8 145.4,214.6 146.4,214.5 149.4,214.3 150.4,214.2 153.4,214 154.4,213.9 157.4,213.7 158.3,213.6 161.3,213.4 
					162.3,213.3 165.3,213 166.3,213 169.3,212.7 170.3,212.7 173.3,212.4 174.3,212.3 177.3,212.1 178.3,212 181.3,211.8 
					182.3,211.7 185.3,211.5 186.3,211.4 189.2,211.2 190.2,211.1 193.2,210.9 194.2,210.8 197.2,210.5 198.2,210.5 201.2,210.2 
					202.2,210.2 205.2,209.9 206.2,209.8 209.2,209.6 210.2,209.5 213.2,209.3 214.2,209.2 217.1,209 218.1,208.9 221.1,208.7 
					222.1,208.6 225.1,208.3 226.1,208.3 229.1,208 230.1,208 233.1,207.7 234.1,207.6 237.1,207.4 238.1,207.3 241.1,207.1 
					242.1,207 245.1,206.8 246,206.7 249,206.5 250,206.4 253,206.2 254,206.1 257,205.8 258,205.8 261,205.5 262,205.5 265,205.2 
					266,205.1 269,204.9 270,204.8 273,204.6 274,204.5 276.9,204.3 277.9,204.2 280.9,204 281.9,203.9 284.9,203.7 285.9,203.6 
					288.9,203.3 289.9,203.3 292.9,203 293.9,202.9 296.9,202.7 297.9,202.6 300.9,202.4 301.9,202.3 305.8,202 305.8,201.5 
					301.8,201.8 				"/>
				<polygon class="st2" points="302.5,223.8 299.6,224.1 298.6,224.1 295.6,224.4 294.6,224.5 291.6,224.7 290.6,224.8 287.6,225 
					286.6,225.1 283.6,225.3 282.6,225.4 279.6,225.6 278.6,225.7 275.6,226 274.6,226 271.6,226.3 270.7,226.3 267.7,226.6 
					266.7,226.7 263.7,226.9 262.7,227 259.7,227.2 258.7,227.3 255.7,227.5 254.7,227.6 251.7,227.8 250.7,227.9 247.7,228.1 
					246.7,228.2 243.7,228.5 242.8,228.5 239.8,228.8 238.8,228.8 235.8,229.1 234.8,229.2 231.8,229.4 230.8,229.5 227.8,229.7 
					226.8,229.8 223.8,230 222.8,230.1 219.8,230.3 218.8,230.4 215.8,230.6 214.8,230.7 211.9,231 210.9,231 207.9,231.3 
					206.9,231.4 203.9,231.6 202.9,231.7 199.9,231.9 198.9,232 195.9,232.2 194.9,232.3 191.9,232.5 190.9,232.6 187.9,232.8 
					186.9,232.9 184,233.2 183,233.2 180,233.5 179,233.5 176,233.8 175,233.9 172,234.1 171,234.2 168,234.4 167,234.5 164,234.7 
					163,234.8 160,235 159,235.1 156,235.3 155.1,235.4 152.1,235.7 151.1,235.7 148.1,236 147.1,236.1 144.1,236.3 143.1,236.4 
					140.1,236.6 139.1,236.7 136.1,236.9 135.1,237 132.1,237.2 131.1,237.3 128.1,237.5 127.1,237.6 124.2,237.9 123.2,237.9 
					120.2,238.2 119.2,238.2 116.2,238.5 115.2,238.6 112.2,238.8 111.2,238.9 108.2,239.1 107.2,239.2 104.2,239.4 103.2,239.5 
					100.2,239.7 99.2,239.8 96.3,240 95.3,240.1 92.3,240.4 91.3,240.4 88.3,240.7 87.3,240.8 84.3,241 83.3,241.1 80.3,241.3 
					79.3,241.4 76.3,241.6 75.3,241.7 72.3,241.9 71.3,242 68.3,242.2 67.4,242.3 64.4,242.6 63.4,242.6 60.4,242.9 59.4,242.9 
					56.4,243.2 55.4,243.3 52.4,243.5 51.4,243.6 48.4,243.8 47.4,243.9 44.4,244.1 43.4,244.2 40.4,244.4 39.4,244.5 36.5,244.7 
					35.5,244.8 32.5,245.1 31.5,245.1 28.5,245.4 27.5,245.5 24.5,245.7 23.5,245.8 20.5,246 19.5,246.1 15.5,246.4 15.6,246.9 
					19.6,246.6 20.6,246.5 23.5,246.3 24.5,246.2 27.5,245.9 28.5,245.9 31.5,245.6 32.5,245.6 35.5,245.3 36.5,245.2 39.5,245 
					40.5,244.9 43.5,244.7 44.5,244.6 47.5,244.4 48.5,244.3 51.4,244.1 52.4,244 55.4,243.8 56.4,243.7 59.4,243.4 60.4,243.4 
					63.4,243.1 64.4,243.1 67.4,242.8 68.4,242.7 71.4,242.5 72.4,242.4 75.4,242.2 76.4,242.1 79.4,241.9 80.3,241.8 83.3,241.6 
					84.3,241.5 87.3,241.2 88.3,241.2 91.3,240.9 92.3,240.9 95.3,240.6 96.3,240.5 99.3,240.3 100.3,240.2 103.3,240 104.3,239.9 
					107.3,239.7 108.3,239.6 111.2,239.4 112.2,239.3 115.2,239.1 116.2,239 119.2,238.7 120.2,238.7 123.2,238.4 124.2,238.4 
					127.2,238.1 128.2,238 131.2,237.8 132.2,237.7 135.2,237.5 136.2,237.4 139.1,237.2 140.1,237.1 143.1,236.9 144.1,236.8 
					147.1,236.6 148.1,236.5 151.1,236.2 152.1,236.2 155.1,235.9 156.1,235.8 159.1,235.6 160.1,235.5 163.1,235.3 164.1,235.2 
					167,235 168,234.9 171,234.7 172,234.6 175,234.4 176,234.3 179,234 180,234 183,233.7 184,233.7 187,233.4 188,233.3 
					191,233.1 192,233 195,232.8 195.9,232.7 198.9,232.5 199.9,232.4 202.9,232.2 203.9,232.1 206.9,231.9 207.9,231.8 
					210.9,231.5 211.9,231.5 214.9,231.2 215.9,231.1 218.9,230.9 219.9,230.8 222.9,230.6 223.9,230.5 226.8,230.3 227.8,230.2 
					230.8,230 231.8,229.9 234.8,229.7 235.8,229.6 238.8,229.3 239.8,229.3 242.8,229 243.8,229 246.8,228.7 247.8,228.6 
					250.8,228.4 251.8,228.3 254.7,228.1 255.7,228 258.7,227.8 259.7,227.7 262.7,227.5 263.7,227.4 266.7,227.2 267.7,227.1 
					270.7,226.8 271.7,226.8 274.7,226.5 275.7,226.4 278.7,226.2 279.7,226.1 282.7,225.9 283.6,225.8 286.6,225.6 287.6,225.5 
					290.6,225.3 291.6,225.2 294.6,225 295.6,224.9 298.6,224.6 299.6,224.6 302.6,224.3 303.6,224.3 307.6,223.9 307.5,223.4 
					303.5,223.8 				"/>
				<polygon class="st2" points="304.3,245.8 301.3,246 300.3,246.1 297.3,246.3 296.3,246.4 293.3,246.6 292.3,246.7 289.3,246.9 
					288.3,247 285.3,247.3 284.3,247.3 281.3,247.6 280.4,247.7 277.4,247.9 276.4,248 273.4,248.2 272.4,248.3 269.4,248.5 
					268.4,248.6 265.4,248.8 264.4,248.9 261.4,249.1 260.4,249.2 257.4,249.5 256.4,249.5 253.4,249.8 252.4,249.8 249.5,250.1 
					248.5,250.2 245.5,250.4 244.5,250.5 241.5,250.7 240.5,250.8 237.5,251 236.5,251.1 233.5,251.3 232.5,251.4 229.5,251.6 
					228.5,251.7 225.5,252 224.5,252 221.6,252.3 220.6,252.4 217.6,252.6 216.6,252.7 213.6,252.9 212.6,253 209.6,253.2 
					208.6,253.3 205.6,253.5 204.6,253.6 201.6,253.8 200.6,253.9 197.6,254.2 196.6,254.2 193.6,254.5 192.7,254.5 189.7,254.8 
					188.7,254.9 185.7,255.1 184.7,255.2 181.7,255.4 180.7,255.5 177.7,255.7 176.7,255.8 173.7,256 172.7,256.1 169.7,256.3 
					168.7,256.4 165.7,256.7 164.7,256.7 161.8,257 160.8,257 157.8,257.3 156.8,257.4 153.8,257.6 152.8,257.7 149.8,257.9 
					148.8,258 145.8,258.2 144.8,258.3 141.8,258.5 140.8,258.6 137.8,258.9 136.8,258.9 133.9,259.2 132.9,259.2 129.9,259.5 
					128.9,259.6 125.9,259.8 124.9,259.9 121.9,260.1 120.9,260.2 117.9,260.4 116.9,260.5 113.9,260.7 112.9,260.8 109.9,261 
					108.9,261.1 105.9,261.4 105,261.4 102,261.7 101,261.7 98,262 97,262.1 94,262.3 93,262.4 90,262.6 89,262.7 86,262.9 85,263 
					82,263.2 81,263.3 78,263.5 77,263.6 74.1,263.9 73.1,263.9 70.1,264.2 69.1,264.3 66.1,264.5 65.1,264.6 62.1,264.8 
					61.1,264.9 58.1,265.1 57.1,265.2 54.1,265.4 53.1,265.5 50.1,265.7 49.1,265.8 46.2,266.1 45.2,266.1 42.2,266.4 41.2,266.4 
					38.2,266.7 37.2,266.8 34.2,267 33.2,267.1 30.2,267.3 29.2,267.4 26.2,267.6 25.2,267.7 22.2,267.9 21.2,268 17.3,268.3 
					17.3,268.8 21.3,268.5 22.3,268.4 25.3,268.2 26.3,268.1 29.3,267.9 30.2,267.8 33.2,267.6 34.2,267.5 37.2,267.3 38.2,267.2 
					41.2,266.9 42.2,266.9 45.2,266.6 46.2,266.6 49.2,266.3 50.2,266.2 53.2,266 54.2,265.9 57.2,265.7 58.2,265.6 61.1,265.4 
					62.1,265.3 65.1,265.1 66.1,265 69.1,264.8 70.1,264.7 73.1,264.4 74.1,264.4 77.1,264.1 78.1,264 81.1,263.8 82.1,263.7 
					85.1,263.5 86.1,263.4 89,263.2 90,263.1 93,262.9 94,262.8 97,262.6 98,262.5 101,262.2 102,262.2 105,261.9 106,261.9 
					109,261.6 110,261.5 113,261.3 114,261.2 117,261 117.9,260.9 120.9,260.7 121.9,260.6 124.9,260.4 125.9,260.3 128.9,260.1 
					129.9,260 132.9,259.7 133.9,259.7 136.9,259.4 137.9,259.3 140.9,259.1 141.9,259 144.9,258.8 145.9,258.7 148.8,258.5 
					149.8,258.4 152.8,258.2 153.8,258.1 156.8,257.9 157.8,257.8 160.8,257.5 161.8,257.5 164.8,257.2 165.8,257.2 168.8,256.9 
					169.8,256.8 172.8,256.6 173.8,256.5 176.7,256.3 177.7,256.2 180.7,256 181.7,255.9 184.7,255.7 185.7,255.6 188.7,255.4 
					189.7,255.3 192.7,255 193.7,255 196.7,254.7 197.7,254.6 200.7,254.4 201.7,254.3 204.6,254.1 205.6,254 208.6,253.8 
					209.6,253.7 212.6,253.5 213.6,253.4 216.6,253.2 217.6,253.1 220.6,252.8 221.6,252.8 224.6,252.5 225.6,252.5 228.6,252.2 
					229.6,252.1 232.6,251.9 233.5,251.8 236.5,251.6 237.5,251.5 240.5,251.3 241.5,251.2 244.5,251 245.5,250.9 248.5,250.7 
					249.5,250.6 252.5,250.3 253.5,250.3 256.5,250 257.5,249.9 260.5,249.7 261.5,249.6 264.4,249.4 265.4,249.3 268.4,249.1 
					269.4,249 272.4,248.8 273.4,248.7 276.4,248.5 277.4,248.4 280.4,248.1 281.4,248.1 284.4,247.8 285.4,247.8 288.4,247.5 
					289.4,247.4 292.3,247.2 293.3,247.1 296.3,246.9 297.3,246.8 300.3,246.6 301.3,246.5 304.3,246.3 305.3,246.2 309.3,245.9 
					309.3,245.4 305.3,245.7 				"/>
				<polygon class="st2" points="306,267.7 303,267.9 302,268 299,268.3 298,268.3 295,268.6 294,268.6 291,268.9 290,269 
					287.1,269.2 286.1,269.3 283.1,269.5 282.1,269.6 279.1,269.8 278.1,269.9 275.1,270.1 274.1,270.2 271.1,270.4 270.1,270.5 
					267.1,270.8 266.1,270.8 263.1,271.1 262.1,271.2 259.2,271.4 258.2,271.5 255.2,271.7 254.2,271.8 251.2,272 250.2,272.1 
					247.2,272.3 246.2,272.4 243.2,272.6 242.2,272.7 239.2,273 238.2,273 235.2,273.3 234.2,273.3 231.2,273.6 230.3,273.7 
					227.3,273.9 226.3,274 223.3,274.2 222.3,274.3 219.3,274.5 218.3,274.6 215.3,274.8 214.3,274.9 211.3,275.1 210.3,275.2 
					207.3,275.5 206.3,275.5 203.3,275.8 202.3,275.9 199.4,276.1 198.4,276.2 195.4,276.4 194.4,276.5 191.4,276.7 190.4,276.8 
					187.4,277 186.4,277.1 183.4,277.3 182.4,277.4 179.4,277.7 178.4,277.7 175.4,278 174.4,278 171.5,278.3 170.5,278.4 
					167.5,278.6 166.5,278.7 163.5,278.9 162.5,279 159.5,279.2 158.5,279.3 155.5,279.5 154.5,279.6 151.5,279.8 150.5,279.9 
					147.5,280.2 146.5,280.2 143.5,280.5 142.6,280.6 139.6,280.8 138.6,280.9 135.6,281.1 134.6,281.2 131.6,281.4 130.6,281.5 
					127.6,281.7 126.6,281.8 123.6,282 122.6,282.1 119.6,282.4 118.6,282.4 115.6,282.7 114.6,282.7 111.7,283 110.7,283.1 
					107.7,283.3 106.7,283.4 103.7,283.6 102.7,283.7 99.7,283.9 98.7,284 95.7,284.2 94.7,284.3 91.7,284.5 90.7,284.6 87.7,284.9 
					86.7,284.9 83.8,285.2 82.8,285.3 79.8,285.5 78.8,285.6 75.8,285.8 74.8,285.9 71.8,286.1 70.8,286.2 67.8,286.4 66.8,286.5 
					63.8,286.7 62.8,286.8 59.8,287.1 58.8,287.1 55.9,287.4 54.9,287.4 51.9,287.7 50.9,287.8 47.9,288 46.9,288.1 43.9,288.3 
					42.9,288.4 39.9,288.6 38.9,288.7 35.9,288.9 34.9,289 31.9,289.2 30.9,289.3 27.9,289.6 27,289.6 24,289.9 23,289.9 19,290.3 
					19,290.8 23,290.4 24,290.4 27,290.1 28,290.1 31,289.8 32,289.7 35,289.5 36,289.4 38.9,289.2 39.9,289.1 42.9,288.9 
					43.9,288.8 46.9,288.6 47.9,288.5 50.9,288.3 51.9,288.2 54.9,287.9 55.9,287.9 58.9,287.6 59.9,287.5 62.9,287.3 63.9,287.2 
					66.9,287 67.8,286.9 70.8,286.7 71.8,286.6 74.8,286.4 75.8,286.3 78.8,286.1 79.8,286 82.8,285.7 83.8,285.7 86.8,285.4 
					87.8,285.4 90.8,285.1 91.8,285 94.8,284.8 95.8,284.7 98.7,284.5 99.7,284.4 102.7,284.2 103.7,284.1 106.7,283.9 107.7,283.8 
					110.7,283.6 111.7,283.5 114.7,283.2 115.7,283.2 118.7,282.9 119.7,282.9 122.7,282.6 123.7,282.5 126.6,282.3 127.6,282.2 
					130.6,282 131.6,281.9 134.6,281.7 135.6,281.6 138.6,281.4 139.6,281.3 142.6,281 143.6,281 146.6,280.7 147.6,280.7 
					150.6,280.4 151.6,280.3 154.6,280.1 155.5,280 158.5,279.8 159.5,279.7 162.5,279.5 163.5,279.4 166.5,279.2 167.5,279.1 
					170.5,278.9 171.5,278.8 174.5,278.5 175.5,278.5 178.5,278.2 179.5,278.2 182.5,277.9 183.5,277.8 186.4,277.6 187.4,277.5 
					190.4,277.3 191.4,277.2 194.4,277 195.4,276.9 198.4,276.7 199.4,276.6 202.4,276.4 203.4,276.3 206.4,276 207.4,276 
					210.4,275.7 211.4,275.6 214.3,275.4 215.3,275.3 218.3,275.1 219.3,275 222.3,274.8 223.3,274.7 226.3,274.5 227.3,274.4 
					230.3,274.2 231.3,274.1 234.3,273.8 235.3,273.8 238.3,273.5 239.3,273.5 242.3,273.2 243.2,273.1 246.2,272.9 247.2,272.8 
					250.2,272.6 251.2,272.5 254.2,272.3 255.2,272.2 258.2,272 259.2,271.9 262.2,271.7 263.2,271.6 266.2,271.3 267.2,271.3 
					270.2,271 271.2,270.9 274.1,270.7 275.1,270.6 278.1,270.4 279.1,270.3 282.1,270.1 283.1,270 286.1,269.8 287.1,269.7 
					290.1,269.5 291.1,269.4 294.1,269.1 295.1,269.1 298.1,268.8 299.1,268.8 302,268.5 303,268.4 306,268.2 307,268.1 311,267.8 
					311,267.3 307,267.6 				"/>
				<polygon class="st2" points="307.7,289.6 304.7,289.9 303.7,290 300.7,290.2 299.7,290.3 296.8,290.5 295.8,290.6 292.8,290.8 
					291.8,290.9 288.8,291.1 287.8,291.2 284.8,291.4 283.8,291.5 280.8,291.8 279.8,291.8 276.8,292.1 275.8,292.1 272.8,292.4 
					271.8,292.5 268.8,292.7 267.9,292.8 264.9,293 263.9,293.1 260.9,293.3 259.9,293.4 256.9,293.6 255.9,293.7 252.9,294 
					251.9,294 248.9,294.3 247.9,294.3 244.9,294.6 243.9,294.7 240.9,294.9 239.9,295 237,295.2 236,295.3 233,295.5 232,295.6 
					229,295.8 228,295.9 225,296.1 224,296.2 221,296.5 220,296.5 217,296.8 216,296.8 213,297.1 212,297.2 209.1,297.4 
					208.1,297.5 205.1,297.7 204.1,297.8 201.1,298 200.1,298.1 197.1,298.3 196.1,298.4 193.1,298.6 192.1,298.7 189.1,299 
					188.1,299 185.1,299.3 184.1,299.4 181.1,299.6 180.2,299.7 177.2,299.9 176.2,300 173.2,300.2 172.2,300.3 169.2,300.5 
					168.2,300.6 165.2,300.8 164.2,300.9 161.2,301.2 160.2,301.2 157.2,301.5 156.2,301.5 153.2,301.8 152.2,301.9 149.3,302.1 
					148.3,302.2 145.3,302.4 144.3,302.5 141.3,302.7 140.3,302.8 137.3,303 136.3,303.1 133.3,303.3 132.3,303.4 129.3,303.7 
					128.3,303.7 125.3,304 124.3,304.1 121.4,304.3 120.4,304.4 117.4,304.6 116.4,304.7 113.4,304.9 112.4,305 109.4,305.2 
					108.4,305.3 105.4,305.5 104.4,305.6 101.4,305.9 100.4,305.9 97.4,306.2 96.4,306.2 93.5,306.5 92.5,306.6 89.5,306.8 
					88.5,306.9 85.5,307.1 84.5,307.2 81.5,307.4 80.5,307.5 77.5,307.7 76.5,307.8 73.5,308 72.5,308.1 69.5,308.4 68.5,308.4 
					65.5,308.7 64.6,308.8 61.6,309 60.6,309.1 57.6,309.3 56.6,309.4 53.6,309.6 52.6,309.7 49.6,309.9 48.6,310 45.6,310.2 
					44.6,310.3 41.6,310.6 40.6,310.6 37.6,310.9 36.6,310.9 33.7,311.2 32.7,311.3 29.7,311.5 28.7,311.6 25.7,311.8 24.7,311.9 
					20.7,312.2 20.7,312.7 24.7,312.4 25.7,312.3 28.7,312.1 29.7,312 32.7,311.8 33.7,311.7 36.7,311.4 37.7,311.4 40.7,311.1 
					41.7,311.1 44.7,310.8 45.7,310.7 48.6,310.5 49.6,310.4 52.6,310.2 53.6,310.1 56.6,309.9 57.6,309.8 60.6,309.6 61.6,309.5 
					64.6,309.2 65.6,309.2 68.6,308.9 69.6,308.9 72.6,308.6 73.6,308.5 76.5,308.3 77.5,308.2 80.5,308 81.5,307.9 84.5,307.7 
					85.5,307.6 88.5,307.4 89.5,307.3 92.5,307.1 93.5,307 96.5,306.7 97.5,306.7 100.5,306.4 101.5,306.4 104.5,306.1 105.4,306 
					108.4,305.8 109.4,305.7 112.4,305.5 113.4,305.4 116.4,305.2 117.4,305.1 120.4,304.9 121.4,304.8 124.4,304.6 125.4,304.5 
					128.4,304.2 129.4,304.2 132.4,303.9 133.4,303.8 136.3,303.6 137.3,303.5 140.3,303.3 141.3,303.2 144.3,303 145.3,302.9 
					148.3,302.7 149.3,302.6 152.3,302.4 153.3,302.3 156.3,302 157.3,302 160.3,301.7 161.3,301.7 164.2,301.4 165.2,301.3 
					168.2,301.1 169.2,301 172.2,300.8 173.2,300.7 176.2,300.5 177.2,300.4 180.2,300.2 181.2,300.1 184.2,299.9 185.2,299.8 
					188.2,299.5 189.2,299.5 192.2,299.2 193.1,299.1 196.1,298.9 197.1,298.8 200.1,298.6 201.1,298.5 204.1,298.3 205.1,298.2 
					208.1,298 209.1,297.9 212.1,297.7 213.1,297.6 216.1,297.3 217.1,297.3 220.1,297 221.1,297 224,296.7 225,296.6 228,296.4 
					229,296.3 232,296.1 233,296 236,295.8 237,295.7 240,295.5 241,295.4 244,295.2 245,295.1 248,294.8 249,294.8 251.9,294.5 
					252.9,294.4 255.9,294.2 256.9,294.1 259.9,293.9 260.9,293.8 263.9,293.6 264.9,293.5 267.9,293.3 268.9,293.2 271.9,293 
					272.9,292.9 275.9,292.6 276.9,292.6 279.9,292.3 280.8,292.3 283.8,292 284.8,291.9 287.8,291.7 288.8,291.6 291.8,291.4 
					292.8,291.3 295.8,291.1 296.8,291 299.8,290.8 300.8,290.7 303.8,290.5 304.8,290.4 307.8,290.1 308.8,290.1 312.7,289.7 
					312.7,289.3 308.7,289.6 				"/>
				<polygon class="st2" points="309.4,311.6 306.4,311.8 305.5,311.9 302.5,312.1 301.5,312.2 298.5,312.4 297.5,312.5 
					294.5,312.8 293.5,312.8 290.5,313.1 289.5,313.1 286.5,313.4 285.5,313.5 282.5,313.7 281.5,313.8 278.5,314 277.5,314.1 
					274.6,314.3 273.6,314.4 270.6,314.6 269.6,314.7 266.6,314.9 265.6,315 262.6,315.3 261.6,315.3 258.6,315.6 257.6,315.7 
					254.6,315.9 253.6,316 250.6,316.2 249.6,316.3 246.7,316.5 245.7,316.6 242.7,316.8 241.7,316.9 238.7,317.1 237.7,317.2 
					234.7,317.5 233.7,317.5 230.7,317.8 229.7,317.8 226.7,318.1 225.7,318.2 222.7,318.4 221.7,318.5 218.8,318.7 217.8,318.8 
					214.8,319 213.8,319.1 210.8,319.3 209.8,319.4 206.8,319.6 205.8,319.7 202.8,320 201.8,320 198.8,320.3 197.8,320.4 
					194.8,320.6 193.8,320.7 190.8,320.9 189.9,321 186.9,321.2 185.9,321.3 182.9,321.5 181.9,321.6 178.9,321.8 177.9,321.9 
					174.9,322.2 173.9,322.2 170.9,322.5 169.9,322.5 166.9,322.8 165.9,322.9 162.9,323.1 161.9,323.2 159,323.4 158,323.5 
					155,323.7 154,323.8 151,324 150,324.1 147,324.3 146,324.4 143,324.7 142,324.7 139,325 138,325 135,325.3 134,325.4 
					131.1,325.6 130.1,325.7 127.1,325.9 126.1,326 123.1,326.2 122.1,326.3 119.1,326.5 118.1,326.6 115.1,326.9 114.1,326.9 
					111.1,327.2 110.1,327.2 107.1,327.5 106.1,327.6 103.1,327.8 102.2,327.9 99.2,328.1 98.2,328.2 95.2,328.4 94.2,328.5 
					91.2,328.7 90.2,328.8 87.2,329 86.2,329.1 83.2,329.4 82.2,329.4 79.2,329.7 78.2,329.7 75.2,330 74.2,330.1 71.3,330.3 
					70.3,330.4 67.3,330.6 66.3,330.7 63.3,330.9 62.3,331 59.3,331.2 58.3,331.3 55.3,331.5 54.3,331.6 51.3,331.9 50.3,331.9 
					47.3,332.2 46.3,332.3 43.4,332.5 42.4,332.6 39.4,332.8 38.4,332.9 35.4,333.1 34.4,333.2 31.4,333.4 30.4,333.5 27.4,333.7 
					26.4,333.8 22.4,334.1 22.5,334.6 26.5,334.3 27.4,334.2 30.4,334 31.4,333.9 34.4,333.7 35.4,333.6 38.4,333.4 39.4,333.3 
					42.4,333.1 43.4,333 46.4,332.8 47.4,332.7 50.4,332.4 51.4,332.4 54.4,332.1 55.4,332 58.3,331.8 59.3,331.7 62.3,331.5 
					63.3,331.4 66.3,331.2 67.3,331.1 70.3,330.9 71.3,330.8 74.3,330.6 75.3,330.5 78.3,330.2 79.3,330.2 82.3,329.9 83.3,329.9 
					86.2,329.6 87.2,329.5 90.2,329.3 91.2,329.2 94.2,329 95.2,328.9 98.2,328.7 99.2,328.6 102.2,328.4 103.2,328.3 106.2,328.1 
					107.2,328 110.2,327.7 111.2,327.7 114.1,327.4 115.1,327.3 118.1,327.1 119.1,327 122.1,326.8 123.1,326.7 126.1,326.5 
					127.1,326.4 130.1,326.2 131.1,326.1 134.1,325.9 135.1,325.8 138.1,325.5 139.1,325.5 142.1,325.2 143,325.2 146,324.9 
					147,324.8 150,324.6 151,324.5 154,324.3 155,324.2 158,324 159,323.9 162,323.7 163,323.6 166,323.4 167,323.3 170,323 
					171,323 173.9,322.7 174.9,322.6 177.9,322.4 178.9,322.3 181.9,322.1 182.9,322 185.9,321.8 186.9,321.7 189.9,321.5 
					190.9,321.4 193.9,321.2 194.9,321.1 197.9,320.8 198.9,320.8 201.8,320.5 202.8,320.5 205.8,320.2 206.8,320.1 209.8,319.9 
					210.8,319.8 213.8,319.6 214.8,319.5 217.8,319.3 218.8,319.2 221.8,319 222.8,318.9 225.8,318.7 226.8,318.6 229.8,318.3 
					230.7,318.3 233.7,318 234.7,318 237.7,317.7 238.7,317.6 241.7,317.4 242.7,317.3 245.7,317.1 246.7,317 249.7,316.8 
					250.7,316.7 253.7,316.5 254.7,316.4 257.7,316.1 258.7,316.1 261.6,315.8 262.6,315.8 265.6,315.5 266.6,315.4 269.6,315.2 
					270.6,315.1 273.6,314.9 274.6,314.8 277.6,314.6 278.6,314.5 281.6,314.3 282.6,314.2 285.6,314 286.6,313.9 289.5,313.6 
					290.5,313.6 293.5,313.3 294.5,313.3 297.5,313 298.5,312.9 301.5,312.7 302.5,312.6 305.5,312.4 306.5,312.3 309.5,312.1 
					310.5,312 314.5,311.7 314.4,311.2 310.4,311.5 				"/>
			</g>
			
				<rect x="62.9" y="44.2" transform="matrix(0.9969 -7.834177e-02 7.834177e-02 0.9969 -14.7445 5.544)" class="st3" width="0.7" height="292.9"/>
		</g>
		<g>
			<path class="st4" d="M28.9,78c3.1-0.6,6.1-1.7,9-3.1c3.6-1.8,6.9-4.2,10.8-4.9L32.8,16.5c-1.4,0.6-3.4,1-4.7,1.4
				c-3.8,1.3-7.7,2.6-11.5,3.7C12.4,23,8.2,24.2,4,25.4l16.5,55.5c1.2-0.6,2.4-1.3,3.7-1.8C25.7,78.5,27.3,78.3,28.9,78z"/>
		</g>
		<path class="st5" d="M250.3,0l-5.8,57.6c4.2,0.1,8.5,0.4,12.6,1c1.7,0.3,3.5,0.6,5.3,0.3c0.7-0.1,1.4-0.3,2-0.2
			c0.5,0.1,1,0.4,1.5,0.6c0.7,0.3,1.5,0.3,2.3,0.3c1.8,0.2,4.6-0.6,6.4,0.1l5.9-59.3C274.7,0,268.9-0.1,263,0.2
			C258.8,0.5,254.4,0.8,250.3,0z"/>
	</g>
</g>
</svg>
