<?xml version="1.0" encoding="utf-8"?>
<!-- Generator: Adobe Illustrator 26.3.1, SVG Export Plug-In . SVG Version: 6.00 Build 0)  -->
<svg version="1.1" xmlns="http://www.w3.org/2000/svg" xmlns:xlink="http://www.w3.org/1999/xlink" x="0px" y="0px"
	 viewBox="0 0 329.2 331.8" style="enable-background:new 0 0 329.2 331.8;" xml:space="preserve">
<style type="text/css">
	.st0{fill:#CFD0D2;}
	.st1{fill:#C69F7D;}
	.st2{opacity:0.8;fill:#E1E1CD;}
</style>
<g id="BG">
</g>
<g id="Objects">
	<g>
		<path class="st0" d="M296.5,8.1L5.5,40.8l32.7,291.1l291.1-32.7L296.5,8.1z M21.1,59.6c-0.4-3.8,2.3-7.3,6.2-7.7s7.3,2.3,7.7,6.2
			c0.4,3.8-2.3,7.3-6.2,7.7C25,66.3,21.6,63.5,21.1,59.6z M24.7,91.3c-0.4-3.8,2.3-7.3,6.2-7.7c3.8-0.4,7.3,2.3,7.7,6.2
			c0.4,3.8-2.3,7.3-6.2,7.7C28.6,97.9,25.1,95.2,24.7,91.3z M28.3,123c-0.4-3.8,2.3-7.3,6.2-7.7c3.8-0.4,7.3,2.3,7.7,6.2
			c0.4,3.8-2.3,7.3-6.2,7.7C32.2,129.6,28.7,126.8,28.3,123z M31.8,154.7c-0.4-3.8,2.3-7.3,6.2-7.7c3.8-0.4,7.3,2.3,7.7,6.2
			c0.4,3.8-2.3,7.3-6.2,7.7C35.7,161.3,32.2,158.5,31.8,154.7z M35.4,186.3c-0.4-3.8,2.3-7.3,6.2-7.7c3.8-0.4,7.3,2.3,7.7,6.2
			c0.4,3.8-2.3,7.3-6.2,7.7C39.3,193,35.8,190.2,35.4,186.3z M38.9,218c-0.4-3.8,2.3-7.3,6.2-7.7c3.8-0.4,7.3,2.3,7.7,6.2
			c0.4,3.8-2.3,7.3-6.2,7.7C42.8,224.6,39.4,221.9,38.9,218z M42.5,249.7c-0.4-3.8,2.3-7.3,6.2-7.7c3.8-0.4,7.3,2.3,7.7,6.2
			c0.4,3.8-2.3,7.3-6.2,7.7C46.4,256.3,42.9,253.5,42.5,249.7z M46,281.4c-0.4-3.8,2.3-7.3,6.2-7.7c3.8-0.4,7.3,2.3,7.7,6.2
			c0.4,3.8-2.3,7.3-6.2,7.7C49.9,288,46.5,285.2,46,281.4z M57.3,319.2c-3.8,0.4-7.3-2.3-7.7-6.2c-0.4-3.8,2.3-7.3,6.2-7.7
			c3.8-0.4,7.3,2.3,7.7,6.2C64,315.3,61.2,318.8,57.3,319.2z"/>
		<path class="st1" d="M291.1,3.6L0,36.3l32.7,291.1l291.1-32.7L291.1,3.6z M15.7,55.2c-0.4-3.8,2.3-7.3,6.2-7.7
			c3.8-0.4,7.3,2.3,7.7,6.2c0.4,3.8-2.3,7.3-6.2,7.7C19.6,61.8,16.1,59,15.7,55.2z M19.2,86.8c-0.4-3.8,2.3-7.3,6.2-7.7
			c3.8-0.4,7.3,2.3,7.7,6.2c0.4,3.8-2.3,7.3-6.2,7.7C23.1,93.5,19.7,90.7,19.2,86.8z M22.8,118.5c-0.4-3.8,2.3-7.3,6.2-7.7
			c3.8-0.4,7.3,2.3,7.7,6.2c0.4,3.8-2.3,7.3-6.2,7.7C26.7,125.1,23.2,122.4,22.8,118.5z M26.3,150.2c-0.4-3.8,2.3-7.3,6.2-7.7
			c3.8-0.4,7.3,2.3,7.7,6.2c0.4,3.8-2.3,7.3-6.2,7.7C30.2,156.8,26.8,154,26.3,150.2z M29.9,181.9c-0.4-3.8,2.3-7.3,6.2-7.7
			c3.8-0.4,7.3,2.3,7.7,6.2c0.4,3.8-2.3,7.3-6.2,7.7C33.8,188.5,30.3,185.7,29.9,181.9z M33.5,213.5c-0.4-3.8,2.3-7.3,6.2-7.7
			c3.8-0.4,7.3,2.3,7.7,6.2c0.4,3.8-2.3,7.3-6.2,7.7C37.4,220.2,33.9,217.4,33.5,213.5z M37,245.2c-0.4-3.8,2.3-7.3,6.2-7.7
			c3.8-0.4,7.3,2.3,7.7,6.2c0.4,3.8-2.3,7.3-6.2,7.7C40.9,251.8,37.4,249.1,37,245.2z M40.6,276.9c-0.4-3.8,2.3-7.3,6.2-7.7
			s7.3,2.3,7.7,6.2c0.4,3.8-2.3,7.3-6.2,7.7C44.5,283.5,41,280.7,40.6,276.9z M51.9,314.7c-3.8,0.4-7.3-2.3-7.7-6.2
			c-0.4-3.8,2.3-7.3,6.2-7.7c3.8-0.4,7.3,2.3,7.7,6.2C58.5,310.8,55.7,314.3,51.9,314.7z"/>
		<g>
			<path class="st2" d="M33.2,26.6c0.9,3.9,1.8,7.9,2.5,11.8c0.8,4.3,1.6,8.6,2.4,12.9l115.6-21.9c-1.1-4.1-2-8.2-2.6-12.4
				c-0.2-1.7-0.4-3.5-1.2-5.1c-0.3-0.6-0.7-1.2-0.8-1.9c0-0.5,0.1-1,0.1-1.6c0.1-0.8-0.2-1.6-0.4-2.3c-0.3-1.8-1.9-4.3-1.7-6.1
				l-115,21.8C32.7,23.3,32.9,25.2,33.2,26.6z"/>
		</g>
	</g>
</g>
</svg>
