<?xml version="1.0" encoding="utf-8"?>
<!-- Generator: Adobe Illustrator 26.3.1, SVG Export Plug-In . SVG Version: 6.00 Build 0)  -->
<svg version="1.1" xmlns="http://www.w3.org/2000/svg" xmlns:xlink="http://www.w3.org/1999/xlink" x="0px" y="0px"
	 viewBox="0 0 353.6 325.2" style="enable-background:new 0 0 353.6 325.2;" xml:space="preserve">
<style type="text/css">
	.st0{fill:#CFD0D2;}
	.st1{fill:#D7A56D;}
	.st2{fill:#DCB798;}
	.st3{opacity:0.8;fill:#ECC346;}
	.st4{opacity:0.8;}
	.st5{fill:#ECC346;}
</style>
<g id="BG">
</g>
<g id="Objects">
	<g>
		<g>
			
				<rect x="28.6" y="28.7" transform="matrix(0.9997 2.535823e-02 -2.535823e-02 0.9997 4.497 -4.3837)" class="st0" width="292.9" height="292.9"/>
		</g>
		<g>
			<g>
				
					<rect x="24" y="24" transform="matrix(0.9997 2.535823e-02 -2.535823e-02 0.9997 4.378 -4.2677)" class="st1" width="292.9" height="292.9"/>
			</g>
			<g>
				
					<rect x="172.6" y="-48.3" transform="matrix(2.535843e-02 -0.9997 0.9997 2.535843e-02 85.7389 253.1305)" class="st2" width="0.3" height="261.9"/>
			</g>
			<g>
				
					<rect x="172" y="-25.5" transform="matrix(2.535804e-02 -0.9997 0.9997 2.535804e-02 62.3478 274.8064)" class="st2" width="0.2" height="261.9"/>
			</g>
			<g>
				
					<rect x="171.4" y="-2.7" transform="matrix(2.535804e-02 -0.9997 0.9997 2.535804e-02 38.9572 296.4819)" class="st2" width="0.2" height="261.9"/>
			</g>
			<g>
				
					<rect x="170.8" y="20.2" transform="matrix(2.535842e-02 -0.9997 0.9997 2.535842e-02 15.5665 318.1572)" class="st2" width="0.3" height="261.9"/>
			</g>
			<g>
				
					<rect x="170.2" y="43" transform="matrix(2.535804e-02 -0.9997 0.9997 2.535804e-02 -7.8241 339.8327)" class="st2" width="0.2" height="261.9"/>
			</g>
			<g>
				
					<rect x="169.7" y="65.8" transform="matrix(2.535804e-02 -0.9997 0.9997 2.535804e-02 -31.2147 361.5082)" class="st2" width="0.2" height="261.9"/>
			</g>
			<g>
				
					<rect x="169.1" y="88.7" transform="matrix(2.535804e-02 -0.9997 0.9997 2.535804e-02 -54.6054 383.1837)" class="st2" width="0.2" height="261.9"/>
			</g>
			<g>
				
					<rect x="168.5" y="111.5" transform="matrix(2.535842e-02 -0.9997 0.9997 2.535842e-02 -77.9966 404.8595)" class="st2" width="0.3" height="261.9"/>
			</g>
			<g>
				
					<rect x="167.9" y="134.3" transform="matrix(2.535804e-02 -0.9997 0.9997 2.535804e-02 -101.3872 426.535)" class="st2" width="0.2" height="261.9"/>
			</g>
			<g>
				
					<rect x="167.3" y="157.2" transform="matrix(2.535804e-02 -0.9997 0.9997 2.535804e-02 -124.7778 448.2105)" class="st2" width="0.2" height="261.9"/>
			</g>
		</g>
		<g>
			<path class="st3" d="M82.4,11.3c-2.5-2.8-5.3-5.1-7.8-7.8c-0.9-1-2.2-2.2-2.9-3.5L0,63.9c2.5,1.4,5.1,5.2,6.6,6.8
				C11.3,75.7,16,80.8,20.5,86L92,22.4C88.3,19.3,85.7,15,82.4,11.3z"/>
		</g>
		<g class="st4">
			<path class="st5" d="M349.8,48.1c1-3.6,1.5-7.2,2.4-10.8c0.3-1.3,0.7-3,1.4-4.3L261.2,6.7c0.1,2.9-1.6,7-2.2,9.2
				c-1.7,6.7-3.5,13.4-5.5,20L345.6,62C346.2,57.3,348.5,52.8,349.8,48.1z"/>
		</g>
	</g>
</g>
</svg>
