<?xml version="1.0" encoding="utf-8"?>
<!-- Generator: Adobe Illustrator 26.3.1, SVG Export Plug-In . SVG Version: 6.00 Build 0)  -->
<svg version="1.1" xmlns="http://www.w3.org/2000/svg" xmlns:xlink="http://www.w3.org/1999/xlink" x="0px" y="0px"
	 viewBox="0 0 327.5 339.2" style="enable-background:new 0 0 327.5 339.2;" xml:space="preserve">
<style type="text/css">
	.st0{fill:#CFD0D2;}
	.st1{fill:#ECCBAE;}
	.st2{fill:#A5A4A4;}
	.st3{opacity:0.8;fill:#ECB967;}
</style>
<g id="BG">
</g>
<g id="Objects">
	<g>
		<path class="st0" d="M35.2,28.8l-18,292.3l292.3,18l18-292.3L35.2,28.8z M59.3,51.9c-0.1,1.7-1.6,3-3.3,2.9l-10-0.6
			c-1.7-0.1-3-1.6-2.9-3.3l0.6-10c0.1-1.7,1.6-3,3.3-2.9l10,0.6c1.7,0.1,3,1.6,2.9,3.3L59.3,51.9z M87.9,53.7
			c-0.1,1.7-1.6,3-3.3,2.9l-10-0.6c-1.7-0.1-3-1.6-2.9-3.3l0.6-10c0.1-1.7,1.6-3,3.3-2.9l10,0.6c1.7,0.1,3,1.6,2.9,3.3L87.9,53.7z
			 M116.5,55.4c-0.1,1.7-1.6,3-3.3,2.9l-10-0.6c-1.7-0.1-3-1.6-2.9-3.3l0.6-10c0.1-1.7,1.6-3,3.3-2.9l10,0.6c1.7,0.1,3,1.6,2.9,3.3
			L116.5,55.4z M145.2,57.2c-0.1,1.7-1.6,3-3.3,2.9l-10-0.6c-1.7-0.1-3-1.6-2.9-3.3l0.6-10c0.1-1.7,1.6-3,3.3-2.9l10,0.6
			c1.7,0.1,3,1.6,2.9,3.3L145.2,57.2z M173.8,58.9c-0.1,1.7-1.6,3-3.3,2.9l-10-0.6c-1.7-0.1-3-1.6-2.9-3.3l0.6-10
			c0.1-1.7,1.6-3,3.3-2.9l10,0.6c1.7,0.1,3,1.6,2.9,3.3L173.8,58.9z M202.4,60.7c-0.1,1.7-1.6,3-3.3,2.9l-10-0.6
			c-1.7-0.1-3-1.6-2.9-3.3l0.6-10c0.1-1.7,1.6-3,3.3-2.9l10,0.6c1.7,0.1,3,1.6,2.9,3.3L202.4,60.7z M231.1,62.5
			c-0.1,1.7-1.6,3-3.3,2.9l-10-0.6c-1.7-0.1-3-1.6-2.9-3.3l0.6-10c0.1-1.7,1.6-3,3.3-2.9l10,0.6c1.7,0.1,3,1.6,2.9,3.3L231.1,62.5z
			 M259.7,64.2c-0.1,1.7-1.6,3-3.3,2.9l-10-0.6c-1.7-0.1-3-1.6-2.9-3.3l0.6-10c0.1-1.7,1.6-3,3.3-2.9l10,0.6c1.7,0.1,3,1.6,2.9,3.3
			L259.7,64.2z M288.3,66c-0.1,1.7-1.6,3-3.3,2.9l-10-0.6c-1.7-0.1-3-1.6-2.9-3.3l0.6-10c0.1-1.7,1.6-3,3.3-2.9l10,0.6
			c1.7,0.1,3,1.6,2.9,3.3L288.3,66z M317,67.7c-0.1,1.7-1.6,3-3.3,2.9l-10-0.6c-1.7-0.1-3-1.6-2.9-3.3l0.6-10c0.1-1.7,1.6-3,3.3-2.9
			l10,0.6c1.7,0.1,3,1.6,2.9,3.3L317,67.7z"/>
		<path class="st1" d="M30.2,23.8l-18,292.3l292.3,18l18-292.3L30.2,23.8z M54.3,46.9c-0.1,1.7-1.6,3-3.3,2.9l-10-0.6
			c-1.7-0.1-3-1.6-2.9-3.3l0.6-10c0.1-1.7,1.6-3,3.3-2.9l10,0.6c1.7,0.1,3,1.6,2.9,3.3L54.3,46.9z M82.9,48.7
			c-0.1,1.7-1.6,3-3.3,2.9l-10-0.6c-1.7-0.1-3-1.6-2.9-3.3l0.6-10c0.1-1.7,1.6-3,3.3-2.9l10,0.6c1.7,0.1,3,1.6,2.9,3.3L82.9,48.7z
			 M111.5,50.4c-0.1,1.7-1.6,3-3.3,2.9l-10-0.6c-1.7-0.1-3-1.6-2.9-3.3l0.6-10c0.1-1.7,1.6-3,3.3-2.9l10,0.6c1.7,0.1,3,1.6,2.9,3.3
			L111.5,50.4z M140.2,52.2c-0.1,1.7-1.6,3-3.3,2.9l-10-0.6c-1.7-0.1-3-1.6-2.9-3.3l0.6-10c0.1-1.7,1.6-3,3.3-2.9l10,0.6
			c1.7,0.1,3,1.6,2.9,3.3L140.2,52.2z M168.8,53.9c-0.1,1.7-1.6,3-3.3,2.9l-10-0.6c-1.7-0.1-3-1.6-2.9-3.3l0.6-10
			c0.1-1.7,1.6-3,3.3-2.9l10,0.6c1.7,0.1,3,1.6,2.9,3.3L168.8,53.9z M197.4,55.7c-0.1,1.7-1.6,3-3.3,2.9l-10-0.6
			c-1.7-0.1-3-1.6-2.9-3.3l0.6-10c0.1-1.7,1.6-3,3.3-2.9l10,0.6c1.7,0.1,3,1.6,2.9,3.3L197.4,55.7z M226.1,57.5
			c-0.1,1.7-1.6,3-3.3,2.9l-10-0.6c-1.7-0.1-3-1.6-2.9-3.3l0.6-10c0.1-1.7,1.6-3,3.3-2.9l10,0.6c1.7,0.1,3,1.6,2.9,3.3L226.1,57.5z
			 M254.7,59.2c-0.1,1.7-1.6,3-3.3,2.9l-10-0.6c-1.7-0.1-3-1.6-2.9-3.3l0.6-10c0.1-1.7,1.6-3,3.3-2.9l10,0.6c1.7,0.1,3,1.6,2.9,3.3
			L254.7,59.2z M283.3,61c-0.1,1.7-1.6,3-3.3,2.9l-10-0.6c-1.7-0.1-3-1.6-2.9-3.3l0.6-10c0.1-1.7,1.6-3,3.3-2.9l10,0.6
			c1.7,0.1,3,1.6,2.9,3.3L283.3,61z M312,62.7c-0.1,1.7-1.6,3-3.3,2.9l-10-0.6c-1.7-0.1-3-1.6-2.9-3.3l0.6-10c0.1-1.7,1.6-3,3.3-2.9
			l10,0.6c1.7,0.1,3,1.6,2.9,3.3L312,62.7z"/>
		<g>
			<polygon class="st2" points="42.7,94.9 45.3,95.1 45.3,95.1 47.4,95.2 47.4,95.2 50.1,95.4 50.1,95.4 53.3,95.6 53.3,95.6 
				55.9,95.7 55.9,95.7 58,95.9 58,95.9 60.7,96 60.7,96 63.3,96.2 63.3,96.2 66.5,96.4 66.5,96.4 68.6,96.5 68.6,96.5 71.4,96.7 
				73.9,96.9 73.9,96.9 77.1,97 77.1,97 79.7,97.2 79.7,97.2 81.8,97.3 81.8,97.3 84.5,97.5 84.5,97.5 87.6,97.7 87.6,97.7 
				89.8,97.8 89.8,97.8 92.4,98 92.4,98 95.1,98.2 95.1,98.2 98.2,98.4 98.2,98.4 100.4,98.5 100.4,98.5 103.5,98.7 103.5,98.7 
				105.6,98.8 105.6,98.8 108.8,99 108.8,99 110.9,99.1 110.9,99.1 113.6,99.3 113.6,99.3 116.2,99.5 116.2,99.5 119.4,99.7 
				119.4,99.7 121.5,99.8 121.5,99.8 124.2,99.9 124.2,99.9 127.3,100.1 127.3,100.1 129.4,100.3 129.4,100.3 132.1,100.4 
				132.1,100.4 134.7,100.6 134.7,100.6 137.9,100.8 137.9,100.8 140,100.9 140,100.9 142.7,101.1 142.7,101.1 145.3,101.2 
				145.3,101.2 145.6,101.3 145.8,101.3 145.8,101.3 148.5,101.4 148.5,101.4 150.6,101.6 150.6,101.6 153.8,101.8 153.8,101.8 
				155.9,101.9 155.9,101.9 159.1,102.1 159.1,102.1 161.2,102.2 161.2,102.2 164.3,102.4 164.3,102.4 166.5,102.5 166.5,102.5 
				169.6,102.7 169.6,102.7 171.8,102.9 171.8,102.9 174.4,103 174.4,103 177.1,103.2 177.1,103.2 180.2,103.4 180.2,103.4 
				182.4,103.5 182.4,103.5 185,103.7 185,103.7 187.6,103.8 187.6,103.8 190.8,104 190.8,104 192.9,104.2 192.9,104.2 195.6,104.3 
				195.6,104.3 198.2,104.5 198.2,104.5 201.4,104.7 201.4,104.7 204,104.9 204,104.9 206.2,105 206.2,105 209.3,105.2 209.3,105.2 
				211.4,105.3 211.4,105.3 214.6,105.5 214.6,105.5 216.7,105.6 216.7,105.6 219.9,105.8 219.9,105.8 222,106 222,106 224.7,106.1 
				224.7,106.1 227.8,106.3 227.8,106.3 230.5,106.5 230.5,106.5 232.6,106.6 232.6,106.6 235.3,106.8 235.3,106.8 237.9,106.9 
				237.9,106.9 241.1,107.1 241.1,107.1 243.2,107.3 243.2,107.3 245.8,107.4 245.8,107.4 248.5,107.6 248.5,107.6 251.6,107.8 
				251.6,107.8 254.3,107.9 254.3,107.9 256.4,108.1 256.4,108.1 259.1,108.2 259.1,108.2 262.2,108.4 262.2,108.4 264.9,108.6 
				264.9,108.6 267,108.7 267,108.7 269.6,108.9 269.6,108.9 272.8,109.1 272.8,109.1 274.9,109.2 274.9,109.2 277.6,109.4 
				277.6,109.4 280.2,109.5 280.2,109.5 283.4,109.7 283.4,109.7 285.5,109.9 285.5,109.9 288.2,110 288.2,110 291.3,110.2 
				291.3,110.2 293.4,110.4 293.4,110.4 296.1,110.5 296.1,110.5 298.7,110.7 298.7,110.7 301.9,110.9 301.9,110.9 304.5,111 
				304.6,110.4 301.4,110.2 301.4,110.2 298.8,110 298.8,110 296.6,109.9 296.6,109.9 294,109.7 294,109.7 290.8,109.5 290.8,109.5 
				288.7,109.4 288.7,109.4 286.1,109.3 286.1,109.3 282.9,109.1 282.9,109.1 280.8,108.9 280.8,108.9 278.1,108.8 278.1,108.8 
				275,108.6 275,108.6 272.3,108.4 272.3,108.4 270.2,108.3 270.2,108.3 267.5,108.1 267.5,108.1 264.9,107.9 264.9,107.9 
				261.7,107.8 261.7,107.8 259.6,107.6 259.6,107.6 257,107.5 257,107.5 254.3,107.3 254.3,107.3 251.2,107.1 251.2,107.1 
				248.5,106.9 248.5,106.9 246.4,106.8 246.4,106.8 243.7,106.6 243.7,106.6 240.6,106.5 240.6,106.5 238.5,106.3 238.5,106.3 
				238.1,106.3 237.9,106.3 237.9,106.3 235.8,106.2 235.8,106.2 233.2,106 233.2,106 230,105.8 230,105.8 227.9,105.7 227.9,105.7 
				225.2,105.5 225.2,105.5 222.6,105.3 222.6,105.3 219.4,105.2 219.4,105.2 217.3,105 217.3,105 214.6,104.9 214.6,104.9 
				212,104.7 212,104.7 208.8,104.5 208.8,104.5 206.7,104.4 206.7,104.4 204.1,104.2 204.1,104.2 200.9,104 200.9,104 198.3,103.9 
				198.3,103.9 196.1,103.7 196.1,103.7 193,103.5 193,103.5 190.3,103.4 190.3,103.4 187.7,103.2 187.7,103.2 185.5,103.1 
				185.5,103.1 182.9,102.9 182.9,102.9 179.7,102.7 179.7,102.7 177.6,102.6 177.6,102.6 175,102.4 175,102.4 172.3,102.3 
				172.3,102.3 169.2,102.1 169.2,102.1 167,101.9 167,101.9 163.9,101.7 163.9,101.7 161.7,101.6 161.7,101.6 158.6,101.4 
				158.6,101.4 156.5,101.3 156.5,101.3 156.1,101.3 155.9,101.2 155.9,101.2 153.8,101.1 153.8,101.1 151.2,101 151.2,101 
				148,100.8 148,100.8 145.9,100.6 145.9,100.6 143.2,100.5 143.2,100.5 140.6,100.3 140.6,100.3 137.4,100.1 137.4,100.1 
				135.3,100 135.3,100 132.6,99.8 132.6,99.8 130,99.7 130,99.7 127.4,99.5 127.4,99.5 124.7,99.3 124.7,99.3 122.1,99.2 
				122.1,99.2 118.9,99 118.9,99 116.8,98.8 116.8,98.8 114.1,98.7 114.1,98.7 111.5,98.5 111.5,98.5 108.3,98.3 108.3,98.3 
				106.2,98.2 106.2,98.2 103.5,98 103.5,98 100.9,97.9 100.9,97.9 97.7,97.7 97.7,97.7 95.6,97.5 95.6,97.5 93,97.4 93,97.4 
				90.3,97.2 90.3,97.2 87.2,97 87.2,97 85,96.9 85,96.9 81.9,96.7 81.9,96.7 79.7,96.6 79.7,96.6 77.1,96.4 77.1,96.4 73.9,96.2 
				73.9,96.2 71.8,96.1 71.8,96.1 69.2,95.9 69.2,95.9 66.5,95.8 66.5,95.8 63.9,95.6 63.9,95.6 61.2,95.4 61.2,95.4 58.6,95.3 
				58.6,95.3 55.9,95.1 55.9,95.1 53.3,94.9 53.3,94.9 50.6,94.8 50.6,94.8 48,94.6 48,94.6 45.4,94.4 45.4,94.4 42.7,94.3 
				42.7,94.3 39.6,94.1 39.5,94.7 42.7,94.9 			"/>
			<polygon class="st2" points="40.8,116.9 43.5,117 43.5,117 46.1,117.2 46.1,117.2 49.3,117.4 49.3,117.4 51.4,117.5 51.4,117.5 
				54,117.7 54,117.7 57.2,117.9 57.2,117.9 59.3,118 59.3,118 62,118.2 62,118.2 65.1,118.4 65.1,118.4 67.3,118.5 67.3,118.5 
				69.9,118.7 69.9,118.7 72.6,118.8 72.6,118.8 75.7,119 75.7,119 77.8,119.1 77.8,119.1 80.5,119.3 80.5,119.3 83.1,119.5 
				83.1,119.5 86.3,119.7 86.3,119.7 88.4,119.8 88.4,119.8 91.1,120 91.1,120 93.9,120.1 96.9,120.3 96.9,120.3 99,120.4 99,120.4 
				101.6,120.6 101.6,120.6 104.3,120.8 104.3,120.8 107.4,121 107.4,121 109.6,121.1 109.6,121.1 112.2,121.3 112.2,121.3 
				115.4,121.4 115.4,121.4 118,121.6 118,121.6 120.2,121.7 120.2,121.7 122.8,121.9 122.8,121.9 126,122.1 126,122.1 128.1,122.2 
				128.1,122.2 131.3,122.4 131.3,122.4 133.4,122.6 133.4,122.6 136.5,122.7 136.5,122.7 139.2,122.9 139.2,122.9 141.3,123 
				141.3,123 144,123.2 144,123.2 147.1,123.4 147.1,123.4 149.3,123.5 149.3,123.5 151.9,123.7 151.9,123.7 154.6,123.9 
				154.6,123.9 157.7,124.1 157.7,124.1 159.8,124.2 159.8,124.2 162.5,124.3 162.5,124.3 165.1,124.5 165.1,124.5 168.3,124.7 
				168.3,124.7 170.4,124.8 170.4,124.8 173.1,125 173.1,125 176.2,125.2 176.2,125.2 178.9,125.4 178.9,125.4 181,125.5 181,125.5 
				183.6,125.6 183.6,125.6 186.3,125.8 186.3,125.8 189.4,126 189.4,126 191.6,126.1 191.6,126.1 194.2,126.3 194.2,126.3 
				196.9,126.5 196.9,126.5 200,126.7 200,126.7 202.2,126.8 202.2,126.8 205,127 208,127.1 208,127.1 210.1,127.3 210.1,127.3 
				213.3,127.5 213.3,127.5 215.4,127.6 215.4,127.6 218.5,127.8 218.5,127.8 220.7,127.9 220.7,127.9 223.3,128.1 223.3,128.1 
				226.5,128.3 226.5,128.3 229.1,128.4 229.1,128.4 231.3,128.6 231.3,128.6 233.9,128.7 233.9,128.7 237.1,128.9 237.1,128.9 
				239.7,129.1 239.7,129.1 241.8,129.2 241.8,129.2 244.5,129.4 244.5,129.4 247.1,129.5 247.1,129.5 250.3,129.7 250.3,129.7 
				252.4,129.9 252.4,129.9 255.1,130 255.1,130 257.7,130.2 257.7,130.2 260.9,130.4 260.9,130.4 263,130.5 263,130.5 265.6,130.7 
				265.6,130.7 268.3,130.8 268.3,130.8 271.4,131 271.4,131 273.6,131.2 273.6,131.2 276.7,131.4 276.7,131.4 278.9,131.5 
				278.9,131.5 279.2,131.5 279.4,131.5 279.4,131.5 282,131.7 282,131.7 284.2,131.8 284.2,131.8 287.3,132 287.3,132 290,132.2 
				290,132.2 292.1,132.3 292.1,132.3 294.7,132.5 294.7,132.5 297.4,132.6 297.4,132.6 300.5,132.8 300.5,132.8 303.2,133 
				303.2,132.3 300.6,132.2 300.6,132.2 297.4,132 297.4,132 295.3,131.9 295.3,131.9 292.6,131.7 292.6,131.7 290,131.5 290,131.5 
				287.4,131.4 287.4,131.4 284.7,131.2 284.7,131.2 281.6,131 281.6,131 279.4,130.9 279.4,130.9 276.8,130.7 276.8,130.7 
				274.1,130.6 274.1,130.6 271,130.4 271,130.4 268.8,130.2 268.8,130.2 266.2,130.1 266.2,130.1 263.6,129.9 263.6,129.9 
				260.4,129.7 260.4,129.7 258.3,129.6 258.3,129.6 255.6,129.4 255.6,129.4 252.5,129.2 252.5,129.2 250.3,129.1 250.3,129.1 
				247.7,128.9 247.7,128.9 245,128.8 245,128.8 242.4,128.6 242.4,128.6 239.7,128.4 239.7,128.4 237.1,128.3 237.1,128.3 
				234.5,128.1 234.5,128.1 231.8,128 231.8,128 229.2,127.8 229.2,127.8 226.5,127.6 226.5,127.6 223.9,127.5 223.9,127.5 
				221.2,127.3 221.2,127.3 218.6,127.1 218.6,127.1 215.4,126.9 215.4,126.9 213.3,126.8 213.3,126.8 210.6,126.7 210.6,126.7 
				208,126.5 208,126.5 205.4,126.3 205.4,126.3 202.7,126.2 202.7,126.2 200.1,126 200.1,126 197.4,125.8 197.4,125.8 194.8,125.7 
				194.8,125.7 192.1,125.5 192.1,125.5 189.5,125.4 189.5,125.4 186.8,125.2 186.8,125.2 184.2,125 184.2,125 181.6,124.9 
				181.6,124.9 178.9,124.7 178.9,124.7 176.3,124.5 176.3,124.5 173.6,124.4 173.6,124.4 171,124.2 171,124.2 168.3,124.1 
				168.3,124.1 165.7,123.9 165.7,123.9 163,123.7 163,123.7 160.4,123.6 160.4,123.6 157.7,123.4 157.7,123.4 155.1,123.2 
				155.1,123.2 152.5,123.1 152.5,123.1 149.8,122.9 149.8,122.9 147.2,122.8 147.2,122.8 144.5,122.6 144.5,122.6 141.4,122.4 
				141.4,122.4 139.2,122.3 139.2,122.3 136.6,122.1 136.6,122.1 133.4,121.9 133.4,121.9 131.3,121.8 131.3,121.8 128.6,121.6 
				128.6,121.6 126,121.5 126,121.5 123.4,121.3 123.4,121.3 120.7,121.1 120.7,121.1 118.1,121 118.1,121 115.4,120.8 115.4,120.8 
				112.8,120.6 112.8,120.6 110.1,120.5 110.1,120.5 107.5,120.3 107.5,120.3 104.8,120.1 104.8,120.1 102.2,120 102.2,120 
				99.6,119.8 99.6,119.8 96.9,119.7 96.9,119.7 94.3,119.5 94.3,119.5 91.6,119.3 91.6,119.3 89,119.2 89,119.2 86.3,119 86.3,119 
				83.7,118.8 83.7,118.8 81,118.7 81,118.7 78.4,118.5 78.4,118.5 75.7,118.4 75.7,118.4 73.1,118.2 73.1,118.2 70.5,118 70.5,118 
				67.3,117.8 67.3,117.8 65.2,117.7 65.2,117.7 62.5,117.5 62.5,117.5 59.4,117.4 59.4,117.4 57.2,117.2 57.2,117.2 54.6,117.1 
				54.6,117.1 51.9,116.9 51.9,116.9 49.3,116.7 49.3,116.7 46.6,116.6 46.6,116.6 44,116.4 44,116.4 41.4,116.2 41.4,116.2 
				38.2,116.1 38.2,116.7 40.8,116.9 			"/>
			<polygon class="st2" points="39.5,138.8 42.1,139 42.1,139 44.7,139.1 44.7,139.1 47.4,139.3 47.4,139.3 50,139.5 50,139.5 
				52.7,139.6 52.7,139.6 55.3,139.8 55.3,139.8 58,140 58,140 60.6,140.1 60.6,140.1 63.3,140.3 63.3,140.3 65.9,140.4 65.9,140.4 
				68.6,140.6 68.6,140.6 71.7,140.8 71.7,140.8 73.8,140.9 73.8,140.9 76.5,141.1 76.5,141.1 79.1,141.3 79.1,141.3 81.8,141.4 
				81.8,141.4 84.4,141.6 84.4,141.6 87.1,141.7 87.1,141.7 89.7,141.9 89.7,141.9 92.4,142.1 92.4,142.1 95,142.2 95,142.2 
				97.7,142.4 97.7,142.4 100.3,142.6 100.3,142.6 102.9,142.7 102.9,142.7 105.6,142.9 105.6,142.9 108.7,143.1 108.7,143.1 
				110.9,143.2 110.9,143.2 113.5,143.4 113.5,143.4 116.2,143.5 116.2,143.5 118.8,143.7 118.8,143.7 121.5,143.9 121.5,143.9 
				124.1,144 124.1,144 126.7,144.2 126.7,144.2 129.4,144.4 129.4,144.4 132,144.5 132,144.5 134.7,144.7 134.7,144.7 137.3,144.8 
				137.3,144.8 140,145 140,145 142.6,145.2 142.6,145.2 145.3,145.3 145.3,145.3 147.9,145.5 147.9,145.5 150.6,145.7 150.6,145.7 
				153.7,145.8 153.7,145.8 155.8,146 155.8,146 158.5,146.1 158.5,146.1 161.1,146.3 161.1,146.3 163.8,146.5 163.8,146.5 
				166.4,146.6 166.4,146.6 169.1,146.8 169.1,146.8 171.7,147 171.7,147 174.4,147.1 174.4,147.1 177,147.3 177,147.3 179.7,147.4 
				179.7,147.4 182.8,147.6 182.8,147.6 184.9,147.8 184.9,147.8 188.1,148 188.1,148 190.7,148.1 190.7,148.1 192.9,148.3 
				192.9,148.3 195.5,148.4 195.5,148.4 198.7,148.6 198.7,148.6 200.8,148.7 200.8,148.7 203.5,148.9 203.5,148.9 206.1,149.1 
				206.1,149.1 208.7,149.2 208.7,149.2 211.4,149.4 211.4,149.4 214,149.6 214,149.6 216.7,149.7 216.7,149.7 219.3,149.9 
				219.3,149.9 222,150 222,150 224.6,150.2 224.6,150.2 227.3,150.4 227.3,150.4 229.9,150.5 229.9,150.5 232.6,150.7 232.6,150.7 
				235.2,150.9 235.2,150.9 237.8,151 237.8,151 240.5,151.2 240.5,151.2 243.1,151.3 243.1,151.3 245.8,151.5 245.8,151.5 
				248.9,151.7 248.9,151.7 251.1,151.8 251.1,151.8 253.7,152 253.7,152 256.4,152.2 256.4,152.2 259.5,152.4 259.5,152.4 
				261.7,152.5 261.7,152.5 264.8,152.7 264.8,152.7 266.9,152.8 266.9,152.8 270.1,153 270.1,153 272.7,153.2 272.7,153.2 
				274.9,153.3 274.9,153.3 277.5,153.5 277.5,153.5 280.7,153.7 280.7,153.7 282.8,153.8 282.8,153.8 285.5,153.9 285.5,153.9 
				288.1,154.1 288.1,154.1 290.7,154.3 290.7,154.3 293.4,154.4 293.4,154.4 296,154.6 296,154.6 299.2,154.8 299.2,154.8 
				301.8,155 301.9,154.3 299.2,154.1 299.2,154.1 296.6,154 296.6,154 293.9,153.8 293.9,153.8 291.3,153.7 291.3,153.7 
				288.7,153.5 288.7,153.5 286,153.3 286,153.3 283.4,153.2 283.4,153.2 280.7,153 280.7,153 278.1,152.8 278.1,152.8 274.9,152.6 
				274.9,152.6 272.8,152.5 272.8,152.5 270.1,152.4 270.1,152.4 267,152.2 267,152.2 264.8,152 264.8,152 262.2,151.9 262.2,151.9 
				259.6,151.7 259.6,151.7 256.9,151.5 256.9,151.5 254.3,151.4 254.3,151.4 251.6,151.2 251.6,151.2 249,151.1 249,151.1 
				246.3,150.9 246.3,150.9 243.7,150.7 243.7,150.7 241,150.6 241,150.6 238.4,150.4 238.4,150.4 235.8,150.2 235.8,150.2 
				233.1,150.1 233.1,150.1 230.5,149.9 230.5,149.9 227.8,149.8 227.8,149.8 225.2,149.6 225.2,149.6 222.5,149.4 222.5,149.4 
				219.9,149.3 219.9,149.3 217.2,149.1 217.2,149.1 214.6,148.9 214.6,148.9 211.9,148.8 211.9,148.8 209.3,148.6 209.3,148.6 
				206.7,148.5 206.7,148.5 204,148.3 204,148.3 200.9,148.1 200.9,148.1 198.7,148 198.7,148 196.1,147.8 196.1,147.8 192.9,147.6 
				192.9,147.6 190.8,147.5 190.8,147.5 188.1,147.3 188.1,147.3 185.5,147.1 185.5,147.1 182.8,147 182.8,147 180.2,146.8 
				180.2,146.8 177.6,146.7 177.6,146.7 174.9,146.5 174.9,146.5 172.3,146.3 172.3,146.3 169.6,146.2 169.6,146.2 167,146 167,146 
				164.3,145.8 164.3,145.8 161.7,145.7 161.7,145.7 159,145.5 159,145.5 156.4,145.4 156.4,145.4 153.8,145.2 153.8,145.2 
				151.1,145 151.1,145 148.5,144.9 148.5,144.9 145.3,144.7 145.3,144.7 143.2,144.5 143.2,144.5 140.5,144.4 140.5,144.4 
				137.9,144.2 137.9,144.2 134.7,144 134.7,144 132.6,143.9 132.6,143.9 129.9,143.7 129.9,143.7 127.1,143.6 124.1,143.4 
				124.1,143.4 122,143.2 122,143.2 118.9,143.1 118.9,143.1 116.7,142.9 116.7,142.9 114.1,142.8 114.1,142.8 111.4,142.6 
				111.4,142.6 108.8,142.4 108.8,142.4 106.1,142.3 106.1,142.3 103.5,142.1 103.5,142.1 100.8,141.9 100.8,141.9 98.2,141.8 
				98.2,141.8 95.6,141.6 95.6,141.6 92.9,141.5 92.9,141.5 90.3,141.3 90.3,141.3 87.6,141.1 87.6,141.1 84.5,140.9 84.5,140.9 
				81.8,140.8 81.8,140.8 79.7,140.6 79.7,140.6 77,140.5 77,140.5 73.9,140.3 73.9,140.3 71.8,140.2 71.8,140.2 69.1,140 69.1,140 
				66.5,139.8 66.5,139.8 63.3,139.6 63.3,139.6 61.2,139.5 61.2,139.5 58.5,139.3 58.5,139.3 55.9,139.2 55.9,139.2 52.7,139 
				52.7,139 50.6,138.9 50.6,138.9 47.9,138.7 47.9,138.7 45.1,138.5 42.1,138.3 42.1,138.3 40,138.2 40,138.2 36.9,138 36.8,138.7 
				39.5,138.8 			"/>
			<polygon class="st2" points="38.1,160.8 41.3,161 41.3,161 43.4,161.1 43.4,161.1 46,161.3 46,161.3 49.2,161.5 49.2,161.5 
				51.8,161.6 51.8,161.6 54,161.8 54,161.8 57.1,161.9 57.1,161.9 59.3,162.1 59.3,162.1 62.4,162.3 62.4,162.3 64.6,162.4 
				64.6,162.4 67.2,162.6 67.2,162.6 69.9,162.7 69.9,162.7 73,162.9 73,162.9 75.1,163.1 75.1,163.1 77.8,163.2 77.8,163.2 
				80.4,163.4 80.4,163.4 83.1,163.5 83.1,163.5 85.7,163.7 85.7,163.7 88.4,163.9 88.4,163.9 91,164 91,164 93.7,164.2 93.7,164.2 
				96.3,164.4 96.3,164.4 98.9,164.5 98.9,164.5 101.6,164.7 101.6,164.7 104.2,164.8 104.2,164.8 106.9,165 106.9,165 109.5,165.2 
				109.5,165.2 112.2,165.3 112.2,165.3 114.8,165.5 114.8,165.5 117.5,165.7 117.5,165.7 120.1,165.8 120.1,165.8 123.3,166 
				123.3,166 125.4,166.1 125.4,166.1 128,166.3 128,166.3 131.2,166.5 131.2,166.5 133.3,166.6 133.3,166.6 136,166.8 136,166.8 
				138.6,167 138.6,167 141.3,167.1 141.3,167.1 143.9,167.3 143.9,167.3 146.6,167.4 146.6,167.4 149.2,167.6 149.2,167.6 
				151.9,167.8 151.9,167.8 154.5,167.9 154.5,167.9 157.1,168.1 157.1,168.1 159.8,168.3 159.8,168.3 162.4,168.4 162.4,168.4 
				165.1,168.6 165.1,168.6 168.2,168.8 168.2,168.8 170.4,168.9 170.4,168.9 173,169.1 173,169.1 175.7,169.2 175.7,169.2 
				178.3,169.4 178.3,169.4 180.9,169.6 180.9,169.6 183.6,169.7 183.6,169.7 186.2,169.9 186.2,169.9 188.9,170.1 188.9,170.1 
				191.5,170.2 191.5,170.2 194.2,170.4 194.2,170.4 196.8,170.5 196.8,170.5 199.5,170.7 199.5,170.7 202.1,170.9 202.1,170.9 
				204.8,171 204.8,171 207.4,171.2 207.4,171.2 210,171.4 210,171.4 212.7,171.5 212.7,171.5 215.3,171.7 215.3,171.7 218,171.8 
				218,171.8 220.6,172 220.6,172 223.3,172.2 223.3,172.2 225.9,172.3 225.9,172.3 228.6,172.5 228.6,172.5 231.2,172.7 
				231.2,172.7 233.8,172.8 233.8,172.8 236.5,173 236.5,173 239.1,173.1 239.1,173.1 242.3,173.3 242.3,173.3 244.4,173.5 
				244.4,173.5 247.1,173.6 247.1,173.6 250.2,173.8 250.2,173.8 252.4,174 252.4,174 255,174.1 255,174.1 257.7,174.3 257.7,174.3 
				260.3,174.4 260.3,174.4 262.9,174.6 262.9,174.6 265.6,174.8 265.6,174.8 268.2,174.9 268.2,174.9 270.9,175.1 270.9,175.1 
				273.5,175.3 273.5,175.3 276.2,175.4 276.2,175.4 278.8,175.6 278.8,175.6 281.5,175.7 281.5,175.7 284.1,175.9 284.1,175.9 
				286.8,176.1 286.8,176.1 289.4,176.2 289.4,176.2 292,176.4 292,176.4 294.7,176.6 294.7,176.6 297.3,176.7 297.3,176.7 
				300.5,176.9 300.5,176.3 297.4,176.1 297.4,176.1 295.2,175.9 295.2,175.9 292.6,175.8 292.6,175.8 289.8,175.6 286.8,175.4 
				286.8,175.4 284.7,175.3 284.7,175.3 282,175.1 282,175.1 279.4,175 279.4,175 276.7,174.8 276.7,174.8 274.1,174.6 274.1,174.6 
				271.4,174.5 271.4,174.5 268.3,174.3 268.3,174.3 266.1,174.2 266.1,174.2 263.5,174 263.5,174 260.7,173.8 257.7,173.6 
				257.7,173.6 255.6,173.5 255.6,173.5 252.4,173.3 252.4,173.3 250.3,173.2 250.3,173.2 247.1,173 247.1,173 245,172.8 245,172.8 
				242.3,172.7 242.3,172.7 239.7,172.5 239.7,172.5 236.5,172.3 236.5,172.3 234.4,172.2 234.4,172.2 231.8,172 231.8,172 
				229.1,171.9 229.1,171.9 226,171.7 226,171.7 223.8,171.5 223.8,171.5 221.2,171.4 221.2,171.4 218,171.2 218,171.2 215.4,171 
				215.4,171 213.2,170.9 213.2,170.9 210.6,170.7 210.6,170.7 207.4,170.5 207.4,170.5 204.8,170.4 204.8,170.4 202.7,170.2 
				202.7,170.2 200,170.1 200,170.1 196.9,169.9 196.9,169.9 194.7,169.8 194.7,169.8 192.1,169.6 192.1,169.6 189.4,169.4 
				189.4,169.4 186.3,169.2 186.3,169.2 184.1,169.1 184.1,169.1 181.5,168.9 181.5,168.9 178.7,168.8 175.7,168.6 175.7,168.6 
				173.6,168.5 173.6,168.5 170.4,168.3 170.4,168.3 168.3,168.1 168.3,168.1 165.1,167.9 165.1,167.9 163,167.8 163,167.8 
				160.3,167.6 160.3,167.6 157.2,167.5 157.2,167.5 154.5,167.3 154.5,167.3 152.4,167.2 152.4,167.2 149.8,167 149.8,167 
				147.1,166.8 147.1,166.8 144,166.6 144,166.6 141.3,166.5 141.3,166.5 139.2,166.3 139.2,166.3 136.5,166.2 136.5,166.2 
				133.4,166 133.4,166 131.2,165.9 131.2,165.9 128.6,165.7 128.6,165.7 125.9,165.5 125.9,165.5 122.8,165.3 122.8,165.3 
				120.7,165.2 120.7,165.2 118,165 118,165 114.9,164.8 114.9,164.8 112.7,164.7 112.7,164.7 110.1,164.6 110.1,164.6 106.9,164.4 
				106.9,164.4 104.3,164.2 104.3,164.2 102.1,164.1 102.1,164.1 99.5,163.9 99.5,163.9 96.3,163.7 96.3,163.7 93.7,163.5 
				93.7,163.5 91.6,163.4 91.6,163.4 88.9,163.3 88.9,163.3 86.3,163.1 86.3,163.1 83.1,162.9 83.1,162.9 81,162.8 81,162.8 
				78.3,162.6 78.3,162.6 75.7,162.4 75.7,162.4 72.5,162.2 72.5,162.2 70.4,162.1 70.4,162.1 67.8,162 67.8,162 65.1,161.8 
				65.1,161.8 62,161.6 62,161.6 59.6,161.5 56.7,161.3 56.7,161.3 54.5,161.1 54.5,161.1 51.4,160.9 51.4,160.9 49.2,160.8 
				49.2,160.8 46.1,160.6 46.1,160.6 43.9,160.5 43.9,160.5 40.8,160.3 40.8,160.3 38.7,160.2 38.7,160.2 35.5,160 35.5,160.6 
				38.1,160.8 			"/>
			<polygon class="st2" points="36.8,182.7 39.9,182.9 39.9,182.9 42,183.1 42,183.1 44.7,183.2 44.7,183.2 47.3,183.4 47.3,183.4 
				50.5,183.6 50.5,183.6 52.6,183.7 52.6,183.7 55.3,183.9 55.3,183.9 57.9,184 57.9,184 61.1,184.2 61.1,184.2 63.2,184.4 
				63.2,184.4 65.9,184.5 65.9,184.5 68.5,184.7 68.5,184.7 71.7,184.9 71.7,184.9 73.8,185 73.8,185 76.4,185.2 76.4,185.2 
				79.1,185.3 79.1,185.3 82.2,185.5 82.2,185.5 84.9,185.7 84.9,185.7 87,185.8 87,185.8 89.7,186 89.7,186 92.8,186.2 92.8,186.2 
				95,186.3 95,186.3 97.6,186.5 97.6,186.5 100.2,186.6 100.2,186.6 103.4,186.8 103.4,186.8 105.5,187 105.5,187 108.7,187.2 
				108.7,187.2 110.8,187.3 110.8,187.3 114,187.5 114,187.5 116.1,187.6 116.1,187.6 116.4,187.6 116.6,187.6 116.6,187.6 
				118.8,187.8 118.8,187.8 121.9,188 121.9,188 124,188.1 124,188.1 126.7,188.3 126.7,188.3 129.3,188.4 129.3,188.4 132.5,188.6 
				132.5,188.6 135.1,188.8 135.1,188.8 137.3,188.9 137.3,188.9 139.9,189.1 139.9,189.1 143.1,189.3 143.1,189.3 145.7,189.4 
				145.7,189.4 147.9,189.6 147.9,189.6 150.5,189.7 150.5,189.7 153.7,189.9 153.7,189.9 155.8,190.1 155.8,190.1 158.4,190.2 
				158.4,190.2 161.1,190.4 161.1,190.4 164.2,190.6 164.2,190.6 166.4,190.7 166.4,190.7 169,190.9 169,190.9 171.7,191 171.7,191 
				174.8,191.2 174.8,191.2 177,191.4 177,191.4 179.6,191.5 179.6,191.5 182.8,191.7 182.8,191.7 185.4,191.9 185.4,191.9 
				187.5,192 187.5,192 190.7,192.2 190.7,192.2 192.8,192.3 192.8,192.3 196,192.5 196,192.5 198.1,192.7 198.1,192.7 200.8,192.8 
				200.8,192.8 203.9,193 203.9,193 206,193.1 206,193.1 208.7,193.3 208.7,193.3 211.3,193.5 211.3,193.5 214.5,193.7 214.5,193.7 
				216.6,193.8 216.6,193.8 219.3,194 219.3,194 221.9,194.1 221.9,194.1 225.1,194.3 225.1,194.3 227.2,194.4 227.2,194.4 
				227.5,194.5 227.7,194.5 227.7,194.5 229.9,194.6 229.9,194.6 232.5,194.8 232.5,194.8 235.7,195 235.7,195 237.8,195.1 
				237.8,195.1 240.4,195.3 240.4,195.3 243.1,195.4 243.1,195.4 246.2,195.6 246.2,195.6 248.4,195.7 248.4,195.7 251,195.9 
				251,195.9 253.7,196.1 253.7,196.1 256.3,196.2 256.3,196.2 259,196.4 259,196.4 261.6,196.6 261.6,196.6 264.8,196.8 
				264.8,196.8 266.9,196.9 266.9,196.9 269.5,197.1 269.5,197.1 272.2,197.2 272.2,197.2 274.8,197.4 274.8,197.4 277.5,197.5 
				277.5,197.5 280.1,197.7 280.1,197.7 282.8,197.9 282.8,197.9 285.9,198.1 285.9,198.1 288,198.2 288,198.2 290.7,198.4 
				290.7,198.4 293.3,198.5 293.3,198.5 296.5,198.7 296.5,198.7 299.1,198.9 299.2,198.2 296,198 296,198 293.9,197.9 293.9,197.9 
				290.7,197.7 290.7,197.7 288.6,197.6 288.6,197.6 285.4,197.4 285.4,197.4 283.3,197.2 283.3,197.2 280.2,197.1 280.2,197.1 
				277.5,196.9 277.5,196.9 274.9,196.7 274.9,196.7 272.7,196.6 272.7,196.6 270.1,196.4 270.1,196.4 266.9,196.2 266.9,196.2 
				264.8,196.1 264.8,196.1 262.1,195.9 262.1,195.9 259.5,195.8 259.5,195.8 256.3,195.6 256.3,195.6 254.2,195.5 254.2,195.5 
				251.6,195.3 251.6,195.3 248.9,195.1 248.9,195.1 245.8,194.9 245.8,194.9 243.6,194.8 243.6,194.8 241,194.6 241,194.6 
				238.3,194.5 238.3,194.5 238,194.5 237.8,194.5 237.8,194.5 235.2,194.3 235.2,194.3 233.1,194.2 233.1,194.2 229.9,194 
				229.9,194 227.8,193.8 227.8,193.8 224.6,193.6 224.6,193.6 222.5,193.5 222.5,193.5 219.8,193.3 219.8,193.3 217.2,193.2 
				217.2,193.2 214,193 214,193 211.9,192.9 211.9,192.9 209.2,192.7 209.2,192.7 206.6,192.5 206.6,192.5 203.4,192.3 203.4,192.3 
				201.1,192.2 198.7,192 198.7,192 195.5,191.8 195.5,191.8 192.9,191.7 192.9,191.7 190.7,191.6 190.7,191.6 188.1,191.4 
				188.1,191.4 184.9,191.2 184.9,191.2 182.8,191.1 182.8,191.1 179.6,190.9 179.6,190.9 177.5,190.7 177.5,190.7 174.3,190.5 
				174.3,190.5 172.2,190.4 172.2,190.4 169.1,190.2 169.1,190.2 166.9,190.1 166.9,190.1 163.8,189.9 163.8,189.9 161.6,189.8 
				161.6,189.8 159,189.6 159,189.6 155.8,189.4 155.8,189.4 153.2,189.2 153.2,189.2 151.1,189.1 151.1,189.1 148.4,189 148.4,189 
				145.8,188.8 145.8,188.8 142.6,188.6 142.6,188.6 140.5,188.5 140.5,188.5 137.8,188.3 137.8,188.3 135.2,188.1 135.2,188.1 
				132,187.9 132,187.9 129.4,187.8 129.4,187.8 127.2,187.7 127.2,187.7 124.6,187.5 124.6,187.5 121.4,187.3 121.4,187.3 
				118.8,187.1 118.8,187.1 116.7,187 116.7,187 113.5,186.8 113.5,186.8 111.2,186.7 108.7,186.5 108.7,186.5 106.1,186.3 
				106.1,186.3 102.9,186.2 102.9,186.2 100.8,186 100.8,186 98.1,185.9 98.1,185.9 95.5,185.7 95.5,185.7 92.3,185.5 92.3,185.5 
				90.2,185.4 90.2,185.4 87.6,185.2 87.6,185.2 84.9,185 84.9,185 81.8,184.9 81.8,184.9 79.6,184.7 79.6,184.7 77,184.6 77,184.6 
				74.3,184.4 74.3,184.4 71.2,184.2 71.2,184.2 68.5,184 68.5,184 66.4,183.9 66.4,183.9 63.8,183.7 63.8,183.7 60.6,183.6 
				60.6,183.6 58.5,183.4 58.5,183.4 55.8,183.3 55.8,183.3 53.2,183.1 53.2,183.1 50,182.9 50,182.9 47.9,182.8 47.9,182.8 
				44.7,182.6 44.7,182.6 42.6,182.4 42.6,182.4 39.4,182.3 39.4,182.3 37.3,182.1 37.3,182.1 37,182.1 36.8,182.1 36.8,182.1 
				34.2,181.9 34.1,182.6 36.8,182.7 			"/>
			<polygon class="st2" points="35.4,204.7 38.6,204.9 38.6,204.9 40.7,205 40.7,205 43.3,205.2 43.3,205.2 46.5,205.4 46.5,205.4 
				49.1,205.5 49.1,205.5 51.3,205.7 51.3,205.7 53.9,205.8 53.9,205.8 57.1,206 57.1,206 59.7,206.2 59.7,206.2 61.9,206.3 
				61.9,206.3 64.5,206.5 64.5,206.5 67.2,206.6 67.2,206.6 70.3,206.8 70.3,206.8 72.4,207 72.4,207 75.1,207.1 75.1,207.1 
				77.7,207.3 77.7,207.3 80.9,207.5 80.9,207.5 83,207.6 83,207.6 85.9,207.8 88.3,207.9 88.3,207.9 91.5,208.1 91.5,208.1 
				93.8,208.3 96.8,208.5 96.8,208.5 98.9,208.6 98.9,208.6 102,208.8 102,208.8 104.2,208.9 104.2,208.9 107.3,209.1 107.3,209.1 
				109.5,209.3 109.5,209.3 112.6,209.4 112.6,209.4 114.8,209.6 114.8,209.6 117.4,209.7 117.4,209.7 120.6,209.9 120.6,209.9 
				122.7,210.1 122.7,210.1 125.3,210.2 125.3,210.2 128,210.4 128,210.4 131.1,210.6 131.1,210.6 133.3,210.7 133.3,210.7 
				135.9,210.9 135.9,210.9 138.6,211 138.6,211 141.7,211.2 141.7,211.2 143.9,211.4 143.9,211.4 146.5,211.5 146.5,211.5 
				149.1,211.7 149.1,211.7 152.3,211.9 152.3,211.9 154.4,212 154.4,212 157.6,212.2 157.6,212.2 159.7,212.3 159.7,212.3 
				162.9,212.5 162.9,212.5 165,212.7 165,212.7 167.7,212.8 167.7,212.8 168,212.8 168.2,212.9 168.2,212.9 170.3,213 170.3,213 
				173.5,213.2 173.5,213.2 175.8,213.3 178.2,213.5 178.2,213.5 180.9,213.6 180.9,213.6 184,213.8 184,213.8 186.2,214 186.2,214 
				188.8,214.1 188.8,214.1 191.5,214.3 191.5,214.3 194.6,214.5 194.6,214.5 196.8,214.6 196.8,214.6 199.4,214.8 199.4,214.8 
				202.6,215 202.6,215 204.9,215.1 207.9,215.3 207.9,215.3 210,215.4 210,215.4 213.1,215.6 213.1,215.6 215.3,215.8 215.3,215.8 
				218.4,216 218.4,216 220.6,216.1 220.6,216.1 223.7,216.3 223.7,216.3 225.9,216.4 225.9,216.4 228.5,216.6 228.5,216.6 
				231.1,216.7 231.1,216.7 234.3,216.9 234.3,216.9 236.4,217.1 236.4,217.1 239.1,217.2 239.1,217.2 242.2,217.4 242.2,217.4 
				244.9,217.6 244.9,217.6 247,217.7 247,217.7 249.7,217.9 249.7,217.9 250,217.9 250.2,217.9 250.2,217.9 252.3,218 252.3,218 
				255.5,218.2 255.5,218.2 258.1,218.4 258.1,218.4 260.2,218.5 260.2,218.5 262.9,218.7 262.9,218.7 266,218.9 266,218.9 
				268.7,219 268.7,219 270.8,219.2 270.8,219.2 273.5,219.3 273.5,219.3 276.6,219.5 276.6,219.5 278.8,219.7 278.8,219.7 
				281.4,219.8 281.4,219.8 284.6,220 284.6,220 286.9,220.2 289.3,220.3 289.3,220.3 292,220.5 292,220.5 295.1,220.7 295.1,220.7 
				297.8,220.8 297.8,220.2 294.7,220 294.7,220 292.5,219.9 292.5,219.9 289.4,219.7 289.4,219.7 287.2,219.5 287.2,219.5 
				284.1,219.3 284.1,219.3 282,219.2 282,219.2 279.3,219 279.3,219 276.2,218.8 276.2,218.8 274,218.7 274,218.7 271.4,218.6 
				271.4,218.6 268.7,218.4 268.7,218.4 265.6,218.2 265.6,218.2 263.4,218.1 263.4,218.1 260.8,217.9 260.8,217.9 258.2,217.7 
				258.2,217.7 255,217.5 255,217.5 252.4,217.4 252.4,217.4 250.2,217.3 250.2,217.3 247.6,217.1 247.6,217.1 244.4,216.9 
				244.4,216.9 241.8,216.7 241.8,216.7 239.6,216.6 239.6,216.6 237,216.4 237,216.4 233.8,216.2 233.8,216.2 231.7,216.1 
				231.7,216.1 229.1,216 229.1,216 226.4,215.8 226.4,215.8 223.3,215.6 223.3,215.6 221.1,215.5 221.1,215.5 218.5,215.3 
				218.5,215.3 215.3,215.1 215.3,215.1 212.7,214.9 212.7,214.9 210.5,214.8 210.5,214.8 207.9,214.7 207.9,214.7 205.2,214.5 
				205.2,214.5 202.1,214.3 202.1,214.3 200,214.2 200,214.2 197.3,214 197.3,214 194.2,213.8 194.2,213.8 191.5,213.6 191.5,213.6 
				189.4,213.5 189.4,213.5 186.7,213.4 186.7,213.4 183.6,213.2 183.6,213.2 181.4,213 181.4,213 178.3,212.8 178.3,212.8 
				176.2,212.7 176.2,212.7 173,212.5 173,212.5 170.9,212.4 170.9,212.4 170.5,212.4 170.4,212.3 170.4,212.3 168.2,212.2 
				168.2,212.2 165.6,212 165.6,212 162.4,211.9 162.4,211.9 160.3,211.7 160.3,211.7 157.6,211.6 157.6,211.6 155,211.4 155,211.4 
				151.8,211.2 151.8,211.2 149.7,211.1 149.7,211.1 147.1,210.9 147.1,210.9 144.4,210.7 144.4,210.7 141.3,210.6 141.3,210.6 
				139.1,210.4 139.1,210.4 136.5,210.3 136.5,210.3 133.8,210.1 133.8,210.1 131.2,209.9 131.2,209.9 128.5,209.8 128.5,209.8 
				125.9,209.6 125.9,209.6 123.2,209.4 123.2,209.4 120.6,209.3 120.6,209.3 118,209.1 118,209.1 115.3,209 115.3,209 112.2,208.8 
				112.2,208.8 110,208.6 110,208.6 107.4,208.5 107.4,208.5 104.2,208.3 104.2,208.3 101.6,208.1 101.6,208.1 99.4,208 99.4,208 
				96.3,207.8 96.3,207.8 94.2,207.7 94.2,207.7 91,207.5 91,207.5 88.9,207.3 88.9,207.3 86.2,207.2 86.2,207.2 83.6,207 83.6,207 
				80.4,206.8 80.4,206.8 78.3,206.7 78.3,206.7 75.6,206.5 75.6,206.5 73,206.4 73,206.4 70.3,206.2 70.3,206.2 67.7,206 67.7,206 
				65.1,205.9 65.1,205.9 62.4,205.7 62.4,205.7 59.8,205.5 59.8,205.5 57.1,205.4 57.1,205.4 54.5,205.2 54.5,205.2 51.8,205.1 
				51.8,205.1 49.2,204.9 49.2,204.9 46.5,204.7 46.5,204.7 43.9,204.6 43.9,204.6 41.2,204.4 41.2,204.4 38.6,204.2 38.6,204.2 
				36,204.1 36,204.1 32.8,203.9 32.8,204.5 35.4,204.7 			"/>
			<polygon class="st2" points="34.6,226.7 36.7,226.8 36.7,226.8 39.3,227 39.3,227 42,227.1 42,227.1 44.6,227.3 44.6,227.3 
				47.3,227.5 47.3,227.5 49.9,227.6 49.9,227.6 52.6,227.8 52.6,227.8 55.2,228 55.2,228 57.9,228.1 57.9,228.1 60.5,228.3 
				60.5,228.3 63.2,228.4 63.2,228.4 65.8,228.6 65.8,228.6 69,228.8 69,228.8 71.6,229 71.6,229 73.7,229.1 73.7,229.1 76.4,229.3 
				76.4,229.3 79.5,229.5 79.5,229.5 81.7,229.6 81.7,229.6 84.3,229.7 84.3,229.7 87,229.9 87,229.9 90.1,230.1 90.1,230.1 
				92.3,230.2 92.3,230.2 94.9,230.4 94.9,230.4 97.5,230.6 97.5,230.6 100.7,230.8 100.7,230.8 102.8,230.9 102.8,230.9 105.5,231 
				105.5,231 108.3,231.2 111.3,231.4 111.3,231.4 113.4,231.5 113.4,231.5 116.1,231.7 116.1,231.7 119.2,231.9 119.2,231.9 
				121.3,232 121.3,232 124,232.2 124,232.2 126.6,232.3 126.6,232.3 129.8,232.5 129.8,232.5 131.9,232.7 131.9,232.7 134.6,232.8 
				134.6,232.8 137.2,233 137.2,233 140.4,233.2 140.4,233.2 142.5,233.3 142.5,233.3 145.7,233.5 145.7,233.5 147.8,233.6 
				147.8,233.6 151,233.8 151,233.8 153.6,234 153.6,234 155.7,234.1 155.7,234.1 158.4,234.3 158.4,234.3 161.5,234.5 161.5,234.5 
				163.7,234.6 163.7,234.6 166.3,234.8 166.3,234.8 169.5,235 169.5,235 172.1,235.1 172.1,235.1 174.3,235.3 174.3,235.3 
				176.9,235.4 176.9,235.4 180.1,235.6 180.1,235.6 182.7,235.8 182.7,235.8 184.8,235.9 184.8,235.9 187.5,236.1 187.5,236.1 
				190.1,236.3 190.1,236.3 190.4,236.3 190.6,236.3 190.6,236.3 193.3,236.4 193.3,236.4 195.4,236.6 195.4,236.6 198.1,236.7 
				198.1,236.7 201.2,236.9 201.2,236.9 203.3,237.1 203.3,237.1 206,237.2 206,237.2 208.6,237.4 208.6,237.4 211.8,237.6 
				211.8,237.6 213.9,237.7 213.9,237.7 216.6,237.9 216.6,237.9 219.4,238.1 222.4,238.2 222.4,238.2 224.5,238.4 224.5,238.4 
				227.3,238.5 230.3,238.7 230.3,238.7 233,238.9 233,238.9 235.1,239 235.1,239 237.7,239.2 237.7,239.2 240.4,239.3 240.4,239.3 
				243.5,239.5 243.5,239.5 245.7,239.7 245.7,239.7 248.3,239.8 248.3,239.8 251,240 251,240 254.1,240.2 254.1,240.2 256.3,240.3 
				256.3,240.3 258.9,240.5 258.9,240.5 261.5,240.6 261.5,240.6 264.7,240.8 264.7,240.8 266.8,241 266.8,241 269.5,241.1 
				269.5,241.1 272.1,241.3 272.1,241.3 275.3,241.5 275.3,241.5 277.4,241.6 277.4,241.6 280.6,241.8 280.6,241.8 283.2,242 
				283.2,242 285.3,242.1 285.3,242.1 288,242.3 288,242.3 291.1,242.5 291.1,242.5 293.8,242.6 293.8,242.6 296.4,242.8 
				296.5,242.1 293.8,242 293.8,242 291.2,241.8 291.2,241.8 288.5,241.7 288.5,241.7 285.9,241.5 285.9,241.5 283.3,241.3 
				283.3,241.3 280.6,241.2 280.6,241.2 278,241 278,241 274.8,240.8 274.8,240.8 272.7,240.7 272.7,240.7 270,240.5 270,240.5 
				267.4,240.4 267.4,240.4 264.2,240.2 264.2,240.2 262.1,240 262.1,240 259.4,239.9 259.4,239.9 256.8,239.7 256.8,239.7 
				254.2,239.5 254.2,239.5 251.5,239.4 251.5,239.4 248.9,239.2 248.9,239.2 246.2,239 246.2,239 243.6,238.9 243.6,238.9 
				240.9,238.7 240.9,238.7 237.8,238.5 237.8,238.5 235.6,238.4 235.6,238.4 233,238.2 233,238.2 229.8,238 229.8,238 227.7,237.9 
				227.7,237.9 225.1,237.7 225.1,237.7 222.4,237.6 222.4,237.6 219.8,237.4 219.8,237.4 217.1,237.3 217.1,237.3 214.5,237.1 
				214.5,237.1 211.8,236.9 211.8,236.9 209.2,236.8 209.2,236.8 206.5,236.6 206.5,236.6 203.9,236.4 203.9,236.4 201.3,236.3 
				201.3,236.3 198.6,236.1 198.6,236.1 196,236 196,236 193.3,235.8 193.3,235.8 190.7,235.6 190.7,235.6 188,235.5 188,235.5 
				185.4,235.3 185.4,235.3 182.7,235.1 182.7,235.1 180.1,235 180.1,235 177.4,234.8 177.4,234.8 174.8,234.7 174.8,234.7 
				172.2,234.5 172.2,234.5 169.5,234.3 169.5,234.3 166.9,234.2 166.9,234.2 163.7,234 163.7,234 161.6,233.8 161.6,233.8 
				158.9,233.7 158.9,233.7 155.8,233.5 155.8,233.5 153.6,233.4 153.6,233.4 151,233.2 151,233.2 148.4,233 148.4,233 145.7,232.9 
				145.7,232.9 143.1,232.7 143.1,232.7 140.4,232.5 140.4,232.5 137.8,232.4 137.8,232.4 135.1,232.2 135.1,232.2 132.5,232.1 
				132.5,232.1 129.8,231.9 129.8,231.9 127.2,231.7 127.2,231.7 124.5,231.6 124.5,231.6 121.9,231.4 121.9,231.4 119.3,231.2 
				119.3,231.2 116.6,231.1 116.6,231.1 114,230.9 114,230.9 111.3,230.8 111.3,230.8 108.7,230.6 108.7,230.6 106,230.4 106,230.4 
				103.4,230.3 103.4,230.3 100.7,230.1 100.7,230.1 98.1,229.9 98.1,229.9 95.4,229.8 95.4,229.8 92.8,229.6 92.8,229.6 
				90.2,229.5 90.2,229.5 87.5,229.3 87.5,229.3 84.9,229.1 84.9,229.1 81.7,228.9 81.7,228.9 79.6,228.8 79.6,228.8 76.9,228.6 
				76.9,228.6 73.8,228.4 73.8,228.4 71.6,228.3 71.6,228.3 69,228.2 69,228.2 66.4,228 66.4,228 63.7,227.8 63.7,227.8 61.1,227.7 
				61.1,227.7 58.4,227.5 58.4,227.5 55.8,227.3 55.8,227.3 53.1,227.2 53.1,227.2 50.5,227 50.5,227 47.8,226.9 47.8,226.9 
				44.7,226.7 44.7,226.7 42.5,226.5 42.5,226.5 39.9,226.4 39.9,226.4 37.3,226.2 37.3,226.2 34.6,226 34.6,226 31.5,225.8 
				31.4,226.5 34.6,226.7 			"/>
			<polygon class="st2" points="32.7,248.6 35.4,248.8 35.4,248.8 38,248.9 38,248.9 40.6,249.1 40.6,249.1 43.3,249.3 43.3,249.3 
				45.9,249.4 45.9,249.4 49.1,249.6 49.1,249.6 51.2,249.8 51.2,249.8 53.9,249.9 53.9,249.9 56.5,250.1 56.5,250.1 59.2,250.2 
				59.2,250.2 61.8,250.4 61.8,250.4 64.5,250.6 64.5,250.6 67.1,250.7 67.1,250.7 69.7,250.9 69.7,250.9 72.4,251.1 72.4,251.1 
				75,251.2 75,251.2 77.7,251.4 77.7,251.4 80.3,251.5 80.3,251.5 83,251.7 83,251.7 86.1,251.9 86.1,251.9 88.3,252 88.3,252 
				90.9,252.2 90.9,252.2 94.1,252.4 94.1,252.4 96.2,252.5 96.2,252.5 98.8,252.7 98.8,252.7 101.5,252.8 101.5,252.8 104.1,253 
				104.1,253 106.8,253.2 106.8,253.2 109.4,253.3 109.4,253.3 112.1,253.5 112.1,253.5 114.7,253.7 114.7,253.7 117.4,253.8 
				117.4,253.8 120,254 120,254 122.6,254.1 122.6,254.1 125.3,254.3 125.3,254.3 127.9,254.5 127.9,254.5 131.1,254.7 131.1,254.7 
				133.2,254.8 133.2,254.8 135.9,255 135.9,255 138.5,255.1 138.5,255.1 141.2,255.3 141.2,255.3 143.8,255.4 143.8,255.4 
				146.4,255.6 146.4,255.6 149.1,255.8 149.1,255.8 151.7,255.9 151.7,255.9 154.4,256.1 154.4,256.1 157,256.3 157,256.3 
				159.7,256.4 159.7,256.4 162.3,256.6 162.3,256.6 165,256.7 165,256.7 168.1,256.9 168.1,256.9 170.3,257.1 170.3,257.1 
				172.9,257.2 172.9,257.2 175.5,257.4 175.5,257.4 178.2,257.6 178.2,257.6 180.8,257.7 180.8,257.7 183.5,257.9 183.5,257.9 
				186.1,258 186.1,258 188.8,258.2 188.8,258.2 191.9,258.4 191.9,258.4 194.1,258.5 194.1,258.5 196.7,258.7 196.7,258.7 
				199.4,258.9 199.4,258.9 202,259 202,259 205.2,259.2 205.2,259.2 207.3,259.3 207.3,259.3 209.9,259.5 209.9,259.5 213.1,259.7 
				213.1,259.7 215.2,259.8 215.2,259.8 217.9,260 217.9,260 220.5,260.2 220.5,260.2 223.2,260.3 223.2,260.3 225.8,260.5 
				225.8,260.5 228.4,260.6 228.4,260.6 231.1,260.8 231.1,260.8 233.7,261 233.7,261 236.4,261.1 236.4,261.1 239,261.3 239,261.3 
				242.2,261.5 242.2,261.5 244.3,261.6 244.3,261.6 247,261.8 247,261.8 249.6,262 249.6,262 252.8,262.1 252.8,262.1 254.9,262.3 
				254.9,262.3 257.5,262.4 257.5,262.4 260.2,262.6 260.2,262.6 263.3,262.8 263.3,262.8 265.5,262.9 265.5,262.9 268.1,263.1 
				268.1,263.1 270.8,263.3 270.8,263.3 273.9,263.4 273.9,263.4 276.1,263.6 276.1,263.6 279.2,263.8 279.2,263.8 281.4,263.9 
				281.4,263.9 284,264.1 284,264.1 287.2,264.3 287.2,264.3 289.3,264.4 289.3,264.4 291.9,264.6 291.9,264.6 295.1,264.7 
				295.1,264.1 292.5,263.9 292.5,263.9 289.3,263.7 289.3,263.7 287.2,263.6 287.2,263.6 284.5,263.4 284.5,263.4 281.9,263.3 
				281.9,263.3 279.3,263.1 279.3,263.1 276.6,263 276.6,263 274,262.8 274,262.8 271.3,262.6 271.3,262.6 268.7,262.5 268.7,262.5 
				266,262.3 266,262.3 263.4,262.1 263.4,262.1 260.7,262 260.7,262 258.1,261.8 258.1,261.8 255.5,261.7 255.5,261.7 252.8,261.5 
				252.8,261.5 250.2,261.3 250.2,261.3 247.5,261.2 247.5,261.2 244.9,261 244.9,261 242.2,260.8 242.2,260.8 239.6,260.7 
				239.6,260.7 236.9,260.5 236.9,260.5 234.3,260.4 234.3,260.4 231.6,260.2 231.6,260.2 229,260 229,260 226.4,259.9 226.4,259.9 
				223.7,259.7 223.7,259.7 221.1,259.5 221.1,259.5 218.4,259.4 218.4,259.4 215.3,259.2 215.3,259.2 213.1,259.1 213.1,259.1 
				210.5,258.9 210.5,258.9 207.3,258.7 207.3,258.7 205.2,258.6 205.2,258.6 202.5,258.4 202.5,258.4 199.9,258.2 199.9,258.2 
				197.3,258.1 197.3,258.1 194.6,257.9 194.6,257.9 192,257.8 192,257.8 189.3,257.6 189.3,257.6 186.7,257.4 186.7,257.4 
				184,257.3 184,257.3 181.4,257.1 181.4,257.1 178.2,256.9 178.2,256.9 176.1,256.8 176.1,256.8 173.5,256.6 173.5,256.6 
				170.8,256.5 170.8,256.5 168.2,256.3 168.2,256.3 165.5,256.1 165.5,256.1 162.9,256 162.9,256 160.2,255.8 160.2,255.8 
				157.6,255.6 157.6,255.6 154.9,255.5 154.9,255.5 152.3,255.3 152.3,255.3 149.6,255.2 149.6,255.2 147,255 147,255 144.4,254.8 
				144.4,254.8 141.5,254.7 138.6,254.5 138.6,254.5 136.4,254.3 136.4,254.3 133.3,254.1 133.3,254.1 131.1,254 131.1,254 
				128,253.8 128,253.8 125.8,253.7 125.8,253.7 123.2,253.5 123.2,253.5 120.5,253.4 120.5,253.4 117.4,253.2 117.4,253.2 
				115.3,253 115.3,253 112.6,252.9 112.6,252.9 110,252.7 110,252.7 107.3,252.6 107.3,252.6 104.7,252.4 104.7,252.4 102,252.2 
				102,252.2 99.4,252.1 99.4,252.1 96.2,251.9 96.2,251.9 94.1,251.7 94.1,251.7 91.5,251.6 91.5,251.6 88.3,251.4 88.3,251.4 
				86.2,251.2 86.2,251.2 83.5,251.1 83.5,251.1 80.9,250.9 80.9,250.9 77.7,250.7 77.7,250.7 75.6,250.6 75.6,250.6 72.9,250.4 
				72.9,250.4 70.3,250.3 70.3,250.3 67.1,250.1 67.1,250.1 65,249.9 65,249.9 62.4,249.8 62.4,249.8 59.5,249.6 56.6,249.4 
				56.6,249.4 54.4,249.3 54.4,249.3 51.8,249.1 51.8,249.1 49.1,249 49.1,249 46,248.8 46,248.8 43.8,248.6 43.8,248.6 41.2,248.5 
				41.2,248.5 38,248.3 38,248.3 35.4,248.1 35.4,248.1 33.3,248 33.3,248 30.1,247.8 30.1,248.5 32.7,248.6 			"/>
			<polygon class="st2" points="31.4,270.6 34.5,270.8 34.5,270.8 36.6,270.9 36.6,270.9 39.3,271.1 39.3,271.1 41.9,271.2 
				41.9,271.2 45.1,271.4 45.1,271.4 47.2,271.5 47.2,271.5 49.9,271.7 49.9,271.7 52.5,271.9 52.5,271.9 55.7,272.1 55.7,272.1 
				57.8,272.2 57.8,272.2 60.5,272.4 60.5,272.4 63.1,272.5 63.1,272.5 66.3,272.7 66.3,272.7 68.4,272.8 68.4,272.8 71.5,273 
				71.5,273 73.7,273.2 73.7,273.2 76.3,273.3 76.3,273.3 79,273.5 79,273.5 81.6,273.7 81.6,273.7 84.3,273.8 84.3,273.8 86.9,274 
				86.9,274 89.6,274.2 89.6,274.2 92.2,274.3 92.2,274.3 94.8,274.5 94.8,274.5 97.5,274.6 97.5,274.6 100.1,274.8 100.1,274.8 
				102.8,275 102.8,275 105.4,275.1 105.4,275.1 108.1,275.3 108.1,275.3 110.7,275.5 110.7,275.5 113.4,275.6 113.4,275.6 
				116.5,275.8 116.5,275.8 118.6,275.9 118.6,275.9 121.3,276.1 121.3,276.1 123.9,276.3 123.9,276.3 126.6,276.4 126.6,276.4 
				129.2,276.6 129.2,276.6 131.9,276.8 131.9,276.8 134.5,276.9 134.5,276.9 137.2,277.1 137.2,277.1 139.8,277.2 139.8,277.2 
				142.5,277.4 142.5,277.4 145.6,277.6 145.6,277.6 147.7,277.7 147.7,277.7 150.4,277.9 150.4,277.9 153.5,278.1 153.5,278.1 
				155.7,278.2 155.7,278.2 158.3,278.4 158.3,278.4 161,278.5 161,278.5 163.6,278.7 163.6,278.7 166.3,278.9 166.3,278.9 
				168.9,279 168.9,279 171.6,279.2 171.6,279.2 174.2,279.4 174.2,279.4 176.8,279.5 176.8,279.5 179.5,279.7 179.5,279.7 
				182.6,279.9 182.6,279.9 184.8,280 184.8,280 187.4,280.2 187.4,280.2 190.1,280.3 190.1,280.3 192.7,280.5 192.7,280.5 
				195.4,280.7 195.4,280.7 198,280.8 198,280.8 200.6,281 200.6,281 203.3,281.1 203.3,281.1 205.9,281.3 205.9,281.3 208.6,281.5 
				208.6,281.5 211.2,281.6 211.2,281.6 213.9,281.8 213.9,281.8 216.5,282 216.5,282 219.2,282.1 219.2,282.1 221.8,282.3 
				221.8,282.3 224.5,282.4 224.5,282.4 227.6,282.6 227.6,282.6 229.7,282.8 229.7,282.8 232.4,282.9 232.4,282.9 235,283.1 
				235,283.1 237.7,283.3 237.7,283.3 240.3,283.4 240.3,283.4 243,283.6 243,283.6 245.6,283.7 245.6,283.7 248.3,283.9 
				248.3,283.9 250.9,284.1 250.9,284.1 253.5,284.2 253.5,284.2 256.2,284.4 256.2,284.4 258.8,284.6 258.8,284.6 261.5,284.7 
				261.5,284.7 264.6,284.9 264.6,284.9 266.8,285 266.8,285 269.4,285.2 269.4,285.2 272.1,285.4 272.1,285.4 274.7,285.5 
				274.7,285.5 277.4,285.7 277.4,285.7 280,285.9 280,285.9 282.6,286 282.6,286 285.3,286.2 285.3,286.2 287.9,286.3 287.9,286.3 
				290.6,286.5 290.6,286.5 293.7,286.7 293.8,286.1 290.6,285.9 290.6,285.9 288.5,285.7 288.5,285.7 285.8,285.6 285.8,285.6 
				283.2,285.4 283.2,285.4 280,285.2 280,285.2 277.9,285.1 277.9,285.1 274.8,284.9 274.8,284.9 272.6,284.8 272.6,284.8 
				270,284.6 270,284.6 266.8,284.4 266.8,284.4 264.7,284.3 264.7,284.3 261.5,284.1 261.5,284.1 259.4,283.9 259.4,283.9 
				256.7,283.8 256.7,283.8 254.1,283.6 254.1,283.6 250.9,283.4 250.9,283.4 248.8,283.3 248.8,283.3 246.2,283.1 246.2,283.1 
				243.5,283 243.5,283 240.4,282.8 240.4,282.8 237.7,282.6 237.7,282.6 235.6,282.5 235.6,282.5 232.9,282.3 232.9,282.3 
				229.8,282.1 229.8,282.1 227.6,282 227.6,282 225,281.8 225,281.8 222.4,281.7 222.4,281.7 219.2,281.5 219.2,281.5 217.1,281.3 
				217.1,281.3 214.4,281.2 214.4,281.2 211.3,281 211.3,281 208.6,280.8 208.6,280.8 206.5,280.7 206.5,280.7 203.8,280.5 
				203.8,280.5 200.7,280.3 200.7,280.3 198,280.2 198,280.2 195.9,280 195.9,280 193.1,279.9 190.1,279.7 190.1,279.7 188,279.6 
				188,279.6 185.3,279.4 185.3,279.4 182.7,279.2 182.7,279.2 179.5,279 179.5,279 177.4,278.9 177.4,278.9 174.7,278.7 
				174.7,278.7 172.1,278.6 172.1,278.6 168.9,278.4 168.9,278.4 166.8,278.3 166.8,278.3 164.2,278.1 164.2,278.1 161,277.9 
				161,277.9 158.4,277.7 158.4,277.7 155.7,277.6 155.7,277.6 153.6,277.4 153.6,277.4 150.4,277.2 150.4,277.2 147.8,277.1 
				147.8,277.1 145.6,276.9 145.6,276.9 143,276.8 143,276.8 140.4,276.6 140.4,276.6 137.2,276.4 137.2,276.4 135.1,276.3 
				135.1,276.3 132.4,276.1 132.4,276.1 129.8,276 129.8,276 126.6,275.8 126.6,275.8 124.5,275.6 124.5,275.6 121.8,275.5 
				121.8,275.5 119.2,275.3 119.2,275.3 118.9,275.3 118.7,275.3 118.7,275.3 116,275.1 116,275.1 113.9,275 113.9,275 110.8,274.8 
				110.8,274.8 108.1,274.6 108.1,274.6 106,274.5 106,274.5 103.3,274.3 103.3,274.3 100.2,274.2 100.2,274.2 97.5,274 97.5,274 
				95.4,273.9 95.4,273.9 92.7,273.7 92.7,273.7 90.1,273.5 90.1,273.5 86.9,273.3 86.9,273.3 84.8,273.2 84.8,273.2 82,273 
				79.5,272.9 79.5,272.9 76.4,272.7 76.4,272.7 73.7,272.5 73.7,272.5 71.6,272.4 71.6,272.4 68.9,272.2 68.9,272.2 65.8,272 
				65.8,272 63.7,271.9 63.7,271.9 61,271.7 61,271.7 58.4,271.6 58.4,271.6 55.2,271.4 55.2,271.4 53.1,271.3 53.1,271.3 
				49.9,271.1 49.9,271.1 47.8,270.9 47.8,270.9 44.6,270.7 44.6,270.7 42.5,270.6 42.5,270.6 39.8,270.4 39.8,270.4 37.2,270.3 
				37.2,270.3 34,270.1 34,270.1 31.9,270 31.9,270 28.8,269.8 28.7,270.4 31.4,270.6 			"/>
			<polygon class="st2" points="289.7,308.5 292.4,308.7 292.4,308 289.3,307.8 289.3,307.8 287.1,307.7 287.1,307.7 284,307.5 
				284,307.5 281.8,307.4 281.8,307.4 278.7,307.2 278.7,307.2 276.6,307 276.6,307 273.4,306.8 273.4,306.8 270.8,306.7 
				270.8,306.7 268.6,306.6 268.6,306.6 266,306.4 266,306.4 263.3,306.2 263.3,306.2 260.2,306 260.2,306 258,305.9 258,305.9 
				255.4,305.7 255.4,305.7 252.8,305.6 252.8,305.6 252.4,305.6 252.2,305.5 252.2,305.5 249.6,305.4 249.6,305.4 247.5,305.3 
				247.5,305.3 244.8,305.1 244.8,305.1 242.2,304.9 242.2,304.9 239,304.7 239,304.7 236.9,304.6 236.9,304.6 233.7,304.4 
				233.7,304.4 231.6,304.3 231.6,304.3 228.4,304.1 228.4,304.1 226.3,303.9 226.3,303.9 223.1,303.8 223.1,303.8 221,303.6 
				221,303.6 217.9,303.4 217.9,303.4 215.5,303.3 213.1,303.1 213.1,303.1 210.4,303 210.4,303 207.3,302.8 207.3,302.8 
				205.1,302.6 205.1,302.6 202.5,302.5 202.5,302.5 199.8,302.3 199.8,302.3 196.7,302.1 196.7,302.1 194.6,302 194.6,302 
				191.9,301.8 191.9,301.8 188.8,301.6 188.8,301.6 186.6,301.5 186.6,301.5 183.5,301.3 183.5,301.3 181.3,301.2 181.3,301.2 
				178.2,301 178.2,301 176,300.9 176,300.9 172.9,300.7 172.9,300.7 170.8,300.5 170.8,300.5 167.6,300.3 167.6,300.3 165.5,300.2 
				165.5,300.2 162.8,300 162.8,300 160.2,299.9 160.2,299.9 157,299.7 157,299.7 154.9,299.6 154.9,299.6 152.2,299.4 152.2,299.4 
				149.6,299.2 149.6,299.2 146.4,299 146.4,299 144.3,298.9 144.3,298.9 141.7,298.7 141.7,298.7 141.3,298.7 141.1,298.7 
				141.1,298.7 139,298.6 139,298.6 135.9,298.4 135.9,298.4 133.5,298.2 131.1,298.1 131.1,298.1 128.4,297.9 128.4,297.9 
				125.3,297.7 125.3,297.7 122.6,297.6 122.6,297.6 120.5,297.4 120.5,297.4 117.8,297.3 117.8,297.3 114.7,297.1 114.7,297.1 
				112.6,297 112.6,297 109.9,296.8 109.9,296.8 106.8,296.6 106.8,296.6 104.6,296.5 104.6,296.5 102,296.3 102,296.3 99.3,296.1 
				99.3,296.1 96.2,295.9 96.2,295.9 94,295.8 94,295.8 91.4,295.7 91.4,295.7 88.8,295.5 88.8,295.5 85.6,295.3 85.6,295.3 
				83.5,295.2 83.5,295.2 80.8,295 80.8,295 78.2,294.8 78.2,294.8 75,294.6 75,294.6 72.4,294.5 72.4,294.5 70.2,294.4 70.2,294.4 
				67.1,294.2 67.1,294.2 64.4,294 64.4,294 61.8,293.8 61.8,293.8 59.7,293.7 59.7,293.7 59.3,293.7 59.1,293.7 59.1,293.7 
				57,293.5 57,293.5 53.9,293.3 53.9,293.3 51.7,293.2 51.7,293.2 49.1,293.1 49.1,293.1 46.4,292.9 46.4,292.9 43.3,292.7 
				43.3,292.7 41.1,292.6 41.1,292.6 38.5,292.4 38.5,292.4 35.8,292.2 35.8,292.2 32.7,292 32.7,292 30.6,291.9 30.6,291.9 
				27.4,291.7 27.4,292.4 30,292.5 30,292.5 33.2,292.7 33.2,292.7 35.3,292.9 35.3,292.9 38.5,293 38.5,293 40.6,293.2 40.6,293.2 
				43.7,293.4 43.7,293.4 45.9,293.5 45.9,293.5 48.5,293.7 48.5,293.7 48.9,293.7 49,293.7 49,293.7 51.2,293.8 51.2,293.8 
				54.3,294 54.3,294 56.6,294.2 59.1,294.3 59.1,294.3 61.7,294.5 61.7,294.5 64.9,294.7 64.9,294.7 67,294.8 67,294.8 69.7,295 
				69.7,295 72.3,295.1 72.3,295.1 75.5,295.3 75.5,295.3 78.1,295.5 78.1,295.5 80.3,295.6 80.3,295.6 82.9,295.8 82.9,295.8 
				86.1,296 86.1,296 88.7,296.1 88.7,296.1 90.8,296.3 90.8,296.3 94,296.5 94,296.5 96.6,296.6 96.6,296.6 98.8,296.8 98.8,296.8 
				101.4,296.9 101.4,296.9 104.1,297.1 104.1,297.1 107.2,297.3 107.2,297.3 109.4,297.4 109.4,297.4 112,297.6 112,297.6 
				115.2,297.8 115.2,297.8 117.3,297.9 117.3,297.9 119.9,298.1 119.9,298.1 123.1,298.3 123.1,298.3 125.7,298.4 125.7,298.4 
				128.4,298.6 128.4,298.6 130.5,298.7 130.5,298.7 130.8,298.7 131,298.7 131,298.7 133.2,298.9 133.2,298.9 136.3,299.1 
				136.3,299.1 139,299.2 139,299.2 141.1,299.4 141.1,299.4 143.7,299.5 143.7,299.5 146.9,299.7 146.9,299.7 149,299.8 149,299.8 
				151.7,300 151.7,300 154.3,300.2 154.3,300.2 157.5,300.4 157.5,300.4 159.6,300.5 159.6,300.5 162.3,300.7 162.3,300.7 
				164.9,300.8 164.9,300.8 168.1,301 168.1,301 170.2,301.2 170.2,301.2 172.8,301.3 172.8,301.3 175.5,301.5 175.5,301.5 
				178.6,301.7 178.6,301.7 180.8,301.8 180.8,301.8 183.4,302 183.4,302 186.1,302.1 186.1,302.1 189.2,302.3 189.2,302.3 
				191.4,302.5 191.4,302.5 194,302.6 194,302.6 197.2,302.8 197.2,302.8 199.3,302.9 199.3,302.9 201.9,303.1 201.9,303.1 
				205.1,303.3 205.1,303.3 207.7,303.5 207.7,303.5 209.9,303.6 209.9,303.6 213,303.8 213,303.8 215.2,303.9 215.2,303.9 
				218.3,304.1 218.3,304.1 220.5,304.2 220.5,304.2 223.1,304.4 223.1,304.4 225.7,304.6 225.7,304.6 228.9,304.8 228.9,304.8 
				231,304.9 231,304.9 233.7,305.1 233.7,305.1 236.3,305.2 236.3,305.2 239.5,305.4 239.5,305.4 241.6,305.5 241.6,305.5 
				241.9,305.6 242.1,305.6 242.1,305.6 244.3,305.7 244.3,305.7 246.9,305.9 246.9,305.9 250.1,306.1 250.1,306.1 252.2,306.2 
				252.2,306.2 254.8,306.4 254.8,306.4 257.5,306.5 257.5,306.5 260.1,306.7 260.1,306.7 262.8,306.8 262.8,306.8 265.4,307 
				265.4,307 268.1,307.2 268.1,307.2 270.7,307.3 270.7,307.3 273.4,307.5 273.4,307.5 276,307.7 276,307.7 279.2,307.9 
				279.2,307.9 281.3,308 281.3,308 283.9,308.1 283.9,308.1 287.1,308.3 287.1,308.3 289.7,308.5 			"/>
		</g>
		<g>
			<path class="st3" d="M116.8,13.2c-1.9-3.2-4.2-6.1-6.1-9.2c-0.7-1.1-1.7-2.6-2.1-4L0,64.1C2.2,66,4,70.2,5.1,72
				c3.6,5.9,7.2,11.8,10.6,17.8L124,25.9C120.9,22.2,119.2,17.4,116.8,13.2z"/>
		</g>
	</g>
</g>
</svg>
